<!-- Generator: Adobe Illustrator 22.0.0, SVG Export Plug-In  -->
<svg version="1.1"
	 xmlns="http://www.w3.org/2000/svg" xmlns:xlink="http://www.w3.org/1999/xlink" xmlns:a="http://ns.adobe.com/AdobeSVGViewerExtensions/3.0/"
	 x="0px" y="0px" width="39.1px" height="39.2px" viewBox="0 0 39.1 39.2" style="enable-background:new 0 0 39.1 39.2;"
	 xml:space="preserve">
<style type="text/css">
	.st0{fill:#FFD040;stroke:#000000;stroke-miterlimit:10;}
</style>
<defs>
</defs>
<g>
	<g>
		<g>
			<path class="st0" d="M37.7,23.3c-0.1-0.3-0.2-0.6-0.3-0.9c-0.1-0.3-0.1-0.7-0.1-1.2c0-0.5,0.1-0.9,0.3-1.2
				c0.1-0.3,0.3-0.6,0.5-0.8c0.2-0.3,0.3-0.5,0.4-0.9c0.1-0.3,0.2-0.8,0.1-1.3c-0.1-0.5-0.2-0.9-0.4-1.2c-0.2-0.3-0.4-0.5-0.6-0.7
				c-0.2-0.2-0.5-0.4-0.7-0.7c-0.2-0.3-0.4-0.6-0.6-1.1C36,12.9,36,12.5,36,12.2c0-0.3,0-0.6,0.1-1c0-0.3,0.1-0.6,0-1
				C36,9.9,35.8,9.5,35.5,9c-0.3-0.4-0.6-0.7-0.9-0.9c-0.3-0.2-0.6-0.3-0.9-0.4c-0.3-0.1-0.6-0.2-0.9-0.3c-0.3-0.1-0.6-0.4-1-0.7
				c-0.4-0.3-0.6-0.7-0.7-1c-0.2-0.3-0.3-0.6-0.4-0.9c-0.1-0.3-0.2-0.6-0.4-0.9c-0.2-0.3-0.5-0.6-1-0.9c-0.5-0.3-0.9-0.4-1.2-0.4
				c-0.4,0-0.7,0-1,0.1c-0.3,0-0.6,0.1-1,0.1c-0.3,0-0.7,0-1.2-0.2c-0.5-0.2-0.8-0.3-1.1-0.5c-0.3-0.2-0.5-0.4-0.7-0.6
				c-0.2-0.2-0.4-0.4-0.8-0.6c-0.3-0.2-0.7-0.3-1.2-0.4c-0.5,0-0.9,0-1.3,0.1c-0.3,0.1-0.6,0.3-0.9,0.5c-0.3,0.2-0.5,0.4-0.8,0.5
				C18,1.8,17.6,1.9,17.1,2C16.6,2,16.3,2,15.9,2c-0.3-0.1-0.6-0.2-0.9-0.3c-0.3-0.1-0.6-0.2-0.9-0.2c-0.4,0-0.8,0-1.3,0.2
				c-0.5,0.2-0.8,0.4-1.1,0.7c-0.2,0.3-0.4,0.5-0.6,0.8C11,3.4,10.8,3.7,10.6,4c-0.2,0.3-0.5,0.5-0.9,0.8C9.3,5,8.9,5.2,8.6,5.3
				C8.3,5.4,8,5.4,7.7,5.4c-0.3,0-0.6,0.1-1,0.2C6.4,5.8,6,6,5.7,6.4C5.3,6.8,5.1,7.1,5,7.5c-0.1,0.3-0.1,0.7-0.2,1
				c0,0.3,0,0.6-0.1,1c-0.1,0.3-0.2,0.7-0.5,1.1c-0.3,0.4-0.5,0.7-0.8,0.9c-0.3,0.2-0.5,0.4-0.8,0.5c-0.3,0.2-0.5,0.3-0.8,0.6
				c-0.2,0.3-0.5,0.6-0.6,1.1c-0.2,0.5-0.2,0.9-0.1,1.3c0,0.4,0.2,0.6,0.3,0.9c0.1,0.3,0.2,0.6,0.3,0.9c0.1,0.3,0.1,0.7,0.1,1.2
				c0,0.5-0.1,0.9-0.3,1.2c-0.1,0.3-0.3,0.6-0.5,0.8c-0.2,0.3-0.3,0.5-0.4,0.9c-0.1,0.3-0.2,0.8-0.1,1.3c0.1,0.5,0.2,0.9,0.4,1.2
				c0.2,0.3,0.4,0.5,0.6,0.7c0.2,0.2,0.5,0.4,0.7,0.7c0.2,0.3,0.4,0.6,0.6,1.1c0.2,0.5,0.2,0.8,0.3,1.2c0,0.3,0,0.6-0.1,1
				s-0.1,0.6,0,1c0.1,0.4,0.2,0.7,0.5,1.2c0.3,0.4,0.6,0.7,0.9,0.9c0.3,0.2,0.6,0.3,0.9,0.4c0.3,0.1,0.6,0.2,0.9,0.3
				c0.3,0.1,0.6,0.4,1,0.7c0.4,0.3,0.6,0.7,0.7,1c0.2,0.3,0.3,0.6,0.4,0.9c0.1,0.3,0.2,0.6,0.4,0.9c0.2,0.3,0.5,0.6,1,0.9
				c0.5,0.3,0.9,0.4,1.2,0.4c0.4,0,0.7,0,1-0.1c0.3,0,0.6-0.1,1-0.1c0.3,0,0.7,0,1.2,0.2c0.5,0.2,0.8,0.3,1.1,0.5
				c0.3,0.2,0.5,0.4,0.7,0.6c0.2,0.2,0.4,0.4,0.8,0.6c0.3,0.2,0.7,0.3,1.2,0.4c0.5,0,0.9,0,1.3-0.1c0.3-0.1,0.6-0.3,0.9-0.5
				c0.3-0.2,0.5-0.4,0.8-0.5c0.3-0.1,0.7-0.3,1.2-0.3c0.5-0.1,0.9-0.1,1.2,0c0.3,0.1,0.6,0.2,0.9,0.3c0.3,0.1,0.6,0.2,0.9,0.2
				c0.4,0,0.8,0,1.3-0.2c0.5-0.2,0.8-0.4,1.1-0.7c0.2-0.3,0.4-0.5,0.6-0.8c0.2-0.3,0.3-0.5,0.5-0.8c0.2-0.3,0.5-0.5,0.9-0.8
				c0.4-0.3,0.8-0.4,1.1-0.5c0.3-0.1,0.6-0.1,0.9-0.2c0.3,0,0.6-0.1,1-0.2c0.3-0.1,0.7-0.3,1.1-0.7c0.4-0.4,0.6-0.8,0.7-1.1
				c0.1-0.3,0.1-0.7,0.2-1c0-0.3,0-0.6,0.1-1c0.1-0.3,0.2-0.7,0.5-1.1c0.3-0.4,0.5-0.7,0.8-0.9c0.3-0.2,0.5-0.4,0.8-0.5
				c0.3-0.2,0.5-0.3,0.8-0.6c0.2-0.3,0.5-0.6,0.6-1.1c0.2-0.5,0.2-0.9,0.1-1.3C37.9,23.9,37.8,23.6,37.7,23.3"/>
		</g>
	</g>
</g>
</svg>
