<!-- Generator: Adobe Illustrator 22.0.0, SVG Export Plug-In  -->
<svg version="1.1"
	 xmlns="http://www.w3.org/2000/svg" xmlns:xlink="http://www.w3.org/1999/xlink" xmlns:a="http://ns.adobe.com/AdobeSVGViewerExtensions/3.0/"
	 x="0px" y="0px" width="38.1px" height="38.2px" viewBox="0 0 38.1 38.2" style="enable-background:new 0 0 38.1 38.2;"
	 xml:space="preserve">
<style type="text/css">
	.st0{fill:#FFD040;}
</style>
<defs>
</defs>
<g>
	<g>
		<g>
			<path class="st0" d="M37.2,22.8c-0.1-0.3-0.2-0.6-0.3-0.9c-0.1-0.3-0.1-0.7-0.1-1.2c0-0.5,0.1-0.9,0.3-1.2
				c0.1-0.3,0.3-0.6,0.5-0.8c0.2-0.3,0.3-0.5,0.4-0.9c0.1-0.3,0.2-0.8,0.1-1.3c-0.1-0.5-0.2-0.9-0.4-1.2c-0.2-0.3-0.4-0.5-0.6-0.7
				c-0.2-0.2-0.5-0.4-0.7-0.7c-0.2-0.3-0.4-0.6-0.6-1.1c-0.2-0.5-0.2-0.8-0.3-1.2c0-0.3,0-0.6,0.1-1c0-0.3,0.1-0.6,0-1
				C35.5,9.4,35.3,9,35,8.5c-0.3-0.4-0.6-0.7-0.9-0.9c-0.3-0.2-0.6-0.3-0.9-0.4c-0.3-0.1-0.6-0.2-0.9-0.3c-0.3-0.1-0.6-0.4-1-0.7
				c-0.4-0.3-0.6-0.7-0.7-1c-0.2-0.3-0.3-0.6-0.4-0.9c-0.1-0.3-0.2-0.6-0.4-0.9c-0.2-0.3-0.5-0.6-1-0.9c-0.5-0.3-0.9-0.4-1.2-0.4
				c-0.4,0-0.7,0-1,0.1c-0.3,0-0.6,0.1-1,0.1c-0.3,0-0.7,0-1.2-0.2c-0.5-0.2-0.8-0.3-1.1-0.5C23.2,1.4,23,1.2,22.7,1
				c-0.2-0.2-0.4-0.4-0.8-0.6c-0.3-0.2-0.7-0.3-1.2-0.4c-0.5,0-0.9,0-1.3,0.1c-0.3,0.1-0.6,0.3-0.9,0.5c-0.3,0.2-0.5,0.4-0.8,0.5
				c-0.3,0.1-0.7,0.3-1.2,0.3c-0.5,0.1-0.9,0.1-1.2,0c-0.3-0.1-0.6-0.2-0.9-0.3C14.2,1.1,13.9,1,13.6,1c-0.4,0-0.8,0-1.3,0.2
				c-0.5,0.2-0.8,0.4-1.1,0.7c-0.2,0.3-0.4,0.5-0.6,0.8c-0.2,0.3-0.3,0.5-0.5,0.8C9.9,3.7,9.6,4,9.2,4.3C8.8,4.5,8.4,4.7,8.1,4.8
				C7.8,4.9,7.5,4.9,7.2,4.9C6.9,5,6.5,5,6.2,5.1C5.9,5.3,5.5,5.5,5.2,5.9C4.8,6.3,4.6,6.6,4.5,7c-0.1,0.3-0.1,0.7-0.2,1
				c0,0.3,0,0.6-0.1,1C4.1,9.2,4,9.6,3.7,10c-0.3,0.4-0.5,0.7-0.8,0.9c-0.3,0.2-0.5,0.4-0.8,0.5c-0.3,0.2-0.5,0.3-0.8,0.6
				c-0.2,0.3-0.5,0.6-0.6,1.1c-0.2,0.5-0.2,0.9-0.1,1.3c0,0.4,0.2,0.6,0.3,0.9C1,15.7,1.2,16,1.2,16.3c0.1,0.3,0.1,0.7,0.1,1.2
				c0,0.5-0.1,0.9-0.3,1.2c-0.1,0.3-0.3,0.6-0.5,0.8c-0.2,0.3-0.3,0.5-0.4,0.9C0,20.8,0,21.2,0,21.7c0.1,0.5,0.2,0.9,0.4,1.2
				c0.2,0.3,0.4,0.5,0.6,0.7c0.2,0.2,0.5,0.4,0.7,0.7c0.2,0.3,0.4,0.6,0.6,1.1c0.2,0.5,0.2,0.8,0.3,1.2c0,0.3,0,0.6-0.1,1
				s-0.1,0.6,0,1c0.1,0.4,0.2,0.7,0.5,1.2c0.3,0.4,0.6,0.7,0.9,0.9c0.3,0.2,0.6,0.3,0.9,0.4c0.3,0.1,0.6,0.2,0.9,0.3
				c0.3,0.1,0.6,0.4,1,0.7c0.4,0.3,0.6,0.7,0.7,1c0.2,0.3,0.3,0.6,0.4,0.9c0.1,0.3,0.2,0.6,0.4,0.9c0.2,0.3,0.5,0.6,1,0.9
				c0.5,0.3,0.9,0.4,1.2,0.4c0.4,0,0.7,0,1-0.1c0.3,0,0.6-0.1,1-0.1c0.3,0,0.7,0,1.2,0.2c0.5,0.2,0.8,0.3,1.1,0.5
				c0.3,0.2,0.5,0.4,0.7,0.6c0.2,0.2,0.4,0.4,0.8,0.6c0.3,0.2,0.7,0.3,1.2,0.4c0.5,0,0.9,0,1.3-0.1c0.3-0.1,0.6-0.3,0.9-0.5
				c0.3-0.2,0.5-0.4,0.8-0.5c0.3-0.1,0.7-0.3,1.2-0.3c0.5-0.1,0.9-0.1,1.2,0c0.3,0.1,0.6,0.2,0.9,0.3c0.3,0.1,0.6,0.2,0.9,0.2
				c0.4,0,0.8,0,1.3-0.2c0.5-0.2,0.8-0.4,1.1-0.7c0.2-0.3,0.4-0.5,0.6-0.8c0.2-0.3,0.3-0.5,0.5-0.8c0.2-0.3,0.5-0.5,0.9-0.8
				c0.4-0.3,0.8-0.4,1.1-0.5c0.3-0.1,0.6-0.1,0.9-0.2c0.3,0,0.6-0.1,1-0.2c0.3-0.1,0.7-0.3,1.1-0.7c0.4-0.4,0.6-0.8,0.7-1.1
				c0.1-0.3,0.1-0.7,0.2-1c0-0.3,0-0.6,0.1-1c0.1-0.3,0.2-0.7,0.5-1.1c0.3-0.4,0.5-0.7,0.8-0.9c0.3-0.2,0.5-0.4,0.8-0.5
				c0.3-0.2,0.5-0.3,0.8-0.6c0.2-0.3,0.5-0.6,0.6-1.1c0.2-0.5,0.2-0.9,0.1-1.3C37.4,23.4,37.3,23.1,37.2,22.8"/>
		</g>
	</g>
</g>
</svg>
