<!-- Generator: Adobe Illustrator 22.0.0, SVG Export Plug-In  -->
<svg version="1.1"
	 xmlns="http://www.w3.org/2000/svg" xmlns:xlink="http://www.w3.org/1999/xlink" xmlns:a="http://ns.adobe.com/AdobeSVGViewerExtensions/3.0/"
	 x="0px" y="0px" width="512px" height="420.4px" viewBox="0 0 512 420.4" style="enable-background:new 0 0 512 420.4;"
	 xml:space="preserve">
<defs>
</defs>
<path d="M480.2,0H31.8C14.3,0,0,14.3,0,31.8v37.5c0,17.6,14.3,31.8,31.8,31.8h14.9l164.6,164.6v144.1c0,4.3,2.6,8.2,6.6,9.8
	c1.3,0.5,2.7,0.8,4.1,0.8c2.8,0,5.5-1.1,7.5-3.1l68.6-68.6c2-2,3.1-4.7,3.1-7.5v-75.5l164.6-164.6h14.5c17.6,0,31.8-14.3,31.8-31.8
	V31.8C512,14.3,497.7,0,480.2,0z M283,253.8c-2.1,2.1-3.1,4.9-3.1,7.6v75.4l-47.3,47.3V261.3c0-2.7-1-5.5-3.1-7.5L76.8,101.2h358.9
	L283,253.8z M490.8,69.3c0,5.9-4.8,10.6-10.6,10.6H31.8c-5.9,0-10.6-4.8-10.6-10.6V31.8c0-5.9,4.8-10.6,10.6-10.6h448.3
	c5.9,0,10.6,4.8,10.6,10.6V69.3z"/>
</svg>
