<!-- Generator: Adobe Illustrator 22.0.0, SVG Export Plug-In  -->
<svg version="1.1"
	 xmlns="http://www.w3.org/2000/svg" xmlns:xlink="http://www.w3.org/1999/xlink" xmlns:a="http://ns.adobe.com/AdobeSVGViewerExtensions/3.0/"
	 x="0px" y="0px" width="29.2px" height="32px" viewBox="0 0 29.2 32" style="enable-background:new 0 0 29.2 32;"
	 xml:space="preserve">
<style type="text/css">
	.st0{fill:#6CA765;}
	.st1{fill:#5B8A47;}
	.st2{fill:#B2D568;}
	.st3{fill:#C6E398;}
	.st4{fill:#95B08E;}
	.st5{fill:#F0FDC5;}
	.st6{fill:#B3CA9A;}
</style>
<defs>
</defs>
<g>
	<path class="st0" d="M17.5,7.9c2.9,1.7,6.2,3.1,9.4,4.2c-2.3-1.8-4.9-3.1-7.6-4.3C18.8,7.6,18,7.8,17.5,7.9z"/>
	<path class="st0" d="M12.8,15.6c0,0,0,0.1,0,0.1c0.1,0.3,0.2,0.6,0.3,0.8c0.2,0.7,0.4,1.5,0.7,2.2c0.3,0.7,0.6,1.4,0.9,2.1
		c1.6,3.3,5.2,7.5,3.5,4.1c0,0-1-1.8-1.8-3.4c-0.8-1.6-1.5-3.3-2.3-4.9c0,0,0-0.1-0.1-0.1c-0.1-0.3-0.3-0.6-0.5-0.8
		c-0.1-0.1-0.3-0.2-0.4-0.3c-0.1,0-0.1-0.1-0.2-0.1c-0.1-0.1-0.3-0.1-0.3-0.2C12.7,15.3,12.7,15.5,12.8,15.6z"/>
	<path class="st0" d="M19.4,16.6L19.4,16.6c1,1.9,3.8,4.6,4,4.5c0,0-0.1-0.2-0.1-0.3c-0.4-0.8-1.1-1.5-1.6-2.3
		c-0.3-0.5-0.5-1-0.9-1.4C20.3,16.8,19.9,16.6,19.4,16.6z"/>
	<path class="st0" d="M13.7,12.6C13.7,12.6,13.7,12.6,13.7,12.6c-0.5,0.1-1,0.3-1.6,0.4c-0.5,0.1-0.9,0.2-1.4,0.3
		c-0.6,0.1-1.1,0.3-1.7,0.4c-0.6,0.2-1.2,0.3-1.8,0.5c-0.6,0.2-1.2,0.4-1.8,0.6c-0.5,0.2-1.1,0.4-1.6,0.7c-1.4,0.7-2.8,1.6-3.9,2.7
		c6.2-2.4,9.6-3.7,12.6-5.1c0.4-0.2,0.9-0.3,1.3-0.6C13.8,12.6,13.7,12.6,13.7,12.6z"/>
	<path class="st0" d="M16.4,9.1c2,2.8,5.4,4.7,10,8c-1.2-1.9-2.9-3.2-7.1-6.6C18.6,9.9,17.4,9.3,16.4,9.1z"/>
	<path class="st0" d="M15.2,10.7c0,0.1,0.3,0.3,0.4,0.4c0.9,1.8,2.6,2.9,4.3,3.9C18.9,13.1,17.3,11,15.2,10.7z"/>
	<path class="st0" d="M22.5,23.8c0.1-0.1,0.1-0.2,0-0.4c-1.2-2.4-11.4-16.9-7.3-8.9C17,18,19.8,20.9,22.5,23.8z"/>
	<path class="st0" d="M12.4,16.4c0.7,2,1.3,4.2,2.3,6.2c1.3,2.6,4.6,6.5,3,3.2c-0.8-1.6-1.9-3.1-2.7-4.8c-1-2-0.8-2.5-1.3-3.5
		c-0.3-0.6-0.8-1.2-1.4-1.4C12.3,16.1,12.4,16.3,12.4,16.4z"/>
	<path class="st0" d="M11.7,19.3c0.4,2.4,1,4.9,2.1,7.2c0.4,0.9,0.9,1.7,1.5,2.4c0,0,0,0,0,0c0.5-0.2-2.1-7.6-2.4-8.1
		C12.6,20.2,12.2,19.7,11.7,19.3z"/>
	<path class="st0" d="M12.9,14c-0.2,0.1-0.3,0.1-0.5,0.2c-0.1,0.1-0.3,0.1-0.4,0.1c-0.3,0.1-0.5,0.2-0.8,0.3c-0.7,0.2-1.3,0.5-2,0.7
		c-0.5,0.2-0.9,0.4-1.3,0.6c-5.1,2.5-0.5,1.1,1.6,0c0.7-0.3,1.4-0.7,2.1-1.1c0.2-0.1,0.5-0.3,0.7-0.4c0.1-0.1,0.2-0.1,0.3-0.2
		c0,0,0.4-0.2,0.3-0.2C13,13.9,13,14,12.9,14C12.9,14,12.9,14,12.9,14z"/>
	<path class="st1" d="M15.9,10.4c0.1,0.1,0.1,0.1,0.2,0.2c0.1,0.2,0.2,0.4,0.3,0.5c0.4,0.6,0.8,1.2,1.2,1.8c0.4,0.6,0.9,1.2,1.4,1.7
		c0.5,0.6,1,1.1,1.5,1.6c0.5,0.5,1,1,1.6,1.5c0.5,0.5,1.1,1,1.6,1.5c0.3,0.2,0.6,0.5,0.8,0.7c0.1,0.1,0.3,0.2,0.4,0.4
		c0.1,0.1,0.1,0.1,0.2,0.2c0,0,0.1,0.1,0.1,0.1c0,0,0.1,0,0.1,0.1c-0.1-0.2-0.2-0.4-0.3-0.6c-0.3-0.6-0.7-1.2-1.1-1.8
		c-0.3-0.5-0.7-1.1-1.1-1.6c-0.3-0.5-0.7-0.9-1.1-1.4c-0.3-0.4-0.7-0.8-1-1.2c-0.3-0.3-0.6-0.7-1-1c-0.3-0.3-0.6-0.6-0.9-0.8
		c-0.3-0.2-0.5-0.5-0.8-0.7c-0.2-0.2-0.5-0.4-0.7-0.5c-0.2-0.1-0.4-0.3-0.6-0.4c-0.2-0.1-0.3-0.2-0.5-0.3c-0.1,0-0.1-0.1-0.2-0.1
		c-0.2-0.1-0.3-0.2-0.5-0.2c0,0,0,0,0,0c0,0,0,0,0,0C15.7,10.2,15.8,10.3,15.9,10.4z"/>
	<path class="st1" d="M14.7,11.3c0,0,0.3,0.2,0.3,0.2c0.6,1.1,1.8,1.8,2.9,2.3C17.4,12.7,16,11.3,14.7,11.3z"/>
	<path class="st1" d="M13.5,13.5c0.7,2.2,1.8,4.4,2.8,6.4c0.3,0.6,0.3,0.5,0.8,1.6c0.1,0.1,0.1,0.3,0.2,0.4c2.4,4.9,4.9,6.9,0.9-1.2
		c-0.8-1.6-1.6-3.1-2.4-4.7c0-0.1-0.1-0.2-0.1-0.3C15.3,14.9,14.3,13.9,13.5,13.5z"/>
	<path class="st2" d="M25.5,21c0.2,0.1,0.1,0.2,0.3,0c-2.8-3.3-6.5-5.3-10.2-7.6c-0.5-0.3-1.4-0.5-2-0.3
		C17.1,16.2,21.6,18.5,25.5,21z"/>
	<path class="st2" d="M11.9,17.7c0.6,1.2,0.5,4.4,2.4,8.1c0.5,1.1,1.2,2.1,2,3c-0.4-2.3-3-9-3.2-9.3C12.8,18.8,12.3,18.2,11.9,17.7z
		"/>
	<path class="st1" d="M11.2,20.9c-0.2,3,0.5,9.3,0.5,9.4c0.1,0.3,0.5,0.4,0.7,0.3c0.4-0.2-0.4-2.1-0.7-7.9
		C11.7,22.1,11.3,21.6,11.2,20.9z"/>
	<path class="st2" d="M11,21.8c-0.7,3.1-1.3,6-2.5,9.2c-0.1,0.2-0.3,0.5-0.2,0.7C8.5,32,8.9,32,9.1,31.9c0.1-0.1,0.2-0.1,0.2-0.2
		C10.3,28.4,10.9,25.3,11,21.8z"/>
	<path class="st2" d="M11.5,19.2c-0.1,0-0.2,0-0.2,0.1c-0.2,0.1-0.4,0.3-0.5,0.5c-0.9,1.7-8.3,10.3-6,9.2c0.2-0.1,0.4-0.4,0.6-0.6
		C7.6,25.4,10.1,22.6,11.5,19.2z"/>
	<path class="st2" d="M16,10c-0.1,0-0.1,0-0.2,0c0,0-0.1,0-0.1,0c0.2,0.1,0.3,0.1,0.5,0.2c0.2,0,0.4,0.1,0.6,0.2
		c0.3,0.1,0.7,0.1,1,0.2c0.4,0.1,0.8,0.1,1.2,0.1c0.5,0,1,0.1,1.4,0.1c0.5,0.1,1.1,0.1,1.6,0.2c0.6,0.1,1.2,0.2,1.8,0.3
		c0.7,0.1,1.3,0.3,2,0.5c0.7,0.2,1.4,0.5,2.1,0.7c-0.3-0.1-0.5-0.2-0.8-0.3c-0.5-0.2-1-0.5-1.5-0.7c-0.5-0.2-1-0.5-1.6-0.7
		c-0.5-0.2-1.1-0.4-1.6-0.6c-0.5-0.2-1.1-0.3-1.6-0.4c-0.5-0.1-1.1-0.2-1.7-0.2c-0.6,0-1.1,0-1.7,0.1c-0.3,0-0.6,0.1-0.8,0.2
		c-0.1,0-0.3,0.1-0.4,0.1C16.2,10,16.1,10,16,10z"/>
	<path class="st2" d="M11.8,17.6c-0.1,0.1-0.2,0.1-0.4,0.2c-0.6,0.3-1.7,0.2-4.1,1.4c-1.1,0.5-5.9,3.5-4.1,2.9
		c0.1,0,3.2-0.7,5.1-1.6c1-0.5,2-1.2,2.9-2C11.4,18.1,11.5,17.8,11.8,17.6z"/>
	<path class="st2" d="M15.3,10.1C10.9,9.9,7.5,7.2,4.6,4.3C4.7,4.4,13.3,9,14.7,9.7C14.9,9.8,15.1,10,15.3,10.1z"/>
	<path class="st2" d="M16.7,8.4c-3.9-1.1-6.3-4.6-8.4-7.9c1,1.4,5,3.6,7.5,7.1C16,7.9,16.4,8.1,16.7,8.4z"/>
	<path class="st2" d="M18.3,7C16,6.2,14.1,4.2,13,2c-0.1-0.3-0.3-0.6-0.4-0.9C14.6,2.9,16.6,5,18.3,7z"/>
	<path class="st2" d="M19.1,6.6c-2.8-1-4-4.4-5.4-6.6c1.9,1.7,3.7,3.7,4.9,6C18.6,6.1,19,6.5,19.1,6.6z"/>
	<path class="st3" d="M14.4,11.7c2.6,3.1,6.5,3.7,10,6c0.6,0.4,1.2,0.9,0.8,0.2c-1.3-2.7-9.8-5.7-10-5.8
		C14.9,11.9,14.7,11.8,14.4,11.7z"/>
	<path class="st3" d="M13,15c0.1,0.2,0.2,0.5,0.3,0.7c0.3,0.7,0.6,1.4,1,2.1c2.4,4.8,6.3,8.6,5.1,6.1l-4.9-7.8
		c-0.2-0.3-0.5-0.6-0.8-0.9c-0.3-0.2-0.5-0.5-0.8-0.7c0,0,0,0,0,0c0,0,0,0,0,0c0,0,0,0.1,0,0.1C12.9,14.8,13,14.9,13,15z"/>
	<path class="st3" d="M12,17.2c0.3,1.1,0.8,2.4,1.3,3.4c1.9,3.9,5,5.5,5.1,5.4c0.1,0-0.1-0.4-0.2-0.6C16.2,21.4,12.1,17.3,12,17.2z"
		/>
	<path class="st3" d="M11.3,20.4c0.2,3,0.4,5.9,1.2,8.9c0,0.1,0.1,0.2,0.1,0.2c0.3,0.6,1.2,0.5,0.9-0.5c-0.8-2.6-1.2-5.1-1.7-7.8
		c0-0.1,0-0.2-0.1-0.2C11.6,20.8,11.4,20.6,11.3,20.4z"/>
	<path class="st3" d="M11.1,21.4c-0.4,3.2-0.3,6.5-1.2,9.7c0,0.1-0.1,0.3,0,0.4c0.1,0.2,0.4,0.3,0.7,0.1c0.1-0.1,0.2-0.1,0.2-0.2
		C11.3,28,11.5,24.7,11.1,21.4z"/>
	<path class="st3" d="M11.3,20.3c-1.6,1.6-2.1,3.1-4.1,6.4c-0.8,1.4-1.2,2.8-1,4.3C8.1,27.6,9.8,24,11.3,20.3z"/>
	<path class="st3" d="M11.1,21.2C10,24.1,9.3,27,8,30c-0.2,0.6-0.4,1.2-0.2,1.8C9.2,28.3,10.3,24.8,11.1,21.2z"/>
	<path class="st3" d="M11.8,17.9c-7.6,6.2-8.3,11-7.8,10.8c0.4-0.2,0.7-0.5,0.9-0.8C7.3,24.4,9.2,21.1,11.8,17.9z"/>
	<path class="st3" d="M16.7,8.8c3.4,1.5,7.3-0.5,12.6,0.8C25.5,7.9,20.6,7.6,16.7,8.8z"/>
	<path class="st3" d="M12.3,15.8c-0.3,0.2-0.7,0.4-1,0.6c-1.8,0.9-4.4,1.4-6.6,2.5c-1.1,0.5-2.1,1.2-2.9,2.2
		c1.8-0.2,3.6-0.8,5.3-1.6C9,18.6,10.7,17.3,12.3,15.8z"/>
	<path class="st3" d="M13.4,13.3c-0.1,0-0.3,0.1-0.4,0.1c-0.1,0-0.2,0-0.3,0c-0.2,0-0.5-0.1-0.7-0.1c-0.6-0.1-1.3-0.3-2-0.3
		c-2.9-0.3-5.5-1-8.3-0.5c0,0,0.1,0.1,0.1,0.1c0.1,0,0.1,0.1,0.2,0.1c0.1,0.1,0.2,0.1,0.4,0.2c0.4,0.2,0.8,0.4,1.2,0.5
		C4,13.4,4.5,13.5,5,13.6c0.5,0.1,1,0.2,1.6,0.3C7.1,14,7.6,14,8.1,14c0.5,0,1,0,1.5,0c0.5,0,0.9,0,1.4-0.1c0.4,0,0.8-0.1,1.2-0.2
		C12.7,13.6,13,13.5,13.4,13.3z"/>
	<path class="st3" d="M14,12.3c-1.6,0.3-1.8,0.7-4,0.1c-2.7-0.5-5.4-0.5-7.5-2.2c1.9,0.8,4,0.3,6.2,0.7C10.5,11.2,12.4,11.2,14,12.3
		z"/>
	<path class="st3" d="M14.6,11.1C14.7,11.1,14.7,11.1,14.6,11.1c-3.7,0.3-6.3-3-11-5.2c3.6,1.4,7.2,2.5,10.3,4.8
		C14.2,10.9,14.4,11,14.6,11.1z"/>
	<path class="st3" d="M16.3,9.1c-4-1-7.5-3.7-9.4-7.4c2.2,1.8,6.2,3.4,8.8,6.8C15.8,8.7,16.1,8.9,16.3,9.1z"/>
	<path class="st3" d="M17.6,7.5c-2.7-0.8-5.5-2.5-6.8-5.1c-0.3-0.5-0.4-1.1-0.6-1.6C12.6,3.2,15.5,5,17.6,7.5z"/>
	<path class="st3" d="M12.7,14.8C10.3,16,7.9,15.7,5,17.1c-0.2,0.1-10.8,6.5,1.5,0.7c1.4-0.7,2.9-1.1,4.3-1.8
		C11.4,15.7,12.1,15.3,12.7,14.8z"/>
	<path class="st4" d="M13.6,19.3c-0.1-0.1-0.2-0.2-0.3-0.3c0.6,1.1,1.3,2.1,2,3.1c0.9,1.2,1.9,2.2,2.8,3.3c0,0,0,0,0,0
		c-1.1-0.9-2.1-2.1-3-3.3c-0.5-0.6-1-1.3-1.4-2c0,0.1,0.1,0.2,0.1,0.3c0.2,0.6,0.5,1.1,0.7,1.6c0.1,0.3,0.3,0.6,0.3,0.9
		c0,0.1,0,0.1,0.1,0.2c-0.6-0.7-1.2-1.6-1.7-2.6c-0.5-1-1-2.1-1.2-3.2c0,0,0-0.1,0-0.1c0,0,0,0,0,0c0.2,0.2,1.3,1.3,2.5,2.8
		c0,0-0.1-0.1-0.1-0.1C14.2,19.7,13.9,19.5,13.6,19.3z M12.3,3.8c0.4,0.4,0.8,0.7,1.3,1.1c0.7,0.5,1.3,1,2,1.4c0,0,0,0,0.1,0.1
		c-0.2,0-0.3-0.1-0.5-0.2c-0.3-0.1-0.5-0.2-0.7-0.1c1,0.6,2.1,1.1,3.2,1.4c-1-1.2-2.2-2.3-3.5-3.3c0.1,0.2,0.2,0.3,0.2,0.5
		c0.2,0.4,0.5,0.8,0.8,1.2C15.3,6,15.4,6,15.4,6.1c-0.6-0.4-1.2-0.8-1.7-1.2c-0.5-0.4-0.9-0.8-1.4-1.2c-0.4-0.4-0.8-0.8-1.2-1.2
		c0,0-0.1,0,0,0C11.4,3,11.9,3.4,12.3,3.8z M12.6,7.6c1.2,0.7,2.4,1.2,3.8,1.5c-0.2-0.2-0.5-0.3-0.7-0.6C14.6,7.1,13.3,6,12,5
		c0.1,0.2,0.2,0.5,0.3,0.7c0.4,0.6,0.8,1.3,1.2,1.9c0,0,0,0.1,0.1,0.1c-0.1,0-0.2,0-0.3,0C13.1,7.6,12.8,7.5,12.6,7.6z M14.5,16.9
		c0.3,0.2,0.6,0.6,0.9,0.8l-0.9-1.5c-0.2-0.3-0.5-0.6-0.8-0.9c-0.2-0.2-0.4-0.4-0.7-0.6c0,0,0,0,0,0c0,0.1,0,0.2,0,0.3
		c0.1,0.2,0.2,0.5,0.3,0.7c0.3,0.7,0.6,1.3,0.9,2c0-0.3-0.1-0.6-0.2-1c0-0.1-0.1-0.3-0.1-0.4c0.1,0.4,0.3,0.7,0.5,1.1
		c0.2,0.5,0.5,0.9,0.7,1.4c0.5,0.9,1,1.8,1.6,2.7c0,0,0.1,0,0,0c-0.5-0.9-1-1.8-1.5-2.8c-0.2-0.5-0.5-0.9-0.7-1.4
		c-0.1-0.2-0.2-0.4-0.3-0.6C14.4,16.8,14.5,16.8,14.5,16.9z M17.8,13.1C17.8,13.1,17.8,13.1,17.8,13.1c-1.4-0.6-2.5-1-2.5-1
		c-0.3-0.2-0.5-0.3-0.9-0.3c1.2,1.4,2.7,2.3,4.3,3.1c-0.6-0.5-1.2-1-1.8-1.5c-0.1-0.1-0.2-0.2-0.3-0.3c1,0.6,2,1.2,2.9,1.7
		c1.2,0.7,2.4,1.5,3.7,2.1c0,0,0.1,0,0-0.1c-1.2-0.8-2.5-1.4-3.7-2.2c-1.1-0.6-2.2-1.3-3.3-2c0.1,0,0.2,0,0.3,0.1
		C16.9,12.8,17.3,13,17.8,13.1z M13.2,5c-0.2-0.3-0.4-0.5-0.7-0.7c-0.2-0.2-0.5-0.5-0.8-0.5c0,0,0,0-0.1,0c0.7,0.9,1.6,1.7,2.6,2.3
		C14,5.6,13.7,5.2,13.2,5z M9.7,11.1c0.3,0.2,0.6,0.3,0.8,0.4c0.4,0.2,0.8,0.3,1.1,0.5c-0.5,0-0.9,0-1.4,0c0,0,0,0.1,0,0.1
		c0.6,0.1,1.1,0.1,1.7,0.1c0.1,0.1,0.3,0.1,0.4,0.2c-0.1,0.1-0.2,0.3-0.2,0.4c0,0,0,0,0,0c0.5-0.1,0.9-0.3,1.7-0.4
		C12.7,11.4,11.2,11.3,9.7,11.1z M19,9.1c-0.1,0-0.1,0-0.2-0.1c1,0,1.9-0.1,2.9-0.2c1.4-0.1,2.8-0.2,4.2,0.1c0,0,0,0,0,0
		c-1.3-0.4-2.6-0.4-3.9-0.3c-1.2,0.1-2.3,0.2-3.5,0.2c0.2-0.1,0.5-0.2,0.7-0.3c0.6-0.2,1.2-0.4,1.8-0.5c-1.5,0.1-2.9,0.3-4.3,0.7
		c1,0.4,2.1,0.6,3.2,0.6C19.5,9.3,19.3,9.2,19,9.1z M10.1,8.8c0.4,0.4,0.8,0.7,1.3,1.1c0.5,0.4,1,0.7,1.5,1.1
		c0.6,0.1,1.2,0.2,1.8,0.1c0,0,0,0-0.1,0c-0.2-0.1-0.5-0.2-0.7-0.4c-1.4-1-2.8-1.8-4.4-2.5C9.8,8.4,9.9,8.6,10.1,8.8z M9,12.7
		c0.4,0.1,0.8,0.3,1.1,0.4c0.3,0.1,0.5,0.2,0.8,0.3c-0.9,0.1-1.8,0.1-2.8,0.1c-1.1-0.1-2.2-0.4-3.3-0.7c0,0,0,0,0,0
		c1.9,0.8,4.1,1.1,6.2,0.8c-0.1,0-0.2,0-0.2,0.1c-0.4,0.1-0.8,0.2-1.2,0.4c0.1,0,0.1,0,0.2,0c0.5,0,0.9,0,1.4-0.1
		c0.4,0,0.8-0.1,1.2-0.2c0.4-0.1,0.8-0.3,1.1-0.5c-0.1,0-0.3,0.1-0.4,0.1c-0.1,0-0.2,0-0.3,0c-0.2,0-0.5-0.1-0.7-0.1
		c-0.6-0.1-1.3-0.3-2-0.3C9.6,12.8,9.3,12.8,9,12.7C9,12.7,9,12.7,9,12.7z M10.7,16.1c0.7-0.3,1.3-0.7,1.9-1.2
		c-0.6,0.3-1.1,0.5-1.7,0.6c-0.4,0.2-0.9,0.5-1.3,0.7c-0.6,0.3-1.2,0.5-1.8,0.8c-0.3,0.1-0.6,0.3-0.9,0.4c-0.3,0.1-0.6,0.2-0.7,0.5
		c0,0,0,0.1,0,0.1c0,0,0,0,0,0c0.1,0,0.1-0.1,0.2-0.1C7.8,17.2,9.3,16.8,10.7,16.1z M13,14.7C12.9,14.6,12.9,14.6,13,14.7
		C12.9,14.6,12.9,14.6,13,14.7C12.9,14.6,12.9,14.6,13,14.7C12.9,14.7,12.9,14.7,13,14.7c0,0.1,0,0.1,0,0.1
		C12.9,14.7,13,14.7,13,14.7z M10.5,21.2c-0.1,0.2-0.2,0.4-0.3,0.6c-0.3,0.6-0.6,1.3-0.8,1.9c-0.3,0.6-0.5,1.3-0.7,1.9
		c-0.1,0.3-0.2,0.6-0.2,0.9c0,0,0,0.1,0,0.1c1-2.1,2-4.2,2.8-6.3C11,20.6,10.8,20.9,10.5,21.2z M8.9,17.7c-0.8,0.3-1.6,0.7-2.4,1
		c-1.1,0.5-2.3,0.9-3.5,1.4c0,0,0,0.1,0,0.1c1.2-0.3,2.3-0.8,3.5-1.3c0.8-0.3,1.6-0.6,2.4-1c-0.2,0.2-0.5,0.5-0.7,0.7
		C8,18.8,7.8,19,7.6,19.2c1.7-0.9,3.3-2.1,4.7-3.4c-0.3,0.2-0.7,0.4-1,0.6c-0.9,0.5-2.1,0.8-3.3,1.2C8.2,17.7,8.5,17.7,8.9,17.7z
		 M11.1,21.4c-0.1,0.7-0.2,1.5-0.2,2.2c0,0.7,0.1,1.3,0.1,2c0.1,1.1,0,2.2,0.1,3.2C11.4,26.3,11.4,23.9,11.1,21.4z M12.6,26.8
		C12.6,26.8,12.6,26.8,12.6,26.8C12.6,26.8,12.6,26.8,12.6,26.8z M12.6,25.6c-0.3-1.4-0.6-2.8-0.8-4.3c0-0.1,0-0.2-0.1-0.2
		c-0.1-0.2-0.3-0.4-0.4-0.6c0,0.4,0,0.7,0.1,1.1c0.1,0.2,0.1,0.4,0.2,0.6c0.1,0.2,0.1,0.4,0.2,0.6c0.1,0.3,0.2,0.6,0.2,0.9
		c0.2,0.8,0.3,1.6,0.5,2.4c0,0,0,0,0,0c-0.1-0.5-0.1-1.1-0.2-1.7C12.4,24.8,12.5,25.2,12.6,25.6C12.6,25.6,12.6,25.6,12.6,25.6z
		 M11.8,17.9c-1.6,1.3-2.9,2.5-3.9,3.7c0.4-0.3,0.9-0.6,1.3-0.9c0,0,0,0,0,0c-0.2,0.2-0.4,0.5-0.6,0.7c-0.4,0.5-0.8,1-1.2,1.6
		c-0.7,1.1-1.4,2.2-2,3.4c0,0,0,0,0,0c0.7-1.1,1.3-2.2,2.1-3.2c0.4-0.5,0.7-1,1.1-1.5c0.1-0.1,0.2-0.3,0.3-0.4c0,0,0,0,0,0.1
		c-0.2,0.3-0.3,0.6-0.4,1C9.7,20.8,10.7,19.3,11.8,17.9C11.8,17.9,11.8,17.9,11.8,17.9z M9.2,26.8c0.2-0.3,0.3-0.5,0.5-0.8
		c0.2-0.3,0.3-0.6,0.4-0.8c0.4-1.3,0.7-2.6,1-3.9C10.4,23,9.9,24.9,9.2,26.8z M11.5,23.6c0-0.3,0-0.6-0.1-0.8
		C11.5,23,11.5,23.3,11.5,23.6z"/>
	<path class="st5" d="M23.4,16.4c0.6,0.4,1.2,0.9,1.7,1.4c0,0,0,0,0,0c-0.5-0.3-1-0.6-1.5-0.8c-0.5-0.2-1-0.4-1.4-0.6
		c0.8,0.4,1.5,0.8,2.3,1.3c0.6,0.4,1.2,0.9,0.8,0.2c-0.7-1.3-3-2.7-5.3-3.8C21,14.9,22.2,15.6,23.4,16.4z"/>
	<path class="st5" d="M19.4,24c0,0-2.6-4.2-3.9-6.2c0.7,1.3,1.4,2.6,2.2,3.9c0.4,0.7,0.7,1.3,1.1,2c0.1,0.2,0.2,0.3,0.3,0.5
		C19,24.1,18.9,24,18.8,24c-0.7-0.7-1.3-1.4-1.9-2.2c-1.2-1.5-2.2-3.2-3.1-5c0,0,0,0,0,0c0.2,0.4,0.4,0.8,0.5,1.2
		C16.7,22.7,20.7,26.5,19.4,24z"/>
	<path class="st5" d="M14.5,22.5c1.8,2.4,3.8,3.4,3.9,3.4c0.1,0-0.1-0.4-0.2-0.6c-0.9-1.9-2.4-3.8-3.6-5.3c0.8,1.3,1.6,2.6,2.4,3.9
		c0.3,0.4,0.5,0.9,0.8,1.3c-0.2-0.1-0.5-0.3-0.7-0.4C16.1,24.2,15.2,23.4,14.5,22.5z"/>
	<g>
		<path class="st5" d="M13.2,29.3c0,0.2,0,0.3,0,0.5c-0.3-0.2-0.4-0.6-0.5-1c-0.3-1.1-0.6-2.3-0.9-3.4c0,0,0,0,0-0.1
			c0.2,1.3,0.4,2.7,0.8,4c0,0.1,0.1,0.2,0.1,0.2c0.3,0.6,1.2,0.5,0.9-0.5c-0.1-0.5-0.3-1-0.4-1.5C13.1,28.1,13.2,28.7,13.2,29.3z"/>
		<path class="st5" d="M12.2,23.4c0,0.7,0.2,1.3,0.4,2C12.4,24.8,12.3,24.1,12.2,23.4C12.2,23.4,12.2,23.4,12.2,23.4z"/>
	</g>
	<path class="st5" d="M11,29.9c-0.1,0.5-0.1,0.9-0.3,1.4c0,0.1,0,0.1-0.1,0.2c0,0,0,0,0,0c-0.1,0.1-0.1,0.1-0.2,0.1
		c-0.2-0.1-0.2-0.4-0.2-0.6c0-0.4,0.1-0.9,0.2-1.3c0.1-0.9,0.2-1.8,0.3-2.7c0,0,0,0,0-0.1c-0.1,1.4-0.3,2.8-0.8,4.2
		c0,0.1-0.1,0.3,0,0.4c0.1,0.2,0.4,0.3,0.7,0.1c0.1-0.1,0.2-0.1,0.2-0.2c0.2-1.2,0.3-2.4,0.4-3.6C11.2,28.5,11.1,29.2,11,29.9z"/>
	<path class="st5" d="M6.8,27.8c0.2-0.5,0.4-0.9,0.6-1.4c-0.1,0.1-0.1,0.2-0.2,0.3c-0.8,1.4-1.2,2.8-1,4.3c1.1-2.1,2.2-4.3,3.2-6.5
		c-0.1,0.2-0.2,0.3-0.2,0.5c-0.2,0.3-0.3,0.7-0.5,1c-0.3,0.7-0.6,1.3-1,1.9c-0.3,0.6-0.7,1.2-1,1.8c-0.1,0.1-0.2,0.3-0.3,0.4
		c0-0.1,0-0.2,0-0.4C6.4,29.2,6.6,28.5,6.8,27.8z"/>
	<path class="st5" d="M6.7,25c-0.5,0.7-1,1.3-1.6,2c-0.3,0.3-0.5,0.6-0.8,0.9c0.1-0.2,0.1-0.4,0.2-0.6C4.7,26.6,5,26,5.3,25.3
		c0.3-0.6,0.7-1.2,1.1-1.8c0.2-0.4,0.5-0.7,0.7-1.1C4,26.3,3.7,28.8,4,28.7c0.4-0.2,0.7-0.5,0.9-0.8c1.1-1.6,2.1-3.2,3.2-4.8
		C7.6,23.7,7.2,24.3,6.7,25z"/>
	<path class="st5" d="M23.5,9c-0.7,0-1.3,0.2-2,0.3c2.2-0.1,4.7-0.4,7.7,0.3c-1.9-0.9-4.2-1.4-6.4-1.5c1.1,0.2,2.2,0.3,3.3,0.7
		c0.2,0.1,0.5,0.2,0.7,0.3c-0.4,0-0.8,0-1.2-0.1C24.9,9,24.2,9,23.5,9z"/>
	<path class="st5" d="M6,18.4c0.6-0.3,1.3-0.5,1.9-0.7c-1.1,0.4-2.2,0.8-3.3,1.3c-1.1,0.5-2.1,1.2-2.9,2.2c1.8-0.2,3.5-0.8,5.1-1.6
		C6.4,19.8,6,19.9,5.6,20c-0.7,0.2-1.5,0.4-2.2,0.6c-0.3,0.1-0.6,0.1-0.9,0.2c0.5-0.5,1-0.9,1.6-1.3C4.7,19.1,5.3,18.7,6,18.4z"/>
	<path class="st5" d="M3.8,12.2c0.4,0,0.8,0,1.2,0c0.3,0,0.6,0.1,0.9,0c-1.4-0.1-2.7-0.2-4.1,0.1c0,0,0.1,0.1,0.1,0.1
		c0.1,0,0.1,0.1,0.2,0.1c0.1,0.1,0.2,0.1,0.4,0.2c0.4,0.2,0.8,0.4,1.2,0.5c0.4,0.1,0.8,0.2,1.2,0.3c-0.3-0.2-0.7-0.3-1-0.4
		c-0.4-0.1-0.7-0.3-1-0.5c-0.1-0.1-0.2-0.2-0.4-0.3c0.1,0,0.1,0,0.2,0C3,12.3,3.4,12.3,3.8,12.2z"/>
	<path class="st5" d="M4.1,11C4,11,4,10.9,3.9,10.9c0,0,0.1,0,0.1,0C4.6,11,5.2,11.1,5.7,11c0.6,0,1.2-0.1,1.8-0.1
		c0.3,0,0.6,0,0.9,0c0,0,0.1,0,0.1,0c-2.1-0.3-4.2,0.1-6.1-0.7c0.6,0.5,1.3,0.9,2.1,1.1C4.4,11.2,4.3,11.1,4.1,11z"/>
	<path class="st5" d="M7.8,7.5c0.3,0.1,0.6,0.2,0.9,0.3C7,7.1,5.3,6.5,3.7,5.9C6.2,7.1,8.2,8.6,10,9.7C10,9.7,9.9,9.6,9.8,9.5
		C9.5,9.3,9.2,9.1,9,8.8C8.4,8.4,7.8,7.9,7.2,7.5C6.9,7.4,6.7,7.2,6.5,7.1C6.9,7.2,7.4,7.4,7.8,7.5z"/>
	<path class="st5" d="M6.9,1.7c1,2.1,2.6,3.8,4.5,5.2c-0.3-0.3-0.6-0.6-0.9-1C10,5.4,9.5,4.9,9.1,4.4C8.7,4,8.3,3.5,7.9,3
		C7.8,2.8,7.7,2.7,7.5,2.5c0.4,0.4,1,0.7,1.5,1c0.5,0.3,1,0.5,1.5,0.7c0.3,0.1,0.5,0.3,0.8,0.4c0.1,0.1,0.3,0.1,0.4,0.2
		C9.9,3.6,8.2,2.7,6.9,1.7z"/>
	<path class="st5" d="M10.3,0.8c0.1,0.6,0.3,1.1,0.6,1.6c0.5,1.1,1.3,2,2.2,2.7c-0.2-0.3-0.5-0.6-0.8-1c-0.3-0.4-0.7-0.8-1-1.2
		c-0.3-0.4-0.5-0.9-0.7-1.4c0-0.1-0.1-0.2-0.1-0.3c0.2,0.2,0.4,0.5,0.7,0.7c0.3,0.3,0.7,0.6,1.1,0.9c0.2,0.1,0.4,0.3,0.7,0.4
		c0.2,0.1,0.4,0.2,0.6,0.3c0,0,0,0,0,0C12.4,2.7,11.3,1.8,10.3,0.8z"/>
	<path class="st5" d="M4.1,18.7c0,0-0.1,0-0.1,0c-0.4,0.2-0.7,0.3-1.1,0.5c-0.4,0.2-0.9,0.3-1.3,0.4c0,0,0.1-0.1,0.1-0.1
		c0.6-0.5,1.2-1,1.9-1.4c0.7-0.5,1.5-1,2.3-1.3c0.5-0.2,1-0.4,1.5-0.6c-0.7,0.2-1.5,0.5-2.3,0.9c-0.2,0.1-8,4.8-2.5,2.5
		c0.2-0.1,0.3-0.2,0.5-0.2c0.9-0.4,1.8-0.8,2.7-1.2c-0.1,0.1-0.3,0.1-0.5,0.2C4.8,18.5,4.4,18.6,4.1,18.7z"/>
	<path class="st5" d="M10.2,27.9c0,0.1-0.1,0.3-0.1,0.5C10,28.7,9.9,29,9.8,29.3c-0.2,0.8-0.4,1.6-1,2.2c-0.1-0.3,0-0.7,0-1
		C9,30,9.1,29.5,9.2,29c0-0.2,0.1-0.3,0.1-0.5c-0.2,0.8-0.5,1.7-0.8,2.5c-0.1,0.2-0.3,0.5-0.2,0.7C8.5,32,8.9,32,9.1,31.9
		c0.1-0.1,0.2-0.1,0.2-0.2c0.5-1.7,0.9-3.3,1.2-4.9c0,0.1-0.1,0.1-0.1,0.2C10.3,27.3,10.3,27.6,10.2,27.9z"/>
	<path class="st5" d="M9.1,8C8.5,7.3,7.8,6.7,7.1,6.2C6.9,5.9,6.6,5.7,6.3,5.4c0.2,0.1,0.5,0.2,0.7,0.3c0.6,0.3,1.2,0.5,1.7,0.8
		C9,6.7,9.2,6.8,9.5,6.9C7,5.6,4.7,4.3,4.6,4.3c1.3,1.3,2.7,2.6,4.3,3.6C8.9,7.9,9,8,9.1,8z"/>
	<path class="st5" d="M25.5,20.8C25.5,20.7,25.5,20.7,25.5,20.8c-0.2-0.2-0.3-0.3-0.4-0.4C24,19.1,22.7,18,21.2,17
		c-0.4-0.3-0.8-0.6-1.2-0.8c0.2,0.2,0.5,0.4,0.7,0.6c0.3,0.2,0.5,0.5,0.8,0.7c0.5,0.5,1.1,1,1.6,1.5c0.2,0.2,0.4,0.4,0.6,0.6
		c-0.2-0.1-0.4-0.2-0.7-0.4c-0.5-0.3-1-0.5-1.5-0.7c0.1,0,0.1,0.1,0.2,0.1c1.3,0.8,2.6,1.6,3.8,2.4c0.2,0.1,0.1,0.2,0.3,0
		C25.7,21,25.6,20.9,25.5,20.8z"/>
	<path class="st5" d="M3.2,22c0,0,1.8-0.4,3.5-1c-0.5,0.1-1,0.2-1.5,0.3c-0.5,0.1-0.9,0.2-1.4,0.2c0.4-0.3,0.7-0.7,1.1-1
		c0.2-0.1,0.3-0.3,0.5-0.4c0,0,0,0-0.1,0C3.7,21.2,2.1,22.4,3.2,22z"/>
	<path class="st5" d="M13.8,3.2c-0.2-0.5-0.4-0.9-0.6-1.4c0.2,0.1,0.3,0.3,0.5,0.4c0.4,0.3,0.8,0.7,1.2,1c-0.7-0.7-1.5-1.5-2.2-2.2
		C12.7,1.4,12.9,1.7,13,2C13.3,2.5,13.6,3,14,3.5C13.9,3.4,13.9,3.3,13.8,3.2z"/>
	<path class="st5" d="M15.6,3.5C15.7,3.5,15.7,3.4,15.6,3.5c-0.3-0.8-0.8-1.4-1.1-2.1c-0.1-0.1-0.1-0.3-0.2-0.4
		c0.3,0.3,0.6,0.5,0.9,0.8c0.4,0.3,0.7,0.7,1,1c0.2,0.2,0.4,0.5,0.6,0.7c-1-1.3-2.1-2.5-3.4-3.6C14.3,1,14.9,2.3,15.6,3.5z"/>
	<path class="st5" d="M14.6,23.4c0,0.4,0.2,0.8,0.3,1.1c0.1,0.5,0.3,1,0.5,1.5c0.1,0.3,0.2,0.6,0.2,0.8c-0.4-0.5-0.7-0.9-1-1.4
		c-0.3-0.6-0.7-1.1-1-1.7c-0.1-0.1-0.1-0.2-0.2-0.3c0.2,0.7,0.5,1.5,0.9,2.3c0.2,0.5,0.5,0.9,0.8,1.4c0.4,0.6,0.8,1.1,1.2,1.6
		C16,27.6,15.3,25.4,14.6,23.4z"/>
	<path class="st5" d="M5.3,28.4c1.1-1.4,2.2-2.8,3.2-4.2c-0.7,0.8-1.2,1.7-1.9,2.5c-0.6,0.7-1.2,1.4-1.9,1.9c0-0.1,0-0.2,0.1-0.2
		c0-0.2,0.1-0.3,0.1-0.5c0,0,0,0,0,0c-0.1,0.2-0.2,0.3-0.4,0.4c-0.4,0.7-0.4,1,0.2,0.7C5,28.8,5.2,28.6,5.3,28.4z"/>
	<path class="st5" d="M26.6,12.1c0,0,0-0.1-0.1-0.1c-0.3-0.1-0.6-0.3-0.8-0.4c-0.5-0.2-1-0.5-1.6-0.7c-0.3-0.1-0.7-0.3-1-0.4
		c0.5,0.2,1,0.5,1.5,0.7c-0.4-0.1-0.8-0.1-1.1-0.1c-0.2,0-0.5,0-0.7,0c0.4,0.1,0.8,0.2,1.3,0.2c0.7,0.1,1.3,0.3,2,0.5
		C26.1,11.9,26.4,12,26.6,12.1z"/>
	<path class="st5" d="M8.3,0.5C9,1.6,9.8,2.8,10.7,4c-0.3-0.4-0.5-0.8-0.8-1.3C9.7,2.4,9.5,2.1,9.4,1.9c0.3,0.3,0.7,0.5,1.1,0.8
		C10.7,2.8,11,3,11.3,3.2c0-0.1-0.1-0.1-0.1-0.2C9.9,1.9,8.8,1.1,8.3,0.5z"/>
	<path class="st5" d="M24,18.3c-0.3-0.4-0.6-0.9-0.9-1.3c-0.1,0-0.1-0.1-0.2-0.1c0.6,0.9,1.1,1.8,1.6,2.8c0.2,0.2,0.5,0.5,0.7,0.7
		c0-0.1-0.1-0.2-0.1-0.3C24.7,19.5,24.4,18.9,24,18.3z"/>
	<path class="st5" d="M18.6,21.5C18.6,21.6,18.6,21.6,18.6,21.5c0.3,0.7,0.6,1.4,0.8,2.1c0.2,0.7,0.4,1.3,0.6,2
		c0,0.2,0.1,0.4,0.1,0.5c-0.4-0.4-0.8-0.8-1.1-1.2C20.5,27.1,21.1,26.8,18.6,21.5z"/>
	<path class="st5" d="M12.2,30.5C12.2,30.5,12.2,30.5,12.2,30.5c-0.2-0.2-0.3-0.5-0.4-0.8c0-0.1-0.1-0.2-0.1-0.3
		c0.1,0.6,0.1,0.9,0.1,0.9c0.1,0.3,0.5,0.4,0.7,0.3c0.2-0.1,0.1-0.7-0.1-2c0-0.2-0.1-0.3-0.1-0.5c0,0.5,0,0.9,0,1.4
		C12.3,29.9,12.3,30.2,12.2,30.5z"/>
	<path class="st6" d="M15,28.2c-0.2-0.2-0.3-0.5-0.4-0.7c-0.6-1.1-1.2-2.2-1.7-3.3c0.3,0.8,0.6,1.6,0.9,2.3c0.4,0.9,0.9,1.7,1.5,2.4
		c0,0,0,0,0,0c0.2-0.1,0-0.8-0.3-1.8c-0.1-0.1-0.1-0.2-0.2-0.3c0,0.3,0.1,0.7,0.1,1C15,28,15,28.1,15,28.2z"/>
	<path class="st6" d="M18.5,26.1c0,0-0.1-0.1-0.1-0.1c0,0-0.2-0.1-0.4-0.2c0.7,0.8,1,0.9,0.5-0.3C18.5,25.7,18.5,25.9,18.5,26.1z"/>
	<path class="st6" d="M4.2,15.5c0.1,0,0.1-0.1,0.2-0.1c-0.1,0.1-0.3,0.1-0.4,0.2c-1.4,0.7-2.8,1.6-3.9,2.7c2.7-1,4.8-1.9,6.6-2.6
		c-0.5,0.1-0.9,0.3-1.4,0.4c-0.7,0.3-1.4,0.5-2.1,0.8c-0.7,0.3-1.3,0.6-2,0.8c-0.1,0-0.3,0.1-0.4,0.1c0.5-0.4,1-0.8,1.5-1.1
		C2.9,16.3,3.5,15.9,4.2,15.5z"/>
	<path class="st6" d="M17.7,25.8c0-0.1-0.1-0.2-0.1-0.2c0,0,0,0,0,0c0,0,0,0,0,0C17.6,25.6,17.6,25.7,17.7,25.8
		c0,0.3,0.1,0.6,0.1,0.8c-0.3-0.3-0.6-0.6-0.9-0.9c-0.4-0.5-0.8-1.1-1.2-1.7c-0.2-0.2-0.4-0.4-0.6-0.7
		C16.6,25.8,19.2,28.7,17.7,25.8z"/>
	<path class="st6" d="M22.5,23.8c0.1-0.1,0.1-0.2,0-0.4c-0.3-0.7-1.4-2.3-2.7-4.2c0.2,0.3,0.3,0.6,0.5,0.9c0.4,0.6,0.7,1.2,1.1,1.9
		c0,0,0,0,0,0.1c0,0-0.1-0.1-0.1-0.1c-1.1-0.9-2.1-1.9-3.2-2.9c0,0,0,0,0,0c1.1,1.3,2.2,2.6,3.4,3.9c0.2,0.1,0.3,0.3,0.5,0.4
		c0,0.1,0,0.1,0.1,0.2C22.3,23.5,22.4,23.6,22.5,23.8z"/>
	<path class="st6" d="M21.7,18.7c0,0-0.1-0.1-0.1-0.1c0.4,0.6,0.7,1.2,1.1,1.8c-0.4-0.4-0.8-0.8-1.2-1.1c0,0-0.1,0-0.1-0.1
		c1,1.1,1.9,2,2,1.9c0,0-0.1-0.2-0.1-0.3C22.9,20,22.2,19.4,21.7,18.7z"/>
	<path class="st6" d="M21.3,13.5c1.5,1.1,3.2,2.2,5.1,3.6c-0.7-1.2-1.7-2.1-3.3-3.5c0.6,0.6,1.3,1.3,1.8,2c0.1,0.1,0.1,0.2,0.2,0.3
		c-0.2-0.1-0.5-0.3-0.7-0.4C23.4,14.9,22.3,14.2,21.3,13.5z"/>
	<path class="st6" d="M26.9,12.1c-1.4-1.1-2.9-2-4.4-2.8c0,0,0,0,0,0c0.2,0.2,0.5,0.4,0.8,0.6c0.4,0.3,0.9,0.5,1.3,0.9
		c0.3,0.2,0.6,0.5,0.9,0.8c0.1,0,0.1,0.1,0.2,0.1c0.3,0.1,0.6,0.3,0.9,0.4C26.7,12,26.8,12,26.9,12.1z"/>
	<g>
		<path class="st4" d="M11,21.6c0.7-3.4,0.5-4.4,2.1-8c1.2-2.4,3.6-5.9,5.9-7.2c0.5-0.3,0.9-0.5,1.4-0.7c0.3-0.2,0.5,0.3,0.2,0.4
			c-0.5,0.2-0.9,0.4-1.4,0.7c-2.2,1.3-4.6,4.6-5.8,7c-2,4-1.5,5.5-2.5,8.4C10.8,22.6,10.9,22,11,21.6z"/>
	</g>
</g>
</svg>
