<!-- Generator: Adobe Illustrator 22.0.0, SVG Export Plug-In  -->
<svg version="1.1"
	 xmlns="http://www.w3.org/2000/svg" xmlns:xlink="http://www.w3.org/1999/xlink" xmlns:a="http://ns.adobe.com/AdobeSVGViewerExtensions/3.0/"
	 x="0px" y="0px" width="11px" height="11.1px" viewBox="0 0 11 11.1" style="enable-background:new 0 0 11 11.1;"
	 xml:space="preserve">
<style type="text/css">
	.st0{fill:#F71355;}
	.st1{fill:#D40042;}
	.st2{fill:#FA6892;}
	.st3{fill:#ECB1D6;}
	.st4{fill:#840045;}
	.st5{fill:#66003A;}
	.st6{fill:#47002C;}
	.st7{fill:#DE201D;}
	.st8{fill:#4F0707;}
	.st9{fill:#EAB620;}
	.st10{fill:#FD8326;}
</style>
<defs>
</defs>
<g>
	<path class="st0" d="M4.8,5.7C4.8,5.7,4.8,5.7,4.8,5.7c0.1,0,0.1,0,0.1,0c0,0,0,0,0,0c0,0,0,0,0,0C4.9,5.7,4.8,5.7,4.8,5.7z"/>
	<path class="st1" d="M3.3,7C3.3,7,3.3,7,3.3,7C3.3,7,3.3,7,3.3,7z"/>
	<g>
		<path class="st1" d="M4,2.8C3.9,2.5,3.9,2.2,3.8,1.9c0,0,0,0,0,0C3.8,2.2,3.9,2.5,4,2.8C4,3.1,4,3.3,4.1,3.6
			c0.1,0.3,0.2,0.6,0.3,0.8C4.2,4.2,4.1,3.9,3.9,3.7c0,0,0,0,0,0c0,0.3,0.1,0.5,0.2,0.8C4,4.3,3.9,4.1,3.8,3.9
			C3.6,3.6,3.5,3.3,3.4,3C3.2,2.7,3.1,2.4,2.9,2.2c0,0,0,0,0,0C3,2.5,3.2,2.8,3.3,3.1C3.5,3.4,3.6,3.7,3.7,4C3.8,4.1,3.9,4.3,4,4.5
			C3.8,4.3,3.6,4.2,3.5,4C3.2,3.8,3,3.6,2.8,3.3C2.7,3.1,2.5,2.8,2.4,2.6c0,0,0,0,0,0c0.2,0.5,0.6,1,1,1.4c0,0,0.1,0.1,0.1,0.1
			C3.3,4,3.2,4,3.1,3.9c0,0,0,0,0,0c0.1,0.2,0.3,0.4,0.4,0.5c-0.1,0-0.2-0.1-0.2-0.1C2.9,4.1,2.5,3.9,2.1,3.6c0,0,0,0,0,0
			C2.4,4,2.8,4.2,3.2,4.5c0,0,0.1,0,0.1,0.1C3,4.4,2.7,4.3,2.4,4.2c0,0,0,0,0,0c0.3,0.2,0.7,0.4,1.1,0.6c-0.2,0-0.5-0.1-0.7,0
			c0,0,0,0,0,0c0.2,0,0.3,0.1,0.5,0.1c0,0,0,0,0,0C2.9,4.9,2.4,5,2,5.1c0,0,0,0,0,0c0.2,0,0.5-0.1,0.7-0.1c0.3,0,0.5,0,0.7,0.1
			c0,0,0,0,0.1,0c-0.2,0-0.5,0.1-0.7,0.2c0,0,0,0,0,0c0.3,0,0.6,0,0.9,0c-0.5,0-0.9,0.2-1.3,0.3c0,0,0,0,0,0c0.3,0,0.6-0.1,0.9-0.1
			C3.2,5.7,3,5.8,2.8,5.9c0,0,0,0,0,0C3,5.9,3.2,5.8,3.4,5.7C3.2,5.9,3.1,6,3,6.2c0,0,0,0,0,0.1C3.2,6.2,3.4,6.1,3.6,6
			c0.2-0.2,0.7-0.1,1-0.2c0,0,0,0,0,0l0,0c0.1,0,0.1-0.1,0.1-0.1c0,0,0-0.1,0-0.1c0,0,0.1,0,0.1,0c0,0,0.1,0,0.1-0.1c0,0,0,0,0,0
			c0,0,0,0,0-0.1C4.8,5.4,4.8,5.1,4.8,5c0,0,0-0.1,0-0.1c0,0,0,0,0,0c0,0,0,0,0,0C4.9,4.7,5,4.6,5,4.5c0,0,0,0,0-0.1
			c0.1-0.6,0-1.1-0.3-1.6c0,0-0.1,0-0.1,0.1C4.6,3.3,4.5,3.7,4.5,4.1c0-0.1-0.1-0.2-0.1-0.2C4.3,3.4,4.3,2.9,4.2,2.4c0,0,0,0,0,0
			c0,0.5,0,1,0.1,1.5c0,0,0,0.1,0,0.1C4.3,3.8,4.3,3.7,4.2,3.6C4.1,3.3,4,3,4,2.8z"/>
		<path class="st1" d="M0.5,5.5c0.2-0.1,0.4-0.2,0.6-0.2C1.5,5.1,1.8,5,2.2,4.9c0,0,0,0,0,0C1.8,4.9,1.4,5.1,1.1,5.2
			C0.9,5.2,0.7,5.3,0.5,5.4c-0.1,0-0.1,0-0.2,0.1c0,0,0.1,0.1,0.1,0.1C0.5,5.5,0.5,5.5,0.5,5.5z"/>
		<path class="st1" d="M1.5,6.2C1.6,6.1,1.8,6.1,2,6c0.1-0.1,0.3-0.1,0.4-0.2c0,0,0,0,0,0C2.2,5.8,2,5.9,1.9,5.9
			C1.7,6,1.6,6.1,1.5,6.2c-0.1-0.1-0.2,0-0.3,0C1.3,6.2,1.3,6.2,1.5,6.2C1.4,6.2,1.5,6.2,1.5,6.2z"/>
		<path class="st1" d="M3,6C2.7,6.2,2.4,6.2,2.1,6.4c0.1,0,0.2,0,0.3,0C2.7,6.3,2.8,6.2,3,6C3,6.1,3,6,3,6z"/>
		<path class="st1" d="M1.1,4.1c0.2,0,0.5,0.1,0.7,0.2C2,4.3,2.2,4.4,2.5,4.5c0,0,0,0,0,0C2.3,4.4,2.1,4.3,1.8,4.2
			C1.6,4.1,1.4,4.1,1.1,4.1C0.7,4,0.4,3.9,0,3.9C0,4,0,4,0,4.1C0.4,4,0.7,4,1.1,4.1z"/>
		<path class="st1" d="M2.2,3.3C1.9,3,1.6,2.8,1.2,2.7C1,2.5,0.8,2.4,0.6,2.4c0,0,0,0.1-0.1,0.1C0.7,2.5,1,2.6,1.2,2.7
			C1.5,2.9,1.8,3.1,2.2,3.3C2.2,3.3,2.2,3.3,2.2,3.3z"/>
		<path class="st1" d="M2.7,1.3c0,0-0.1,0-0.1,0C2.6,1.4,2.7,1.4,2.7,1.3C2.9,1.6,3,1.8,3.1,2.1c0.1,0.3,0.3,0.5,0.4,0.8
			c0.1,0.3,0.2,0.5,0.3,0.8c0,0,0,0,0,0C3.8,3.4,3.6,3.1,3.5,2.8C3.4,2.6,3.3,2.3,3.2,2C3,1.8,2.9,1.6,2.7,1.3
			C2.7,1.3,2.7,1.3,2.7,1.3z"/>
		<path class="st1" d="M3.5,3.9C3.5,3.9,3.5,3.8,3.5,3.9C3.4,3.6,3.2,3.3,3,3.1C2.9,2.8,2.7,2.5,2.6,2.3C2.4,1.9,2.2,1.6,1.9,1.4
			c0,0-0.1,0-0.1,0c0.3,0.3,0.6,0.6,0.8,1C2.7,2.6,2.9,2.9,3,3.2C3.2,3.4,3.3,3.7,3.5,3.9z"/>
	</g>
	<g>
		<path class="st0" d="M7.4,3.7C7,4.1,6.5,4.4,6,4.7C5.8,4.9,5.1,5.2,4.9,5.5c0,0,0,0.1,0,0.1c0,0,0,0,0,0c0,0,0,0,0,0
			c0,0.2,0.2,0.2,0.3,0.2c0.1,0,0.3-0.1,0.4-0.1c0.4-0.1,0.8-0.1,1.2,0c0.8,0.2,1.2,0.5,1.4,0.5c0.2,0,0.5-0.3,1-0.2
			c0.2,0,0.4,0.1,0.5,0.2c0.2,0.2,0.3,0.3,0.4,0.3c0.4,0.1,0.5-0.8,0.6-1c0-0.1,0.1-0.1,0.1-0.2c0-0.2-0.4-0.5-0.3-0.8
			c0.1-0.3-0.1-0.2-0.3-0.3c-0.1,0,0-0.2-0.1-0.2C9.6,3.4,9.4,2.3,8.8,2.2c-0.1,0-0.2,0-0.3,0C7.9,2.3,7.9,3.2,7.4,3.7z"/>
		<g>
			<path class="st1" d="M7.6,3.6C7.8,3.4,8.1,3.2,8.3,3c0.3-0.2,0.5-0.5,0.8-0.7c0,0-0.1-0.1-0.2-0.1C8.8,2.4,8.6,2.5,8.5,2.6
				c0,0-0.1,0,0,0c0.1-0.1,0.3-0.3,0.4-0.4c0,0,0,0,0,0c0,0-0.1,0-0.1,0c0,0-0.1,0.1-0.1,0.1c-0.3,0.3-0.5,0.6-0.7,1
				C7.8,3.4,7.7,3.5,7.6,3.6z"/>
			<path class="st1" d="M8.3,3.2C8,3.4,7.8,3.7,7.4,3.9C7.2,4.1,7,4.2,6.8,4.4c0,0-0.1,0-0.1,0.1C6.4,4.6,6.1,4.7,5.9,4.9
				C5.6,5,5.4,5.3,5.3,5.5c0,0.1,0,0.1,0.1,0.1c0,0,0,0,0,0c0,0.1,0,0.1,0.1,0.1c0.1,0,0.1,0,0.1,0c0.3-0.1,0.6-0.1,0.9-0.1
				c0.1,0,0.1,0,0.2,0c0.2,0,0.4,0,0.6,0c0.2,0,0.4,0.1,0.6,0.1c0,0,0,0,0,0C7.7,5.7,7.5,5.6,7.3,5.5c0.1,0,0.3,0,0.4,0
				c0,0,0,0,0-0.1C7.5,5.3,7.3,5.3,7.2,5.3c0,0-0.1,0-0.1,0c0.1-0.1,0.3-0.1,0.3-0.2c0,0,0,0,0,0c-0.1,0-0.2,0.1-0.2,0.1
				C7,5.2,7,5.2,6.9,5.2c-0.1,0-0.3,0-0.4,0C6.6,5.1,6.7,5,6.8,4.9c0,0,0,0,0,0C6.7,4.9,6.6,5,6.5,5c0,0,0.1-0.1,0.1-0.1
				c0.4-0.2,0.8-0.4,1-0.7c0,0,0,0,0,0C7.4,4.3,7.3,4.4,7.1,4.5c0,0,0,0,0,0c0,0,0.1,0,0.1-0.1c0.1-0.1,0.2-0.2,0.4-0.3c0,0,0,0,0,0
				c0,0,0.1,0,0.1-0.1c0,0,0.1,0,0.1,0c0,0,0,0,0,0C8,4,8.1,3.9,8.2,3.9C8.1,3.9,8.1,4,8,4C7.6,4.3,7.3,4.7,6.8,5c0,0,0,0,0,0
				C7.3,4.8,7.6,4.4,8,4.2C8.1,4.1,8.2,4.1,8.4,4c0,0,0,0,0,0c0.3,0,0.5,0.1,0.8,0.1c0,0,0.1,0,0.1,0c0,0,0,0,0,0
				c-0.3,0-0.5,0-0.7,0.1c0,0,0,0,0,0c0.2,0,0.5,0,0.7,0c0,0,0.1,0,0.1,0c0,0,0.1,0,0.2,0c0,0,0,0,0,0c-0.2,0-0.3,0-0.5,0
				c0,0,0,0,0,0c0.1,0,0.2,0.1,0.3,0.1c-0.3,0-0.6,0-0.8,0.2c0,0,0,0,0,0C8.8,4.7,9,4.6,9.2,4.6c0.2,0,0.4,0,0.5,0.1
				c-0.1,0-0.1,0-0.2,0c0,0,0,0,0,0c0.2,0,0.4,0.1,0.6,0.2c-0.1,0-0.2,0-0.3,0c0,0,0,0,0,0C9.8,4.9,9.9,5,10,5C9.9,5,9.9,5,9.8,5
				c0,0,0,0,0,0c0,0-0.1,0-0.1,0c0,0,0,0,0,0c0.1,0,0.2,0.1,0.3,0.1c-0.1,0-0.1,0-0.2,0c0,0,0,0,0,0c0.2,0.1,0.3,0.1,0.4,0.2
				C10,5.4,9.9,5.3,9.8,5.3c0,0,0,0,0,0c0.1,0.1,0.3,0.2,0.4,0.3c0.1,0.1,0.1,0.3,0.2,0.4c0,0,0,0,0,0c-0.2-0.1-0.3-0.3-0.4-0.5
				c0,0,0,0,0,0c0,0.2,0.1,0.4,0.2,0.6c0,0,0,0,0,0C10,6,9.8,5.7,9.6,5.5c0,0,0,0,0,0C9.7,5.7,9.8,6,10,6.2c-0.1,0-0.1-0.1-0.2-0.1
				C9.5,5.9,9.2,5.6,8.9,5.4c0,0,0,0,0,0C9,5.6,9.2,5.7,9.4,5.9C9.6,6,9.8,6.2,9.9,6.3c0.1,0.1,0.2,0.3,0.4,0.3c0.4,0,0.5-0.9,0.5-1
				c0-0.1,0.1-0.1,0.1-0.2c0,0,0-0.1,0-0.1c0,0,0,0,0,0c-0.2-0.1-0.4-0.2-0.7-0.3c0,0,0-0.1,0,0c0.2,0,0.4,0.1,0.6,0.2
				c-0.1-0.1-0.1-0.2-0.2-0.3c-0.2,0-0.5-0.1-0.7-0.1c0,0,0,0,0,0c0.2,0,0.4,0,0.6,0c0-0.1,0-0.2,0-0.2c0.1-0.3-0.1-0.2-0.3-0.3
				c-0.1,0,0-0.2-0.1-0.2C10,3.7,9.7,3.3,9.5,2.9C9.5,3,9.4,3,9.3,3C9.1,3.1,8.9,3.3,8.7,3.4c0,0,0,0,0,0c0,0,0.1,0,0.1-0.1
				c0,0-0.1,0-0.1,0.1c0,0,0,0,0,0c0.3-0.2,0.6-0.4,0.9-0.6C9.3,2.6,9.3,2.5,9.2,2.4C8.9,2.7,8.6,2.9,8.3,3.2z"/>
		</g>
	</g>
	<g>
		<path class="st0" d="M6.4,0C6.3,0,6.2,0,6.1,0C5.2,0.5,6.2-0.2,4.2,0.7c0,0-0.5,0.1-0.7,0.7c0,0,0,0.1,0,0.1c0.1,0,0.1,0,0.2,0
			C4,1.7,3.8,2,4,2.1c0.9,0.6,1.2,1.4,1,2.3C5,4.7,4.8,5,4.8,5c0,0.1,0,0.4,0.1,0.4c0,0,0,0.1,0,0.1C5.1,5.2,5.8,4.9,6,4.7
			c0.5-0.3,0.9-0.6,1.3-1c0.5-0.5,0.5-1.5,1.1-1.6c0-0.8-0.6-1.6-1.2-1.8c-0.1,0-0.1-0.1-0.1-0.1C6.9,0.2,6.7,0.1,6.5,0
			C6.4,0,6.4,0,6.4,0z"/>
		<g>
			<path class="st1" d="M6.8,3.7C6.6,3.9,6.4,4,6.2,4.2c0,0,0,0-0.1,0c0.2-0.2,0.3-0.5,0.4-0.8c0.2-0.3,0.4-0.6,0.6-0.9
				C7.4,2.3,7.7,2.1,8,1.9c0,0,0-0.1,0,0C7.7,1.9,7.4,2.2,7.2,2.4C6.9,2.6,6.7,2.8,6.5,3.1c0,0-0.1,0.1-0.1,0.2c0,0,0,0,0,0
				C6.6,2.9,6.8,2.6,7,2.4C7.1,2.2,7.2,2.1,7.3,2c0.1-0.1,0.2-0.2,0.3-0.4c0,0,0,0,0,0C7.4,1.7,7.3,1.8,7.2,1.9C7.1,2,7,2.1,6.9,2.3
				C6.7,2.4,6.6,2.6,6.5,2.8c0-0.1,0.1-0.2,0.1-0.3c0.1-0.4,0.2-0.7,0.3-1.1C6.9,1,7,0.6,6.9,0.2c0,0,0,0,0,0c0,0.2,0,0.4,0,0.6
				c0,0.2-0.1,0.4-0.1,0.6C6.6,1.8,6.5,2.1,6.3,2.5C6.2,2.7,6.1,2.9,6,3.1c0.1-0.2,0.1-0.5,0.1-0.7c0-0.3,0-0.7,0-1
				c0-0.3,0-0.7-0.2-1c0,0,0,0,0,0c0,0.3,0.1,0.6,0.1,1c0,0.3,0,0.7-0.1,1c0,0.1-0.1,0.3-0.1,0.4c0-0.1,0-0.3,0-0.4
				c0-0.3,0-0.6,0-0.9c0-0.3-0.1-0.6-0.2-0.9c0,0,0,0,0,0c0,0.3,0.1,0.6,0.2,0.9c0,0.3,0.1,0.6,0,0.9c0,0.3-0.1,0.6-0.2,0.9
				c0,0.1-0.1,0.2-0.1,0.3c0-0.3,0-0.6,0-0.9c0-0.3,0-0.7,0-1c0,0,0,0,0,0c0,0.3,0,0.6-0.1,0.9c0,0.3,0,0.5,0,0.8
				C5.3,2.8,5.2,2.3,5,1.9c0,0,0,0,0,0c0,0.5,0.2,0.9,0.2,1.4C5.1,2.8,4.9,2.3,4.5,2c0,0,0,0,0,0c0.1,0.2,0.3,0.4,0.3,0.6
				C5,2.9,5,3.1,5,3.4c0,0.3,0,0.6,0,0.8c0,0.1,0,0.3,0,0.4c0,0.1,0,0.2,0,0.4c0,0,0,0,0,0c0,0,0,0,0,0c0,0.1,0,0.1,0.1,0.1
				c0,0,0,0,0,0c0.2,0,0.4-0.1,0.6-0.2C5.9,4.9,6,4.8,6.2,4.6c0.4-0.2,0.7-0.5,1-0.8c0,0,0,0,0,0C6.9,4,6.5,4.2,6.1,4.4
				c0,0,0.1-0.1,0.1-0.1C6.5,4.1,6.7,4,6.9,3.9C7,3.7,7.3,3.6,7.4,3.4c0,0,0,0,0,0C7.2,3.5,7,3.6,6.8,3.7z"/>
			<path class="st1" d="M4.4,2.1C4.2,1.8,4,1.6,3.8,1.3C3.8,1.2,3.7,1.1,3.7,1c0,0-0.1,0.1-0.1,0.1c0.1,0.1,0.1,0.1,0.2,0.2
				C4,1.6,4.2,1.9,4.4,2.1C4.4,2.1,4.4,2.1,4.4,2.1z"/>
			<path class="st1" d="M4.5,0.6C4.7,0.8,4.8,1.1,5,1.3c0,0,0,0,0,0C4.9,1,4.8,0.8,4.7,0.5c0,0,0,0,0,0C4.6,0.5,4.6,0.5,4.5,0.6
				C4.5,0.6,4.5,0.6,4.5,0.6z"/>
			<path class="st1" d="M5.3,2C5.3,2,5.3,2,5.3,2c0-0.4-0.1-0.8-0.2-1.2c0-0.1-0.1-0.3-0.1-0.4c0,0-0.1,0-0.1,0.1
				c0,0.1,0.1,0.2,0.1,0.3C5,1.1,5.2,1.5,5.3,2z"/>
			<path class="st1" d="M7.2,0.3C7.2,0.3,7.2,0.3,7.2,0.3C7.2,0.9,7.1,1.4,7,2c0,0,0,0,0,0C7.2,1.5,7.3,0.9,7.2,0.3
				C7.3,0.4,7.3,0.3,7.2,0.3z"/>
			<path class="st1" d="M6.2,0.1C6.3,0.1,6.3,0.1,6.2,0.1C6.3,0.1,6.3,0,6.2,0.1C6.3,0,6.3,0,6.2,0.1C6.2,0,6.2,0.1,6.2,0.1z"/>
			<path class="st1" d="M8.4,1.9C8.2,2.1,8,2.2,7.7,2.4C7.3,2.6,6.9,3,6.6,3.4c0,0,0,0,0,0C7,3,7.4,2.6,7.8,2.3C8,2.2,8.2,2,8.4,1.9
				C8.4,1.9,8.4,1.9,8.4,1.9C8.4,1.9,8.4,1.9,8.4,1.9C8.4,1.9,8.4,1.9,8.4,1.9z"/>
			<path class="st1" d="M4.4,0.7C4.7,1,4.9,1.4,5.1,1.8c0,0,0,0,0,0C5,1.4,4.7,1,4.4,0.7c0.1-0.1,0-0.1,0-0.1
				C4.4,0.6,4.4,0.6,4.4,0.7C4.4,0.7,4.4,0.7,4.4,0.7z"/>
		</g>
		<g>
			<path class="st2" d="M5.1,2.7c0.1,0.3,0.1,0.5,0.2,0.8c0,0,0,0,0,0c0-0.1,0-0.3,0-0.4c0,0,0,0.1,0,0.1c0,0,0.1,0,0.1,0
				c0,0,0-0.1,0-0.1c0,0,0,0,0,0c0,0,0,0,0.1,0c0.1-0.3,0.1-0.6,0.1-0.9c0-0.3,0-0.6-0.1-0.9c-0.1-0.3-0.2-0.7-0.3-1
				c-0.1,0-0.1,0-0.2,0.1c0.2,0.3,0.3,0.6,0.4,1c0.1,0.3,0.1,0.6,0.1,0.9c0,0.2,0,0.5,0,0.7c0-0.5-0.2-1.1-0.4-1.5
				C4.9,1.1,4.7,0.8,4.5,0.6c-0.1,0-0.2,0.1-0.3,0.1c0,0-0.1,0-0.2,0.1c0,0,0,0.1,0.1,0.1c0,0-0.1,0-0.1-0.1C3.9,0.8,3.8,0.9,3.7,1
				c0.1,0,0.1,0.1,0.2,0.1C4,1.2,4.1,1.3,4.2,1.4C4.4,1.6,4.6,1.8,4.7,2C4.8,2.2,5,2.4,5.1,2.7z"/>
			<path class="st2" d="M7.4,2.2C7,2.6,6.5,3.2,6.3,3.7c0,0,0,0,0,0c0.4-0.5,0.8-0.9,1.2-1.3C7.8,2.2,8.1,2,8.4,1.8
				c0-0.1,0-0.2-0.1-0.3C8,1.7,7.7,2,7.4,2.2z"/>
			<path class="st2" d="M7.5,2.6C7.1,2.9,6.6,3.3,6.3,3.8c0,0,0,0.1,0,0c0.4-0.3,0.8-0.8,1.2-1.1c0.3-0.2,0.6-0.4,0.9-0.6
				c0-0.1,0-0.2,0-0.2C8.1,2.1,7.8,2.3,7.5,2.6z"/>
			<path class="st2" d="M7.6,0.5C7.5,0.9,7.3,1.4,7.1,1.8C6.8,2.6,6.3,3.4,5.8,4.1c0,0,0,0,0,0C6.6,3.1,7.3,1.9,7.6,0.5
				C7.7,0.6,7.6,0.6,7.6,0.5z"/>
		</g>
	</g>
	<g>
		<path class="st0" d="M3.6,5.9c0.3-0.1,0.7-0.3,1.1-0.2c0,0,0.1,0,0.1,0c0.1,0,0.1-0.1,0.1-0.1c0,0,0-0.1,0-0.1c0,0,0-0.1,0-0.1
			C4.8,5.4,4.8,5.1,4.8,5C4.8,5,5,4.7,5,4.4c0.2-1-0.2-1.8-1-2.3C3.8,2,4,1.7,3.7,1.6c-0.1,0-0.1,0-0.2,0C2.9,1.4,2.9,1.4,2.8,1.3
			C1.4,1.1,0.3,2.3,0.1,3.5c-0.2,1.3,0.3,2.5,1.7,2.8c0.4,0.1,0.8,0.1,1.2,0C3.1,6.1,3.4,6,3.6,5.9z"/>
		<g>
			<path class="st2" d="M3.7,1.6C3.7,1.6,3.7,1.6,3.7,1.6C3.1,1.4,2.9,1.4,2.8,1.4C2.9,1.6,3,1.8,3.1,2c0.1,0.2,0.1,0.3,0.2,0.5
				c0.1,0.2,0.1,0.3,0.2,0.5c0,0,0.1,0,0.1,0C3.5,2.6,3.4,2.3,3.2,2c0-0.1-0.1-0.1-0.1-0.2c0,0.1,0.1,0.1,0.1,0.2
				c0.1,0.1,0.1,0.3,0.3,0.4c0,0.1,0.1,0.2,0.1,0.2c0,0,0,0,0,0c0,0,0,0.1,0,0.1c0,0,0,0.1,0,0.1c0,0.2,0.1,0.4,0.1,0.6
				C4,3.7,4.1,4,4.4,4.1c0,0,0.1,0,0,0C4.3,4,4.2,3.8,4.2,3.6c0-0.1,0-0.1-0.1-0.2c0-0.1,0-0.1-0.1-0.2C4,3.2,4,3.1,4,3
				C3.9,2.7,3.9,2.3,3.9,2C3.8,1.9,3.8,1.8,3.7,1.6z"/>
			<path class="st2" d="M3.8,4.8C3.8,4.8,3.8,4.8,3.8,4.8C3.4,4.7,3.1,4.7,2.7,4.7c0,0,0,0-0.1,0c0,0,0,0,0-0.1
				C2.6,4.5,2.4,4.5,2.3,4.5C2.2,4.4,2,4.4,1.9,4.3c-0.1,0-0.2,0-0.3,0c0,0,0,0-0.1,0c0,0,0,0,0,0C1.4,4.2,1.2,4.2,1,4.1
				c-0.2,0-0.4,0-0.6,0c-0.1,0-0.3,0-0.4,0c0,0.1,0,0.2,0,0.3c0.1,0,0.1,0,0.2,0c-0.1,0-0.1,0-0.2,0.1c0,0.1,0,0.3,0.1,0.4
				c0.1,0,0.1-0.1,0.2-0.1c0.2-0.1,0.5-0.1,0.8-0.2c0.3,0,0.5,0,0.8,0c0.1,0,0.3,0,0.4,0c0,0,0.1,0,0.1,0c-0.3,0-0.5,0-0.8,0
				c-0.3,0-0.6,0.1-1,0.2C0.5,5,0.3,5.1,0.2,5.1c0,0.1,0.1,0.2,0.1,0.3c0.1-0.1,0.3-0.1,0.4-0.2C1.1,5.1,1.4,5,1.7,5
				c0.3-0.1,0.7-0.1,1-0.1C3.1,4.8,3.4,4.8,3.8,4.8z"/>
			<path class="st2" d="M2,5.3c-0.3,0-0.7,0.1-1,0.2C0.9,5.6,0.7,5.6,0.5,5.7c0.1,0.1,0.2,0.2,0.3,0.2c0.1,0,0.1,0,0.2-0.1
				c-0.1,0-0.1,0.1-0.2,0.1C0.9,6,1,6.1,1.1,6.1C1.3,6.1,1.4,6,1.5,6C1.7,5.9,2,5.8,2.2,5.7c0.2-0.1,0.5-0.2,0.6-0.3c0,0,0,0,0,0
				c0.1,0,0.1,0,0.2,0c0.3,0,0.7,0,1,0c0,0,0,0,0-0.1c-0.3-0.1-0.7-0.1-1,0C2.7,5.2,2.4,5.2,2,5.3z"/>
			<path class="st2" d="M2.2,5.8C2,5.9,1.7,6.1,1.5,6.2c0,0-0.1,0-0.1,0.1c0.1,0,0.2,0.1,0.4,0.1c0,0,0.1,0,0.1,0
				C2,6.3,2.2,6.2,2.4,6.1C2.6,6,2.8,5.9,3,5.8c0.2-0.1,0.5-0.2,0.6-0.3c0,0,0-0.1,0-0.1c-0.2,0-0.5,0.1-0.7,0.2
				C2.7,5.6,2.4,5.7,2.2,5.8z"/>
			<path class="st2" d="M2.1,3.5c0.2,0.1,0.4,0.3,0.6,0.4c0,0,0,0,0,0C2.5,3.5,2,3.2,1.6,3C1.2,2.8,0.8,2.7,0.4,2.6c0,0,0,0.1,0,0.1
				c0.4,0.1,0.8,0.3,1.1,0.5C1.7,3.2,1.9,3.3,2.1,3.5z"/>
			<path class="st2" d="M3.3,4.5C3.4,4.5,3.4,4.5,3.3,4.5C3.1,4.2,2.8,4.1,2.6,3.9C2.4,3.8,2.1,3.6,1.9,3.5C1.8,3.4,1.7,3.3,1.5,3.2
				C1.3,3.1,1.1,3,0.9,2.9C0.8,2.8,0.5,2.7,0.3,2.7C0.3,2.8,0.2,3,0.2,3.1c0.2,0,0.4,0.1,0.5,0.1C1,3.3,1.3,3.5,1.6,3.6
				C1.9,3.7,2.2,3.8,2.5,4C2.8,4.2,3,4.4,3.3,4.5z"/>
			<path class="st2" d="M2.8,2.9C2.5,2.4,2.2,1.8,1.7,1.4c-0.1,0-0.2,0.1-0.3,0.1C1.6,1.7,1.8,1.8,2,2c0.3,0.3,0.6,0.7,0.8,1.1
				c0.5,0.7,1,1.6,1.8,2c0,0,0,0,0,0c-0.4-0.3-0.7-0.6-1-1C3.3,3.7,3.1,3.3,2.8,2.9z"/>
		</g>
	</g>
	<g>
		<path class="st0" d="M6,7.3C5.8,7.1,5.7,6.8,5.5,6.6c0,0-0.1-0.1-0.1-0.1c0,0-0.1-0.1-0.2-0.1C5.1,6.4,5,6.3,4.9,6.3
			C4.8,6.2,4.7,6.1,4.7,5.9c0-0.1,0-0.1,0.1-0.1c0,0,0,0-0.1,0c0,0-0.1,0-0.1,0C4.4,5.6,3.9,5.8,3.6,5.9C3.4,6,3.1,6.1,2.9,6.3
			C2.6,6.5,2.4,6.8,2,7C1.5,7.2,1.1,7.6,1,8.1C0.9,8.5,1.2,8.5,1.2,8.7c-0.1,1.1,0.9,2.1,2,2.4c0.9,0.2,2.8-0.3,3-1.7
			c0.1-0.6-0.1-1.2-0.1-1.2c0-0.1,0.1-0.2,0.2-0.3c0,0,0,0,0-0.1C6.1,7.6,6.1,7.4,6,7.3z"/>
		<g>
			<path class="st1" d="M4.9,5.9C4.8,6,4.6,6,4.5,6.1C4.3,6.2,4,6.3,3.7,6.3c-0.1,0-0.1,0-0.2,0c-0.2,0-0.4,0-0.6,0
				C2.9,6.3,2.8,6.4,2.7,6.5c0,0,0,0,0.1,0c0,0-0.1,0-0.1,0C2.7,6.5,2.6,6.6,2.5,6.6c0,0,0,0,0,0c0.3,0,0.6,0,0.9,0
				c0.3,0,0.6,0,0.9,0c0,0,0,0,0,0c-0.1,0-0.2,0-0.2,0c-0.4,0-0.8,0-1.2,0.1c-0.2,0-0.4,0.1-0.6,0.1C2.2,6.9,2.1,6.9,2,7
				c0,0-0.1,0-0.1,0c0,0,0,0,0,0c0.4-0.1,0.8-0.2,1.2-0.2c0.4,0,0.8,0,1.2-0.1c0.1,0,0.1,0,0.2,0C4.4,6.8,4.3,6.9,4.1,7
				C3.7,7.2,3.3,7.3,3,7.5c0,0,0,0,0,0c0.4-0.2,0.9-0.3,1.3-0.4c0,0,0,0,0.1,0C4.2,7.2,4,7.4,3.7,7.6c-0.5,0.3-1,0.6-1.4,1
				c0,0,0,0,0,0c0.4-0.5,1-0.7,1.5-1c0.3-0.1,0.5-0.3,0.7-0.5C4.7,7,4.8,6.9,4.9,6.7c0,0,0,0,0,0c0,0,0,0,0,0.1
				C4.8,7,4.8,7.2,4.7,7.5c-0.1,0.5-0.2,1-0.3,1.4c-0.1,0.5-0.2,0.9-0.4,1.3c-0.1,0.3-0.3,0.6-0.4,0.8c0,0,0.1,0,0.1,0
				c0.4-0.6,0.6-1.3,0.8-2c0.1-0.5,0.2-0.9,0.3-1.4C4.9,7.4,5,7.2,5,7c0,0.1,0,0.1,0,0.2c0.1,0.3,0.2,0.6,0.2,1
				c0.1,0.3,0.1,0.7,0.2,1c0,0.4,0,0.7,0,1c0,0,0,0,0,0c0.2-0.7,0-1.4,0-2c0-0.2,0-0.4-0.1-0.5C5.4,7.8,5.5,8,5.6,8.1c0,0,0,0,0,0
				c0-0.2-0.1-0.4-0.1-0.6c0,0,0,0.1,0,0.1C5.7,7.8,5.8,8,5.9,8.3C6,8.4,6.1,8.6,6.2,8.7c0-0.1,0-0.2-0.1-0.3c0-0.1-0.1-0.1-0.1-0.2
				C5.9,8,5.8,7.7,5.7,7.5C5.7,7.3,5.6,7.2,5.6,7c0.1,0.1,0.2,0.3,0.2,0.4c0,0,0,0.1,0.1,0.2c0,0.1,0,0.2,0.1,0.4c0,0,0,0,0.1,0
				c0,0,0,0,0,0C6,8,6.1,8.1,6.1,8.1c0,0,0-0.1,0.1-0.2c0,0,0-0.1,0-0.1c0-0.1,0-0.1-0.1-0.2c0-0.3-0.1-0.6-0.2-0.8c0,0,0-0.1,0-0.1
				c0,0,0-0.1,0-0.1C5.4,6.3,5.1,6.4,5,6C5,5.9,5,5.9,4.9,5.9C4.9,5.9,4.9,5.9,4.9,5.9z"/>
			<path class="st1" d="M5.4,9.9c0.1-0.6,0.1-1.2-0.1-1.8c0,0,0,0,0,0C5.3,8.5,5.3,8.8,5.4,9C5.4,9.3,5.3,9.6,5.4,9.9
				c-0.1,0.3-0.2,0.5-0.4,0.8c0,0,0,0,0,0c0.1,0,0.1-0.1,0.2-0.1C5.3,10.4,5.3,10.2,5.4,9.9z"/>
			<path class="st1" d="M5,8.6C5,8.6,5,8.6,5,8.6c-0.1,0.6-0.1,1.2-0.3,1.7c-0.1,0.2-0.2,0.5-0.3,0.7c0,0,0.1,0,0.1,0
				c0.1-0.2,0.2-0.4,0.2-0.5C4.9,9.8,5,9.2,5,8.6z"/>
			<path class="st1" d="M3.3,9.9C3.6,9.3,4,8.8,4.4,8.2c0,0,0,0,0,0C3.8,9.1,3.2,10,2.5,10.8c0,0,0.1,0,0.1,0.1
				C2.9,10.6,3.1,10.2,3.3,9.9z"/>
			<path class="st1" d="M3.4,10.6C3.7,10.1,4,9.7,4.2,9.3c0,0,0,0,0,0C3.9,9.7,3.6,10.1,3.4,10.6C3.2,10.7,3.1,10.8,3,11
				c0,0,0.1,0,0.1,0C3.2,10.9,3.3,10.7,3.4,10.6z"/>
			<path class="st1" d="M1.8,10.3c0,0,0.1,0.1,0.1,0.1C2,10.2,2.2,10.1,2.3,10C2.5,9.7,2.8,9.4,3,9.1c0,0,0,0,0,0
				C2.7,9.3,2.4,9.6,2.2,9.9C2,10,1.9,10.1,1.8,10.3z"/>
			<path class="st1" d="M4.2,8C3.7,8.4,3.3,8.8,2.8,9.1C2.4,9.4,2,9.7,1.6,10c0,0,0,0.1,0.1,0.1c0.4-0.3,0.8-0.6,1.2-0.9
				C3.4,8.8,3.8,8.5,4.2,8C4.2,8,4.2,8,4.2,8z"/>
			<path class="st1" d="M1.7,7.6c0.2-0.1,0.4-0.3,0.6-0.3C2.5,7.2,2.7,7.1,2.9,7c0,0,0,0,0,0c-0.2,0-0.4,0.1-0.6,0.2
				C2.1,7.3,1.9,7.4,1.7,7.6c-0.2,0-0.4,0.1-0.6,0.2c0,0,0,0-0.1,0C1.1,7.9,1,8,1,8.1c0,0,0,0.1,0,0.1C1.1,8.1,1.2,8,1.2,8
				C1.4,7.8,1.6,7.7,1.7,7.6z"/>
			<path class="st1" d="M2.2,7.2C2.4,7.1,2.8,7,3,7c0.1,0,0.3,0,0.4,0c0.2,0,0.3,0,0.5,0c0,0,0,0,0,0c-0.3,0-0.6,0-0.9,0
				C2.8,7,2.5,7.1,2.2,7.2c-0.2,0-0.5,0.1-0.8,0.2C1.3,7.5,1.3,7.5,1.2,7.6C1.5,7.5,1.8,7.3,2.2,7.2z"/>
			<path class="st1" d="M5.6,8.4c0.1,0.4,0.2,0.8,0.2,1.3c0,0.2,0,0.4-0.1,0.6c0.1-0.1,0.1-0.1,0.2-0.2c0-0.2,0-0.3,0-0.5
				C5.9,9.2,5.8,8.7,5.6,8.4C5.6,8.4,5.6,8.4,5.6,8.4z"/>
		</g>
		<g>
			<path class="st2" d="M5.5,8.2C5.4,8.2,5.4,8.2,5.5,8.2c0.2,0.5,0.4,1,0.4,1.6c0,0.1,0,0.3,0,0.4C5.9,10.1,6,10,6.1,9.8
				c0,0,0-0.1,0-0.1C6,9.2,5.8,8.7,5.5,8.2z"/>
			<path class="st2" d="M5.4,8c0.1,0.2,0.3,0.5,0.4,0.7C5.9,9,6,9.3,6,9.5c0,0.1,0,0.2,0,0.2c0.1-0.1,0.1-0.3,0.1-0.4
				c0,0,0-0.1,0-0.1C6.2,9.1,6.1,8.9,6,8.7C5.8,8.4,5.7,8.2,5.4,8C5.4,8,5.4,8,5.4,8z"/>
			<path class="st2" d="M4.8,7.9c0,0.4,0,0.7-0.1,1.1c-0.1,0.4-0.2,0.7-0.3,1.1c-0.1,0.3-0.3,0.7-0.5,1c0,0,0,0,0,0
				C4,11,4.1,11,4.3,11c0.1-0.3,0.2-0.6,0.3-0.9C4.7,9.8,4.8,9.4,4.8,9C4.9,8.7,4.9,8.3,4.8,7.9C4.8,7.9,4.8,7.9,4.8,7.9z"/>
			<path class="st2" d="M4.5,7.8C4.4,8.5,4.2,9.2,3.9,9.9c-0.1,0.1-0.1,0.2-0.2,0.4c0,0,0,0,0,0c-0.1,0.1-0.3,0.2-0.4,0.3
				C3.2,10.7,3.1,10.8,3,11c0.1,0,0.1,0,0.2,0c0,0,0.1,0,0.1,0c0,0,0,0,0.1-0.1c0,0,0,0,0,0.1c0.1,0,0.1,0,0.2,0c0,0,0-0.1,0-0.1
				c0.2-0.3,0.3-0.7,0.5-1C4.3,9.3,4.5,8.5,4.5,7.8C4.5,7.8,4.5,7.8,4.5,7.8z"/>
			<path class="st2" d="M2.5,7.8c0.1-0.1,0.2-0.1,0.3-0.2c0,0,0,0,0,0C2.3,7.7,1.9,7.9,1.5,8.1C1.3,8.2,1.2,8.3,1,8.4
				c0.1,0.1,0.2,0.2,0.1,0.3c0,0.1,0,0.2,0,0.3c0.1-0.1,0.1-0.1,0.2-0.2C1.6,8.6,1.8,8.5,2,8.3C2.1,8.2,2.3,8,2.5,7.8
				C2.5,7.9,2.5,7.8,2.5,7.8z"/>
			<path class="st2" d="M1,8C1,8,1,8,1,8c0,0.1,0,0.1,0,0.2c0.9-0.6,1.9-0.9,3-1.1c0,0,0,0,0,0C2.9,7.1,1.9,7.5,1,8z"/>
			<path class="st2" d="M2.8,6.9C2.6,6.8,2.3,6.9,2,7C1.8,7,1.7,7.1,1.6,7.2c0,0,0.1,0,0.1,0C2.1,7,2.5,7,2.8,6.9
				C2.9,6.9,2.9,6.9,2.8,6.9z"/>
			<path class="st2" d="M2.2,9.3C2.8,9,3.3,8.6,3.8,8.2c0,0,0,0,0,0c-0.6,0.4-1.1,0.7-1.7,1C1.8,9.3,1.6,9.4,1.3,9.6
				c0,0.1,0.1,0.1,0.1,0.2C1.7,9.6,2,9.5,2.2,9.3z"/>
		</g>
	</g>
	<g>
		<path class="st0" d="M8.3,6.3c-0.2,0-0.6-0.4-1.4-0.5C6.5,5.7,6,5.7,5.6,5.7c-0.1,0-0.3,0.1-0.4,0.1c-0.1,0-0.3,0-0.3-0.2
			c0,0,0,0-0.1,0c-0.1,0-0.1,0.1-0.1,0.1c0,0.2,0.1,0.3,0.2,0.4c0.1,0,0.2,0.1,0.2,0.1c0.1,0,0.1,0.1,0.2,0.1c0.1,0,0.1,0.1,0.1,0.1
			C5.7,6.8,5.8,7.1,6,7.3c0.1,0.2,0.2,0.3,0.3,0.5c0,0,0,0,0,0.1c0.2,0.4,0.4,0.9,0.3,1.3C6.5,9.5,6.2,9.8,6.2,9.9
			c-0.1,0.4,0.6,0.8,1,0.9c0.6,0.1,1.3,0.1,1.5-0.5c0,0,0.1-0.1,0.1-0.1c0.6,0,0.5-0.6,0.7-1C9.7,9.1,10,8.1,10,7.9
			c0.1-0.7,0.1-1.2-0.2-1.6C9.7,6.2,9.6,6.1,9.3,6.1C8.8,6,8.5,6.3,8.3,6.3z"/>
		<g>
			<path class="st1" d="M6.4,7.3c0,0.1,0,0.2,0,0.3c0,0.2,0,0.4,0,0.6c0.1,0.3,0.2,0.7,0.1,1C6.5,9.5,6.2,9.8,6.2,9.9c0,0,0,0,0,0
				c-0.1,0.3,0.4,0.6,0.7,0.8c0-0.1,0-0.2,0.1-0.3c0.1-0.3,0.2-0.5,0.3-0.8c0.1-0.3,0.1-0.5,0.1-0.8c0-0.2-0.1-0.5-0.2-0.7
				c0,0,0,0,0,0c0,0.2,0.1,0.4,0.1,0.6c0,0,0,0,0,0c0,0,0,0,0,0c0,0.2-0.1,0.5-0.2,0.7C7,9.5,6.9,9.7,6.8,9.8C6.9,9.5,7.1,9.2,7,8.9
				c0,0,0,0,0,0C6.9,9.1,6.8,9.3,6.7,9.5C6.6,9.6,6.5,9.8,6.5,10c0,0,0,0,0,0.1c0-0.3,0.1-0.5,0.2-0.7c0.2-0.4,0.4-0.8,0.2-1.2
				c0-0.2-0.1-0.5-0.2-0.7c0.1,0.1,0.1,0.2,0.1,0.2C7,7.9,7,8.1,7,8.4c0,0,0,0,0,0c0-0.1,0-0.1,0-0.2c0,0.2,0.1,0.4,0.1,0.7
				c0,0,0,0,0,0c0.1-0.5,0-1.1-0.3-1.6c0-0.1-0.1-0.2-0.1-0.3c0,0,0,0,0-0.1C6.8,7.1,6.9,7.2,7,7.3c0.4,0.5,0.5,1.1,0.6,1.7
				c0,0,0,0,0,0c0.1-0.6-0.2-1.3-0.5-1.8c0,0,0-0.1-0.1-0.1c0.4,0.3,0.7,0.7,1,1.2c0,0,0,0,0,0c-0.2-0.5-0.6-1-1-1.5
				C6.9,6.8,6.9,6.7,6.7,6.6C7,6.8,7.2,6.9,7.4,7.1c0.6,0.5,1.1,1,1.6,1.7c0,0,0,0,0,0C8.7,8,8.1,7.4,7.5,7C7.3,6.8,7,6.6,6.7,6.5
				C7,6.5,7.2,6.6,7.4,6.7c0.7,0.3,1.3,0.7,1.9,1.1c0,0,0,0,0,0C8.8,7.4,8.2,7,7.5,6.7c-0.3-0.2-0.7-0.3-1-0.4C6.3,6.1,6.2,6.1,6,6
				C5.8,6,5.6,5.9,5.5,5.9c0,0-0.1,0-0.1,0.1c0,0,0,0,0,0c0,0,0,0.1,0,0.1c0,0,0,0.1,0,0.1c0.1,0.1,0.1,0.2,0.2,0.3c0,0,0,0,0,0
				c0.1,0.1,0.1,0.1,0.2,0.2C5.9,6.9,6,7,6,7.1c0,0.1,0,0.2,0,0.2c0,0.1,0.1,0.1,0.1,0.2c0-0.2,0-0.3,0-0.5c0,0.1,0.1,0.2,0.1,0.3
				c0,0,0,0,0,0c0-0.1,0-0.2,0-0.2C6.3,7.1,6.3,7.2,6.4,7.3C6.4,7.2,6.4,7.3,6.4,7.3z M7.2,9.3c0,0.1-0.1,0.2-0.1,0.4
				C7.1,9.5,7.2,9.4,7.2,9.3z M6.8,7.9C6.8,7.9,6.8,7.9,6.8,7.9C6.9,8.3,6.7,8.7,6.6,9c0,0,0,0,0,0c0-0.2,0.1-0.5,0.1-0.7
				c0-0.1,0-0.2,0.1-0.4C6.8,7.9,6.8,7.9,6.8,7.9z"/>
			<path class="st1" d="M9.6,7.4C9.5,7.4,9.5,7.4,9.6,7.4c-0.1,0.1,0,0.1,0,0.2c0,0,0,0,0,0C9.4,7.5,9.4,7.3,9.3,7.2c0,0,0,0,0,0
				c0,0.3,0.2,0.6,0.4,0.8c0,0,0,0,0,0c0,0.1,0.1,0.1,0.1,0.2c0,0,0,0,0,0C9.6,8.1,9.5,8.1,9.4,8C9.3,8,9.2,7.9,9.1,7.8c0,0,0,0,0,0
				c0,0.1,0.1,0.2,0.2,0.3c0,0,0,0,0,0c0,0,0,0,0,0C9.1,8,9,7.9,8.9,7.8c0,0,0,0,0,0C8.9,8,9,8.1,9.1,8.3c0,0,0,0,0,0
				c0,0.1,0,0.2,0,0.2c0,0,0-0.1-0.1-0.1c0,0,0,0,0,0c0,0.3,0.1,0.5,0.2,0.8c0,0,0,0.1,0,0.1C9.2,9.1,9.1,9,9,8.9c0,0,0,0,0,0
				c0.1,0.2,0.2,0.3,0.2,0.5C9.1,9.1,8.9,8.7,8.7,8.5c0,0,0,0,0,0C8.8,8.8,8.9,9.1,9,9.4C8.8,9,8.7,8.7,8.5,8.4c0,0,0,0,0,0
				c0,0.1,0,0.1,0.1,0.2c0,0-0.1-0.1-0.1-0.1c0,0,0,0,0,0c0,0,0,0,0,0C8.3,8.4,8.2,8.2,8,8.1c0,0,0,0,0,0c0,0.1,0.1,0.2,0.2,0.3
				c0,0,0,0,0,0c0.1,0.4,0.1,0.7,0,1.1c0-0.4,0-0.8-0.2-1.1c0,0,0,0,0,0C8,8.7,8,8.9,8,9.1c0,0.1,0,0.2,0,0.3c0-0.2,0-0.4-0.1-0.6
				c0-0.3-0.1-0.5-0.2-0.8c0,0,0,0,0,0c0.1,0.3,0.1,0.7,0.1,1c0-0.1,0-0.1,0-0.2c0-0.3,0-0.6-0.2-0.8c0,0,0,0,0,0c0,0.1,0,0.3,0,0.4
				c0,0.1,0,0.3,0,0.4c0,0.3,0,0.6-0.1,0.9c0,0,0,0.1,0,0.1c0-0.3,0-0.6,0-0.9c0,0,0,0,0,0c0,0.1,0,0.1,0,0.2c0-0.2,0-0.3,0-0.5
				c0-0.2-0.1-0.5-0.2-0.7c0,0,0,0,0,0c0,0.1,0.1,0.3,0.1,0.4c0,0.1,0,0.3,0,0.4c0,0.3-0.1,0.6-0.1,0.9c-0.1,0.3-0.1,0.5-0.2,0.8
				c0.1,0,0.1,0,0.1,0c0.6,0.1,1.3,0.1,1.5-0.5c0,0,0.1-0.1,0.1-0.1c0.6,0,0.5-0.6,0.7-1C9.7,9.1,10,8.1,10,7.9c0,0,0-0.1,0-0.1
				c0,0-0.1-0.1-0.1-0.1C9.8,7.6,9.7,7.5,9.6,7.4z"/>
			<path class="st1" d="M10,7.5C9.8,7.4,9.6,7.2,9.3,7.1c0,0,0,0,0,0c0.2,0.2,0.4,0.3,0.6,0.5c0.1,0,0.1,0.1,0.2,0.1
				c0-0.1,0-0.1,0-0.2C10.1,7.5,10,7.5,10,7.5z"/>
			<path class="st1" d="M9.4,6.8C9,6.8,8.7,6.7,8.3,6.6c0,0,0,0,0,0c0.3,0.1,0.5,0.2,0.8,0.2c0,0,0,0,0,0C9.2,7,9.4,7,9.6,7.1
				c0,0-0.1,0-0.1,0c0,0,0,0,0,0c0.1,0.1,0.2,0.1,0.3,0.2c0,0,0,0-0.1,0c0,0,0,0,0,0c0.1,0.1,0.3,0.2,0.4,0.2c0-0.2,0-0.5,0-0.7
				C9.9,6.9,9.7,6.9,9.4,6.8z"/>
		</g>
		<g>
			<path class="st2" d="M6.3,6c0,0,0,0.1,0,0.1c0.2,0.2,0.5,0.3,0.8,0.4C7.4,6.7,7.7,6.8,8,6.9c0.3,0.1,0.5,0.3,0.8,0.5
				C9,7.5,9.3,7.8,9.5,7.9c0,0,0,0,0,0C9.4,7.6,9.1,7.4,8.9,7.2C8.8,7.2,8.7,7.1,8.6,7C8.7,7,8.8,7,8.9,7.1c0.3,0.1,0.5,0.2,0.8,0.3
				c0,0,0,0,0-0.1C9.5,7.1,9.2,7,9,6.9C8.8,6.8,8.7,6.7,8.5,6.7c0.2,0,0.4,0,0.6,0c0.2,0,0.3,0,0.5,0c0.1,0,0.3,0,0.4,0
				c0,0,0-0.1,0-0.1c-0.1,0-0.2,0-0.3,0c-0.2,0-0.3,0-0.5,0c-0.3,0-0.6-0.1-1-0.2C7.9,6.3,7.6,6.2,7.3,6.1C7.2,6,7,6,6.9,5.9
				c-0.1,0-0.3-0.1-0.5-0.1C6.3,5.9,6.3,6,6.3,6z"/>
			<path class="st2" d="M8,7.6C7.8,7.3,7.5,7,7.2,6.8C7.1,6.7,7,6.6,6.8,6.5C6.7,6.4,6.5,6.3,6.3,6.3c-0.1,0-0.2,0.1-0.1,0.1
				c0.1,0.1,0.2,0.2,0.4,0.3C6.7,6.9,6.9,7,7,7.1c0.3,0.2,0.6,0.4,0.8,0.6c0.5,0.5,0.9,1.1,1.3,1.6c0,0,0,0,0,0
				C8.9,8.7,8.5,8.1,8,7.6z"/>
		</g>
	</g>
	<g>
		<path class="st2" d="M9.7,3.2c0,0,0-0.1-0.1-0.1C9.2,3.3,8.8,3.7,8.5,3.9C8.2,4.1,8,4.3,7.7,4.5C7.5,4.6,7.3,4.7,7.1,4.8
			C6.7,5,6.3,5.2,5.9,5.3c0,0,0,0.1,0,0.1c0.4,0,0.8-0.1,1.2-0.2C7.5,5,7.8,4.8,8.2,4.6c0.4-0.2,0.7-0.4,1.1-0.5
			C9.5,4,9.8,3.9,10.1,3.9c0-0.1-0.1-0.1-0.1-0.2c-0.6,0-1.2,0.2-1.7,0.5c0,0,0.1,0,0.1-0.1C8.8,3.8,9.3,3.5,9.7,3.2z"/>
		<path class="st2" d="M9.8,5.7C9.6,5.5,9.3,5.4,9,5.3c0,0-0.1,0,0,0.1c0.2,0.2,0.4,0.4,0.6,0.6C9.7,6.1,9.9,5.9,9.8,5.7z"/>
		<path class="st2" d="M9,5.1C8.9,5.1,8.9,5.1,9,5.1c0.2,0.1,0.4,0.2,0.6,0.3c0.2,0.1,0.4,0.3,0.6,0.4c0,0,0.1,0,0.1-0.1
			C9.9,5.4,9.4,5.1,9,5.1z"/>
	</g>
	<path class="st3" d="M6.4,6C6.4,6,6.4,6,6.4,6c0.6,0.2,1.1,0.4,1.5,0.8c0,0,0,0.1,0,0C7.6,6.7,7.4,6.5,7.1,6.4
		C7,6.3,6.8,6.3,6.6,6.2C7,6.5,7.4,6.7,7.8,7.1c0,0,0,0.1,0,0.1C7.6,7,7.5,7,7.4,6.9C7.6,7.1,7.8,7.3,8,7.6c0,0,0,0.1,0,0
		C7.5,7,6.9,6.5,6.2,6.2C6.2,6.2,6.2,6.1,6.4,6c-0.1,0.1,0,0.1,0,0.1C6.3,6.1,6.3,6.1,6.4,6C6.2,6.1,6.3,6,6.4,6z M6.1,5.7
		C6,5.7,6,5.8,6.1,5.7C6.6,5.9,7.2,6,7.8,6.1c0.6,0.1,1.1,0.3,1.6,0.5c0,0,0,0,0-0.1C8.9,6.3,8.3,6.2,7.8,6C7.2,5.9,6.6,5.8,6.1,5.7
		z M9.3,3.7C8.1,4.1,7,4.6,5.9,5.1c0,0,0,0.1,0,0.1C7.1,4.7,8.2,4.3,9.3,3.7C9.3,3.7,9.3,3.7,9.3,3.7z M7.6,4.6
		C7.2,4.7,6.7,4.9,6.3,5c0,0,0,0.1,0,0.1C6.7,5,7.2,4.8,7.6,4.6C7.7,4.6,7.7,4.6,7.6,4.6z M10.4,4.6C9.7,4.7,9,4.8,8.2,4.9
		C7.5,5,6.8,5.1,6.1,5.3c0,0,0,0,0,0C6.8,5.3,7.6,5.1,8.3,5C9,4.9,9.7,4.8,10.4,4.6C10.4,4.7,10.4,4.6,10.4,4.6z M7.6,2.8
		C7,3.3,6.5,3.9,6.1,4.5c0,0,0,0.1,0.1,0C6.6,3.9,7.1,3.4,7.6,2.8C7.7,2.9,7.6,2.8,7.6,2.8z M0.9,4.7c0.4,0,0.9,0.1,1.3,0.1
		C2.7,4.9,3.1,5,3.5,5.1c0,0,0,0,0,0C3.1,4.9,2.7,4.8,2.3,4.7C1.9,4.6,1.4,4.6,0.9,4.7C0.7,4.6,0.4,4.6,0,4.6c0,0,0,0.1,0,0.1
		C0.3,4.7,0.6,4.7,0.9,4.7z M1.5,5.3C1.5,5.3,1.5,5.2,1.5,5.3c-0.4,0-0.8,0-1.2,0c0,0,0,0.1,0.1,0.1C0.7,5.4,1.1,5.4,1.5,5.3z
		 M2.9,10.9C2.9,10.9,2.9,11,2.9,10.9c0.2-0.2,0.4-0.4,0.5-0.7C3.7,9.8,3.9,9.4,4.2,9c0,0,0-0.1,0,0c-0.3,0.4-0.5,0.8-0.8,1.2
		C3.2,10.5,3,10.7,2.9,10.9z M4.6,10.2c0.3-0.8,0.5-1.6,0.7-2.5c0,0,0,0,0,0C5,8.5,4.8,9.4,4.6,10.2c-0.2,0.3-0.3,0.6-0.4,0.8
		c0,0,0.1,0,0.1,0C4.4,10.7,4.5,10.4,4.6,10.2z"/>
	<g>
		<path class="st4" d="M5.4,4.1c-0.1,0-0.2,0.2-0.2,0.3c0,0,0,0,0,0.1C5.1,4.5,5,4.5,5,4.6c0,0.1,0,0.2,0,0.2c0,0,0,0,0,0
			c0,0,0,0-0.1,0c0,0,0,0,0,0c0,0,0,0,0,0c0,0,0,0,0,0c0,0,0,0.1,0,0.1l0,0c-0.1,0-0.1-0.1-0.2-0.1c0,0,0,0,0,0c0,0,0,0,0,0
			c0,0,0,0-0.1,0c0,0,0,0,0,0c0,0,0,0,0,0.1c0,0-0.1-0.1-0.1-0.1c0,0-0.1,0,0,0c0,0,0,0,0,0c0,0,0,0,0,0c0,0,0,0,0,0c0,0,0,0,0,0
			c0,0,0,0,0,0c0,0,0,0,0,0c0,0,0,0,0,0c0,0,0,0-0.1,0c0,0,0,0,0,0c0,0,0.1,0.1,0.1,0.1c0,0,0,0,0.1,0c0,0,0,0,0,0c0,0-0.1,0-0.1,0
			c0,0,0,0,0,0c0,0,0,0,0.1,0.1c0,0,0,0-0.1,0c0,0,0,0,0,0c0,0,0.1,0.1,0.1,0.1c0,0-0.1,0-0.1,0c0,0,0,0.1,0.1,0.1c0,0,0,0,0,0
			c0,0,0,0,0,0c0,0,0,0,0.1,0c0,0-0.1,0-0.1,0c0,0,0,0,0,0c0.1,0,0.1,0,0.2,0c0,0-0.1,0-0.1,0c0,0,0,0,0,0c0,0,0.1,0,0.1,0
			c0,0,0,0,0,0c0,0,0.1,0,0.1,0c0,0,0,0,0,0c0,0,0,0,0,0c0,0,0,0,0,0c0,0,0,0,0,0c0,0-0.1,0-0.1,0.1c0,0,0,0,0,0c0,0,0,0,0,0
			c-0.1,0-0.1,0.1-0.1,0.1c0,0.1,0.1,0,0.2,0c0,0,0,0.1-0.1,0.1c0,0,0,0.1,0,0c0,0,0.1,0,0.1,0c0,0,0,0.1,0,0.1c0,0,0,0.1,0.1,0
			c0,0,0,0,0,0c0,0,0,0.1,0,0.1c0,0,0,0,0,0c0,0,0,0,0,0c0,0,0,0,0,0c0,0,0,0,0,0c0,0,0,0.1,0,0.2c0,0,0,0,0,0c0,0,0,0,0,0
			c0,0.1,0,0.1,0,0.2c0,0,0,0,0,0c0-0.1,0-0.1,0-0.2c0,0.1,0,0.1,0,0.2C4.9,7,5,7,5,7c0-0.1,0-0.1,0-0.2c0,0,0,0.1,0,0.1
			c0,0,0,0,0,0c0,0,0,0,0,0c0,0,0,0,0,0c0,0.1,0,0.1,0.1,0.2c0,0,0,0,0,0c0,0,0-0.1,0-0.1c0,0,0,0,0,0c0,0,0,0,0,0
			c0-0.1,0.1-0.1,0.1-0.2c0,0,0,0,0,0.1c0,0,0,0,0,0c0-0.1,0-0.1,0-0.2c0,0,0,0.1,0.1,0.1c0,0,0,0,0,0c0,0,0-0.1,0-0.1
			c0.1,0.1,0.2,0.1,0.4,0.2C6,6.8,6.1,6.9,6.3,6.9c0,0,0,0,0-0.1C6.2,6.8,6.1,6.7,5.9,6.6c0.1,0,0.1,0,0.2,0c0.1,0,0.2,0.1,0.3,0
			c0.1,0,0.2,0.1,0.3,0c0,0,0,0,0-0.1c0,0-0.1-0.1-0.1-0.1c0,0,0.1,0,0.1,0c0,0,0.1-0.1,0-0.1C6.6,6.4,6.5,6.4,6.4,6.3
			c0,0,0.1,0,0.1,0c0.1,0,0.1-0.1,0-0.1c-0.1,0-0.2-0.1-0.3-0.1c0,0,0,0,0,0c0,0,0-0.1,0-0.1c0,0-0.1,0-0.1-0.1c0,0,0.1,0,0.1-0.1
			c0,0,0,0,0-0.1c0,0-0.1,0-0.1,0c0,0,0,0,0.1,0c0,0,0,0,0-0.1c0,0,0,0-0.1,0c0.2,0,0.4,0,0.5-0.2c0,0,0,0,0-0.1c0,0-0.1,0-0.1,0
			c0,0,0.1-0.1,0.1-0.1c0,0,0-0.1,0-0.1c0,0,0,0-0.1,0c0,0,0.1,0,0.1-0.1C6.7,5.1,6.9,5,7,4.9c0,0,0-0.1,0-0.1c-0.1,0-0.2,0-0.4,0
			c0,0,0.1-0.1,0.1-0.1c0,0,0-0.1,0-0.1c-0.1,0-0.2,0-0.3,0.1c0,0,0,0,0,0c-0.1,0-0.2,0-0.3,0.1c0,0,0,0,0,0c0,0,0-0.1,0-0.1
			C5.9,4.8,5.8,4.9,5.7,5c0,0,0,0,0,0c0,0,0.1-0.1,0.1-0.1c0,0,0,0,0,0C5.6,4.9,5.5,4.9,5.5,5c0,0,0,0,0,0c0,0,0,0,0,0l0,0
			c0,0,0,0,0.1-0.1c0,0,0.1,0,0.1-0.1c0.1-0.1,0.3-0.2,0.3-0.4c0,0,0-0.1,0-0.1c-0.2,0-0.3,0.2-0.4,0.3c0,0,0,0,0,0c0,0,0-0.1,0-0.1
			c0.1-0.1,0.1-0.1,0.1-0.2c0,0,0,0,0,0c0,0,0,0-0.1,0c0,0,0-0.1,0-0.1c0,0,0,0,0,0c0,0,0,0.1-0.1,0.1C5.5,4.3,5.5,4.2,5.4,4.1
			C5.4,4.1,5.4,4.1,5.4,4.1z"/>
		<path class="st5" d="M5.4,4.9c0.1-0.1,0.1-0.2,0.2-0.3c0,0,0,0,0,0c0,0,0,0,0,0c0,0,0,0,0,0c-0.1,0-0.1,0.1-0.2,0.2c0,0,0,0,0,0
			c0,0,0-0.1,0-0.1c0,0-0.1-0.1-0.1,0c0,0-0.1,0.1-0.1,0.1c0-0.1,0-0.1,0-0.2c0,0,0,0-0.1,0c0,0,0,0,0,0l0,0c0,0,0,0,0,0
			c0,0,0,0,0,0c0,0,0,0,0,0c0,0,0,0,0,0c0,0,0,0,0,0.1c0,0,0,0,0,0C4.9,4.8,4.9,4.9,4.9,5.1c0,0,0,0,0,0c0,0,0,0,0,0c0,0,0,0,0,0
			c0,0,0,0,0,0c0,0,0,0,0,0c0,0,0,0,0,0c0,0,0,0,0,0C4.7,5,4.7,5,4.6,5c0,0,0,0,0,0c0,0,0,0,0,0c0,0-0.1,0-0.1,0c0,0,0,0.1,0,0.1
			c0,0,0,0,0,0c0,0,0,0,0,0c0,0.1,0,0.1,0.1,0.2c0,0-0.1-0.1-0.1-0.1c0,0,0,0,0,0c0,0.1,0.1,0.1,0.1,0.1c0,0,0,0,0,0
			c0,0,0,0.1,0,0.1c0,0,0,0,0,0c0,0,0,0.1,0.1,0.1C4.5,5.8,4.5,6,4.6,6c0,0,0,0.1,0.1,0.1c0,0.1,0,0.3,0.1,0.3c0,0.1,0,0.1,0.1,0.2
			c0,0,0,0,0.1,0c0,0,0,0,0,0c0,0,0.1,0,0.1,0c0,0.1,0,0.1,0.1,0.1c0.1,0,0.1-0.1,0.1-0.2c0,0,0,0,0,0c0,0,0,0.1,0.1,0.1
			c0.1,0,0.1-0.1,0.1-0.1c0,0,0.1,0,0.1,0c0.1,0,0.2,0.1,0.3,0.1c0,0,0,0,0,0c0,0-0.1-0.1-0.1-0.1c0,0,0,0,0.1,0
			c0.1,0.1,0.2,0.1,0.3,0.2c0,0,0,0,0,0c0,0,0,0-0.1-0.1c0.1,0,0.2,0.1,0.3,0.1c0,0,0,0,0,0c0,0-0.1,0-0.1,0c0,0,0,0,0,0
			c0,0,0,0,0,0c-0.1,0-0.2-0.1-0.2-0.1c0,0,0,0,0,0c0.1,0,0.2,0.1,0.2,0.1c0,0,0,0,0-0.1C6.2,6.2,6,6.1,5.8,6C5.8,6,5.7,6,5.7,6
			c0,0,0.1,0,0.1,0c0,0,0,0,0,0c0,0,0,0,0,0c0,0,0.1,0,0.1,0c0,0,0,0,0,0c0,0,0,0,0,0c0,0,0,0,0,0c0.1,0,0.3,0,0.4-0.1
			c0,0,0,0,0-0.1c0.1,0,0.1,0,0.2-0.1c0,0,0-0.1,0-0.1c0,0-0.1,0-0.1,0c0,0,0,0,0,0c0,0,0-0.1,0-0.1c0,0-0.1,0-0.1,0
			c0.1,0,0.1-0.1,0.1-0.1c0,0,0,0,0-0.1c0,0,0,0,0,0c0,0,0,0,0,0c0,0,0-0.1,0-0.1c0,0,0,0,0,0C6.4,5.1,6.5,5,6.6,4.9
			c0,0,0-0.1,0-0.1C6.5,4.9,6.3,4.9,6.2,5c0,0,0,0,0,0c0,0,0-0.1,0-0.1C6,4.9,5.8,5.1,5.7,5.2c0,0,0,0,0,0c0,0,0,0-0.1,0
			c0,0-0.1,0-0.1,0C5.5,5.1,5.4,5.1,5.4,4.9C5.4,5,5.4,5,5.4,4.9z M5.8,5.2c-0.1,0-0.2,0.1-0.3,0.1c0,0,0,0,0,0c0,0,0,0,0,0
			c0,0,0,0,0,0C5.6,5.3,5.7,5.3,5.8,5.2C5.8,5.2,5.8,5.2,5.8,5.2z"/>
		<path class="st6" d="M5.2,4.8C5.2,4.8,5.1,4.8,5.2,4.8C5.1,4.9,5.1,4.9,5.2,4.8C5.1,4.9,5,5,5,5c0,0,0,0.1-0.1,0.1
			C5,5,5,4.9,5,4.8c0,0,0,0,0,0C4.9,4.9,4.9,5.1,4.9,5.2c0,0-0.1,0-0.1,0c0,0,0,0,0,0c0,0,0,0,0,0.1c0,0,0,0,0,0c0,0,0,0,0,0
			c0,0,0,0.1,0,0.1c0,0-0.1,0-0.1,0c0,0,0,0,0,0c0,0,0,0,0,0c0,0.1,0,0.1,0.1,0.2c0,0,0,0,0,0c0,0,0,0,0,0.1c0,0,0,0,0,0
			c0,0,0,0,0,0c0,0,0,0,0,0c0,0,0,0,0,0C4.7,5.8,4.7,6,4.8,6.1c0,0,0,0.1,0,0.1c0,0,0,0,0,0c0,0,0,0.1,0,0.1c0,0,0,0.1,0,0.1
			c0,0,0,0,0,0c0,0,0,0,0,0c0,0,0.1,0,0.1,0c0,0,0,0,0,0c0,0,0,0,0,0c0,0,0.1,0,0.1,0c0,0,0,0,0,0c0,0,0.1,0,0.1-0.1
			c0.1,0,0.1,0.1,0.2,0.1c0,0,0.1,0,0.1,0c0.1,0,0.1,0,0.2,0c0,0,0,0,0,0c-0.1,0-0.1,0-0.2-0.1c0,0,0,0,0,0c0,0,0,0,0,0c0,0,0,0,0,0
			c0,0,0,0,0-0.1c-0.1,0-0.1,0-0.2-0.1c0,0,0,0,0,0c0,0,0,0,0,0c0,0,0.1,0,0.1-0.1c0.1,0,0.1,0,0.1-0.1c0,0,0,0,0-0.1c0,0,0,0-0.1,0
			c0.1-0.1,0.2-0.1,0.2-0.2c0,0,0-0.1,0,0c0,0-0.1,0-0.1,0.1c0,0-0.1,0-0.1,0c0,0,0.1,0,0.1-0.1c0,0,0,0,0-0.1c0,0,0,0,0,0
			C5.8,5.4,5.9,5.4,6,5.3c0,0,0-0.1,0,0c-0.1,0-0.3,0.1-0.4,0.1c0,0,0,0,0-0.1c0,0-0.1,0-0.1,0c0,0,0,0,0,0c0,0-0.1,0-0.1,0.1
			c0,0,0,0,0-0.1c0,0,0-0.1-0.1,0c0,0,0-0.1-0.1-0.1c0-0.1,0-0.1,0-0.2C5.2,4.9,5.2,4.9,5.2,4.8C5.2,4.8,5.2,4.8,5.2,4.8z"/>
	</g>
	<g>
		<path class="st7" d="M4.9,5.5C4.9,5.5,4.9,5.6,4.9,5.5C4.8,5.8,4.9,6.2,5.1,6.2c0,0,0,0,0.1,0c1-0.9,3.3-0.9,4.1-1.6
			C8.1,5,5.7,5.5,5.5,5.5C5.3,5.4,5.2,5.2,5,5.3C5,5.4,4.9,5.4,4.9,5.5z"/>
		<path class="st8" d="M5.9,5.7c-0.1,0-0.2,0-0.3,0c-0.2,0-0.2-0.1-0.2-0.1c0,0,0-0.1,0.1-0.1C5.3,5.4,5.2,5.2,5,5.3
			c0,0.1-0.1,0.1-0.1,0.2c0,0,0,0.1,0,0.1c0,0.2,0.1,0.6,0.2,0.6c0,0,0,0,0.1,0C5.3,6,5.6,5.8,5.9,5.7z"/>
		<path class="st9" d="M8.2,4.1C8.2,4.1,8.2,4.1,8.2,4.1C8.2,4.2,8.1,4.2,8.2,4.1C8.1,4.2,8.1,4.2,8.2,4.1c-0.1,0.1,0,0.2,0,0.2
			c0,0,0,0,0,0c0,0,0,0,0.1,0c0,0,0,0,0,0c0,0.1-0.1,0.2,0,0.2c0,0,0,0.1,0,0.1l0,0c0,0,0.1,0,0.1,0c0,0,0,0,0,0.1c0,0,0,0.1,0,0.1
			c0,0,0,0,0.1,0.1c0.1,0,0.1,0,0.1-0.1c0,0,0-0.1,0-0.1c0,0,0,0-0.1-0.1c0,0-0.1,0-0.1,0c0,0,0,0,0,0c0,0,0-0.1,0-0.1
			c0,0,0-0.1,0-0.2c0,0-0.1,0-0.1,0c0,0,0,0,0,0c0,0,0-0.1,0-0.1C8.3,4.1,8.3,4.1,8.2,4.1C8.3,4.1,8.2,4.1,8.2,4.1z"/>
		<path class="st9" d="M7.8,4.6C7.8,4.6,7.8,4.6,7.8,4.6c0,0.1,0,0.1,0.1,0.1c0,0,0.1,0,0.1,0c0,0,0.1-0.1,0.1-0.1
			c0-0.1,0-0.1-0.1-0.1c0,0,0,0,0,0C7.9,4.5,7.8,4.6,7.8,4.6z"/>
		<path class="st9" d="M8.2,4.8c0,0,0,0.1,0,0.2c0,0,0.1,0.1,0.1,0.1C8.4,5,8.4,5,8.4,4.9c0,0,0,0,0,0c0,0,0-0.1-0.1-0.1
			c0,0,0,0,0,0C8.3,4.8,8.2,4.8,8.2,4.8z"/>
		<path class="st9" d="M8.7,4.9c0,0-0.1,0-0.1,0C8.6,5,8.6,5,8.7,4.9L8.6,5c0,0-0.1,0.1-0.1,0.1c0,0,0.1,0.1,0.1,0.1
			c0,0,0.1,0,0.1,0C8.8,5.1,8.8,5,8.7,4.9L8.7,4.9C8.7,5,8.7,5,8.7,4.9C8.7,5,8.7,4.9,8.7,4.9z"/>
		<path class="st9" d="M8.2,5.2C8.2,5.2,8.2,5.2,8.2,5.2C8.1,5.3,8.1,5.3,8.2,5.2C8.1,5.3,8.1,5.4,8.1,5.4c0,0,0,0,0,0
			c0.1,0.1,0.2,0,0.2-0.1C8.4,5.3,8.3,5.2,8.2,5.2z"/>
		<path class="st9" d="M7.6,5.1c0,0.2,0.2,0.2,0.2,0C7.9,5,7.6,5,7.6,5.1z"/>
		<path class="st9" d="M8.7,4.1C8.6,4.1,8.6,4.1,8.7,4.1C8.6,4.1,8.6,4.1,8.7,4.1C8.6,4.2,8.6,4.2,8.6,4.2c0,0,0,0,0,0
			c0,0,0,0,0,0.1c0,0,0.1,0,0.1,0c0,0,0.1,0,0.1-0.1c0,0,0-0.1,0-0.2C8.8,4.1,8.8,4.1,8.7,4.1C8.7,4,8.7,4.1,8.7,4.1z"/>
		<path class="st9" d="M9,5C9,5,9,5,9,5C8.9,5.1,8.9,5.1,9,5c-0.1,0.1-0.1,0.1,0,0.2c0,0,0,0,0.1,0c0,0,0.1,0,0.1,0c0,0,0,0,0,0
			c0,0,0,0,0-0.1c0,0,0-0.1,0-0.1C9.1,5,9.1,5,9,5C9,5,9,5,9,5z"/>
		<path class="st9" d="M9.4,5C9.4,5,9.4,5.1,9.4,5c-0.1,0.1-0.1,0.1,0,0.2c0,0,0,0,0.1,0c0,0,0.1,0,0.1-0.1c0,0,0,0,0,0
			c0,0,0-0.1,0-0.1C9.5,5,9.4,5,9.4,5z"/>
		<path class="st9" d="M9.6,4.7C9.6,4.7,9.6,4.7,9.6,4.7C9.6,4.7,9.6,4.8,9.6,4.7C9.6,4.8,9.6,4.9,9.6,4.9c0,0,0,0,0.1,0
			c0,0,0.1,0,0.1,0c0,0,0,0,0,0c0,0,0,0,0-0.1c0,0,0-0.1,0-0.1C9.8,4.7,9.7,4.7,9.6,4.7C9.7,4.7,9.7,4.7,9.6,4.7z"/>
		<path class="st9" d="M7.5,4.7C7.5,4.7,7.5,4.7,7.5,4.7C7.5,4.7,7.5,4.7,7.5,4.7z"/>
		<path class="st10" d="M9.6,4.6c0,0.2,0.3,0.3,0.4,0.1C10.1,4.4,9.7,4.4,9.6,4.6z"/>
		<path class="st10" d="M9.6,3.8c0,0-0.1-0.1-0.1-0.1c-0.1,0-0.1,0-0.2,0c0,0-0.1,0.1-0.1,0.1c0,0,0,0.1,0,0.1c0,0,0,0,0,0
			c0,0-0.1,0-0.1,0C9.1,4,9.1,4,9,4c0,0-0.1,0.1-0.1,0.1c0,0.1,0,0.1,0,0.2c0,0,0,0,0.1,0.1c0,0,0.1,0,0.1,0c0,0,0,0,0,0
			C9,4.5,9,4.5,9,4.6C8.9,4.9,9.3,4.9,9.4,4.7c0-0.1-0.1-0.2-0.2-0.2c0,0,0.1,0,0.1,0c0,0,0.1-0.1,0.1-0.1c0,0,0-0.1,0-0.1
			c0,0,0,0,0.1,0c0,0,0.1,0,0.1,0c0,0,0,0,0,0c0,0.1,0,0.1,0,0.2c0,0,0,0,0.1,0.1c0,0,0.1,0,0.1,0c0.1,0,0.1,0,0.2,0
			C10,4.3,10,4.3,10,4.2c0-0.1,0-0.1,0-0.2c0,0,0,0-0.1-0.1c0,0-0.1,0-0.1,0c-0.1,0-0.1,0-0.2,0c0,0,0,0,0,0c0,0,0,0,0,0
			C9.7,3.9,9.6,3.9,9.6,3.8z"/>
	</g>
</g>
</svg>
