<!-- Generator: Adobe Illustrator 22.0.0, SVG Export Plug-In  -->
<svg version="1.1"
	 xmlns="http://www.w3.org/2000/svg" xmlns:xlink="http://www.w3.org/1999/xlink" xmlns:a="http://ns.adobe.com/AdobeSVGViewerExtensions/3.0/"
	 x="0px" y="0px" width="170.7px" height="191px" viewBox="0 0 170.7 191" style="enable-background:new 0 0 170.7 191;"
	 xml:space="preserve">
<style type="text/css">
	.st0{fill:none;stroke:#000000;stroke-width:4;stroke-linecap:round;stroke-linejoin:round;stroke-miterlimit:10;}
</style>
<defs>
</defs>
<path d="M160.4,57.9H10.2c-1.2,0-2.4-0.7-3-1.7s-0.6-2.4,0-3.4l10.2-17.1c0.6-1,1.7-1.7,2.9-1.7H26c1.9,0,3.4,1.5,3.4,3.4
	c0,1.9-1.5,3.4-3.4,3.4h-3.6l-6.1,10.2h138.1l-6.1-10.2h-7.9c-1.9,0-3.4-1.5-3.4-3.4c0-1.9,1.5-3.4,3.4-3.4h9.8
	c1.2,0,2.3,0.6,2.9,1.7l10.2,17.1c0.6,1.1,0.6,2.4,0,3.4S161.7,57.9,160.4,57.9z"/>
<path d="M136.4,56.6c-0.3,0-0.5,0-0.8-0.1c-1.8-0.4-3-2.3-2.5-4.1l6.3-26.8l-39.9-9.3l-2.7,11.7c-0.4,1.8-2.3,3-4.1,2.5
	c-1.8-0.4-3-2.3-2.5-4.1l3.5-15c0.2-0.9,0.8-1.6,1.5-2.1c0.8-0.5,1.7-0.6,2.6-0.4l46.5,10.9c0.9,0.2,1.6,0.8,2.1,1.5
	c0.5,0.8,0.6,1.7,0.4,2.6l-7,30.1C139.4,55.5,137.9,56.6,136.4,56.6z"/>
<path d="M28.7,57.4c-1.7,0-3.2-1.3-3.4-3l-5.2-43.9c-0.2-1.9,1.1-3.6,3-3.8L80.2,0c0.9-0.1,1.8,0.2,2.5,0.7S83.9,2.1,84,3l3.1,26.3
	c0.2,1.9-1.1,3.6-3,3.8c-1.9,0.2-3.6-1.1-3.8-3L77.7,7.2l-50.3,5.9l4.8,40.5c0.2,1.9-1.1,3.6-3,3.8C29,57.4,28.9,57.4,28.7,57.4z"/>
<path d="M110.8,57.4c-1.5,0-2.9-1-3.3-2.6l-6-24.9L53.2,41.6l2.6,10.8c0.4,1.8-0.7,3.7-2.5,4.1c-1.8,0.4-3.7-0.7-4.1-2.5l-3.4-14.1
	c-0.4-1.8,0.7-3.7,2.5-4.1l55-13.2c0.9-0.2,1.8-0.1,2.6,0.4c0.8,0.5,1.3,1.2,1.5,2.1l6.8,28.2c0.4,1.8-0.7,3.7-2.5,4.1
	C111.3,57.4,111.1,57.4,110.8,57.4z"/>
<path d="M167.3,191H3.4c-0.9,0-1.8-0.4-2.5-1.1c-0.6-0.7-1-1.6-0.9-2.5L6.8,54.3c0.1-1.8,1.6-3.2,3.4-3.2h150.2
	c1.8,0,3.3,1.4,3.4,3.2l6.8,133.1c0,0.9-0.3,1.8-0.9,2.5C169.1,190.6,168.2,191,167.3,191z M7,184.2h156.7l-6.5-126.3H13.5L7,184.2z
	"/>
<path d="M110.9,85.2c-5.6,0-10.2-4.6-10.2-10.2s4.6-10.2,10.2-10.2s10.2,4.6,10.2,10.2S116.6,85.2,110.9,85.2z M110.9,71.5
	c-1.9,0-3.4,1.5-3.4,3.4c0,1.9,1.5,3.4,3.4,3.4c1.9,0,3.4-1.5,3.4-3.4C114.3,73.1,112.8,71.5,110.9,71.5z"/>
<path d="M59.7,85.2c-5.6,0-10.2-4.6-10.2-10.2s4.6-10.2,10.2-10.2S70,69.3,70,75S65.4,85.2,59.7,85.2z M59.7,71.5
	c-1.9,0-3.4,1.5-3.4,3.4c0,1.9,1.5,3.4,3.4,3.4c1.9,0,3.4-1.5,3.4-3.4C63.1,73.1,61.6,71.5,59.7,71.5z"/>
<path class="st0" d="M110.7,71.5"/>
<path d="M85.3,126.2c-16,0-29-13-29-29V78.4c0-1.9,1.5-3.4,3.4-3.4s3.4,1.5,3.4,3.4v18.8c0,12.2,10,22.2,22.2,22.2
	s22.2-10,22.2-22.2V79.7c-0.2-0.4-0.3-0.8-0.3-1.3c0-1.9,1.5-3.4,3.4-3.4h0.3c1.9,0,3.4,1.5,3.4,3.4v18.8
	C114.3,113.1,101.3,126.2,85.3,126.2z"/>
</svg>
