<!-- Generator: Adobe Illustrator 22.0.0, SVG Export Plug-In  -->
<svg version="1.1"
	 xmlns="http://www.w3.org/2000/svg" xmlns:xlink="http://www.w3.org/1999/xlink" xmlns:a="http://ns.adobe.com/AdobeSVGViewerExtensions/3.0/"
	 x="0px" y="0px" width="35.1px" height="48px" viewBox="0 0 35.1 48" style="enable-background:new 0 0 35.1 48;"
	 xml:space="preserve">
<defs>
</defs>
<g>
	<path d="M35.1,13.6l-4.8-4.8H17.9V7.9c1.8-0.4,3.2-2,3.2-3.9c0-2.2-1.8-4-4-4c-2.2,0-4,1.8-4,4c0,1.9,1.4,3.5,3.2,3.9v0.9H10
		c-1.4,0-2.5,1.1-2.5,2.5v2.3H4.8L0,18.4l4.8,4.8h11.5V40h-4v3.2H9.9V48h14.4v-4.8h-2.4V40h-4V23.2H25c1.4,0,2.5-1.1,2.5-2.5v-2.3
		h2.7L35.1,13.6z M14.7,4c0-1.3,1.1-2.4,2.4-2.4c1.3,0,2.4,1.1,2.4,2.4c0,1.3-1.1,2.4-2.4,2.4C15.8,6.4,14.7,5.3,14.7,4L14.7,4z
		 M22.7,44.8v1.6H11.5v-1.6H22.7z M20.3,43.2h-6.4v-1.6h6.4V43.2z M25.9,20.7c0,0.5-0.4,0.9-0.9,0.9H5.5l-3.2-3.2l3.2-3.2H25
		c0.5,0,0.9,0.4,0.9,0.9V20.7z M27.5,16.8v-0.7c0-1.4-1.1-2.5-2.5-2.5H9.1v-2.3c0-0.5,0.4-0.9,0.9-0.9h19.6l3.2,3.2l-3.2,3.2H27.5z
		 M27.5,16.8"/>
</g>
</svg>
