<!-- Generator: Adobe Illustrator 22.0.0, SVG Export Plug-In  -->
<svg version="1.1"
	 xmlns="http://www.w3.org/2000/svg" xmlns:xlink="http://www.w3.org/1999/xlink" xmlns:a="http://ns.adobe.com/AdobeSVGViewerExtensions/3.0/"
	 x="0px" y="0px" width="512px" height="489.6px" viewBox="0 0 512 489.6" style="enable-background:new 0 0 512 489.6;"
	 xml:space="preserve">
<defs>
</defs>
<path d="M244.8,489.6c-0.1,0-0.1,0-0.1,0c-65.4,0-126.8-25.5-173.1-71.8S0,310,0,244.7c0-65.4,25.5-126.8,71.8-173.1
	C118,25.4,179.5,0,244.8,0c0.1,0,0.1,0,0.1,0c34.5,0,68,7.1,99.5,21.2c10.4,4.6,15.1,16.9,10.5,27.3C350.3,58.9,338,63.6,327.6,59
	c-26.2-11.7-54-17.6-82.7-17.6c0,0-0.1,0-0.1,0c-54.3,0-105.3,21.1-143.8,59.5c-38.4,38.4-59.6,89.5-59.7,143.8
	c-0.1,112.2,91.1,203.5,203.3,203.5c0,0,0.1,0,0.1,0c54.3,0,105.3-21.1,143.8-59.5c38.4-38.4,59.6-89.5,59.7-143.8v-20.8
	c0-11.4,9.3-20.7,20.7-20.7c11.4,0,20.7,9.3,20.7,20.7v20.8c0,65.4-25.5,126.9-71.8,173.1C371.6,464.2,310.1,489.6,244.8,489.6z"/>
<path d="M244.8,310.4c-5.3,0-10.6-2-14.6-6.1l-67.2-67.2c-8.1-8.1-8.1-21.2,0-29.2c8.1-8.1,21.2-8.1,29.2,0l52.6,52.6L476.7,28.6
	c8.1-8.1,21.2-8.1,29.2,0c8.1,8.1,8.1,21.2,0,29.2L259.4,304.4C255.4,308.4,250.1,310.4,244.8,310.4z"/>
</svg>
