<!-- Generator: Adobe Illustrator 22.0.0, SVG Export Plug-In  -->
<svg version="1.1"
	 xmlns="http://www.w3.org/2000/svg" xmlns:xlink="http://www.w3.org/1999/xlink" xmlns:a="http://ns.adobe.com/AdobeSVGViewerExtensions/3.0/"
	 x="0px" y="0px" width="360px" height="512px" viewBox="0 0 360 512" style="enable-background:new 0 0 360 512;"
	 xml:space="preserve">
<defs>
</defs>
<path d="M180,0C80.7,0,0,80.7,0,180c0,33.5,9.3,66.3,26.9,94.7l142.9,230.3c2.7,4.4,7.6,7.1,12.7,7.1c0,0,0.1,0,0.1,0
	c5.2,0,10.1-2.8,12.8-7.3l139.2-232.5c16.6-27.8,25.4-59.7,25.4-92.2C360,80.7,279.3,0,180,0z M308.9,256.8L182.3,468.2L52.4,258.8
	c-14.6-23.6-22.6-50.9-22.6-78.8C29.8,97.3,97.3,29.8,180,29.8S330.1,97.3,330.1,180C330.1,207.1,322.7,233.7,308.9,256.8z"/>
<path d="M180,90c-49.6,0-90,40.4-90,90c0,49.3,39.7,90,90,90c50.9,0,90-41.2,90-90C270,130.4,229.6,90,180,90z M180,240.2
	c-33.3,0-60.2-27-60.2-60.2c0-33.1,27.1-60.2,60.2-60.2s60.1,27.1,60.1,60.2C240.1,212.7,213.8,240.2,180,240.2z"/>
</svg>
