<!-- Generator: Adobe Illustrator 22.0.0, SVG Export Plug-In  -->
<svg version="1.1"
	 xmlns="http://www.w3.org/2000/svg" xmlns:xlink="http://www.w3.org/1999/xlink" xmlns:a="http://ns.adobe.com/AdobeSVGViewerExtensions/3.0/"
	 x="0px" y="0px" width="9.5px" height="9.3px" viewBox="0 0 9.5 9.3" style="enable-background:new 0 0 9.5 9.3;"
	 xml:space="preserve">
<style type="text/css">
	.st0{fill:#FFB397;}
	.st1{fill:#FFC6B7;}
	.st2{fill:#FFDCD5;}
	.st3{fill:#FFFFFF;}
	.st4{fill:#FF874F;}
	.st5{fill:#FF694F;}
	.st6{fill:#FFC8A5;}
	.st7{fill:#FFAE9A;}
	.st8{fill:#FF8D75;}
	.st9{fill:#FF855D;}
</style>
<defs>
</defs>
<g>
	<g>
		<path class="st0" d="M5,4.7C5,4.7,5,4.7,5,4.7C5,4.7,5,4.7,5,4.7z"/>
		<path class="st0" d="M4.3,6.8C4.3,6.8,4.3,6.8,4.3,6.8C4.4,6.8,4.3,6.8,4.3,6.8z"/>
		<path class="st0" d="M4.3,7C4.3,7,4.3,7,4.3,7C4.3,7,4.3,7,4.3,7z"/>
		<path class="st0" d="M1.1,1.6C1.1,1.6,1.1,1.6,1.1,1.6C1.1,1.6,1.1,1.6,1.1,1.6z"/>
		<path class="st0" d="M5.5,5.4C5.5,5.4,5.5,5.4,5.5,5.4C5.5,5.4,5.5,5.4,5.5,5.4z"/>
		<path class="st0" d="M5.7,4.3C5.7,4.3,5.7,4.3,5.7,4.3C5.7,4.3,5.7,4.3,5.7,4.3C5.7,4.3,5.7,4.3,5.7,4.3C5.7,4.3,5.7,4.3,5.7,4.3z
			"/>
		<path class="st0" d="M6,0.9C6,0.9,6,0.9,6,0.9C6,0.9,6,0.9,6,0.9z"/>
		<g>
			<path class="st0" d="M7.5,5C7.1,5.3,5.8,5,5,4.8C5,4.9,5,5,5,5.1C4.9,5.4,4.9,5.8,5,6.2c0.1,0.3,0.3,0.6,0.3,1c0,0,0,0,0,0.1
				c0.1,0.3,0.1,0.7,0.3,1c0,0.1,0,0.2,0.1,0.3c0.2,0.2,0.6,0.3,0.7,0.4c0,0,0,0.1,0.1,0.1c0,0,0.1,0,0.1,0C7.1,8.7,7,9,7.8,8.4
				c0.7-0.6,0.5-0.8,0.6-1.5c0.1-0.5,0.1-1.2-0.3-1.6C8,5.1,7.9,5.2,7.7,5.1C7.7,5,7.6,5,7.5,5C7.6,5,7.6,5,7.5,5C7.5,5,7.5,5,7.5,5
				z"/>
			<g>
				<path class="st0" d="M7.4,7.3C7.4,7.3,7.4,7.3,7.4,7.3C7.6,7.5,7.8,7.8,7.9,8c0,0.1,0,0.1,0.1,0.2c0,0,0.1-0.1,0.1-0.1
					C8.1,8.1,8,8,8,8C7.9,7.7,7.7,7.5,7.4,7.3z"/>
				<path class="st0" d="M5.9,7.5c0-0.2,0-0.4-0.1-0.5c0,0,0,0,0,0C5.8,7.2,5.8,7.4,5.9,7.5C5.9,7.7,5.9,7.9,5.9,8.1
					c0,0.2,0,0.4,0.1,0.6c0,0,0,0,0,0c0.1,0,0.1,0.1,0.2,0.1c0,0,0-0.1,0-0.1c0-0.2-0.1-0.4-0.1-0.5C6,7.9,6,7.7,5.9,7.5z"/>
				<path class="st0" d="M5.8,8c0-0.2,0-0.3,0-0.5c0-0.2,0-0.3,0-0.5c0,0,0,0,0,0C5.7,7.2,5.7,7.3,5.7,7.5c0,0.2,0,0.3,0,0.5
					c0,0.1,0,0.3,0,0.4c0,0,0,0,0,0c0,0.1,0.1,0.1,0.2,0.1c0,0,0-0.1,0-0.1C5.8,8.3,5.8,8.2,5.8,8z"/>
				<path class="st0" d="M8.4,7.2c0,0,0-0.1,0-0.1c0,0,0,0,0,0C8.3,6.9,8.2,6.7,8,6.6C7.8,6.4,7.6,6.1,7.3,6c0,0,0,0,0,0
					C7.5,6.2,7.8,6.4,8,6.7c0.1,0.1,0.2,0.2,0.3,0.4C8.3,7.1,8.4,7.1,8.4,7.2z"/>
				<path class="st0" d="M7.6,5C7.6,5,7.5,5,7.4,5.1c0,0,0,0,0,0c0.1,0,0.2,0.1,0.4,0.1c0.1,0,0.2,0.1,0.3,0.1
					C8,5.1,7.9,5.2,7.7,5.1C7.7,5,7.7,5,7.6,5z"/>
				<path class="st0" d="M7.9,5.4c0.1,0,0.2,0,0.3,0.1c0,0,0,0,0,0c0,0,0,0,0,0C8.1,5.4,7.9,5.4,7.8,5.3c-0.2,0-0.3-0.1-0.5-0.1
					c0,0,0,0-0.1,0c-0.1,0-0.1,0-0.2,0.1c-0.1,0-0.2,0-0.4,0C6.5,5.1,6.3,5.1,6.1,5C5.9,5,5.8,4.9,5.6,4.8c-0.1,0-0.2-0.1-0.3-0.1
					c-0.1,0-0.2-0.1-0.3,0c0,0,0,0,0,0c0,0,0,0,0,0c0,0-0.1,0-0.1,0.1c0,0,0,0,0,0c0,0,0,0-0.1,0c0,0,0,0,0,0c0,0,0,0,0,0.1
					c0,0,0,0,0,0c0,0.2,0,0.4,0.1,0.6C5,5.9,5.1,6.1,5.2,6.3c0,0,0,0,0,0c0-0.2-0.1-0.3-0.2-0.5c0,0.1,0.1,0.1,0.1,0.2
					C5.3,6,5.3,6.1,5.4,6.2c0,0,0,0,0,0c0-0.1-0.1-0.2-0.1-0.3c0-0.1,0-0.2-0.1-0.3c0.1,0.1,0.1,0.2,0.2,0.2c0,0,0.1,0,0.1,0
					c0,0,0-0.1,0-0.1c0.8,0.9,0.8,2.1,1.3,3.2c0,0,0,0,0,0c-0.2-0.5-0.3-1-0.4-1.4C6.2,6.8,6,6.1,5.5,5.6c0,0,0-0.1-0.1-0.1
					c0.1,0,0.1,0.1,0.2,0.1C5.8,5.8,6,6.1,6.2,6.3c0,0,0,0,0,0C6,6.1,5.8,5.8,5.6,5.5C5.6,5.4,5.5,5.3,5.4,5.2
					c0.1,0.1,0.2,0.1,0.4,0.2c0.3,0.1,0.6,0.2,1,0.3c0,0,0,0,0,0C6.4,5.4,6.1,5.3,5.8,5.2c0,0-0.1,0-0.1-0.1c0.2,0,0.3,0.1,0.5,0.1
					c0.1,0,0.2,0.1,0.3,0.1c0.1,0,0.1,0.1,0.2,0.1C7,5.5,7.3,5.7,7.5,5.9C7.8,6.1,8,6.3,8.3,6.6c0.1,0.1,0.1,0.2,0.2,0.2
					c0,0,0,0,0,0C8.3,6.5,8.1,6.3,7.9,6.1C7.7,5.9,7.5,5.8,7.3,5.7C7.1,5.6,6.9,5.5,6.7,5.4c0,0,0,0,0,0C7.2,5.5,7.6,5.7,7.9,6
					c0.2,0.2,0.4,0.4,0.6,0.6c0-0.1,0-0.2,0-0.3C8.4,6.3,8.3,6.2,8.2,6.1C8.1,6,7.9,5.8,7.7,5.7C7.5,5.5,7.3,5.4,7.1,5.3
					c0,0,0,0,0,0c0.4,0.2,0.8,0.5,1.1,0.8c0.1,0.1,0.2,0.2,0.3,0.3c0-0.1,0-0.3,0-0.4C8.3,5.9,8.2,5.8,8,5.7
					C7.9,5.6,7.7,5.5,7.6,5.4c0,0,0,0,0,0C7.8,5.5,7.9,5.6,8,5.6c0.1,0.1,0.3,0.1,0.4,0.2c0,0,0-0.1,0-0.1c0,0,0,0,0,0
					C8.2,5.6,8,5.5,7.9,5.4C7.9,5.4,7.9,5.4,7.9,5.4z"/>
				<path class="st0" d="M8.3,7.8C8.3,7.7,8.3,7.7,8.3,7.8C8.1,7.3,7.8,7,7.6,6.7c-0.5-0.6-1.1-1-1.8-1.3c0,0,0,0,0,0
					c0.7,0.3,1.3,0.8,1.8,1.4C7.8,7,8,7.3,8.2,7.6C8.2,7.7,8.3,7.7,8.3,7.8z"/>
				<path class="st0" d="M7.4,7.8C7.3,7.4,7.1,7.1,7,6.8c0,0,0,0,0,0C7.1,7.1,7.3,7.4,7.4,7.8C7.4,7.8,7.4,7.8,7.4,7.8z"/>
			</g>
			<g>
				<path class="st0" d="M6.8,7.9C6.8,7.9,6.8,7.9,6.8,7.9C6.8,7.9,6.7,7.9,6.8,7.9C6.7,7.9,6.7,7.9,6.8,7.9
					C6.7,7.9,6.7,7.9,6.8,7.9z"/>
				<path class="st0" d="M7.9,7.2C8,7.3,8.1,7.5,8.1,7.7c0,0.1,0,0.2,0.1,0.2c0.1-0.2,0.1-0.4,0.2-0.7c0,0,0-0.1,0-0.1
					C8.2,6.9,8,6.8,7.9,6.6C7.6,6.3,7.2,6,6.8,5.8c0,0,0,0,0,0c0.4,0.2,0.8,0.5,1,0.8c0,0,0,0,0,0C7.6,6.5,7.5,6.4,7.3,6.2
					C7,6.1,6.8,6,6.5,5.9c0,0,0,0,0,0C6.7,6.1,7,6.2,7.2,6.4c0.2,0.2,0.4,0.4,0.5,0.6C7.8,7,7.8,7.1,7.9,7.2
					C7.9,7.2,7.9,7.2,7.9,7.2z"/>
				<path class="st0" d="M8.4,6.8C8.4,6.8,8.4,6.8,8.4,6.8C8.3,6.7,8.2,6.6,8,6.5C7.9,6.4,7.8,6.3,7.7,6.2C7.6,6.1,7.4,6,7.3,5.9
					c0,0,0,0,0,0c0.1,0.1,0.2,0.2,0.3,0.3C7.7,6.3,7.8,6.5,8,6.6c0.1,0.1,0.2,0.2,0.3,0.3C8.3,7,8.3,7,8.4,7.1C8.4,7,8.4,7,8.4,6.8
					C8.4,6.9,8.4,6.9,8.4,6.8z"/>
				<path class="st0" d="M8,8.2c0,0-0.1-0.1-0.1-0.1C7.8,7.9,7.7,7.8,7.6,7.6C7.5,7.4,7.3,7.1,7.1,6.8c0,0,0,0,0,0
					c0.1,0.3,0.3,0.6,0.4,0.9C7.6,7.8,7.7,8,7.8,8.1c0,0.1,0.1,0.1,0.1,0.2C7.9,8.3,8,8.2,8,8.2z"/>
				<path class="st0" d="M6.5,6.4C6.5,6.4,6.5,6.4,6.5,6.4c0,0.1,0,0.2,0.1,0.2c0,0,0,0,0,0C6.5,6.5,6.4,6.4,6.4,6.2
					C6.2,6,6.1,5.7,5.8,5.5c0,0,0,0,0,0C5.9,5.7,6,5.8,6,5.9C6.1,6,6.2,6.1,6.2,6.3c0,0,0,0,0,0.1c0,0,0,0,0,0
					c0.2,0.5,0.2,1,0.3,1.5c0,0.1,0,0.3,0.1,0.4c0,0,0-0.1-0.1-0.1c-0.1-0.3-0.3-0.7-0.4-1c-0.1-0.3-0.3-0.7-0.4-1
					C5.6,5.8,5.4,5.5,5.2,5.2c0,0,0,0,0,0c0.3,0.3,0.5,0.6,0.6,1c0.2,0.3,0.3,0.7,0.4,1c0.1,0.3,0.2,0.7,0.3,1
					c0.1,0.2,0.1,0.3,0.2,0.5c0,0,0,0.1,0.1,0.1c0.3-0.1,0.3,0,0.8-0.4C7.6,8.4,7.5,8.3,7.5,8.2C7.4,8,7.2,7.8,7.1,7.6
					C7,7.4,6.9,7.2,6.8,7C6.7,6.8,6.6,6.6,6.5,6.4z M6.8,7.9C6.8,7.9,6.8,7.9,6.8,7.9C6.7,7.9,6.7,7.9,6.8,7.9
					C6.7,7.9,6.7,7.9,6.8,7.9C6.7,7.9,6.8,7.9,6.8,7.9z"/>
			</g>
		</g>
		<g>
			<path class="st0" d="M8.8,2.6C8.8,2.5,8.7,2.4,8.7,2.4c-0.1-0.1-0.3,0-0.4-0.1C8.1,2.1,7.8,2,7.5,2C7.4,2,7.2,1.8,6.9,1.8
				C6.8,2.1,6.7,2.4,6.7,2.4c0,0-0.1,0.1-0.1,0.1c0,0,0,0-0.1,0.1C6.4,3,6.2,3.3,5.9,3.6C5.7,3.8,5.5,3.8,5.3,4
				C5.2,4.1,5.1,4.4,4.9,4.6c0,0,0,0,0,0c0,0,0.1,0,0.1,0.1c0,0,0,0,0,0c0,0,0,0,0,0c0,0,0,0,0,0C5.8,5,7.1,5.3,7.5,5c0,0,0,0,0.1,0
				c0,0,0,0,0,0C7.8,4.8,7.7,5,8.3,5.1c0,0,0,0,0.1,0c0,0,0.1,0.1,0.1,0.2c0.1,0.1,0.4,0.1,0.6-0.1c0.3-0.3,0.4-1.2,0.3-1.6
				C9.3,3.2,9.3,2.9,9.3,2.9S9,2.9,8.8,2.6z"/>
			<g>
				<path class="st0" d="M8,2.6C7.6,2.7,7.3,2.9,7,3.1c0,0,0,0,0,0c0.3-0.2,0.6-0.4,1-0.5c0.2,0,0.4-0.1,0.5-0.1c0.1,0,0.2,0,0.2,0
					c0-0.1-0.1-0.1-0.1-0.2C8.5,2.4,8.2,2.5,8,2.6z"/>
				<path class="st0" d="M8,2.9C8,2.9,8,2.9,8,2.9c0.2,0,0.4-0.1,0.6-0.1c0.1,0,0.2,0,0.3,0c0,0,0.1,0,0.1,0C9,2.7,8.9,2.7,8.9,2.6
					c-0.1,0-0.2,0-0.2,0.1C8.4,2.8,8.2,2.8,8,2.9z"/>
				<path class="st0" d="M7.4,3.6C7.4,3.6,7.4,3.6,7.4,3.6c0.4-0.2,0.8-0.3,1.2-0.4c0.3-0.1,0.5-0.1,0.8-0.1c0-0.1,0-0.2,0-0.2
					s0,0,0,0C9,3,8.8,3,8.6,3.1C8.2,3.3,7.8,3.4,7.4,3.6z"/>
				<path class="st0" d="M9.2,3.5c-0.3,0-0.5,0-0.8,0.1c0,0,0,0,0,0c0.3,0,0.5,0,0.8,0c0.1,0,0.2,0,0.3,0.1c0,0,0-0.1,0-0.1
					c0,0,0-0.1,0-0.1C9.3,3.5,9.2,3.5,9.2,3.5z"/>
				<path class="st0" d="M9.3,3.7C9.3,3.7,9.3,3.7,9.3,3.7c-0.1,0-0.1,0-0.1,0c0.1,0.1,0.2,0.1,0.2,0.2c0-0.1,0-0.1,0-0.2
					C9.4,3.7,9.4,3.7,9.3,3.7z"/>
				<path class="st0" d="M9.1,4.2c0.1,0,0.2,0.1,0.3,0.1c0,0,0,0,0-0.1C9.4,4.2,9.2,4.2,9.1,4.2C9.1,4.1,9.1,4.1,9.1,4.2z"/>
				<path class="st0" d="M8.3,4.7C8.3,4.6,8.3,4.7,8.3,4.7C8.5,4.8,8.8,4.9,9,4.9c0.1,0,0.2,0,0.3,0c0,0,0-0.1,0-0.1
					c-0.1,0-0.2,0-0.3,0C8.8,4.8,8.5,4.7,8.3,4.7z"/>
				<path class="st0" d="M9.1,4.2C9.1,4.2,9.1,4.1,9.1,4.2C8.8,4.1,8.5,4.1,8.3,4.1c-0.3,0-0.5,0-0.8,0c-0.2,0-0.4,0-0.5,0
					C7,4,7.2,4,7.3,3.9c0,0,0,0,0,0C7.2,3.9,7,4,6.8,4C6.7,4.1,6.5,4.1,6.3,4.1c0,0-0.1,0-0.1,0C6.3,4.1,6.4,4,6.6,3.9
					C6.8,3.7,7,3.5,7.2,3.4C7.5,3.2,7.7,3,8,2.9c0,0,0,0,0,0C7.7,3,7.5,3.1,7.2,3.2C7.1,3.3,7,3.4,6.9,3.4c0,0,0,0,0,0
					c0,0,0-0.1,0-0.1c-0.1,0-0.2,0.1-0.3,0.1c0,0,0,0-0.1,0c0,0,0,0,0,0c0,0,0.1-0.1,0.1-0.1C6.9,3.2,7.1,3,7.3,2.7c0,0,0-0.1-0.1,0
					C7.1,2.7,7,2.8,6.9,2.9c0.1-0.2,0.2-0.5,0.2-0.7c0-0.1,0-0.2,0.1-0.4C7.1,1.8,7,1.8,6.9,1.8c0,0,0,0,0,0c0,0,0,0,0,0
					c0,0.1-0.1,0.2-0.1,0.3c0,0,0,0.1-0.1,0.1c0,0,0,0.1,0,0.1C6.6,2.4,6.5,2.5,6.5,2.6c0,0.1-0.1,0.2-0.1,0.2c0,0,0,0,0,0l0,0l0,0
					c0,0,0,0,0,0c0,0,0,0,0,0c0,0,0,0.1,0,0.1c0,0,0,0,0,0c0,0,0,0.1-0.1,0.1c0,0.1-0.1,0.1-0.1,0.2C6.1,3.3,6,3.4,6,3.5
					c0,0,0,0,0,0c-0.1,0-0.2,0.1-0.2,0.1C5.6,3.8,5.4,3.9,5.2,4.1C5.1,4.2,4.9,4.4,4.9,4.5c0,0.1,0,0.1,0.1,0.2c0,0,0,0,0,0
					c0,0,0,0,0,0c0,0,0,0,0.1,0c0,0,0.1,0,0.1,0c0.1,0,0.3,0,0.4,0C5.8,4.8,6,4.9,6.2,4.9C6.5,5,6.9,5.1,7.3,5c0,0,0,0,0,0
					C6.9,5,6.6,4.9,6.2,4.8c0,0,0,0,0,0c0,0,0.1,0,0.1,0c0.2,0,0.4,0,0.6,0c0.2,0,0.4-0.1,0.6-0.1c0,0,0,0,0,0
					c-0.2,0-0.4,0.1-0.6,0.1c-0.2,0-0.4,0-0.6-0.1C6.2,4.6,6.1,4.6,6,4.6c0.1,0,0.1,0,0.2,0c0.2,0,0.3,0,0.5-0.1
					c0.2,0,0.3-0.1,0.5-0.1c0,0,0,0,0,0c-0.2,0-0.3,0-0.5,0c-0.2,0-0.3,0-0.5,0l0,0c0,0,0.1,0,0.1,0c0.1,0,0.2-0.1,0.4-0.1
					c0.3,0,0.5,0,0.8-0.1c0.3,0,0.5,0,0.8,0C8.5,4.1,8.8,4.2,9.1,4.2z"/>
			</g>
			<g>
				<path class="st0" d="M8.7,2.9C8.4,2.9,8,3,7.7,3C7.1,3.2,6.4,3.4,5.9,3.8c0,0,0,0,0,0c0.6-0.3,1.2-0.5,1.8-0.7
					C8,3.1,8.4,3,8.7,3C8.8,3,9,3,9.2,3c0.1,0,0.1,0,0.2,0c0-0.1,0-0.1,0-0.1s-0.1,0-0.2-0.1c0,0,0,0,0,0C9,2.9,8.9,2.9,8.7,2.9z"/>
				<path class="st0" d="M8.7,2.5c-0.1,0-0.2,0-0.3,0.1c-0.2,0-0.4,0.1-0.6,0.2C7.5,2.8,7.1,3,6.7,3.2c0,0,0,0,0,0
					C7.1,3,7.5,2.9,7.9,2.8c0.2,0,0.4-0.1,0.6-0.1c0.1,0,0.2,0,0.3,0c0,0,0.1,0,0.1,0C8.8,2.6,8.8,2.5,8.7,2.5
					C8.7,2.5,8.7,2.5,8.7,2.5z"/>
				<path class="st0" d="M8.3,2.3C8.3,2.3,8.3,2.3,8.3,2.3C8.2,2.3,8,2.4,7.9,2.5c-0.3,0.1-0.6,0.3-1,0.5c0,0,0,0,0,0
					c0.3-0.1,0.6-0.3,1-0.4c0.2-0.1,0.3-0.1,0.5-0.2c0.1,0,0.1,0,0.2-0.1C8.5,2.2,8.4,2.3,8.3,2.3z"/>
				<path class="st0" d="M6.7,3C6.8,2.9,6.9,2.8,7,2.7c0.2-0.1,0.3-0.3,0.5-0.5C7.5,2.1,7.6,2,7.6,2c0,0-0.1,0-0.1,0
					C7.5,2,7.4,1.9,7.3,1.9c0,0.1-0.1,0.3-0.2,0.4C7,2.4,7,2.5,6.9,2.6C6.8,2.7,6.7,2.8,6.7,3C6.6,3,6.6,3,6.7,3z"/>
				<path class="st0" d="M7.2,2.6c0.2-0.1,0.4-0.3,0.6-0.5c0,0,0.1-0.1,0.1-0.1C7.9,2,7.8,2,7.7,2c0,0,0,0,0,0
					C7.6,2.2,7.4,2.4,7.2,2.6C7.2,2.6,7.2,2.6,7.2,2.6z"/>
				<path class="st0" d="M6.7,3.1C6.6,3.1,6.5,3.2,6.5,3.3c0,0,0,0,0,0C6.5,3.2,6.6,3.1,6.7,3.1C6.7,3.1,6.7,3.1,6.7,3.1z"/>
				<path class="st0" d="M8.3,4.4C8.1,4.3,7.8,4.3,7.6,4.2C7.3,4.2,7.1,4.1,6.8,4.1c0,0,0,0,0,0c0.1,0,0.2,0.1,0.3,0.1
					c0.2,0.1,0.4,0.2,0.6,0.3c0.2,0.1,0.4,0.2,0.6,0.3C8.6,5,8.8,5.1,9,5.2c0,0,0,0,0.1-0.1c0,0,0,0,0.1,0C9.1,5.1,9.1,5,9,5
					c0.1,0,0.1,0.1,0.2,0.1C9.3,5,9.3,4.8,9.4,4.7c-0.1,0-0.2-0.1-0.3-0.1C8.8,4.5,8.6,4.5,8.3,4.4z"/>
				<path class="st0" d="M9.1,3.3c-0.2,0-0.5,0-0.7,0c-0.2,0-0.5,0.1-0.7,0.1c-0.2,0-0.5,0.1-0.7,0.2c0,0,0,0,0,0
					c0.2,0,0.5-0.1,0.7-0.2c0.2,0,0.5-0.1,0.7-0.1c0.2,0,0.5,0,0.7,0c0.1,0,0.3,0,0.4,0.1c0-0.1,0-0.1,0-0.2
					C9.3,3.4,9.2,3.4,9.1,3.3z"/>
				<path class="st0" d="M9.5,4.1c-0.1,0-0.1,0-0.2,0c0,0,0,0,0,0C9.4,4.1,9.4,4.1,9.5,4.1c0-0.1,0-0.2,0-0.3
					c-0.1,0-0.3-0.1-0.4-0.1c-0.2,0-0.5,0-0.7,0c0,0,0,0,0,0c0.2,0,0.5,0,0.7,0.1c0.1,0,0.1,0,0.2,0.1C9.1,4,9,4,8.8,4.1
					c0,0-0.1,0-0.1,0C8.4,4,8,4,7.7,3.9c0,0,0,0,0,0c0.5,0.2,1,0.3,1.5,0.3c0,0,0,0.1,0,0.1c-0.1,0-0.2,0-0.2,0
					C8.6,4.3,8.3,4.2,8,4.1c0,0,0,0,0,0c0.3,0.1,0.6,0.2,0.9,0.2c0.2,0,0.3,0,0.5,0.1c0,0,0.1,0,0.1,0C9.5,4.3,9.5,4.2,9.5,4.1z"/>
				<path class="st0" d="M8.4,5.2c0.1,0.1,0.2,0.1,0.2,0.2c0.1,0,0.1,0,0.2,0C8.8,5.2,8.7,5.1,8.5,5.1C8.4,5,8.3,4.9,8.1,4.8
					C7.9,4.7,7.6,4.6,7.3,4.5c0,0,0,0,0,0c0.3,0.1,0.5,0.2,0.8,0.4C8.2,5,8.2,5,8.3,5c0,0,0,0,0,0C8.4,5.1,8.4,5.1,8.4,5.2
					C8.4,5.1,8.4,5.1,8.4,5.2C8.4,5.1,8.4,5.2,8.4,5.2z"/>
				<path class="st0" d="M7.4,4.8C7.3,4.8,7.1,4.8,7,4.7c-0.1,0-0.3-0.1-0.4-0.1C6.3,4.5,6,4.4,5.7,4.3c0,0,0,0,0,0
					C6,4.5,6.2,4.6,6.5,4.7c0.1,0,0.3,0.1,0.4,0.1C7.1,4.9,7.3,4.9,7.4,4.8C7.4,4.9,7.4,4.8,7.4,4.8z"/>
				<path class="st0" d="M7.2,5.1C7.2,5.1,7.2,5.1,7.2,5.1C7,5,6.7,5,6.5,4.9C6.3,4.8,6.1,4.7,5.9,4.6c0,0,0,0,0,0
					c0.2,0.1,0.4,0.2,0.6,0.3C6.7,5,6.9,5.1,7.2,5.1z"/>
			</g>
		</g>
		<g>
			<path class="st0" d="M4.5,4.4c0.1,0.1,0.2,0.2,0.3,0.2c0,0,0,0,0,0c0,0,0,0,0.1,0c0,0,0,0,0,0c0,0,0,0,0,0C5.1,4.4,5.2,4.1,5.3,4
				c0.2-0.1,0.4-0.2,0.5-0.4C6.2,3.3,6.4,3,6.5,2.6c0,0,0-0.1,0.1-0.1c0,0,0.1-0.1,0.1-0.1c0,0,0.2-0.3,0.3-0.6
				C7.1,1.4,7.1,1,6.9,0.7C6.7,0.5,6.5,0.4,6.5,0.4C6.1,0.1,5-0.1,4.6,0.1C4.4,0.1,4.3,0.3,4,0.3c-0.1,0-0.2,0.1-0.2,0.1
				c0,0-0.1,0-0.1,0.1C3.6,0.6,3.4,0.6,3.3,0.7C3.1,0.9,3,1.5,3.1,1.6c0,0.1,0.1,0,0.2,0.1C3.5,2,3.2,2.4,3.3,2.6
				c0,0,0.1,0.1,0.1,0.1c0,0,0,0.1,0.1,0.2c0,0,0,0.1,0,0.1C3.7,3,3.8,3.1,4,3.3C4.2,3.5,4.2,4,4.5,4.4z"/>
			<g>
				<path class="st0" d="M5.5,2.4c0.4-0.5,1-1,1.5-1.4c0,0,0,0,0-0.1C6.8,1.1,6.6,1.3,6.4,1.4C6.1,1.7,5.9,1.9,5.7,2.2
					C5.8,1.9,6,1.6,6.1,1.2c0,0,0,0,0,0c-0.3,0.5-0.6,1-0.9,1.5C5.1,2.8,5,3,4.9,3.1C5,2.9,5.1,2.6,5.3,2.3C5.4,1.9,5.7,1.4,5.9,1
					c0,0,0,0,0,0C5.6,1.4,5.4,1.8,5.2,2.3c-0.2,0.3-0.3,0.7-0.4,1c0-0.3,0-0.5,0.1-0.8c0,0,0,0,0,0C4.8,2.8,4.7,3,4.7,3.3
					c0,0.1,0,0.1,0,0.2c0-1,0.4-1.9,0.3-2.9c0,0,0,0,0,0C5,1.5,4.6,2.4,4.6,3.4c0-0.1,0-0.2-0.1-0.3c0-0.2,0-0.4,0-0.6
					c0-0.2,0-0.4,0-0.6c0,0,0,0,0,0C4.4,2,4.4,2.2,4.4,2.4c0,0.1,0,0.2,0,0.3c0-0.2-0.1-0.4-0.1-0.7C4.2,1.5,4.1,0.9,3.7,0.5
					c0,0,0,0,0,0C4.2,1.2,4.2,2,4.3,2.8c0,0.1,0,0.1,0,0.2C4.2,2.7,4.1,2.4,4,2.1c0,0,0,0,0,0c0.1,0.3,0.1,0.7,0.2,1
					C4.2,3,4.1,2.9,4.1,2.8C3.9,2.6,3.8,2.5,3.6,2.3C3.5,2.3,3.4,2.2,3.3,2.1c0,0.1,0,0.2,0,0.2c0,0,0,0,0,0c0,0,0,0,0,0
					c0,0.1,0,0.1,0,0.2c0,0,0.1,0.1,0.1,0.1c0,0,0,0,0,0C3.6,2.8,3.7,2.9,3.8,3C3.7,2.9,3.6,2.8,3.5,2.8c0,0,0,0.1,0,0.1
					c0,0,0,0.1,0,0.1c0.1,0,0.2,0.1,0.3,0.2c0,0,0.1,0.1,0.1,0.1c0,0,0,0,0,0c0,0,0,0,0,0.1c0,0,0,0,0,0c0.1,0.1,0.1,0.2,0.1,0.3
					c0,0.1,0,0.2,0.1,0.2C4.3,4,4.4,4.1,4.5,4.3c0,0,0,0,0,0C4.5,4,4.3,3.6,4.1,3.4c0.1,0.1,0.1,0.2,0.2,0.3c0,0,0,0.1,0.1,0.1
					c0,0.1,0.1,0.3,0.2,0.4c0,0,0.1,0,0.1,0c0,0.1,0.1,0.1,0.2,0c0,0,0,0,0,0C4.9,4.1,5,4.1,5,4c0,0,0.1-0.1,0.1-0.1
					c0-0.1,0.1-0.1,0.2-0.2c0.1,0,0.2,0,0.2,0c0.1,0,0.1,0,0.2,0c0,0,0,0,0,0c0,0,0,0,0,0c0.1,0,0.1,0,0.2,0c0,0,0,0,0,0
					c0,0,0,0,0,0C6.1,3.4,6.2,3.2,6.3,3c0-0.1,0.1-0.1,0.1-0.2C6.3,2.9,6.3,2.9,6.2,3C6.1,3.1,6,3.1,5.9,3.2c-0.1,0-0.2,0.1-0.3,0.1
					c0.1-0.1,0.1-0.1,0.2-0.2c0,0,0,0,0,0C5.6,3.2,5.4,3.3,5.3,3.4C5.4,3.2,5.5,3,5.6,2.8c0.1-0.2,0.3-0.4,0.5-0.6
					c0.2-0.2,0.4-0.3,0.6-0.5c0,0,0,0,0,0C6.4,1.9,6.2,2.1,6,2.3C5.8,2.4,5.7,2.6,5.5,2.8C5.4,2.9,5.2,3.1,5.1,3.2
					c0.1-0.2,0.2-0.4,0.2-0.5C5.4,2.6,5.5,2.5,5.5,2.4z"/>
				<path class="st0" d="M5.5,0.5C5.5,0.5,5.5,0.5,5.5,0.5C5.5,0.5,5.5,0.5,5.5,0.5C5.5,0.5,5.6,0.5,5.5,0.5
					C5.6,0.5,5.6,0.5,5.5,0.5c0.2-0.1,0.3-0.2,0.3-0.3c0,0,0.1-0.1,0.1-0.1c-0.1,0-0.2-0.1-0.3-0.1c0,0,0,0,0,0c0,0,0,0,0,0
					C5.5,0,5.5,0,5.4,0c0,0,0,0.1,0,0.1C5.5,0.2,5.5,0.3,5.5,0.5C5.5,0.4,5.5,0.4,5.5,0.5z"/>
			</g>
			<g>
				<path class="st0" d="M4.8,1c0-0.1,0-0.2,0-0.2c0,0,0,0,0,0C4.8,0.9,4.8,1,4.8,1z"/>
				<path class="st0" d="M7,1.2C6.9,1.3,6.8,1.3,6.7,1.4C6.5,1.6,6.3,1.7,6.1,1.9c-0.3,0.3-0.6,0.6-0.8,1c0.1-0.2,0.2-0.5,0.4-0.7
					c0.2-0.3,0.4-0.6,0.7-0.9C6.5,1.2,6.6,1,6.8,0.9c0.1,0,0.1-0.1,0.2-0.1c0,0,0-0.1-0.1-0.1c0,0,0,0,0,0C6.7,0.8,6.6,0.9,6.5,1
					C6.3,1.2,6.1,1.5,5.9,1.7C5.5,2.2,5.2,2.7,5,3.2c-0.1,0.3-0.2,0.7-0.2,1c0,0,0,0,0,0C4.9,3.9,5,3.5,5.2,3.1c0,0,0-0.1,0.1-0.1
					c0.2-0.2,0.3-0.4,0.5-0.6c0,0,0,0,0,0C6,2.3,6.2,2.1,6.5,1.9C6.7,1.8,6.8,1.7,7,1.7c0-0.1,0-0.1,0-0.2C6.8,1.6,6.6,1.7,6.5,1.8
					C6.2,2,6,2.2,5.7,2.4C5.9,2.3,6,2.1,6.2,2c0.2-0.2,0.4-0.3,0.6-0.4C6.9,1.5,6.9,1.4,7,1.4C7,1.3,7,1.2,7,1.2C7,1.2,7,1.2,7,1.2z
					"/>
				<path class="st0" d="M6.1,0.9C5.9,1.2,5.7,1.4,5.5,1.7C5.4,1.9,5.2,2.2,5.1,2.5C5,2.8,4.9,3.1,4.9,3.4c0,0,0,0,0,0
					C5,3.1,5.1,2.8,5.2,2.5C5.3,2.3,5.4,2,5.6,1.7C5.8,1.5,5.9,1.2,6.1,0.9c0.1-0.1,0.3-0.2,0.4-0.3c0.1,0,0.1-0.1,0.2-0.1
					c0,0-0.1,0-0.1-0.1c-0.1,0-0.1,0.1-0.2,0.1C6.3,0.7,6.2,0.8,6.1,0.9z"/>
				<path class="st0" d="M4.4,0.2C4.4,0.2,4.4,0.2,4.4,0.2c0,0.3,0,0.5,0,0.8c0,0.3,0.1,0.5,0.1,0.8c0,0.1,0.1,0.2,0.1,0.3
					c0,0.1,0.1,0.3,0.1,0.4c0,0,0,0,0,0c0-0.1,0-0.3,0-0.4c0-0.1,0-0.2,0-0.3c0,0.1,0,0.1,0.1,0.2c0,0,0,0,0,0c0,0.3,0,0.6,0.1,0.9
					c0,0,0,0,0,0c-0.1-0.6,0-1.2,0.1-1.8C4.9,0.8,5,0.5,5,0.2c0-0.1,0-0.2,0.1-0.2C4.9,0,4.7,0,4.6,0.1C4.5,0.1,4.4,0.2,4.4,0.2z
					 M4.8,1c0-0.1,0-0.1,0-0.2c0,0,0,0,0,0C4.8,0.9,4.8,0.9,4.8,1z"/>
				<path class="st0" d="M4.1,0.7c0,0.3,0.1,0.7,0.2,1C4.4,2.3,4.5,3,4.8,3.6c0,0,0,0,0,0C4.6,2.9,4.4,2.3,4.3,1.7
					c0-0.3-0.1-0.6-0.1-0.9c0-0.2,0-0.3,0-0.5c-0.1,0-0.1,0-0.2,0C4,0.4,4.1,0.6,4.1,0.7z"/>
				<path class="st0" d="M3.3,2.2c0.2,0.1,0.3,0.3,0.5,0.4C4,2.8,4.1,3,4.2,3.2c0.1,0.2,0.2,0.4,0.4,0.5c0,0,0,0,0,0
					C4.6,3.5,4.5,3.4,4.4,3.3C4.2,2.8,4,2.4,3.7,1.9C3.6,1.7,3.5,1.5,3.4,1.3C3.3,1.1,3.3,1,3.2,0.9C3.2,1,3.1,1,3.1,1.1
					c0,0.1,0.1,0.1,0.1,0.2C3.4,1.5,3.5,1.8,3.7,2c0.2,0.4,0.5,0.8,0.7,1.2c0,0-0.1-0.1-0.1-0.1C4.2,3,4,2.8,3.9,2.6
					C3.8,2.5,3.6,2.3,3.5,2.1c0,0-0.1-0.1-0.1-0.1C3.4,2.1,3.3,2.1,3.3,2.2C3.3,2.2,3.3,2.2,3.3,2.2z"/>
				<path class="st0" d="M6.1,0.6C6.1,0.7,6.1,0.7,6.1,0.6c0.1-0.1,0.2-0.2,0.3-0.3c0,0-0.1,0-0.1-0.1C6.3,0.4,6.2,0.5,6.1,0.6z"/>
				<path class="st0" d="M3.6,1.6c0,0.1,0.1,0.1,0.1,0.2C4,2.2,4.2,2.6,4.5,3c0,0,0,0,0,0C4.4,2.7,4.3,2.6,4.2,2.4c0,0,0,0,0,0
					c0,0,0.1,0,0.1,0c0-0.2-0.1-0.4-0.2-0.6c0-0.1-0.1-0.2-0.1-0.2c0,0,0,0,0,0c0,0,0.1,0,0.1,0C4.1,1.4,4.1,1.2,4,1
					C4,0.9,4,0.7,3.9,0.5c0-0.1,0-0.1,0-0.2c-0.1,0-0.1,0.1-0.1,0.1c0,0-0.1,0-0.1,0.1c0,0,0,0,0,0c0,0,0,0,0,0c0,0,0,0,0,0
					C3.6,0.6,3.4,0.6,3.3,0.7c0,0,0,0,0,0c0,0,0,0,0,0c0,0,0,0,0,0c0,0,0,0,0,0.1c0.1,0.1,0.1,0.3,0.2,0.4C3.5,1.4,3.6,1.5,3.6,1.6z
					"/>
			</g>
		</g>
		<g>
			<path class="st0" d="M3.2,5.6c0.1-0.1,0.1-0.2,0.2-0.2C3.5,5.3,3.9,5.2,4.3,5c0.1-0.1,0.2-0.2,0.3-0.2c0.1,0,0.1-0.1,0.2-0.1
				c0,0,0,0,0.1,0c0,0,0,0,0,0c-0.1,0-0.2-0.1-0.3-0.2C4.2,4,4.2,3.5,4,3.3C3.8,3.1,3.7,3,3.5,2.9C3.3,2.8,3.1,2.7,2.9,2.4
				C2.7,2.2,2.6,2.2,2.1,2C1.8,1.9,1.6,2.2,1.3,2.2c-0.1,0-0.1-0.1-0.2,0c0,0,0,0-0.1,0.1c0,0-0.1,0.1-0.1,0.1
				C0.6,2.6,0.7,2.7,0.5,2.8C0.4,2.9,0.4,2.9,0.3,3C0.1,3.2,0,3.6,0.1,3.7c0,0,0,0,0,0c0.1,0.1,0,0.2,0,0.3c0.1,0.2,0.1,0.3,0,0.5
				c-0.2,0.1,0-0.1,0.5,1.2c0,0.1,0.1,0.1,0.1,0.1C0.9,6,1.3,6,1.7,6c0.2,0,0.3,0.1,0.4,0.2c0,0,0.1-0.1,0.1-0.1
				C2.4,5.9,3,5.7,3.2,5.6z"/>
			<g>
				<path class="st0" d="M1.6,3.8C1.8,3.9,2,4,2.3,4.1c0,0,0,0,0,0C2.1,4,1.8,3.9,1.6,3.8C1.6,3.8,1.6,3.8,1.6,3.8z"/>
				<path class="st0" d="M1,2.9c0.2,0.1,0.4,0.3,0.6,0.4c0,0,0,0,0,0C1.4,3.1,1.2,3,1,2.8C0.9,2.7,0.8,2.6,0.7,2.5
					C0.7,2.5,0.7,2.6,0.6,2.6C0.7,2.7,0.9,2.8,1,2.9z"/>
				<path class="st0" d="M1.3,3.9C1.3,3.9,1.3,3.9,1.3,3.9C1,3.8,0.7,3.7,0.4,3.6c-0.1,0-0.3-0.1-0.4-0.1c0,0.1,0,0.1,0,0.2
					c0,0,0,0,0,0c0.1,0,0.2,0.1,0.3,0.1C0.7,3.8,1,3.9,1.3,3.9z"/>
				<path class="st0" d="M2.5,2.7C2.8,3,3.1,3.2,3.4,3.4c0,0,0,0,0,0C3.1,3.2,2.8,2.9,2.6,2.6C2.4,2.4,2.3,2.2,2.1,2c0,0,0,0,0,0
					C2,2,1.9,2,1.8,2C2.1,2.2,2.3,2.5,2.5,2.7z"/>
				<path class="st0" d="M0.5,3.6c0.3,0.1,0.6,0.1,0.8,0.1c0,0,0,0,0,0C1.2,3.6,1.1,3.6,0.9,3.5c-0.1,0-0.3-0.1-0.4-0.1
					c-0.1,0-0.3-0.1-0.4-0.1c0,0.1,0,0.1,0,0.2C0.2,3.5,0.4,3.5,0.5,3.6z"/>
				<path class="st0" d="M1,5C1.1,5,1.2,5,1.4,4.9c0,0,0,0,0,0C1.2,4.9,1.1,4.9,1,5C0.8,5,0.6,5,0.5,5C0.4,5,0.3,5,0.3,5
					c0,0.1,0.1,0.1,0.1,0.2c0,0,0.1,0,0.1,0C0.7,5.1,0.8,5.1,1,5z"/>
				<path class="st0" d="M2.5,5.5C2.5,5.5,2.5,5.5,2.5,5.5C2.3,5.6,2.1,5.7,1.8,5.8c-0.1,0-0.2,0.1-0.4,0.1C1.4,5.9,1.2,5.9,1.2,6
					c0,0,0,0,0,0c0.1,0,0.2,0,0.3,0c0.1-0.1,0.3-0.1,0.4-0.2C2.1,5.7,2.3,5.6,2.5,5.5z"/>
				<path class="st0" d="M2.8,5.5C2.8,5.4,2.8,5.4,2.8,5.5c-0.1,0-0.1,0.1-0.2,0.1c0,0,0,0,0,0C2.7,5.5,2.7,5.5,2.8,5.5z"/>
				<path class="st0" d="M4.2,4.5C4.2,4.5,4.2,4.5,4.2,4.5C4.1,4.5,4.1,4.5,4.2,4.5C4.1,4.5,4.1,4.5,4.2,4.5
					C4.1,4.5,4.1,4.5,4.2,4.5c-0.1,0-0.1,0-0.1,0c0,0,0,0,0,0c0-0.2,0-0.4-0.1-0.5c0-0.2-0.1-0.3-0.2-0.5C3.7,3.3,3.6,3.1,3.5,2.9
					c0,0,0,0,0,0c0,0,0,0,0,0c0,0,0,0,0-0.1c0,0,0,0,0,0l0,0C3.3,2.8,3.1,2.7,2.9,2.5c0,0,0,0,0,0C3,2.7,3.2,2.8,3.3,2.9
					C3.2,2.9,3.2,2.8,3.1,2.8C3,2.7,3,2.6,2.9,2.5c0,0,0,0,0,0C2.8,2.3,2.7,2.3,2.7,2.2c0,0.2,0.1,0.4,0.2,0.5C3,2.9,3,3,3.1,3.1
					c0.1,0,0.2,0.2,0.2,0.1c0,0,0-0.1,0-0.1c0.1,0.1,0.2,0.2,0.3,0.4c0,0,0,0,0,0c0,0,0,0,0,0C3.6,3.3,3.5,3.2,3.4,3.2c0,0,0,0,0,0
					c0,0.1,0.1,0.2,0.1,0.3c0,0.1,0.1,0.2,0.1,0.3C3.4,3.5,3.2,3.4,3,3.3c0,0,0,0,0,0C3,3.4,3.1,3.5,3.2,3.6c0,0,0.1,0.1,0.1,0.1
					C3.2,3.6,3.1,3.5,2.9,3.5c0,0,0,0,0,0c0.2,0.1,0.3,0.3,0.4,0.4C3,3.6,2.7,3.4,2.5,3.2c-0.4-0.3-0.7-0.6-1-1c0,0,0,0-0.1,0
					C1.6,2.5,2,2.8,2.3,3.1c0.4,0.3,0.8,0.6,1.1,1c0,0.1,0.1,0.1,0.1,0.2c-0.1,0-0.1,0-0.2-0.1C3.2,4.1,3.1,4,2.9,3.9
					C2.7,3.8,2.4,3.6,2.2,3.5C1.9,3.3,1.7,3.2,1.4,3C1.3,2.9,1.2,2.8,1.1,2.7C1,2.6,0.9,2.5,0.8,2.4c0,0,0,0,0,0
					C0.9,2.6,1,2.7,1.1,2.8C1.2,2.9,1.3,2.9,1.4,3c0.2,0.2,0.5,0.3,0.7,0.5c0.2,0.1,0.5,0.3,0.7,0.4C3,4,3.1,4.1,3.2,4.2
					C3,4.2,2.7,4.1,2.5,4.1c0,0,0,0,0,0c0.2,0.1,0.5,0.3,0.7,0.3c-0.1,0-0.3,0-0.4,0C1.9,4.2,1,3.9,0.2,4.2c0,0,0,0,0,0
					C1,4,1.8,4.2,2.6,4.4c-0.1,0-0.1,0-0.2,0c0,0,0,0,0,0C2.7,4.5,3,4.5,3.2,4.6C3.1,4.6,3,4.6,2.9,4.7c-0.1,0-0.2,0.1-0.3,0.1
					c-0.5,0-0.9,0-1.4-0.1c-0.2,0-0.5,0-0.7-0.1C0.3,4.6,0.2,4.6,0,4.6c0,0,0,0.1,0.1,0.2c0.1,0,0.2,0,0.3,0c0.2,0,0.5,0,0.7,0
					c0.4,0,0.9,0,1.3,0C2.2,4.9,2,5,1.7,5.2c0,0,0,0,0,0C2,5,2.3,4.9,2.6,4.8c0,0,0,0,0.1,0c0,0,0,0,0,0c0.1,0,0.2,0,0.3,0
					c0.2,0,0.4,0,0.6,0C3.3,4.8,3.1,4.9,2.9,5C2.5,5.2,2.1,5.3,1.6,5.5c0,0,0,0,0,0C2.1,5.3,2.5,5.1,3,5C3.2,5,3.4,4.9,3.6,4.9
					C3.5,4.9,3.4,5,3.3,5C3.2,5.2,3,5.3,2.8,5.4c0,0,0,0,0,0c0.3-0.1,0.6-0.3,0.9-0.5c0,0,0,0,0,0c0,0,0,0-0.1,0.1
					C3.5,5,3.3,5.1,3.1,5.3c0,0,0,0,0,0C3.3,5.2,3.6,5.1,3.8,5C4,4.9,4.2,4.8,4.2,4.5C4.3,4.5,4.2,4.5,4.2,4.5z"/>
			</g>
			<g>
				<path class="st0" d="M2.5,3.4C2.5,3.4,2.5,3.4,2.5,3.4C2.5,3.4,2.6,3.5,2.5,3.4C2.6,3.5,2.5,3.4,2.5,3.4z"/>
				<path class="st0" d="M3.5,4.7C3.3,4.8,3.1,5,2.9,5.1C2.7,5.3,2.5,5.4,2.3,5.5C2.1,5.6,1.9,5.7,1.7,5.8c-0.1,0-0.2,0.1-0.3,0.1
					C1.3,6,1.2,6,1.2,6c0.2,0,0.3,0,0.5,0c0,0,0,0,0.1,0c0.2-0.1,0.4-0.2,0.6-0.4C2.8,5.3,3.2,5,3.5,4.7C3.5,4.7,3.5,4.7,3.5,4.7z"
					/>
				<path class="st0" d="M3.6,4.8C3.4,5,3.3,5.1,3.2,5.2C3.1,5.3,3,5.3,3,5.4c-0.1,0-0.1,0.1-0.2,0.2c0,0,0,0.1,0.1,0.1
					c0.1,0,0.2,0,0.2-0.1c0.1-0.1,0.1-0.1,0.2-0.2C3.4,5.2,3.5,5,3.6,4.8C3.6,4.8,3.6,4.8,3.6,4.8z"/>
				<path class="st0" d="M3.7,4.4c-0.2,0-0.3,0.1-0.4,0.2C3.1,4.7,3,4.7,2.8,4.8C2.5,5,2.2,5.1,1.9,5.2c0,0,0,0,0,0
					c-0.1,0-0.2,0.1-0.3,0.1C1.4,5.3,1.3,5.4,1.1,5.4c0,0-0.1,0-0.1,0c-0.2,0-0.3,0.1-0.5,0.1c0,0,0,0.1,0.1,0.1
					c0,0.1,0.1,0.1,0.1,0.1c0,0,0,0,0.1,0.1c0,0,0,0,0,0c0,0,0,0,0.1,0c0.2,0,0.3-0.1,0.5-0.2c0,0,0.1,0,0.1,0c0.1,0,0.1,0,0.2-0.1
					c0.1,0,0.2-0.1,0.3-0.1C1.8,5.5,1.6,5.6,1.4,5.7C1.3,5.7,1.1,5.8,1,5.8c-0.1,0-0.1,0-0.2,0.1c0,0,0,0,0,0C0.8,5.9,0.9,6,1,6
					c0,0,0,0,0,0c0.1,0,0.3-0.1,0.4-0.1c0.3-0.1,0.5-0.2,0.8-0.4c0.2-0.1,0.4-0.2,0.6-0.4c0,0,0.1,0,0.1-0.1
					C3.2,4.9,3.6,4.7,3.7,4.4C3.7,4.4,3.7,4.4,3.7,4.4z"/>
				<path class="st0" d="M0.3,4.9c0.2,0,0.4-0.1,0.6-0.1c0.2,0,0.4,0,0.7-0.1c0.2,0,0.4,0,0.6,0c0,0,0,0,0,0c-0.2,0-0.4,0-0.6,0
					c-0.2,0-0.4,0-0.6,0c-0.2,0-0.4,0-0.6,0c0,0-0.1,0-0.1,0C0.2,4.8,0.2,4.9,0.3,4.9C0.3,5,0.3,4.9,0.3,4.9z"/>
				<path class="st0" d="M0.1,4.7c0.1,0,0.2,0,0.4,0c0.3,0,0.6-0.1,0.9-0.1c0.3,0,0.6,0,0.9,0c0.3,0,0.6,0,0.8,0c0,0,0,0,0,0
					C2.5,4.4,1.9,4.4,1.3,4.4c-0.3,0-0.6,0-0.8,0c-0.1,0-0.2,0-0.4,0c0,0,0,0,0,0C0,4.6,0,4.5,0.1,4.7z"/>
				<path class="st0" d="M1.7,3.7C2,3.8,2.3,3.9,2.6,4c0.3,0.1,0.6,0.3,0.8,0.4c0,0,0,0,0,0C3.2,4.2,2.9,4.1,2.6,3.9
					C2.4,3.8,2.1,3.7,1.8,3.5c-0.5-0.2-1-0.4-1.5-0.6c0,0,0,0,0,0c0,0-0.1,0.1-0.1,0.1C0.7,3.3,1.2,3.4,1.7,3.7z"/>
				<path class="st0" d="M0.6,2.7C0.8,2.8,1,2.9,1.2,2.9c0.3,0.1,0.6,0.3,1,0.4c0.3,0.2,0.6,0.3,0.9,0.5C3.2,4,3.4,4,3.5,4.2
					c0.1,0.1,0.3,0.2,0.4,0.3c0,0,0,0,0,0C3.8,4.3,3.7,4.2,3.5,4.1c0,0-0.1,0-0.1-0.1c0.1,0,0.1,0.1,0.2,0.1c0,0,0,0,0,0
					C3.4,4,3.2,3.8,3,3.6C2.8,3.4,2.6,3.3,2.3,3.1C1.9,2.8,1.5,2.5,1,2.2c0,0-0.1,0.1-0.1,0.1C0.8,2.4,0.7,2.5,0.7,2.6c0,0,0,0,0,0
					c0,0,0,0,0,0C0.6,2.6,0.6,2.7,0.6,2.7z M2.5,3.4C2.5,3.4,2.6,3.5,2.5,3.4C2.6,3.5,2.5,3.4,2.5,3.4C2.5,3.4,2.5,3.4,2.5,3.4z"/>
			</g>
		</g>
		<g>
			<path class="st0" d="M5,6.2C4.9,5.8,4.9,5.4,5,5.1C5,5,5,4.9,5,4.8c0,0,0,0,0,0c0,0,0,0,0,0c0,0,0,0,0,0c0,0,0-0.1-0.1-0.1
				c0,0,0,0,0,0c0,0,0,0-0.1,0c0,0,0,0-0.1,0c-0.1,0-0.1,0.1-0.2,0.1C4.5,4.8,4.4,4.9,4.3,5C3.9,5.2,3.5,5.3,3.4,5.4
				C3.3,5.4,3.2,5.5,3.2,5.6C3,5.7,2.4,5.9,2.2,6c0,0-0.1,0.1-0.1,0.1c0,0,0,0,0,0C2,6.2,1.8,6.2,1.5,6.4C1.3,6.5,1.1,7.5,1.2,7.6
				c0,0,0,0,0,0c0,0,0.1,0.3,0.1,0.5c0,0.1,0.1,0.2,0.1,0.2c0,0.1,0.1,0.3,0.1,0.4c0.5,0.6,2.4,0.9,3.5-0.1c0.5-0.4,0.2-0.8,0.2-1.5
				c0,0,0,0,0-0.1C5.3,6.8,5.2,6.5,5,6.2z"/>
			<g>
				<path class="st0" d="M2.9,8c-0.2,0.2-0.7,0.7-1,1c0,0,0.1,0,0.1,0.1C2,9,2.1,8.9,2.2,8.9C2.5,8.6,2.8,8.4,2.9,8z"/>
				<path class="st0" d="M5.1,7.4C5.1,7.4,5,7.4,5.1,7.4c0,0.1,0.1,0.3,0.1,0.4c0,0.1,0.1,0.2,0.1,0.4c0-0.2,0-0.3,0-0.5
					C5.3,7.6,5.2,7.5,5.1,7.4z"/>
				<path class="st0" d="M1.4,8.3C1.7,8.1,2,7.9,2.2,7.7c0,0,0,0,0,0C2,7.9,1.6,8,1.4,8.2c0,0,0,0,0,0C1.4,8.3,1.4,8.3,1.4,8.3z"/>
				<path class="st0" d="M4.3,5C4.2,5,4.2,5,4.3,5C4.1,5.1,4.1,5.1,4.1,5.2C4,5.3,3.8,5.4,3.8,5.5c-0.1,0-0.1,0.1-0.2,0.1
					C3.5,5.7,3.4,5.8,3.3,5.8C3,5.9,2.8,6,2.5,6.1c0,0,0,0,0,0c0,0,0,0,0,0c0,0,0,0,0,0c0,0,0,0,0,0c0,0,0,0,0,0
					c0.1,0,0.2,0.1,0.4,0c0.1,0,0.2,0,0.3,0c0,0,0,0,0,0c0,0-0.1,0.1-0.1,0.1c0,0,0,0,0,0c0,0,0,0,0,0c-0.2,0-0.3,0-0.5,0
					c-0.1,0-0.2,0-0.2,0c-0.1,0-0.1,0-0.2,0c0,0,0,0.1,0,0.1c0,0,0,0,0,0c0,0-0.1,0-0.1,0c-0.1,0-0.1,0-0.2,0c0,0,0,0.1,0,0.1
					c0.1,0.1,0.3,0.1,0.4,0.1c0.1,0,0.3,0,0.4-0.1c0,0,0.1,0,0.1,0C2.6,6.7,2.6,6.8,2.5,7C2.4,6.9,2.2,7,2.1,7.1
					C1.9,7.1,1.8,7.2,1.6,7.3C1.5,7.4,1.3,7.5,1.2,7.6c0,0,0,0.1,0,0.1c0,0,0,0,0,0c0,0,0.1,0,0.1-0.1c0.2-0.1,0.3-0.1,0.5-0.2
					C2,7.4,2.1,7.3,2.3,7.2c0,0,0.1,0,0.1-0.1c0,0,0,0,0,0c0,0,0,0,0,0c0,0,0,0,0,0c0,0,0,0,0,0c0,0,0.1,0,0.1-0.1
					C2.6,7,2.6,7,2.7,7c0,0,0,0,0,0c0,0-0.1,0-0.1,0c0,0,0,0,0,0c0,0,0,0,0,0c0.1-0.2,0.2-0.3,0.4-0.4C3,6.5,3.1,6.4,3.2,6.3
					C3.1,6.4,3,6.6,3,6.7c0,0,0,0,0,0c0.1-0.1,0.1-0.2,0.2-0.3c0.1-0.1,0.2-0.2,0.3-0.3C3.7,6,3.8,6,3.9,5.9C4,5.8,4,5.8,4,5.8
					C4,5.9,3.9,5.9,3.9,6C3.8,6.1,3.7,6.2,3.6,6.3c0,0,0,0,0,0c0.1,0,0.3-0.1,0.4-0.2C4,6,4.1,6,4.1,6c-0.6,1-1.6,1.5-2.5,2.3
					C1.6,8.3,1.5,8.4,1.4,8.5c0,0,0,0,0,0c0.8-0.7,1.7-1.3,2.4-2.1C4,6.3,4.1,6.1,4.1,6c0,0.1-0.1,0.2-0.1,0.2
					C4,6.4,3.9,6.5,3.8,6.7c0,0,0,0,0,0c0.1-0.1,0.2-0.3,0.3-0.4C4.2,6.2,4.3,6.1,4.3,6C4.2,6.4,4.1,6.8,4,7.2
					C3.8,7.9,3.5,8.5,3.2,9.1c0,0,0,0,0,0C3.5,8.5,3.8,7.9,4,7.2c0.1-0.4,0.3-0.9,0.4-1.3c0,0,0,0.1,0,0.1c0,0.2,0,0.3,0,0.5
					c0,0,0,0,0,0c0-0.1,0.1-0.3,0.1-0.4c0-0.1,0-0.1,0-0.2c0,0.1,0,0.3,0,0.4c0,0.3,0.1,0.7,0.1,1c0.1,0.6,0.1,1.1,0,1.7
					c0,0,0,0,0,0c0.1-0.5,0.1-1,0.1-1.5c0-0.3-0.1-0.7-0.1-1c0-0.3,0-0.5,0-0.8C4.7,6,4.7,6.3,4.8,6.6c0,0,0,0,0,0
					c0-0.3-0.1-0.6-0.1-0.9c0-0.1,0-0.2,0-0.2c0.1,0.1,0.1,0.2,0.1,0.3c0,0.1,0.1,0.2,0.1,0.3c0,0.1,0,0.2,0.1,0.3
					C5,6.7,5.1,7,5.3,7.2c0,0,0,0,0,0C5.2,7.1,5.2,6.9,5.1,6.8c0-0.1,0-0.3-0.1-0.4c0,0,0,0,0-0.1c0,0,0,0,0-0.1
					C5,6,4.9,5.8,4.9,5.5c0,0,0-0.1,0-0.1c0,0-0.1,0-0.1,0c0,0.2,0,0.3,0,0.5c0-0.1,0-0.1-0.1-0.2c0-0.1-0.1-0.3-0.1-0.4
					c0-0.1,0-0.2-0.1-0.3c0-0.1-0.1-0.2-0.1-0.3c0,0,0,0,0,0C4.4,4.8,4.3,4.9,4.3,5z"/>
				<path class="st0" d="M3.6,9.1c0.1-0.1,0.2-0.3,0.3-0.4c0,0,0,0,0,0C3.8,8.7,3.6,8.9,3.5,9C3.4,9.1,3.3,9.2,3.2,9.3c0,0,0,0,0,0
					c0.1,0,0.2,0,0.3,0C3.5,9.3,3.6,9.2,3.6,9.1z"/>
				<path class="st0" d="M2.9,7.8C2.5,8.1,2.1,8.3,1.8,8.6C1.7,8.7,1.7,8.7,1.6,8.8c0,0.1,0.1,0.1,0.2,0.1c0.4-0.4,1.2-1,1.6-1.6
					C3.2,7.6,3.1,7.7,2.9,7.8z"/>
				<path class="st0" d="M2.6,9.1C2.8,8.9,3,8.8,3.2,8.6c0.2-0.2,0.3-0.3,0.4-0.5c0,0,0,0,0,0C3.5,8.2,3.4,8.3,3.3,8.3
					C3.2,8.4,3.1,8.5,3,8.6C2.8,8.8,2.6,8.9,2.4,9.1c-0.1,0-0.1,0.1-0.2,0.1c0.1,0,0.1,0,0.2,0C2.5,9.2,2.6,9.1,2.6,9.1z"/>
				<path class="st0" d="M3,8.9C2.8,9,2.7,9.1,2.5,9.3c0.1,0,0.1,0,0.2,0C2.8,9.2,2.9,9,3,8.9C3,8.9,3,8.9,3,8.9z"/>
			</g>
			<g>
				<path class="st0" d="M2.3,8.2c0.2-0.1,0.3-0.3,0.5-0.4c0.1-0.1,0.3-0.3,0.4-0.4c0,0,0,0,0,0C3.1,7.5,2.9,7.6,2.8,7.8
					C2.6,7.9,2.5,8,2.3,8.2C2.1,8.3,1.9,8.4,1.7,8.5c-0.1,0-0.2,0.1-0.3,0.1c0,0.1,0.1,0.1,0.1,0.2l0,0c0.1-0.1,0.2-0.1,0.2-0.2
					C2,8.5,2.2,8.3,2.3,8.2z"/>
				<path class="st0" d="M2.8,8.5c0.1-0.2,0.3-0.4,0.4-0.6c0.1-0.2,0.3-0.4,0.3-0.6c0,0,0,0,0,0C3.4,7.4,3.3,7.6,3.2,7.8
					C3.1,8,2.9,8.2,2.8,8.5C2.6,8.6,2.4,8.7,2.2,8.9C2.1,9,2.1,9,2,9.1c0.1,0,0.1,0.1,0.2,0.1c0,0,0.1-0.1,0.1-0.1
					C2.5,8.8,2.6,8.7,2.8,8.5z"/>
				<path class="st0" d="M1.2,7.6C1.2,7.6,1.2,7.6,1.2,7.6C1.5,7.5,1.8,7.4,2,7.3c0,0,0,0,0,0C1.7,7.3,1.5,7.4,1.2,7.5
					C1.2,7.5,1.2,7.6,1.2,7.6z"/>
				<path class="st0" d="M1.8,7.6C1.6,7.7,1.5,7.8,1.3,7.9c0,0.1,0,0.1,0,0.2c0,0,0,0,0.1,0C1.6,7.9,1.7,7.8,1.8,7.6
					C2.2,7.5,2.6,7.2,2.9,7c0.3-0.2,0.5-0.5,0.8-0.8c0.2-0.3,0.5-0.6,0.5-0.9c0,0,0,0,0,0C4.1,5.4,4,5.6,3.9,5.7
					C3.8,5.9,3.7,6,3.6,6.2C3.4,6.4,3.1,6.7,2.8,6.9C2.5,7.2,2.1,7.4,1.8,7.6z"/>
				<path class="st0" d="M4.3,7.8c0-0.3,0.1-0.5,0.1-0.8c0,0,0,0,0,0C4.3,7.2,4.3,7.5,4.3,7.8C4.2,8,4.1,8.3,4,8.5
					C4,8.8,3.9,9,3.7,9.3c0,0,0,0,0,0c0,0,0.1,0,0.1,0C3.9,9,4,8.8,4.1,8.5C4.2,8.3,4.2,8,4.3,7.8z"/>
				<path class="st0" d="M4.2,6.6C4.2,6.6,4.2,6.6,4.2,6.6C4,7.3,3.7,7.9,3.4,8.4C3.2,8.7,3,9,2.8,9.2c0,0,0,0-0.1,0.1
					c0.1,0,0.1,0,0.2,0c0.2-0.3,0.4-0.5,0.5-0.8C3.8,7.9,4,7.3,4.2,6.6z"/>
				<path class="st0" d="M5.2,8.5c0,0-0.1-0.1-0.1-0.1C5.1,8.2,5,8,4.9,7.9c0,0,0,0,0-0.1c0-0.2-0.1-0.3-0.1-0.5
					c-0.1-0.3-0.1-0.7-0.2-1c0-0.3,0-0.6,0-0.9c0-0.1,0-0.1,0-0.2c0-0.1-0.1-0.1-0.1,0c-0.1,0.5-0.1,1,0,1.6c0,0.2,0,0.4,0,0.6
					c0,0.6-0.1,1.3-0.2,1.9C4.6,9,4.8,8.9,5.1,8.7C5.1,8.6,5.2,8.6,5.2,8.5z"/>
				<path class="st0" d="M4.7,5.3c0,0.1,0,0.2,0,0.3c0,0.3,0,0.5,0,0.8c0,0.3,0.1,0.6,0.1,0.9C4.9,7.5,5,7.8,5.1,8.1
					c0,0.1,0.1,0.3,0.1,0.4c0,0,0,0,0,0c0-0.1,0.1-0.1,0.1-0.2c0-0.1-0.1-0.2-0.1-0.2C5.1,7.8,5,7.5,4.9,7.2
					C4.9,6.9,4.8,6.7,4.8,6.4c0-0.1,0-0.2,0-0.3c0,0.2,0.1,0.4,0.1,0.5C5,6.9,5.1,7.1,5.2,7.3c0,0.1,0.1,0.2,0.1,0.2
					c0-0.1,0-0.2,0-0.4C5.2,7,5.1,6.8,5,6.6C4.8,6.2,4.8,5.8,4.7,5.3C4.7,5.3,4.7,5.3,4.7,5.3z"/>
				<path class="st0" d="M3.7,9.2C3.8,9,3.9,8.8,3.9,8.5c0.1-0.5,0.3-0.9,0.3-1.4c0,0,0,0,0,0c0-0.2,0.1-0.4,0.1-0.7c0,0,0,0,0,0
					C4.2,7,4,7.6,3.7,8.1C3.6,8.4,3.4,8.6,3.3,8.9C3.2,9,3.1,9.2,2.9,9.3C3.2,9.3,3.4,9.3,3.7,9.2C3.6,9.3,3.6,9.3,3.7,9.2z"/>
			</g>
		</g>
		<path class="st0" d="M4.5,5.7c0.3,0.8,0.3,1.6,0.1,2.4c0,0,0,0,0,0C4.7,7.3,4.7,6.5,4.5,5.7c0,0.6-0.1,1.1-0.2,1.6
			c-0.1,0.5-0.3,1-0.6,1.5c0,0,0,0,0,0c0.2-0.5,0.4-1,0.6-1.5c0.1-0.5,0.2-1.1,0.2-1.6C4.4,5.6,4.4,5.6,4.5,5.7
			C4.4,5.7,4.5,5.7,4.5,5.7z M4.3,5.5c-0.1,0.3-0.3,0.7-0.4,1c-0.2,0.3-0.4,0.7-0.5,1c0,0,0,0,0,0C3.6,7.3,3.8,6.9,4,6.6
			C4.1,6.3,4.3,5.9,4.3,5.5C4.4,5.5,4.3,5.5,4.3,5.5z M5.3,5.1C5.3,5.1,5.3,5.1,5.3,5.1c0.3,0.4,0.6,0.8,0.8,1.3c0,0,0,0,0,0
			C6,5.9,5.7,5.4,5.3,5.1z M7.2,5.9C6.7,5.5,6.1,5.3,5.6,5.2c0,0,0,0,0,0c0,0-0.1-0.1-0.1-0.1c0,0-0.1,0,0,0c0.3,0.3,0.7,0.5,1,0.9
			c0.3,0.3,0.5,0.6,0.8,1c0,0,0,0,0,0C7,6.6,6.7,6.2,6.4,5.9C6.1,5.7,5.9,5.4,5.6,5.2C6.2,5.4,6.7,5.6,7.2,5.9
			C7.2,5.9,7.2,5.9,7.2,5.9z M3.9,4.4C3.5,4.9,3,5.2,2.5,5.5c0,0,0,0,0,0C3.1,5.3,3.6,4.9,3.9,4.4C4,4.4,3.9,4.4,3.9,4.4z M3.9,4.3
			c-1,0.2-2,0.2-3,0.2c0,0,0,0,0,0C1.9,4.6,2.9,4.6,3.9,4.3C3.9,4.4,3.9,4.3,3.9,4.3z M8.8,3.2c-1,0.3-2,0.7-3.1,1c0,0,0,0.1,0,0
			C6.7,3.9,7.8,3.6,8.8,3.2C8.8,3.2,8.8,3.2,8.8,3.2z M7.8,2.9C7.4,3.1,7,3.3,6.6,3.5C6.2,3.8,5.8,4,5.4,4.3c0,0,0,0,0,0
			c0.4-0.3,0.8-0.5,1.2-0.8C7,3.3,7.4,3.1,7.8,2.9C7.8,2.9,7.8,2.9,7.8,2.9z"/>
		<g>
			<path class="st0" d="M6,3.9c-0.1-0.1-0.3,0-0.3,0c0,0-0.1,0-0.1,0.1c0,0,0,0,0-0.1c0,0,0-0.1,0-0.1c-0.1,0-0.2,0-0.3,0.1
				c0.1-0.1,0.3-0.5,0.1-0.6c-0.1,0-0.1,0-0.2,0.1c0-0.1,0-0.2-0.1-0.2C5,3.2,4.9,3.2,4.9,3.3c0-0.1,0-0.2,0-0.2c0,0-0.1-0.1-0.1,0
				C4.7,3.1,4.6,3.3,4.6,3.4c0,0,0,0,0,0c0,0,0,0,0,0c-0.1,0-0.1,0.2-0.2,0.3c0,0,0,0,0,0c0,0,0,0,0,0C4.2,3.7,4.2,3.9,4.2,4
				c0,0,0,0,0,0c-0.1,0-0.1,0-0.1,0.1c0,0,0,0,0,0C4,4.1,4,4,3.9,4.1c0,0,0,0,0,0c0,0,0,0,0,0c-0.1,0-0.1,0-0.2,0c0,0-0.1,0.1,0,0.1
				c0,0,0,0-0.1,0c-0.1,0-0.2,0-0.2,0c-0.1,0-0.1,0.1-0.1,0.2c0.1,0.1,0.2,0.1,0.3,0.1c0,0,0,0,0,0c0,0,0,0,0,0c0,0,0.1,0,0.1,0
				c0,0-0.1,0.1-0.1,0.1c0,0,0,0.1,0,0.1c0.1,0,0.2,0,0.2,0c0,0,0,0,0,0c0,0,0,0.1,0,0.1C3.9,5,4,5,4.1,5C4.1,5,4.1,5.1,4,5.1
				c0,0,0,0.1,0.1,0c0,0,0.1,0,0.1-0.1C4.1,5.3,4.1,5.4,4.1,5.5c0,0,0,0,0.1,0c0,0,0,0,0,0c0,0.1,0,0.1,0,0.2c0,0.1,0.1,0.1,0.2,0.1
				c0.1,0,0.1-0.1,0.1-0.1c0,0,0,0,0,0c0,0,0,0,0,0c0,0,0,0,0,0c0,0,0,0,0,0c0,0,0.1,0,0.1-0.1c0,0.1,0.1,0.1,0.1,0.1
				c0.1-0.1,0.1-0.2,0.2-0.3c0,0,0,0,0,0c0,0,0,0,0,0c0,0,0.1,0,0.1,0c0,0,0,0,0,0l0,0c0,0,0,0,0,0c0,0,0,0,0.1,0
				c0.1,0.1,0.2,0.1,0.3,0.1c0,0,0,0,0.1,0c0,0,0,0,0,0c0,0,0,0,0,0c0,0,0,0,0,0c0,0,0.1,0,0.1-0.1c0,0,0-0.1,0-0.1c0,0,0.1,0,0.1,0
				c0.1-0.1,0-0.1,0-0.2c0,0,0,0,0,0c0,0,0,0,0,0c0,0,0-0.1,0-0.1c0-0.1-0.1-0.2-0.2-0.3c0.1,0,0.3,0,0.4-0.1c0.1,0,0.1-0.2,0-0.2
				c0,0,0,0,0,0c0,0,0,0,0.1,0c0.1,0,0.2-0.1,0.2-0.2c0,0,0-0.1-0.1-0.1c0-0.1,0-0.1-0.1-0.2C6,4,6,4,6,4C6,4,6,3.9,6,3.9z"/>
			<path class="st0" d="M5.7,4.2C5.7,4.2,5.6,4.2,5.7,4.2c0-0.1-0.1-0.1-0.1-0.1c-0.1,0-0.1,0-0.2,0c0-0.1,0-0.2-0.1-0.1
				c0,0,0,0,0,0c0,0,0,0,0,0c0,0,0,0,0,0c0,0,0,0,0,0c0,0,0,0,0,0c0,0,0-0.1,0-0.1c0,0,0,0-0.1,0c0,0,0,0,0,0c0,0,0,0,0,0
				c0-0.1,0-0.1-0.1-0.1c0,0,0,0,0,0c0,0,0-0.1,0-0.1c0,0,0,0-0.1,0c0,0-0.1,0.1-0.1,0.1c0,0,0,0,0,0c0,0,0,0,0,0c0,0,0,0,0,0
				c0,0,0,0,0,0c0,0,0,0,0,0c0,0,0,0,0,0c0,0,0,0,0,0c0,0-0.1,0.1-0.1,0.2c0,0,0,0,0-0.1c0,0,0,0-0.1,0c0,0.1,0,0.2,0,0.2
				c0,0-0.1,0-0.1,0c0,0-0.1,0-0.1,0.1c0,0,0,0,0,0c0,0-0.1,0-0.1,0c0,0,0,0,0,0.1c0,0,0,0,0,0c0,0,0,0,0,0c0,0,0,0-0.1,0
				c0,0-0.1,0-0.1,0c0,0,0,0,0,0c0,0,0,0.1,0,0.1c0,0,0,0,0,0c0,0,0,0,0,0c-0.1,0-0.1,0.1,0,0.1c0,0,0.1,0,0.1,0.1
				C4,4.7,4,4.8,4,4.8c0,0,0,0,0.1,0c0,0,0,0.1,0.1,0.1c0,0,0.1,0,0.1,0c0,0,0,0,0,0c0,0,0,0,0,0c0,0.1-0.1,0.2,0,0.3c0,0,0,0,0.1,0
				c0,0,0,0,0,0c0,0,0,0,0,0c0,0,0,0,0,0c0,0,0,0.1,0,0.1c0,0,0.1,0,0.1-0.1c0,0,0,0,0,0c0,0,0,0,0,0c0,0,0,0,0,0.1c0,0,0,0,0,0
				c0,0,0,0,0,0c0,0,0.1,0.1,0.1,0c0,0,0,0,0,0c0,0,0,0,0.1,0c0,0,0,0,0,0c0,0,0,0,0,0c0,0,0,0,0,0c0,0,0-0.1,0-0.1c0,0,0,0,0,0
				c0,0,0-0.1,0-0.1c0,0,0,0,0,0c0,0,0,0,0,0c0,0,0,0,0,0c0,0,0,0,0,0c0,0,0,0,0,0c0,0,0,0,0,0c0,0,0,0,0,0c0,0,0,0,0,0c0,0,0,0,0,0
				c0,0,0,0,0,0l0,0c0,0,0,0.1,0,0.1c0,0,0,0,0.1,0c0,0,0,0,0,0c0,0,0,0,0,0c0,0,0.1,0,0.1,0.1c0,0,0.1,0,0.1,0c0,0,0.1,0,0.1-0.1
				c0,0,0,0,0-0.1c0,0,0,0,0,0c0,0,0,0,0,0c0,0,0,0,0,0c0,0,0,0,0,0c0,0,0,0,0,0c0,0,0,0,0.1-0.1c0,0,0,0,0-0.1c0,0,0.1-0.1,0-0.1
				c0,0,0.1,0,0.1-0.1c0,0,0,0,0,0c0.1,0,0.2-0.1,0.2-0.1c0,0,0,0,0,0C5.7,4.3,5.7,4.3,5.7,4.2C5.7,4.3,5.7,4.2,5.7,4.2z"/>
			<path class="st0" d="M5.2,4.2C5.2,4.2,5.2,4.2,5.2,4.2C5.2,4.2,5.2,4.2,5.2,4.2c-0.1,0-0.1,0-0.1,0c0,0,0,0,0,0.1c0,0,0,0,0,0
				c0,0,0,0,0,0c0,0,0,0,0-0.1c0,0,0,0,0,0c0,0,0,0-0.1,0c0,0,0,0,0,0c0,0,0,0,0,0c0,0,0,0-0.1,0c0,0,0-0.1,0-0.1c0,0,0,0,0,0
				c0,0,0,0,0,0c0,0,0,0-0.1,0c0,0,0,0,0,0c0,0,0,0-0.1,0c0,0,0,0,0,0.1c0,0,0,0,0,0c0,0,0,0,0,0c0,0,0,0,0,0l0,0c0,0,0,0,0,0
				c0,0-0.1,0-0.1,0c0,0,0,0,0,0c0,0,0,0,0,0c0,0,0,0,0,0c0,0,0,0,0,0c0,0,0,0,0,0c0,0-0.1,0-0.1,0c0,0-0.1,0-0.1,0.1
				c0,0,0,0.1,0,0.1c0,0,0,0,0,0c0,0,0,0,0,0c0,0,0,0,0,0c0,0,0,0,0,0c0,0,0,0,0,0c0,0,0-0.1-0.1-0.1c0,0,0,0-0.1,0c0,0,0,0,0,0.1
				c0,0,0,0,0,0c0,0,0,0,0,0c0,0,0,0,0,0c0,0,0,0-0.1,0c0,0,0,0.1,0,0.1c0,0,0.1,0,0.1,0c0,0,0,0.1,0,0.1c0,0,0,0,0,0c0,0,0,0,0,0.1
				c0,0,0,0,0,0.1c0,0,0.1,0,0.2,0c0,0,0,0,0,0c0,0,0.1,0.1,0.1,0.1c0,0.1,0,0.1,0,0.2c0,0,0,0,0,0c0,0,0,0,0,0c0,0,0,0,0,0
				c0,0,0-0.1,0-0.1c0,0,0,0,0,0c0,0,0,0.1,0.1,0.1c0.1,0,0.1-0.2,0.1-0.2c0,0,0,0,0,0c0,0,0,0,0,0c0,0,0,0,0,0c0,0,0,0,0.1,0
				c0,0,0,0,0,0c0,0,0,0,0,0c0,0,0,0,0.1,0c0,0,0,0,0,0c0,0,0,0,0,0c0,0,0,0,0-0.1c0,0,0,0,0,0c0,0,0,0,0,0c0,0,0,0,0,0c0,0,0,0,0,0
				c0,0,0-0.1,0-0.1c0,0,0,0,0-0.1c0,0,0,0,0.1,0c0,0,0,0,0,0c0,0,0,0,0,0c0,0,0,0,0.1,0c0,0,0-0.1,0-0.1c0,0,0,0,0,0l0,0
				c0,0,0,0,0,0c0,0,0,0,0-0.1c0,0,0,0,0,0c0,0,0,0,0,0C5.3,4.3,5.3,4.3,5.2,4.2C5.3,4.3,5.3,4.2,5.2,4.2C5.3,4.2,5.2,4.2,5.2,4.2z"
				/>
		</g>
		<g>
			<path class="st0" d="M6.1,4.7C6.1,4.6,6.1,4.6,6.1,4.7c0-0.1-0.7-0.1-0.8-0.1c-0.4,0-0.6-0.2-0.7-0.1c-0.1,0-0.1,0.1,0,0.2
				c0,0,0,0,0.1,0C5.1,4.8,5.6,4.8,6.1,4.7z"/>
			<path class="st0" d="M5.2,4.8C5,4.7,4.9,4.6,4.8,4.6c0,0-0.1-0.1,0-0.1c-0.1,0-0.1,0-0.2,0c-0.1,0-0.1,0.1,0,0.2c0,0,0,0,0.1,0
				C4.8,4.7,5,4.7,5.2,4.8z"/>
			<path class="st0" d="M5.9,4.2c0,0-0.1,0-0.1,0c0,0,0,0,0,0.1c0,0,0,0.1,0,0.1c0,0,0,0,0,0c0,0,0,0,0,0c0,0,0,0.1,0,0.1
				c0,0,0,0.1,0,0.1c0,0,0.1,0,0.1,0c0,0,0.1,0,0.1,0c0,0,0-0.1,0-0.1c0,0,0-0.1,0-0.1c0,0,0,0,0,0C5.9,4.4,6,4.3,5.9,4.2
				C6,4.3,6,4.3,5.9,4.2z"/>
			<path class="st0" d="M5.6,4.2C5.6,4.2,5.6,4.3,5.6,4.2C5.6,4.3,5.7,4.3,5.6,4.2C5.7,4.3,5.7,4.2,5.6,4.2C5.7,4.2,5.6,4.2,5.6,4.2
				z"/>
			<path class="st0" d="M5.7,4.4C5.6,4.4,5.7,4.5,5.7,4.4C5.8,4.4,5.7,4.3,5.7,4.4z"/>
			<path class="st0" d="M5.9,4.8c0,0,0,0.1,0,0.1c0,0,0.1,0,0.1,0c0,0,0-0.1,0-0.1C6,4.7,5.9,4.7,5.9,4.8z"/>
			<path class="st0" d="M5.8,4.9C5.7,5,5.8,5.1,5.8,4.9C5.9,5,5.8,4.9,5.8,4.9z"/>
			<path class="st0" d="M5.7,4.8C5.6,4.8,5.6,4.9,5.7,4.8C5.7,4.9,5.7,4.9,5.7,4.8C5.8,4.9,5.8,4.8,5.7,4.8C5.7,4.8,5.7,4.8,5.7,4.8
				z"/>
			<path class="st0" d="M5.6,4.8C5.5,4.8,5.5,4.8,5.6,4.8c-0.1,0-0.1,0.1-0.1,0.1c0,0,0,0.1,0,0.1c0,0,0,0,0.1,0c0,0,0.1,0,0.1,0
				c0,0,0,0,0-0.1C5.7,4.9,5.6,4.9,5.6,4.8C5.6,4.8,5.6,4.8,5.6,4.8z"/>
			<path class="st0" d="M6.2,4.7C6.2,4.8,6.1,4.8,6.2,4.7c0,0.1,0,0.1,0,0.1c0,0,0.1,0,0.1,0c0,0,0,0,0-0.1c0,0,0,0,0-0.1
				C6.3,4.7,6.2,4.7,6.2,4.7z"/>
			<path class="st0" d="M6.4,4.9C6.3,5,6.4,5.1,6.5,5C6.5,5,6.4,4.9,6.4,4.9z"/>
			<path class="st0" d="M6.2,5C6.1,5,6.2,5.1,6.2,5C6.3,5,6.2,4.9,6.2,5z"/>
			<path class="st0" d="M6.2,4.1C6.2,4.1,6.1,4.1,6.2,4.1c-0.1,0-0.1,0.1-0.1,0.1c0,0,0,0.1,0,0.1c0,0,0,0,0.1,0c0,0,0.1,0,0.1,0
				c0,0,0,0,0-0.1C6.3,4.2,6.3,4.2,6.2,4.1C6.3,4.2,6.2,4.1,6.2,4.1z"/>
			<path class="st0" d="M6,4C6,4,6,4,6,4c0,0.1,0,0.1,0,0.1c0,0,0.1,0,0.1,0c0,0,0,0,0-0.1c0,0,0,0,0-0.1C6.1,4,6,4,6,4z"/>
			<path class="st0" d="M6.2,4.5C6.1,4.5,6.2,4.6,6.2,4.5C6.3,4.5,6.2,4.5,6.2,4.5z"/>
			<path class="st0" d="M6.4,4.5C6.3,4.6,6.3,4.6,6.4,4.5c0,0.1,0,0.1,0,0.1c0,0,0.1,0,0.1,0c0,0,0,0,0-0.1c0,0,0-0.1,0-0.1
				C6.5,4.5,6.4,4.5,6.4,4.5z"/>
			<path class="st0" d="M6.6,4.4C6.6,4.4,6.6,4.4,6.6,4.4C6.6,4.4,6.5,4.4,6.6,4.4c-0.1,0-0.1,0-0.1,0c0,0,0,0,0,0.1
				c0,0,0,0.1,0,0.1c0,0,0,0,0,0c0,0,0,0,0,0c0,0,0,0,0,0c0,0,0.1,0,0.1,0c0,0,0,0,0,0C6.7,4.5,6.7,4.5,6.6,4.4
				C6.7,4.5,6.7,4.5,6.6,4.4C6.7,4.5,6.7,4.5,6.6,4.4C6.7,4.4,6.6,4.4,6.6,4.4z"/>
			<path class="st0" d="M6.8,4.1c-0.1,0-0.1,0.1-0.1,0.1c0,0,0,0,0,0c0,0,0.1,0.1,0.1,0.1c0.1,0,0.1-0.1,0.1-0.1
				C6.9,4.1,6.9,4.1,6.8,4.1z"/>
			<path class="st0" d="M6.5,3.8C6.5,3.8,6.5,3.8,6.5,3.8C6.4,3.9,6.5,3.9,6.5,4c0,0,0,0,0,0c0,0,0,0,0,0c0,0,0,0,0,0c0,0,0,0,0.1,0
				c0,0,0,0,0,0c0,0,0,0,0,0c0,0,0,0,0,0c0,0,0-0.1,0-0.1C6.7,3.8,6.6,3.8,6.5,3.8z"/>
			<path class="st0" d="M6.3,3.9C6.3,3.9,6.2,3.9,6.3,3.9c-0.1,0-0.1,0-0.1,0.1c0,0,0,0.1,0,0.1c0,0,0,0.1,0.1,0.1c0,0,0,0,0.1,0
				c0,0,0,0,0.1,0c0,0,0-0.1,0-0.1C6.4,4,6.4,4,6.3,3.9C6.3,3.9,6.3,3.9,6.3,3.9z"/>
			<path class="st0" d="M6.5,4.1C6.5,4.1,6.4,4.1,6.5,4.1c-0.1,0-0.2,0.1-0.2,0.1c0,0,0,0.1,0,0.1c0,0,0,0,0,0c0,0,0.1,0,0.1,0
				c0,0,0.1,0,0.1,0c0,0,0,0,0-0.1C6.6,4.3,6.6,4.2,6.5,4.1C6.5,4.2,6.5,4.1,6.5,4.1z"/>
			<path class="st0" d="M6.3,4.3C6.2,4.3,6.2,4.3,6.3,4.3C6.2,4.3,6.2,4.3,6.3,4.3c-0.1,0-0.1,0-0.1,0c0,0-0.1,0-0.1,0c0,0,0,0,0,0
				c0,0,0,0,0,0c0,0,0,0,0,0.1c0,0,0,0,0,0c0,0,0,0,0,0c0,0,0,0,0,0c0,0,0,0,0,0c0,0,0,0,0,0c0,0,0.1,0,0.1,0
				C6.3,4.5,6.3,4.4,6.3,4.3C6.3,4.4,6.3,4.4,6.3,4.3C6.3,4.3,6.3,4.3,6.3,4.3z"/>
		</g>
	</g>
	<g>
		<path class="st1" d="M5,4.7C5,4.7,5,4.7,5,4.7C5,4.7,5,4.7,5,4.7z"/>
		<path class="st0" d="M4.3,6.8C4.3,6.8,4.3,6.8,4.3,6.8C4.4,6.8,4.3,6.8,4.3,6.8z"/>
		<path class="st0" d="M4.3,7C4.3,7,4.3,7,4.3,7C4.3,7,4.3,7,4.3,7z"/>
		<path class="st0" d="M1.1,1.6C1.1,1.6,1.1,1.6,1.1,1.6C1.1,1.6,1.1,1.6,1.1,1.6z"/>
		<path class="st2" d="M5.5,5.4C5.5,5.4,5.5,5.4,5.5,5.4C5.5,5.4,5.5,5.4,5.5,5.4z"/>
		<path class="st2" d="M5.7,4.3C5.7,4.3,5.7,4.3,5.7,4.3C5.7,4.3,5.7,4.3,5.7,4.3C5.7,4.3,5.7,4.3,5.7,4.3C5.7,4.3,5.7,4.3,5.7,4.3z
			"/>
		<path class="st2" d="M6,0.9C6,0.9,6,0.9,6,0.9C6,0.9,6,0.9,6,0.9z"/>
		<g>
			<path class="st1" d="M7.5,5C7.1,5.3,5.8,5,5,4.8C5,4.9,5,5,5,5.1C4.9,5.4,4.9,5.8,5,6.2c0.1,0.3,0.3,0.6,0.3,1c0,0,0,0,0,0.1
				c0.1,0.3,0.1,0.7,0.3,1c0,0.1,0,0.2,0.1,0.3c0.2,0.2,0.6,0.3,0.7,0.4c0,0,0,0.1,0.1,0.1c0,0,0.1,0,0.1,0C7.1,8.7,7,9,7.8,8.4
				c0.7-0.6,0.5-0.8,0.6-1.5c0.1-0.5,0.1-1.2-0.3-1.6C8,5.1,7.9,5.2,7.7,5.1C7.7,5,7.6,5,7.5,5C7.6,5,7.6,5,7.5,5C7.5,5,7.5,5,7.5,5
				z"/>
			<g>
				<path class="st0" d="M7.4,7.3C7.4,7.3,7.4,7.3,7.4,7.3C7.6,7.5,7.8,7.8,7.9,8c0,0.1,0,0.1,0.1,0.2c0,0,0.1-0.1,0.1-0.1
					C8.1,8.1,8,8,8,8C7.9,7.7,7.7,7.5,7.4,7.3z"/>
				<path class="st0" d="M5.9,7.5c0-0.2,0-0.4-0.1-0.5c0,0,0,0,0,0C5.8,7.2,5.8,7.4,5.9,7.5C5.9,7.7,5.9,7.9,5.9,8.1
					c0,0.2,0,0.4,0.1,0.6c0,0,0,0,0,0c0.1,0,0.1,0.1,0.2,0.1c0,0,0-0.1,0-0.1c0-0.2-0.1-0.4-0.1-0.5C6,7.9,6,7.7,5.9,7.5z"/>
				<path class="st0" d="M5.8,8c0-0.2,0-0.3,0-0.5c0-0.2,0-0.3,0-0.5c0,0,0,0,0,0C5.7,7.2,5.7,7.3,5.7,7.5c0,0.2,0,0.3,0,0.5
					c0,0.1,0,0.3,0,0.4c0,0,0,0,0,0c0,0.1,0.1,0.1,0.2,0.1c0,0,0-0.1,0-0.1C5.8,8.3,5.8,8.2,5.8,8z"/>
				<path class="st0" d="M8.4,7.2c0,0,0-0.1,0-0.1c0,0,0,0,0,0C8.3,6.9,8.2,6.7,8,6.6C7.8,6.4,7.6,6.1,7.3,6c0,0,0,0,0,0
					C7.5,6.2,7.8,6.4,8,6.7c0.1,0.1,0.2,0.2,0.3,0.4C8.3,7.1,8.4,7.1,8.4,7.2z"/>
				<path class="st0" d="M7.6,5C7.6,5,7.5,5,7.4,5.1c0,0,0,0,0,0c0.1,0,0.2,0.1,0.4,0.1c0.1,0,0.2,0.1,0.3,0.1
					C8,5.1,7.9,5.2,7.7,5.1C7.7,5,7.7,5,7.6,5z"/>
				<path class="st0" d="M7.9,5.4c0.1,0,0.2,0,0.3,0.1c0,0,0,0,0,0c0,0,0,0,0,0C8.1,5.4,7.9,5.4,7.8,5.3c-0.2,0-0.3-0.1-0.5-0.1
					c0,0,0,0-0.1,0c-0.1,0-0.1,0-0.2,0.1c-0.1,0-0.2,0-0.4,0C6.5,5.1,6.3,5.1,6.1,5C5.9,5,5.8,4.9,5.6,4.8c-0.1,0-0.2-0.1-0.3-0.1
					c-0.1,0-0.2-0.1-0.3,0c0,0,0,0,0,0c0,0,0,0,0,0c0,0-0.1,0-0.1,0.1c0,0,0,0,0,0c0,0,0,0-0.1,0c0,0,0,0,0,0c0,0,0,0,0,0.1
					c0,0,0,0,0,0c0,0.2,0,0.4,0.1,0.6C5,5.9,5.1,6.1,5.2,6.3c0,0,0,0,0,0c0-0.2-0.1-0.3-0.2-0.5c0,0.1,0.1,0.1,0.1,0.2
					C5.3,6,5.3,6.1,5.4,6.2c0,0,0,0,0,0c0-0.1-0.1-0.2-0.1-0.3c0-0.1,0-0.2-0.1-0.3c0.1,0.1,0.1,0.2,0.2,0.2c0,0,0.1,0,0.1,0
					c0,0,0-0.1,0-0.1c0.8,0.9,0.8,2.1,1.3,3.2c0,0,0,0,0,0c-0.2-0.5-0.3-1-0.4-1.4C6.2,6.8,6,6.1,5.5,5.6c0,0,0-0.1-0.1-0.1
					c0.1,0,0.1,0.1,0.2,0.1C5.8,5.8,6,6.1,6.2,6.3c0,0,0,0,0,0C6,6.1,5.8,5.8,5.6,5.5C5.6,5.4,5.5,5.3,5.4,5.2
					c0.1,0.1,0.2,0.1,0.4,0.2c0.3,0.1,0.6,0.2,1,0.3c0,0,0,0,0,0C6.4,5.4,6.1,5.3,5.8,5.2c0,0-0.1,0-0.1-0.1c0.2,0,0.3,0.1,0.5,0.1
					c0.1,0,0.2,0.1,0.3,0.1c0.1,0,0.1,0.1,0.2,0.1C7,5.5,7.3,5.7,7.5,5.9C7.8,6.1,8,6.3,8.3,6.6c0.1,0.1,0.1,0.2,0.2,0.2
					c0,0,0,0,0,0C8.3,6.5,8.1,6.3,7.9,6.1C7.7,5.9,7.5,5.8,7.3,5.7C7.1,5.6,6.9,5.5,6.7,5.4c0,0,0,0,0,0C7.2,5.5,7.6,5.7,7.9,6
					c0.2,0.2,0.4,0.4,0.6,0.6c0-0.1,0-0.2,0-0.3C8.4,6.3,8.3,6.2,8.2,6.1C8.1,6,7.9,5.8,7.7,5.7C7.5,5.5,7.3,5.4,7.1,5.3
					c0,0,0,0,0,0c0.4,0.2,0.8,0.5,1.1,0.8c0.1,0.1,0.2,0.2,0.3,0.3c0-0.1,0-0.3,0-0.4C8.3,5.9,8.2,5.8,8,5.7
					C7.9,5.6,7.7,5.5,7.6,5.4c0,0,0,0,0,0C7.8,5.5,7.9,5.6,8,5.6c0.1,0.1,0.3,0.1,0.4,0.2c0,0,0-0.1,0-0.1c0,0,0,0,0,0
					C8.2,5.6,8,5.5,7.9,5.4C7.9,5.4,7.9,5.4,7.9,5.4z"/>
				<path class="st0" d="M8.3,7.8C8.3,7.7,8.3,7.7,8.3,7.8C8.1,7.3,7.8,7,7.6,6.7c-0.5-0.6-1.1-1-1.8-1.3c0,0,0,0,0,0
					c0.7,0.3,1.3,0.8,1.8,1.4C7.8,7,8,7.3,8.2,7.6C8.2,7.7,8.3,7.7,8.3,7.8z"/>
				<path class="st0" d="M7.4,7.8C7.3,7.4,7.1,7.1,7,6.8c0,0,0,0,0,0C7.1,7.1,7.3,7.4,7.4,7.8C7.4,7.8,7.4,7.8,7.4,7.8z"/>
			</g>
			<g>
				<path class="st2" d="M7.9,7.2C8,7.3,8.1,7.5,8.1,7.7c0,0.1,0,0.2,0.1,0.2c0.1-0.2,0.1-0.4,0.2-0.7c0,0,0-0.1,0-0.1
					C8.2,6.9,8,6.8,7.9,6.6C7.6,6.3,7.2,6,6.8,5.8c0,0,0,0,0,0c0.4,0.2,0.8,0.5,1,0.8c0,0,0,0,0,0C7.6,6.5,7.5,6.4,7.3,6.2
					C7,6.1,6.8,6,6.5,5.9c0,0,0,0,0,0C6.7,6.1,7,6.2,7.2,6.4c0.2,0.2,0.4,0.4,0.5,0.6C7.8,7,7.8,7.1,7.9,7.2
					C7.9,7.2,7.9,7.2,7.9,7.2z"/>
				<path class="st2" d="M8.4,6.8C8.4,6.8,8.4,6.8,8.4,6.8C8.3,6.7,8.2,6.6,8,6.5C7.9,6.4,7.8,6.3,7.7,6.2C7.6,6.1,7.4,6,7.3,5.9
					c0,0,0,0,0,0c0.1,0.1,0.2,0.2,0.3,0.3C7.7,6.3,7.8,6.5,8,6.6c0.1,0.1,0.2,0.2,0.3,0.3C8.3,7,8.3,7,8.4,7.1C8.4,7,8.4,7,8.4,6.8
					C8.4,6.9,8.4,6.9,8.4,6.8z"/>
				<path class="st2" d="M8,8.2c0,0-0.1-0.1-0.1-0.1C7.8,7.9,7.7,7.8,7.6,7.6C7.5,7.4,7.3,7.1,7.1,6.8c0,0,0,0,0,0
					c0.1,0.3,0.3,0.6,0.4,0.9C7.6,7.8,7.7,8,7.8,8.1c0,0.1,0.1,0.1,0.1,0.2C7.9,8.3,8,8.2,8,8.2z"/>
				<path class="st2" d="M6.5,6.4C6.5,6.4,6.5,6.4,6.5,6.4c0,0.1,0,0.2,0.1,0.2c0,0,0,0,0,0C6.5,6.5,6.4,6.4,6.4,6.2
					C6.2,6,6.1,5.7,5.8,5.5c0,0,0,0,0,0C5.9,5.7,6,5.8,6,5.9C6.1,6,6.2,6.1,6.2,6.3c0,0,0,0,0,0.1c0,0,0,0,0,0
					c0.2,0.5,0.2,1,0.3,1.5c0,0.1,0,0.3,0.1,0.4c0,0,0-0.1-0.1-0.1c-0.1-0.3-0.3-0.7-0.4-1c-0.1-0.3-0.3-0.7-0.4-1
					C5.6,5.8,5.4,5.5,5.2,5.2c0,0,0,0,0,0c0.3,0.3,0.5,0.6,0.6,1c0.2,0.3,0.3,0.7,0.4,1c0.1,0.3,0.2,0.7,0.3,1
					c0.1,0.2,0.1,0.3,0.2,0.5c0,0,0,0.1,0.1,0.1c0.3-0.1,0.3,0,0.8-0.4C7.6,8.4,7.5,8.3,7.5,8.2C7.4,8,7.2,7.8,7.1,7.6
					C7,7.4,6.9,7.2,6.8,7C6.7,6.8,6.6,6.6,6.5,6.4z M6.8,7.9C6.8,7.9,6.8,7.9,6.8,7.9C6.7,7.9,6.7,7.9,6.8,7.9
					C6.7,7.9,6.7,7.9,6.8,7.9C6.7,7.9,6.8,7.9,6.8,7.9z"/>
			</g>
		</g>
		<g>
			<path class="st1" d="M8.8,2.6C8.8,2.5,8.7,2.4,8.7,2.4c-0.1-0.1-0.3,0-0.4-0.1C8.1,2.1,7.8,2,7.5,2C7.4,2,7.2,1.8,6.9,1.8
				C6.8,2.1,6.7,2.4,6.7,2.4c0,0-0.1,0.1-0.1,0.1c0,0,0,0-0.1,0.1C6.4,3,6.2,3.3,5.9,3.6C5.7,3.8,5.5,3.8,5.3,4
				C5.2,4.1,5.1,4.4,4.9,4.6c0,0,0,0,0,0c0,0,0.1,0,0.1,0.1c0,0,0,0,0,0c0,0,0,0,0,0c0,0,0,0,0,0C5.8,5,7.1,5.3,7.5,5c0,0,0,0,0.1,0
				c0,0,0,0,0,0C7.8,4.8,7.7,5,8.3,5.1c0,0,0,0,0.1,0c0,0,0.1,0.1,0.1,0.2c0.1,0.1,0.4,0.1,0.6-0.1c0.3-0.3,0.4-1.2,0.3-1.6
				C9.3,3.2,9.3,2.9,9.3,2.9S9,2.9,8.8,2.6z"/>
			<g>
				<path class="st0" d="M8,2.6C7.6,2.7,7.3,2.9,7,3.1c0,0,0,0,0,0c0.3-0.2,0.6-0.4,1-0.5c0.2,0,0.4-0.1,0.5-0.1c0.1,0,0.2,0,0.2,0
					c0-0.1-0.1-0.1-0.1-0.2C8.5,2.4,8.2,2.5,8,2.6z"/>
				<path class="st0" d="M8,2.9C8,2.9,8,2.9,8,2.9c0.2,0,0.4-0.1,0.6-0.1c0.1,0,0.2,0,0.3,0c0,0,0.1,0,0.1,0C9,2.7,8.9,2.7,8.9,2.6
					c-0.1,0-0.2,0-0.2,0.1C8.4,2.8,8.2,2.8,8,2.9z"/>
				<path class="st0" d="M7.4,3.6C7.4,3.6,7.4,3.6,7.4,3.6c0.4-0.2,0.8-0.3,1.2-0.4c0.3-0.1,0.5-0.1,0.8-0.1c0-0.1,0-0.2,0-0.2
					s0,0,0,0C9,3,8.8,3,8.6,3.1C8.2,3.3,7.8,3.4,7.4,3.6z"/>
				<path class="st0" d="M9.2,3.5c-0.3,0-0.5,0-0.8,0.1c0,0,0,0,0,0c0.3,0,0.5,0,0.8,0c0.1,0,0.2,0,0.3,0.1c0,0,0-0.1,0-0.1
					c0,0,0-0.1,0-0.1C9.3,3.5,9.2,3.5,9.2,3.5z"/>
				<path class="st0" d="M9.3,3.7C9.3,3.7,9.3,3.7,9.3,3.7c-0.1,0-0.1,0-0.1,0c0.1,0.1,0.2,0.1,0.2,0.2c0-0.1,0-0.1,0-0.2
					C9.4,3.7,9.4,3.7,9.3,3.7z"/>
				<path class="st0" d="M9.1,4.2c0.1,0,0.2,0.1,0.3,0.1c0,0,0,0,0-0.1C9.4,4.2,9.2,4.2,9.1,4.2C9.1,4.1,9.1,4.1,9.1,4.2z"/>
				<path class="st0" d="M8.3,4.7C8.3,4.6,8.3,4.7,8.3,4.7C8.5,4.8,8.8,4.9,9,4.9c0.1,0,0.2,0,0.3,0c0,0,0-0.1,0-0.1
					c-0.1,0-0.2,0-0.3,0C8.8,4.8,8.5,4.7,8.3,4.7z"/>
				<path class="st0" d="M9.1,4.2C9.1,4.2,9.1,4.1,9.1,4.2C8.8,4.1,8.5,4.1,8.3,4.1c-0.3,0-0.5,0-0.8,0c-0.2,0-0.4,0-0.5,0
					C7,4,7.2,4,7.3,3.9c0,0,0,0,0,0C7.2,3.9,7,4,6.8,4C6.7,4.1,6.5,4.1,6.3,4.1c0,0-0.1,0-0.1,0C6.3,4.1,6.4,4,6.6,3.9
					C6.8,3.7,7,3.5,7.2,3.4C7.5,3.2,7.7,3,8,2.9c0,0,0,0,0,0C7.7,3,7.5,3.1,7.2,3.2C7.1,3.3,7,3.4,6.9,3.4c0,0,0,0,0,0
					c0,0,0-0.1,0-0.1c-0.1,0-0.2,0.1-0.3,0.1c0,0,0,0-0.1,0c0,0,0,0,0,0c0,0,0.1-0.1,0.1-0.1C6.9,3.2,7.1,3,7.3,2.7c0,0,0-0.1-0.1,0
					C7.1,2.7,7,2.8,6.9,2.9c0.1-0.2,0.2-0.5,0.2-0.7c0-0.1,0-0.2,0.1-0.4C7.1,1.8,7,1.8,6.9,1.8c0,0,0,0,0,0c0,0,0,0,0,0
					c0,0.1-0.1,0.2-0.1,0.3c0,0,0,0.1-0.1,0.1c0,0,0,0.1,0,0.1C6.6,2.4,6.5,2.5,6.5,2.6c0,0.1-0.1,0.2-0.1,0.2c0,0,0,0,0,0l0,0l0,0
					c0,0,0,0,0,0c0,0,0,0,0,0c0,0,0,0.1,0,0.1c0,0,0,0,0,0c0,0,0,0.1-0.1,0.1c0,0.1-0.1,0.1-0.1,0.2C6.1,3.3,6,3.4,6,3.5
					c0,0,0,0,0,0c-0.1,0-0.2,0.1-0.2,0.1C5.6,3.8,5.4,3.9,5.2,4.1C5.1,4.2,4.9,4.4,4.9,4.5c0,0.1,0,0.1,0.1,0.2c0,0,0,0,0,0
					c0,0,0,0,0,0c0,0,0,0,0.1,0c0,0,0.1,0,0.1,0c0.1,0,0.3,0,0.4,0C5.8,4.8,6,4.9,6.2,4.9C6.5,5,6.9,5.1,7.3,5c0,0,0,0,0,0
					C6.9,5,6.6,4.9,6.2,4.8c0,0,0,0,0,0c0,0,0.1,0,0.1,0c0.2,0,0.4,0,0.6,0c0.2,0,0.4-0.1,0.6-0.1c0,0,0,0,0,0
					c-0.2,0-0.4,0.1-0.6,0.1c-0.2,0-0.4,0-0.6-0.1C6.2,4.6,6.1,4.6,6,4.6c0.1,0,0.1,0,0.2,0c0.2,0,0.3,0,0.5-0.1
					c0.2,0,0.3-0.1,0.5-0.1c0,0,0,0,0,0c-0.2,0-0.3,0-0.5,0c-0.2,0-0.3,0-0.5,0l0,0c0,0,0.1,0,0.1,0c0.1,0,0.2-0.1,0.4-0.1
					c0.3,0,0.5,0,0.8-0.1c0.3,0,0.5,0,0.8,0C8.5,4.1,8.8,4.2,9.1,4.2z"/>
			</g>
			<g>
				<path class="st2" d="M8.7,2.9C8.4,2.9,8,3,7.7,3C7.1,3.2,6.4,3.4,5.9,3.8c0,0,0,0,0,0c0.6-0.3,1.2-0.5,1.8-0.7
					C8,3.1,8.4,3,8.7,3C8.8,3,9,3,9.2,3c0.1,0,0.1,0,0.2,0c0-0.1,0-0.1,0-0.1s-0.1,0-0.2-0.1c0,0,0,0,0,0C9,2.9,8.9,2.9,8.7,2.9z"/>
				<path class="st2" d="M8.7,2.5c-0.1,0-0.2,0-0.3,0.1c-0.2,0-0.4,0.1-0.6,0.2C7.5,2.8,7.1,3,6.7,3.2c0,0,0,0,0,0
					C7.1,3,7.5,2.9,7.9,2.8c0.2,0,0.4-0.1,0.6-0.1c0.1,0,0.2,0,0.3,0c0,0,0.1,0,0.1,0C8.8,2.6,8.8,2.5,8.7,2.5
					C8.7,2.5,8.7,2.5,8.7,2.5z"/>
				<path class="st2" d="M8.3,2.3C8.3,2.3,8.3,2.3,8.3,2.3C8.2,2.3,8,2.4,7.9,2.5c-0.3,0.1-0.6,0.3-1,0.5c0,0,0,0,0,0
					c0.3-0.1,0.6-0.3,1-0.4c0.2-0.1,0.3-0.1,0.5-0.2c0.1,0,0.1,0,0.2-0.1C8.5,2.2,8.4,2.3,8.3,2.3z"/>
				<path class="st2" d="M6.7,3C6.8,2.9,6.9,2.8,7,2.7c0.2-0.1,0.3-0.3,0.5-0.5C7.5,2.1,7.6,2,7.6,2c0,0-0.1,0-0.1,0
					C7.5,2,7.4,1.9,7.3,1.9c0,0.1-0.1,0.3-0.2,0.4C7,2.4,7,2.5,6.9,2.6C6.8,2.7,6.7,2.8,6.7,3C6.6,3,6.6,3,6.7,3z"/>
				<path class="st2" d="M7.2,2.6c0.2-0.1,0.4-0.3,0.6-0.5c0,0,0.1-0.1,0.1-0.1C7.9,2,7.8,2,7.7,2c0,0,0,0,0,0
					C7.6,2.2,7.4,2.4,7.2,2.6C7.2,2.6,7.2,2.6,7.2,2.6z"/>
				<path class="st2" d="M6.7,3.1C6.6,3.1,6.5,3.2,6.5,3.3c0,0,0,0,0,0C6.5,3.2,6.6,3.1,6.7,3.1C6.7,3.1,6.7,3.1,6.7,3.1z"/>
				<path class="st2" d="M8.3,4.4C8.1,4.3,7.8,4.3,7.6,4.2C7.3,4.2,7.1,4.1,6.8,4.1c0,0,0,0,0,0c0.1,0,0.2,0.1,0.3,0.1
					c0.2,0.1,0.4,0.2,0.6,0.3c0.2,0.1,0.4,0.2,0.6,0.3C8.6,5,8.8,5.1,9,5.2c0,0,0,0,0.1-0.1c0,0,0,0,0.1,0C9.1,5.1,9.1,5,9,5
					c0.1,0,0.1,0.1,0.2,0.1C9.3,5,9.3,4.8,9.4,4.7c-0.1,0-0.2-0.1-0.3-0.1C8.8,4.5,8.6,4.5,8.3,4.4z"/>
				<path class="st2" d="M9.1,3.3c-0.2,0-0.5,0-0.7,0c-0.2,0-0.5,0.1-0.7,0.1c-0.2,0-0.5,0.1-0.7,0.2c0,0,0,0,0,0
					c0.2,0,0.5-0.1,0.7-0.2c0.2,0,0.5-0.1,0.7-0.1c0.2,0,0.5,0,0.7,0c0.1,0,0.3,0,0.4,0.1c0-0.1,0-0.1,0-0.2
					C9.3,3.4,9.2,3.4,9.1,3.3z"/>
				<path class="st2" d="M9.5,4.1c-0.1,0-0.1,0-0.2,0c0,0,0,0,0,0C9.4,4.1,9.4,4.1,9.5,4.1c0-0.1,0-0.2,0-0.3
					c-0.1,0-0.3-0.1-0.4-0.1c-0.2,0-0.5,0-0.7,0c0,0,0,0,0,0c0.2,0,0.5,0,0.7,0.1c0.1,0,0.1,0,0.2,0.1C9.1,4,9,4,8.8,4.1
					c0,0-0.1,0-0.1,0C8.4,4,8,4,7.7,3.9c0,0,0,0,0,0c0.5,0.2,1,0.3,1.5,0.3c0,0,0,0.1,0,0.1c-0.1,0-0.2,0-0.2,0
					C8.6,4.3,8.3,4.2,8,4.1c0,0,0,0,0,0c0.3,0.1,0.6,0.2,0.9,0.2c0.2,0,0.3,0,0.5,0.1c0,0,0.1,0,0.1,0C9.5,4.3,9.5,4.2,9.5,4.1z"/>
				<path class="st2" d="M8.4,5.2c0.1,0.1,0.2,0.1,0.2,0.2c0.1,0,0.1,0,0.2,0C8.8,5.2,8.7,5.1,8.5,5.1C8.4,5,8.3,4.9,8.1,4.8
					C7.9,4.7,7.6,4.6,7.3,4.5c0,0,0,0,0,0c0.3,0.1,0.5,0.2,0.8,0.4C8.2,5,8.2,5,8.3,5c0,0,0,0,0,0C8.4,5.1,8.4,5.1,8.4,5.2
					C8.4,5.1,8.4,5.1,8.4,5.2C8.4,5.1,8.4,5.2,8.4,5.2z"/>
				<path class="st2" d="M7.4,4.8C7.3,4.8,7.1,4.8,7,4.7c-0.1,0-0.3-0.1-0.4-0.1C6.3,4.5,6,4.4,5.7,4.3c0,0,0,0,0,0
					C6,4.5,6.2,4.6,6.5,4.7c0.1,0,0.3,0.1,0.4,0.1C7.1,4.9,7.3,4.9,7.4,4.8C7.4,4.9,7.4,4.8,7.4,4.8z"/>
				<path class="st2" d="M7.2,5.1C7.2,5.1,7.2,5.1,7.2,5.1C7,5,6.7,5,6.5,4.9C6.3,4.8,6.1,4.7,5.9,4.6c0,0,0,0,0,0
					c0.2,0.1,0.4,0.2,0.6,0.3C6.7,5,6.9,5.1,7.2,5.1z"/>
			</g>
		</g>
		<g>
			<path class="st2" d="M4.5,4.4c0.1,0.1,0.2,0.2,0.3,0.2c0,0,0,0,0,0c0,0,0,0,0.1,0c0,0,0,0,0,0c0,0,0,0,0,0C5.1,4.4,5.2,4.1,5.3,4
				c0.2-0.1,0.4-0.2,0.5-0.4C6.2,3.3,6.4,3,6.5,2.6c0,0,0-0.1,0.1-0.1c0,0,0.1-0.1,0.1-0.1c0,0,0.2-0.3,0.3-0.6
				C7.1,1.4,7.1,1,6.9,0.7C6.7,0.5,6.5,0.4,6.5,0.4C6.1,0.1,5-0.1,4.6,0.1C4.4,0.1,4.3,0.3,4,0.3c-0.1,0-0.2,0.1-0.2,0.1
				c0,0-0.1,0-0.1,0.1C3.6,0.6,3.4,0.6,3.3,0.7C3.1,0.9,3,1.5,3.1,1.6c0,0.1,0.1,0,0.2,0.1C3.5,2,3.2,2.4,3.3,2.6
				c0,0,0.1,0.1,0.1,0.1c0,0,0,0.1,0.1,0.2c0,0,0,0.1,0,0.1C3.7,3,3.8,3.1,4,3.3C4.2,3.5,4.2,4,4.5,4.4z"/>
			<g>
				<path class="st0" d="M5.5,2.4c0.4-0.5,1-1,1.5-1.4c0,0,0,0,0-0.1C6.8,1.1,6.6,1.3,6.4,1.4C6.1,1.7,5.9,1.9,5.7,2.2
					C5.8,1.9,6,1.6,6.1,1.2c0,0,0,0,0,0c-0.3,0.5-0.6,1-0.9,1.5C5.1,2.8,5,3,4.9,3.1C5,2.9,5.1,2.6,5.3,2.3C5.4,1.9,5.7,1.4,5.9,1
					c0,0,0,0,0,0C5.6,1.4,5.4,1.8,5.2,2.3c-0.2,0.3-0.3,0.7-0.4,1c0-0.3,0-0.5,0.1-0.8c0,0,0,0,0,0C4.8,2.8,4.7,3,4.7,3.3
					c0,0.1,0,0.1,0,0.2c0-1,0.4-1.9,0.3-2.9c0,0,0,0,0,0C5,1.5,4.6,2.4,4.6,3.4c0-0.1,0-0.2-0.1-0.3c0-0.2,0-0.4,0-0.6
					c0-0.2,0-0.4,0-0.6c0,0,0,0,0,0C4.4,2,4.4,2.2,4.4,2.4c0,0.1,0,0.2,0,0.3c0-0.2-0.1-0.4-0.1-0.7C4.2,1.5,4.1,0.9,3.7,0.5
					c0,0,0,0,0,0C4.2,1.2,4.2,2,4.3,2.8c0,0.1,0,0.1,0,0.2C4.2,2.7,4.1,2.4,4,2.1c0,0,0,0,0,0c0.1,0.3,0.1,0.7,0.2,1
					C4.2,3,4.1,2.9,4.1,2.8C3.9,2.6,3.8,2.5,3.6,2.3C3.5,2.3,3.4,2.2,3.3,2.1c0,0.1,0,0.2,0,0.2c0,0,0,0,0,0c0,0,0,0,0,0
					c0,0.1,0,0.1,0,0.2c0,0,0.1,0.1,0.1,0.1c0,0,0,0,0,0C3.6,2.8,3.7,2.9,3.8,3C3.7,2.9,3.6,2.8,3.5,2.8c0,0,0,0.1,0,0.1
					c0,0,0,0.1,0,0.1c0.1,0,0.2,0.1,0.3,0.2c0,0,0.1,0.1,0.1,0.1c0,0,0,0,0,0c0,0,0,0,0,0.1c0,0,0,0,0,0c0.1,0.1,0.1,0.2,0.1,0.3
					c0,0.1,0,0.2,0.1,0.2C4.3,4,4.4,4.1,4.5,4.3c0,0,0,0,0,0C4.5,4,4.3,3.6,4.1,3.4c0.1,0.1,0.1,0.2,0.2,0.3c0,0,0,0.1,0.1,0.1
					c0,0.1,0.1,0.3,0.2,0.4c0,0,0.1,0,0.1,0c0,0.1,0.1,0.1,0.2,0c0,0,0,0,0,0C4.9,4.1,5,4.1,5,4c0,0,0.1-0.1,0.1-0.1
					c0-0.1,0.1-0.1,0.2-0.2c0.1,0,0.2,0,0.2,0c0.1,0,0.1,0,0.2,0c0,0,0,0,0,0c0,0,0,0,0,0c0.1,0,0.1,0,0.2,0c0,0,0,0,0,0
					c0,0,0,0,0,0C6.1,3.4,6.2,3.2,6.3,3c0-0.1,0.1-0.1,0.1-0.2C6.3,2.9,6.3,2.9,6.2,3C6.1,3.1,6,3.1,5.9,3.2c-0.1,0-0.2,0.1-0.3,0.1
					c0.1-0.1,0.1-0.1,0.2-0.2c0,0,0,0,0,0C5.6,3.2,5.4,3.3,5.3,3.4C5.4,3.2,5.5,3,5.6,2.8c0.1-0.2,0.3-0.4,0.5-0.6
					c0.2-0.2,0.4-0.3,0.6-0.5c0,0,0,0,0,0C6.4,1.9,6.2,2.1,6,2.3C5.8,2.4,5.7,2.6,5.5,2.8C5.4,2.9,5.2,3.1,5.1,3.2
					c0.1-0.2,0.2-0.4,0.2-0.5C5.4,2.6,5.5,2.5,5.5,2.4z"/>
				<path class="st0" d="M5.5,0.5C5.5,0.5,5.5,0.5,5.5,0.5C5.5,0.5,5.5,0.5,5.5,0.5C5.5,0.5,5.6,0.5,5.5,0.5
					C5.6,0.5,5.6,0.5,5.5,0.5c0.2-0.1,0.3-0.2,0.3-0.3c0,0,0.1-0.1,0.1-0.1c-0.1,0-0.2-0.1-0.3-0.1c0,0,0,0,0,0c0,0,0,0,0,0
					C5.5,0,5.5,0,5.4,0c0,0,0,0.1,0,0.1C5.5,0.2,5.5,0.3,5.5,0.5C5.5,0.4,5.5,0.4,5.5,0.5z"/>
			</g>
			<g>
				<path class="st2" d="M7,1.2C6.9,1.3,6.8,1.3,6.7,1.4C6.5,1.6,6.3,1.7,6.1,1.9c-0.3,0.3-0.6,0.6-0.8,1c0.1-0.2,0.2-0.5,0.4-0.7
					c0.2-0.3,0.4-0.6,0.7-0.9C6.5,1.2,6.6,1,6.8,0.9c0.1,0,0.1-0.1,0.2-0.1c0,0,0-0.1-0.1-0.1c0,0,0,0,0,0C6.7,0.8,6.6,0.9,6.5,1
					C6.3,1.2,6.1,1.5,5.9,1.7C5.5,2.2,5.2,2.7,5,3.2c-0.1,0.3-0.2,0.7-0.2,1c0,0,0,0,0,0C4.9,3.9,5,3.5,5.2,3.1c0,0,0-0.1,0.1-0.1
					c0.2-0.2,0.3-0.4,0.5-0.6c0,0,0,0,0,0C6,2.3,6.2,2.1,6.5,1.9C6.7,1.8,6.8,1.7,7,1.7c0-0.1,0-0.1,0-0.2C6.8,1.6,6.6,1.7,6.5,1.8
					C6.2,2,6,2.2,5.7,2.4C5.9,2.3,6,2.1,6.2,2c0.2-0.2,0.4-0.3,0.6-0.4C6.9,1.5,6.9,1.4,7,1.4C7,1.3,7,1.2,7,1.2C7,1.2,7,1.2,7,1.2z
					"/>
				<path class="st2" d="M6.1,0.9C5.9,1.2,5.7,1.4,5.5,1.7C5.4,1.9,5.2,2.2,5.1,2.5C5,2.8,4.9,3.1,4.9,3.4c0,0,0,0,0,0
					C5,3.1,5.1,2.8,5.2,2.5C5.3,2.3,5.4,2,5.6,1.7C5.8,1.5,5.9,1.2,6.1,0.9c0.1-0.1,0.3-0.2,0.4-0.3c0.1,0,0.1-0.1,0.2-0.1
					c0,0-0.1,0-0.1-0.1c-0.1,0-0.1,0.1-0.2,0.1C6.3,0.7,6.2,0.8,6.1,0.9z"/>
				<path class="st1" d="M4.4,0.2C4.4,0.2,4.4,0.2,4.4,0.2c0,0.3,0,0.5,0,0.8c0,0.3,0.1,0.5,0.1,0.8c0,0.1,0.1,0.2,0.1,0.3
					c0,0.1,0.1,0.3,0.1,0.4c0,0,0,0,0,0c0-0.1,0-0.3,0-0.4c0-0.1,0-0.2,0-0.3c0,0.1,0,0.1,0.1,0.2c0,0,0,0,0,0c0,0.3,0,0.6,0.1,0.9
					c0,0,0,0,0,0c-0.1-0.6,0-1.2,0.1-1.8C4.9,0.8,5,0.5,5,0.2c0-0.1,0-0.2,0.1-0.2C4.9,0,4.7,0,4.6,0.1C4.5,0.1,4.4,0.2,4.4,0.2z
					 M4.8,1c0-0.1,0-0.1,0-0.2c0,0,0,0,0,0C4.8,0.9,4.8,0.9,4.8,1z"/>
				<path class="st2" d="M4.1,0.7c0,0.3,0.1,0.7,0.2,1C4.4,2.3,4.5,3,4.8,3.6c0,0,0,0,0,0C4.6,2.9,4.4,2.3,4.3,1.7
					c0-0.3-0.1-0.6-0.1-0.9c0-0.2,0-0.3,0-0.5c-0.1,0-0.1,0-0.2,0C4,0.4,4.1,0.6,4.1,0.7z"/>
				<path class="st2" d="M3.3,2.2c0.2,0.1,0.3,0.3,0.5,0.4C4,2.8,4.1,3,4.2,3.2c0.1,0.2,0.2,0.4,0.4,0.5c0,0,0,0,0,0
					C4.6,3.5,4.5,3.4,4.4,3.3C4.2,2.8,4,2.4,3.7,1.9C3.6,1.7,3.5,1.5,3.4,1.3C3.3,1.1,3.3,1,3.2,0.9C3.2,1,3.1,1,3.1,1.1
					c0,0.1,0.1,0.1,0.1,0.2C3.4,1.5,3.5,1.8,3.7,2c0.2,0.4,0.5,0.8,0.7,1.2c0,0-0.1-0.1-0.1-0.1C4.2,3,4,2.8,3.9,2.6
					C3.8,2.5,3.6,2.3,3.5,2.1c0,0-0.1-0.1-0.1-0.1C3.4,2.1,3.3,2.1,3.3,2.2C3.3,2.2,3.3,2.2,3.3,2.2z"/>
				<path class="st2" d="M6.1,0.6C6.1,0.7,6.1,0.7,6.1,0.6c0.1-0.1,0.2-0.2,0.3-0.3c0,0-0.1,0-0.1-0.1C6.3,0.4,6.2,0.5,6.1,0.6z"/>
				<path class="st2" d="M3.6,1.6c0,0.1,0.1,0.1,0.1,0.2C4,2.2,4.2,2.6,4.5,3c0,0,0,0,0,0C4.4,2.7,4.3,2.6,4.2,2.4c0,0,0,0,0,0
					c0,0,0.1,0,0.1,0c0-0.2-0.1-0.4-0.2-0.6c0-0.1-0.1-0.2-0.1-0.2c0,0,0,0,0,0c0,0,0.1,0,0.1,0C4.1,1.4,4.1,1.2,4,1
					C4,0.9,4,0.7,3.9,0.5c0-0.1,0-0.1,0-0.2c-0.1,0-0.1,0.1-0.1,0.1c0,0-0.1,0-0.1,0.1c0,0,0,0,0,0c0,0,0,0,0,0c0,0,0,0,0,0
					C3.6,0.6,3.4,0.6,3.3,0.7c0,0,0,0,0,0c0,0,0,0,0,0c0,0,0,0,0,0c0,0,0,0,0,0.1c0.1,0.1,0.1,0.3,0.2,0.4C3.5,1.4,3.6,1.5,3.6,1.6z
					"/>
			</g>
		</g>
		<g>
			<path class="st1" d="M3.2,5.6c0.1-0.1,0.1-0.2,0.2-0.2C3.5,5.3,3.9,5.2,4.3,5c0.1-0.1,0.2-0.2,0.3-0.2c0.1,0,0.1-0.1,0.2-0.1
				c0,0,0,0,0.1,0c0,0,0,0,0,0c-0.1,0-0.2-0.1-0.3-0.2C4.2,4,4.2,3.5,4,3.3C3.8,3.1,3.7,3,3.5,2.9C3.3,2.8,3.1,2.7,2.9,2.4
				C2.7,2.2,2.6,2.2,2.1,2C1.8,1.9,1.6,2.2,1.3,2.2c-0.1,0-0.1-0.1-0.2,0c0,0,0,0-0.1,0.1c0,0-0.1,0.1-0.1,0.1
				C0.6,2.6,0.7,2.7,0.5,2.8C0.4,2.9,0.4,2.9,0.3,3C0.1,3.2,0,3.6,0.1,3.7c0,0,0,0,0,0c0.1,0.1,0,0.2,0,0.3c0.1,0.2,0.1,0.3,0,0.5
				c-0.2,0.1,0-0.1,0.5,1.2c0,0.1,0.1,0.1,0.1,0.1C0.9,6,1.3,6,1.7,6c0.2,0,0.3,0.1,0.4,0.2c0,0,0.1-0.1,0.1-0.1
				C2.4,5.9,3,5.7,3.2,5.6z"/>
			<g>
				<path class="st0" d="M1.6,3.8C1.8,3.9,2,4,2.3,4.1c0,0,0,0,0,0C2.1,4,1.8,3.9,1.6,3.8C1.6,3.8,1.6,3.8,1.6,3.8z"/>
				<path class="st0" d="M1,2.9c0.2,0.1,0.4,0.3,0.6,0.4c0,0,0,0,0,0C1.4,3.1,1.2,3,1,2.8C0.9,2.7,0.8,2.6,0.7,2.5
					C0.7,2.5,0.7,2.6,0.6,2.6C0.7,2.7,0.9,2.8,1,2.9z"/>
				<path class="st0" d="M1.3,3.9C1.3,3.9,1.3,3.9,1.3,3.9C1,3.8,0.7,3.7,0.4,3.6c-0.1,0-0.3-0.1-0.4-0.1c0,0.1,0,0.1,0,0.2
					c0,0,0,0,0,0c0.1,0,0.2,0.1,0.3,0.1C0.7,3.8,1,3.9,1.3,3.9z"/>
				<path class="st0" d="M2.5,2.7C2.8,3,3.1,3.2,3.4,3.4c0,0,0,0,0,0C3.1,3.2,2.8,2.9,2.6,2.6C2.4,2.4,2.3,2.2,2.1,2c0,0,0,0,0,0
					C2,2,1.9,2,1.8,2C2.1,2.2,2.3,2.5,2.5,2.7z"/>
				<path class="st0" d="M0.5,3.6c0.3,0.1,0.6,0.1,0.8,0.1c0,0,0,0,0,0C1.2,3.6,1.1,3.6,0.9,3.5c-0.1,0-0.3-0.1-0.4-0.1
					c-0.1,0-0.3-0.1-0.4-0.1c0,0.1,0,0.1,0,0.2C0.2,3.5,0.4,3.5,0.5,3.6z"/>
				<path class="st0" d="M1,5C1.1,5,1.2,5,1.4,4.9c0,0,0,0,0,0C1.2,4.9,1.1,4.9,1,5C0.8,5,0.6,5,0.5,5C0.4,5,0.3,5,0.3,5
					c0,0.1,0.1,0.1,0.1,0.2c0,0,0.1,0,0.1,0C0.7,5.1,0.8,5.1,1,5z"/>
				<path class="st0" d="M2.5,5.5C2.5,5.5,2.5,5.5,2.5,5.5C2.3,5.6,2.1,5.7,1.8,5.8c-0.1,0-0.2,0.1-0.4,0.1C1.4,5.9,1.2,5.9,1.2,6
					c0,0,0,0,0,0c0.1,0,0.2,0,0.3,0c0.1-0.1,0.3-0.1,0.4-0.2C2.1,5.7,2.3,5.6,2.5,5.5z"/>
				<path class="st0" d="M2.8,5.5C2.8,5.4,2.8,5.4,2.8,5.5c-0.1,0-0.1,0.1-0.2,0.1c0,0,0,0,0,0C2.7,5.5,2.7,5.5,2.8,5.5z"/>
				<path class="st0" d="M4.2,4.5C4.2,4.5,4.2,4.5,4.2,4.5C4.1,4.5,4.1,4.5,4.2,4.5C4.1,4.5,4.1,4.5,4.2,4.5
					C4.1,4.5,4.1,4.5,4.2,4.5c-0.1,0-0.1,0-0.1,0c0,0,0,0,0,0c0-0.2,0-0.4-0.1-0.5c0-0.2-0.1-0.3-0.2-0.5C3.7,3.3,3.6,3.1,3.5,2.9
					c0,0,0,0,0,0c0,0,0,0,0,0c0,0,0,0,0-0.1c0,0,0,0,0,0l0,0C3.3,2.8,3.1,2.7,2.9,2.5c0,0,0,0,0,0C3,2.7,3.2,2.8,3.3,2.9
					C3.2,2.9,3.2,2.8,3.1,2.8C3,2.7,3,2.6,2.9,2.5c0,0,0,0,0,0C2.8,2.3,2.7,2.3,2.7,2.2c0,0.2,0.1,0.4,0.2,0.5C3,2.9,3,3,3.1,3.1
					c0.1,0,0.2,0.2,0.2,0.1c0,0,0-0.1,0-0.1c0.1,0.1,0.2,0.2,0.3,0.4c0,0,0,0,0,0c0,0,0,0,0,0C3.6,3.3,3.5,3.2,3.4,3.2c0,0,0,0,0,0
					c0,0.1,0.1,0.2,0.1,0.3c0,0.1,0.1,0.2,0.1,0.3C3.4,3.5,3.2,3.4,3,3.3c0,0,0,0,0,0C3,3.4,3.1,3.5,3.2,3.6c0,0,0.1,0.1,0.1,0.1
					C3.2,3.6,3.1,3.5,2.9,3.5c0,0,0,0,0,0c0.2,0.1,0.3,0.3,0.4,0.4C3,3.6,2.7,3.4,2.5,3.2c-0.4-0.3-0.7-0.6-1-1c0,0,0,0-0.1,0
					C1.6,2.5,2,2.8,2.3,3.1c0.4,0.3,0.8,0.6,1.1,1c0,0.1,0.1,0.1,0.1,0.2c-0.1,0-0.1,0-0.2-0.1C3.2,4.1,3.1,4,2.9,3.9
					C2.7,3.8,2.4,3.6,2.2,3.5C1.9,3.3,1.7,3.2,1.4,3C1.3,2.9,1.2,2.8,1.1,2.7C1,2.6,0.9,2.5,0.8,2.4c0,0,0,0,0,0
					C0.9,2.6,1,2.7,1.1,2.8C1.2,2.9,1.3,2.9,1.4,3c0.2,0.2,0.5,0.3,0.7,0.5c0.2,0.1,0.5,0.3,0.7,0.4C3,4,3.1,4.1,3.2,4.2
					C3,4.2,2.7,4.1,2.5,4.1c0,0,0,0,0,0c0.2,0.1,0.5,0.3,0.7,0.3c-0.1,0-0.3,0-0.4,0C1.9,4.2,1,3.9,0.2,4.2c0,0,0,0,0,0
					C1,4,1.8,4.2,2.6,4.4c-0.1,0-0.1,0-0.2,0c0,0,0,0,0,0C2.7,4.5,3,4.5,3.2,4.6C3.1,4.6,3,4.6,2.9,4.7c-0.1,0-0.2,0.1-0.3,0.1
					c-0.5,0-0.9,0-1.4-0.1c-0.2,0-0.5,0-0.7-0.1C0.3,4.6,0.2,4.6,0,4.6c0,0,0,0.1,0.1,0.2c0.1,0,0.2,0,0.3,0c0.2,0,0.5,0,0.7,0
					c0.4,0,0.9,0,1.3,0C2.2,4.9,2,5,1.7,5.2c0,0,0,0,0,0C2,5,2.3,4.9,2.6,4.8c0,0,0,0,0.1,0c0,0,0,0,0,0c0.1,0,0.2,0,0.3,0
					c0.2,0,0.4,0,0.6,0C3.3,4.8,3.1,4.9,2.9,5C2.5,5.2,2.1,5.3,1.6,5.5c0,0,0,0,0,0C2.1,5.3,2.5,5.1,3,5C3.2,5,3.4,4.9,3.6,4.9
					C3.5,4.9,3.4,5,3.3,5C3.2,5.2,3,5.3,2.8,5.4c0,0,0,0,0,0c0.3-0.1,0.6-0.3,0.9-0.5c0,0,0,0,0,0c0,0,0,0-0.1,0.1
					C3.5,5,3.3,5.1,3.1,5.3c0,0,0,0,0,0C3.3,5.2,3.6,5.1,3.8,5C4,4.9,4.2,4.8,4.2,4.5C4.3,4.5,4.2,4.5,4.2,4.5z"/>
			</g>
			<g>
				<path class="st2" d="M3.5,4.7C3.3,4.8,3.1,5,2.9,5.1C2.7,5.3,2.5,5.4,2.3,5.5C2.1,5.6,1.9,5.7,1.7,5.8c-0.1,0-0.2,0.1-0.3,0.1
					C1.3,6,1.2,6,1.2,6c0.2,0,0.3,0,0.5,0c0,0,0,0,0.1,0c0.2-0.1,0.4-0.2,0.6-0.4C2.8,5.3,3.2,5,3.5,4.7C3.5,4.7,3.5,4.7,3.5,4.7z"
					/>
				<path class="st2" d="M3.6,4.8C3.4,5,3.3,5.1,3.2,5.2C3.1,5.3,3,5.3,3,5.4c-0.1,0-0.1,0.1-0.2,0.2c0,0,0,0.1,0.1,0.1
					c0.1,0,0.2,0,0.2-0.1c0.1-0.1,0.1-0.1,0.2-0.2C3.4,5.2,3.5,5,3.6,4.8C3.6,4.8,3.6,4.8,3.6,4.8z"/>
				<path class="st2" d="M3.7,4.4c-0.2,0-0.3,0.1-0.4,0.2C3.1,4.7,3,4.7,2.8,4.8C2.5,5,2.2,5.1,1.9,5.2c0,0,0,0,0,0
					c-0.1,0-0.2,0.1-0.3,0.1C1.4,5.3,1.3,5.4,1.1,5.4c0,0-0.1,0-0.1,0c-0.2,0-0.3,0.1-0.5,0.1c0,0,0,0.1,0.1,0.1
					c0,0.1,0.1,0.1,0.1,0.1c0,0,0,0,0.1,0.1c0,0,0,0,0,0c0,0,0,0,0.1,0c0.2,0,0.3-0.1,0.5-0.2c0,0,0.1,0,0.1,0c0.1,0,0.1,0,0.2-0.1
					c0.1,0,0.2-0.1,0.3-0.1C1.8,5.5,1.6,5.6,1.4,5.7C1.3,5.7,1.1,5.8,1,5.8c-0.1,0-0.1,0-0.2,0.1c0,0,0,0,0,0C0.8,5.9,0.9,6,1,6
					c0,0,0,0,0,0c0.1,0,0.3-0.1,0.4-0.1c0.3-0.1,0.5-0.2,0.8-0.4c0.2-0.1,0.4-0.2,0.6-0.4c0,0,0.1,0,0.1-0.1
					C3.2,4.9,3.6,4.7,3.7,4.4C3.7,4.4,3.7,4.4,3.7,4.4z"/>
				<path class="st2" d="M0.3,4.9c0.2,0,0.4-0.1,0.6-0.1c0.2,0,0.4,0,0.7-0.1c0.2,0,0.4,0,0.6,0c0,0,0,0,0,0c-0.2,0-0.4,0-0.6,0
					c-0.2,0-0.4,0-0.6,0c-0.2,0-0.4,0-0.6,0c0,0-0.1,0-0.1,0C0.2,4.8,0.2,4.9,0.3,4.9C0.3,5,0.3,4.9,0.3,4.9z"/>
				<path class="st2" d="M0.1,4.7c0.1,0,0.2,0,0.4,0c0.3,0,0.6-0.1,0.9-0.1c0.3,0,0.6,0,0.9,0c0.3,0,0.6,0,0.8,0c0,0,0,0,0,0
					C2.5,4.4,1.9,4.4,1.3,4.4c-0.3,0-0.6,0-0.8,0c-0.1,0-0.2,0-0.4,0c0,0,0,0,0,0C0,4.6,0,4.5,0.1,4.7z"/>
				<path class="st2" d="M1.7,3.7C2,3.8,2.3,3.9,2.6,4c0.3,0.1,0.6,0.3,0.8,0.4c0,0,0,0,0,0C3.2,4.2,2.9,4.1,2.6,3.9
					C2.4,3.8,2.1,3.7,1.8,3.5c-0.5-0.2-1-0.4-1.5-0.6c0,0,0,0,0,0c0,0-0.1,0.1-0.1,0.1C0.7,3.3,1.2,3.4,1.7,3.7z"/>
				<path class="st2" d="M0.6,2.7C0.8,2.8,1,2.9,1.2,2.9c0.3,0.1,0.6,0.3,1,0.4c0.3,0.2,0.6,0.3,0.9,0.5C3.2,4,3.4,4,3.5,4.2
					c0.1,0.1,0.3,0.2,0.4,0.3c0,0,0,0,0,0C3.8,4.3,3.7,4.2,3.5,4.1c0,0-0.1,0-0.1-0.1c0.1,0,0.1,0.1,0.2,0.1c0,0,0,0,0,0
					C3.4,4,3.2,3.8,3,3.6C2.8,3.4,2.6,3.3,2.3,3.1C1.9,2.8,1.5,2.5,1,2.2c0,0-0.1,0.1-0.1,0.1C0.8,2.4,0.7,2.5,0.7,2.6c0,0,0,0,0,0
					c0,0,0,0,0,0C0.6,2.6,0.6,2.7,0.6,2.7z M2.5,3.4C2.5,3.4,2.6,3.5,2.5,3.4C2.6,3.5,2.5,3.4,2.5,3.4C2.5,3.4,2.5,3.4,2.5,3.4z"/>
			</g>
		</g>
		<g>
			<path class="st1" d="M5,6.2C4.9,5.8,4.9,5.4,5,5.1C5,5,5,4.9,5,4.8c0,0,0,0,0,0c0,0,0,0,0,0c0,0,0,0,0,0c0,0,0-0.1-0.1-0.1
				c0,0,0,0,0,0c0,0,0,0-0.1,0c0,0,0,0-0.1,0c-0.1,0-0.1,0.1-0.2,0.1C4.5,4.8,4.4,4.9,4.3,5C3.9,5.2,3.5,5.3,3.4,5.4
				C3.3,5.4,3.2,5.5,3.2,5.6C3,5.7,2.4,5.9,2.2,6c0,0-0.1,0.1-0.1,0.1c0,0,0,0,0,0C2,6.2,1.8,6.2,1.5,6.4C1.3,6.5,1.1,7.5,1.2,7.6
				c0,0,0,0,0,0c0,0,0.1,0.3,0.1,0.5c0,0.1,0.1,0.2,0.1,0.2c0,0.1,0.1,0.3,0.1,0.4c0.5,0.6,2.4,0.9,3.5-0.1c0.5-0.4,0.2-0.8,0.2-1.5
				c0,0,0,0,0-0.1C5.3,6.8,5.2,6.5,5,6.2z"/>
			<g>
				<path class="st0" d="M2.9,8c-0.2,0.2-0.7,0.7-1,1c0,0,0.1,0,0.1,0.1C2,9,2.1,8.9,2.2,8.9C2.5,8.6,2.8,8.4,2.9,8z"/>
				<path class="st0" d="M5.1,7.4C5.1,7.4,5,7.4,5.1,7.4c0,0.1,0.1,0.3,0.1,0.4c0,0.1,0.1,0.2,0.1,0.4c0-0.2,0-0.3,0-0.5
					C5.3,7.6,5.2,7.5,5.1,7.4z"/>
				<path class="st0" d="M1.4,8.3C1.7,8.1,2,7.9,2.2,7.7c0,0,0,0,0,0C2,7.9,1.6,8,1.4,8.2c0,0,0,0,0,0C1.4,8.3,1.4,8.3,1.4,8.3z"/>
				<path class="st0" d="M4.3,5C4.2,5,4.2,5,4.3,5C4.1,5.1,4.1,5.1,4.1,5.2C4,5.3,3.8,5.4,3.8,5.5c-0.1,0-0.1,0.1-0.2,0.1
					C3.5,5.7,3.4,5.8,3.3,5.8C3,5.9,2.8,6,2.5,6.1c0,0,0,0,0,0c0,0,0,0,0,0c0,0,0,0,0,0c0,0,0,0,0,0c0,0,0,0,0,0
					c0.1,0,0.2,0.1,0.4,0c0.1,0,0.2,0,0.3,0c0,0,0,0,0,0c0,0-0.1,0.1-0.1,0.1c0,0,0,0,0,0c0,0,0,0,0,0c-0.2,0-0.3,0-0.5,0
					c-0.1,0-0.2,0-0.2,0c-0.1,0-0.1,0-0.2,0c0,0,0,0.1,0,0.1c0,0,0,0,0,0c0,0-0.1,0-0.1,0c-0.1,0-0.1,0-0.2,0c0,0,0,0.1,0,0.1
					c0.1,0.1,0.3,0.1,0.4,0.1c0.1,0,0.3,0,0.4-0.1c0,0,0.1,0,0.1,0C2.6,6.7,2.6,6.8,2.5,7C2.4,6.9,2.2,7,2.1,7.1
					C1.9,7.1,1.8,7.2,1.6,7.3C1.5,7.4,1.3,7.5,1.2,7.6c0,0,0,0.1,0,0.1c0,0,0,0,0,0c0,0,0.1,0,0.1-0.1c0.2-0.1,0.3-0.1,0.5-0.2
					C2,7.4,2.1,7.3,2.3,7.2c0,0,0.1,0,0.1-0.1c0,0,0,0,0,0c0,0,0,0,0,0c0,0,0,0,0,0c0,0,0,0,0,0c0,0,0.1,0,0.1-0.1
					C2.6,7,2.6,7,2.7,7c0,0,0,0,0,0c0,0-0.1,0-0.1,0c0,0,0,0,0,0c0,0,0,0,0,0c0.1-0.2,0.2-0.3,0.4-0.4C3,6.5,3.1,6.4,3.2,6.3
					C3.1,6.4,3,6.6,3,6.7c0,0,0,0,0,0c0.1-0.1,0.1-0.2,0.2-0.3c0.1-0.1,0.2-0.2,0.3-0.3C3.7,6,3.8,6,3.9,5.9C4,5.8,4,5.8,4,5.8
					C4,5.9,3.9,5.9,3.9,6C3.8,6.1,3.7,6.2,3.6,6.3c0,0,0,0,0,0c0.1,0,0.3-0.1,0.4-0.2C4,6,4.1,6,4.1,6c-0.6,1-1.6,1.5-2.5,2.3
					C1.6,8.3,1.5,8.4,1.4,8.5c0,0,0,0,0,0c0.8-0.7,1.7-1.3,2.4-2.1C4,6.3,4.1,6.1,4.1,6c0,0.1-0.1,0.2-0.1,0.2
					C4,6.4,3.9,6.5,3.8,6.7c0,0,0,0,0,0c0.1-0.1,0.2-0.3,0.3-0.4C4.2,6.2,4.3,6.1,4.3,6C4.2,6.4,4.1,6.8,4,7.2
					C3.8,7.9,3.5,8.5,3.2,9.1c0,0,0,0,0,0C3.5,8.5,3.8,7.9,4,7.2c0.1-0.4,0.3-0.9,0.4-1.3c0,0,0,0.1,0,0.1c0,0.2,0,0.3,0,0.5
					c0,0,0,0,0,0c0-0.1,0.1-0.3,0.1-0.4c0-0.1,0-0.1,0-0.2c0,0.1,0,0.3,0,0.4c0,0.3,0.1,0.7,0.1,1c0.1,0.6,0.1,1.1,0,1.7
					c0,0,0,0,0,0c0.1-0.5,0.1-1,0.1-1.5c0-0.3-0.1-0.7-0.1-1c0-0.3,0-0.5,0-0.8C4.7,6,4.7,6.3,4.8,6.6c0,0,0,0,0,0
					c0-0.3-0.1-0.6-0.1-0.9c0-0.1,0-0.2,0-0.2c0.1,0.1,0.1,0.2,0.1,0.3c0,0.1,0.1,0.2,0.1,0.3c0,0.1,0,0.2,0.1,0.3
					C5,6.7,5.1,7,5.3,7.2c0,0,0,0,0,0C5.2,7.1,5.2,6.9,5.1,6.8c0-0.1,0-0.3-0.1-0.4c0,0,0,0,0-0.1c0,0,0,0,0-0.1
					C5,6,4.9,5.8,4.9,5.5c0,0,0-0.1,0-0.1c0,0-0.1,0-0.1,0c0,0.2,0,0.3,0,0.5c0-0.1,0-0.1-0.1-0.2c0-0.1-0.1-0.3-0.1-0.4
					c0-0.1,0-0.2-0.1-0.3c0-0.1-0.1-0.2-0.1-0.3c0,0,0,0,0,0C4.4,4.8,4.3,4.9,4.3,5z"/>
				<path class="st0" d="M3.6,9.1c0.1-0.1,0.2-0.3,0.3-0.4c0,0,0,0,0,0C3.8,8.7,3.6,8.9,3.5,9C3.4,9.1,3.3,9.2,3.2,9.3c0,0,0,0,0,0
					c0.1,0,0.2,0,0.3,0C3.5,9.3,3.6,9.2,3.6,9.1z"/>
				<path class="st0" d="M2.9,7.8C2.5,8.1,2.1,8.3,1.8,8.6C1.7,8.7,1.7,8.7,1.6,8.8c0,0.1,0.1,0.1,0.2,0.1c0.4-0.4,1.2-1,1.6-1.6
					C3.2,7.6,3.1,7.7,2.9,7.8z"/>
				<path class="st0" d="M2.6,9.1C2.8,8.9,3,8.8,3.2,8.6c0.2-0.2,0.3-0.3,0.4-0.5c0,0,0,0,0,0C3.5,8.2,3.4,8.3,3.3,8.3
					C3.2,8.4,3.1,8.5,3,8.6C2.8,8.8,2.6,8.9,2.4,9.1c-0.1,0-0.1,0.1-0.2,0.1c0.1,0,0.1,0,0.2,0C2.5,9.2,2.6,9.1,2.6,9.1z"/>
				<path class="st0" d="M3,8.9C2.8,9,2.7,9.1,2.5,9.3c0.1,0,0.1,0,0.2,0C2.8,9.2,2.9,9,3,8.9C3,8.9,3,8.9,3,8.9z"/>
			</g>
			<g>
				<path class="st2" d="M2.3,8.2c0.2-0.1,0.3-0.3,0.5-0.4c0.1-0.1,0.3-0.3,0.4-0.4c0,0,0,0,0,0C3.1,7.5,2.9,7.6,2.8,7.8
					C2.6,7.9,2.5,8,2.3,8.2C2.1,8.3,1.9,8.4,1.7,8.5c-0.1,0-0.2,0.1-0.3,0.1c0,0.1,0.1,0.1,0.1,0.2l0,0c0.1-0.1,0.2-0.1,0.2-0.2
					C2,8.5,2.2,8.3,2.3,8.2z"/>
				<path class="st2" d="M2.8,8.5c0.1-0.2,0.3-0.4,0.4-0.6c0.1-0.2,0.3-0.4,0.3-0.6c0,0,0,0,0,0C3.4,7.4,3.3,7.6,3.2,7.8
					C3.1,8,2.9,8.2,2.8,8.5C2.6,8.6,2.4,8.7,2.2,8.9C2.1,9,2.1,9,2,9.1c0.1,0,0.1,0.1,0.2,0.1c0,0,0.1-0.1,0.1-0.1
					C2.5,8.8,2.6,8.7,2.8,8.5z"/>
				<path class="st2" d="M1.2,7.6C1.2,7.6,1.2,7.6,1.2,7.6C1.5,7.5,1.8,7.4,2,7.3c0,0,0,0,0,0C1.7,7.3,1.5,7.4,1.2,7.5
					C1.2,7.5,1.2,7.6,1.2,7.6z"/>
				<path class="st2" d="M1.8,7.6C1.6,7.7,1.5,7.8,1.3,7.9c0,0.1,0,0.1,0,0.2c0,0,0,0,0.1,0C1.6,7.9,1.7,7.8,1.8,7.6
					C2.2,7.5,2.6,7.2,2.9,7c0.3-0.2,0.5-0.5,0.8-0.8c0.2-0.3,0.5-0.6,0.5-0.9c0,0,0,0,0,0C4.1,5.4,4,5.6,3.9,5.7
					C3.8,5.9,3.7,6,3.6,6.2C3.4,6.4,3.1,6.7,2.8,6.9C2.5,7.2,2.1,7.4,1.8,7.6z"/>
				<path class="st2" d="M4.3,7.8c0-0.3,0.1-0.5,0.1-0.8c0,0,0,0,0,0C4.3,7.2,4.3,7.5,4.3,7.8C4.2,8,4.1,8.3,4,8.5
					C4,8.8,3.9,9,3.7,9.3c0,0,0,0,0,0c0,0,0.1,0,0.1,0C3.9,9,4,8.8,4.1,8.5C4.2,8.3,4.2,8,4.3,7.8z"/>
				<path class="st2" d="M4.2,6.6C4.2,6.6,4.2,6.6,4.2,6.6C4,7.3,3.7,7.9,3.4,8.4C3.2,8.7,3,9,2.8,9.2c0,0,0,0-0.1,0.1
					c0.1,0,0.1,0,0.2,0c0.2-0.3,0.4-0.5,0.5-0.8C3.8,7.9,4,7.3,4.2,6.6z"/>
				<path class="st2" d="M5.2,8.5c0,0-0.1-0.1-0.1-0.1C5.1,8.2,5,8,4.9,7.9c0,0,0,0,0-0.1c0-0.2-0.1-0.3-0.1-0.5
					c-0.1-0.3-0.1-0.7-0.2-1c0-0.3,0-0.6,0-0.9c0-0.1,0-0.1,0-0.2c0-0.1-0.1-0.1-0.1,0c-0.1,0.5-0.1,1,0,1.6c0,0.2,0,0.4,0,0.6
					c0,0.6-0.1,1.3-0.2,1.9C4.6,9,4.8,8.9,5.1,8.7C5.1,8.6,5.2,8.6,5.2,8.5z"/>
				<path class="st2" d="M4.7,5.3c0,0.1,0,0.2,0,0.3c0,0.3,0,0.5,0,0.8c0,0.3,0.1,0.6,0.1,0.9C4.9,7.5,5,7.8,5.1,8.1
					c0,0.1,0.1,0.3,0.1,0.4c0,0,0,0,0,0c0-0.1,0.1-0.1,0.1-0.2c0-0.1-0.1-0.2-0.1-0.2C5.1,7.8,5,7.5,4.9,7.2
					C4.9,6.9,4.8,6.7,4.8,6.4c0-0.1,0-0.2,0-0.3c0,0.2,0.1,0.4,0.1,0.5C5,6.9,5.1,7.1,5.2,7.3c0,0.1,0.1,0.2,0.1,0.2
					c0-0.1,0-0.2,0-0.4C5.2,7,5.1,6.8,5,6.6C4.8,6.2,4.8,5.8,4.7,5.3C4.7,5.3,4.7,5.3,4.7,5.3z"/>
				<path class="st2" d="M3.7,9.2C3.8,9,3.9,8.8,3.9,8.5c0.1-0.5,0.3-0.9,0.3-1.4c0,0,0,0,0,0c0-0.2,0.1-0.4,0.1-0.7c0,0,0,0,0,0
					C4.2,7,4,7.6,3.7,8.1C3.6,8.4,3.4,8.6,3.3,8.9C3.2,9,3.1,9.2,2.9,9.3C3.2,9.3,3.4,9.3,3.7,9.2C3.6,9.3,3.6,9.3,3.7,9.2z"/>
			</g>
		</g>
		<path class="st3" d="M4.5,5.7c0.3,0.8,0.3,1.6,0.1,2.4c0,0,0,0,0,0C4.7,7.3,4.7,6.5,4.5,5.7c0,0.6-0.1,1.1-0.2,1.6
			c-0.1,0.5-0.3,1-0.6,1.5c0,0,0,0,0,0c0.2-0.5,0.4-1,0.6-1.5c0.1-0.5,0.2-1.1,0.2-1.6C4.4,5.6,4.4,5.6,4.5,5.7
			C4.4,5.7,4.5,5.7,4.5,5.7z M4.3,5.5c-0.1,0.3-0.3,0.7-0.4,1c-0.2,0.3-0.4,0.7-0.5,1c0,0,0,0,0,0C3.6,7.3,3.8,6.9,4,6.6
			C4.1,6.3,4.3,5.9,4.3,5.5C4.4,5.5,4.3,5.5,4.3,5.5z M5.3,5.1C5.3,5.1,5.3,5.1,5.3,5.1c0.3,0.4,0.6,0.8,0.8,1.3c0,0,0,0,0,0
			C6,5.9,5.7,5.4,5.3,5.1z M7.2,5.9C6.7,5.5,6.1,5.3,5.6,5.2c0,0,0,0,0,0c0,0-0.1-0.1-0.1-0.1c0,0-0.1,0,0,0c0.3,0.3,0.7,0.5,1,0.9
			c0.3,0.3,0.5,0.6,0.8,1c0,0,0,0,0,0C7,6.6,6.7,6.2,6.4,5.9C6.1,5.7,5.9,5.4,5.6,5.2C6.2,5.4,6.7,5.6,7.2,5.9
			C7.2,5.9,7.2,5.9,7.2,5.9z M3.9,4.4C3.5,4.9,3,5.2,2.5,5.5c0,0,0,0,0,0C3.1,5.3,3.6,4.9,3.9,4.4C4,4.4,3.9,4.4,3.9,4.4z M3.9,4.3
			c-1,0.2-2,0.2-3,0.2c0,0,0,0,0,0C1.9,4.6,2.9,4.6,3.9,4.3C3.9,4.4,3.9,4.3,3.9,4.3z M8.8,3.2c-1,0.3-2,0.7-3.1,1c0,0,0,0.1,0,0
			C6.7,3.9,7.8,3.6,8.8,3.2C8.8,3.2,8.8,3.2,8.8,3.2z M7.8,2.9C7.4,3.1,7,3.3,6.6,3.5C6.2,3.8,5.8,4,5.4,4.3c0,0,0,0,0,0
			c0.4-0.3,0.8-0.5,1.2-0.8C7,3.3,7.4,3.1,7.8,2.9C7.8,2.9,7.8,2.9,7.8,2.9z"/>
		<g>
			<path class="st4" d="M6,3.9c-0.1-0.1-0.3,0-0.3,0c0,0-0.1,0-0.1,0.1c0,0,0,0,0-0.1c0,0,0-0.1,0-0.1c-0.1,0-0.2,0-0.3,0.1
				c0.1-0.1,0.3-0.5,0.1-0.6c-0.1,0-0.1,0-0.2,0.1c0-0.1,0-0.2-0.1-0.2C5,3.2,4.9,3.2,4.9,3.3c0-0.1,0-0.2,0-0.2c0,0-0.1-0.1-0.1,0
				C4.7,3.1,4.6,3.3,4.6,3.4c0,0,0,0,0,0c0,0,0,0,0,0c-0.1,0-0.1,0.2-0.2,0.3c0,0,0,0,0,0c0,0,0,0,0,0C4.2,3.7,4.2,3.9,4.2,4
				c0,0,0,0,0,0c-0.1,0-0.1,0-0.1,0.1c0,0,0,0,0,0C4,4.1,4,4,3.9,4.1c0,0,0,0,0,0c0,0,0,0,0,0c-0.1,0-0.1,0-0.2,0c0,0-0.1,0.1,0,0.1
				c0,0,0,0-0.1,0c-0.1,0-0.2,0-0.2,0c-0.1,0-0.1,0.1-0.1,0.2c0.1,0.1,0.2,0.1,0.3,0.1c0,0,0,0,0,0c0,0,0,0,0,0c0,0,0.1,0,0.1,0
				c0,0-0.1,0.1-0.1,0.1c0,0,0,0.1,0,0.1c0.1,0,0.2,0,0.2,0c0,0,0,0,0,0c0,0,0,0.1,0,0.1C3.9,5,4,5,4.1,5C4.1,5,4.1,5.1,4,5.1
				c0,0,0,0.1,0.1,0c0,0,0.1,0,0.1-0.1C4.1,5.3,4.1,5.4,4.1,5.5c0,0,0,0,0.1,0c0,0,0,0,0,0c0,0.1,0,0.1,0,0.2c0,0.1,0.1,0.1,0.2,0.1
				c0.1,0,0.1-0.1,0.1-0.1c0,0,0,0,0,0c0,0,0,0,0,0c0,0,0,0,0,0c0,0,0,0,0,0c0,0,0.1,0,0.1-0.1c0,0.1,0.1,0.1,0.1,0.1
				c0.1-0.1,0.1-0.2,0.2-0.3c0,0,0,0,0,0c0,0,0,0,0,0c0,0,0.1,0,0.1,0c0,0,0,0,0,0l0,0c0,0,0,0,0,0c0,0,0,0,0.1,0
				c0.1,0.1,0.2,0.1,0.3,0.1c0,0,0,0,0.1,0c0,0,0,0,0,0c0,0,0,0,0,0c0,0,0,0,0,0c0,0,0.1,0,0.1-0.1c0,0,0-0.1,0-0.1c0,0,0.1,0,0.1,0
				c0.1-0.1,0-0.1,0-0.2c0,0,0,0,0,0c0,0,0,0,0,0c0,0,0-0.1,0-0.1c0-0.1-0.1-0.2-0.2-0.3c0.1,0,0.3,0,0.4-0.1c0.1,0,0.1-0.2,0-0.2
				c0,0,0,0,0,0c0,0,0,0,0.1,0c0.1,0,0.2-0.1,0.2-0.2c0,0,0-0.1-0.1-0.1c0-0.1,0-0.1-0.1-0.2C6,4,6,4,6,4C6,4,6,3.9,6,3.9z"/>
			<path class="st5" d="M5.7,4.2C5.7,4.2,5.6,4.2,5.7,4.2c0-0.1-0.1-0.1-0.1-0.1c-0.1,0-0.1,0-0.2,0c0-0.1,0-0.2-0.1-0.1
				c0,0,0,0,0,0c0,0,0,0,0,0c0,0,0,0,0,0c0,0,0,0,0,0c0,0,0,0,0,0c0,0,0-0.1,0-0.1c0,0,0,0-0.1,0c0,0,0,0,0,0c0,0,0,0,0,0
				c0-0.1,0-0.1-0.1-0.1c0,0,0,0,0,0c0,0,0-0.1,0-0.1c0,0,0,0-0.1,0c0,0-0.1,0.1-0.1,0.1c0,0,0,0,0,0c0,0,0,0,0,0c0,0,0,0,0,0
				c0,0,0,0,0,0c0,0,0,0,0,0c0,0,0,0,0,0c0,0,0,0,0,0c0,0-0.1,0.1-0.1,0.2c0,0,0,0,0-0.1c0,0,0,0-0.1,0c0,0.1,0,0.2,0,0.2
				c0,0-0.1,0-0.1,0c0,0-0.1,0-0.1,0.1c0,0,0,0,0,0c0,0-0.1,0-0.1,0c0,0,0,0,0,0.1c0,0,0,0,0,0c0,0,0,0,0,0c0,0,0,0-0.1,0
				c0,0-0.1,0-0.1,0c0,0,0,0,0,0c0,0,0,0.1,0,0.1c0,0,0,0,0,0c0,0,0,0,0,0c-0.1,0-0.1,0.1,0,0.1c0,0,0.1,0,0.1,0.1
				C4,4.7,4,4.8,4,4.8c0,0,0,0,0.1,0c0,0,0,0.1,0.1,0.1c0,0,0.1,0,0.1,0c0,0,0,0,0,0c0,0,0,0,0,0c0,0.1-0.1,0.2,0,0.3c0,0,0,0,0.1,0
				c0,0,0,0,0,0c0,0,0,0,0,0c0,0,0,0,0,0c0,0,0,0.1,0,0.1c0,0,0.1,0,0.1-0.1c0,0,0,0,0,0c0,0,0,0,0,0c0,0,0,0,0,0.1c0,0,0,0,0,0
				c0,0,0,0,0,0c0,0,0.1,0.1,0.1,0c0,0,0,0,0,0c0,0,0,0,0.1,0c0,0,0,0,0,0c0,0,0,0,0,0c0,0,0,0,0,0c0,0,0-0.1,0-0.1c0,0,0,0,0,0
				c0,0,0-0.1,0-0.1c0,0,0,0,0,0c0,0,0,0,0,0c0,0,0,0,0,0c0,0,0,0,0,0c0,0,0,0,0,0c0,0,0,0,0,0c0,0,0,0,0,0c0,0,0,0,0,0c0,0,0,0,0,0
				c0,0,0,0,0,0l0,0c0,0,0,0.1,0,0.1c0,0,0,0,0.1,0c0,0,0,0,0,0c0,0,0,0,0,0c0,0,0.1,0,0.1,0.1c0,0,0.1,0,0.1,0c0,0,0.1,0,0.1-0.1
				c0,0,0,0,0-0.1c0,0,0,0,0,0c0,0,0,0,0,0c0,0,0,0,0,0c0,0,0,0,0,0c0,0,0,0,0,0c0,0,0,0,0.1-0.1c0,0,0,0,0-0.1c0,0,0.1-0.1,0-0.1
				c0,0,0.1,0,0.1-0.1c0,0,0,0,0,0c0.1,0,0.2-0.1,0.2-0.1c0,0,0,0,0,0C5.7,4.3,5.7,4.3,5.7,4.2C5.7,4.3,5.7,4.2,5.7,4.2z"/>
			<path class="st6" d="M5.2,4.2C5.2,4.2,5.2,4.2,5.2,4.2C5.2,4.2,5.2,4.2,5.2,4.2c-0.1,0-0.1,0-0.1,0c0,0,0,0,0,0.1c0,0,0,0,0,0
				c0,0,0,0,0,0c0,0,0,0,0-0.1c0,0,0,0,0,0c0,0,0,0-0.1,0c0,0,0,0,0,0c0,0,0,0,0,0c0,0,0,0-0.1,0c0,0,0-0.1,0-0.1c0,0,0,0,0,0
				c0,0,0,0,0,0c0,0,0,0-0.1,0c0,0,0,0,0,0c0,0,0,0-0.1,0c0,0,0,0,0,0.1c0,0,0,0,0,0c0,0,0,0,0,0c0,0,0,0,0,0l0,0c0,0,0,0,0,0
				c0,0-0.1,0-0.1,0c0,0,0,0,0,0c0,0,0,0,0,0c0,0,0,0,0,0c0,0,0,0,0,0c0,0,0,0,0,0c0,0-0.1,0-0.1,0c0,0-0.1,0-0.1,0.1
				c0,0,0,0.1,0,0.1c0,0,0,0,0,0c0,0,0,0,0,0c0,0,0,0,0,0c0,0,0,0,0,0c0,0,0,0,0,0c0,0,0-0.1-0.1-0.1c0,0,0,0-0.1,0c0,0,0,0,0,0.1
				c0,0,0,0,0,0c0,0,0,0,0,0c0,0,0,0,0,0c0,0,0,0-0.1,0c0,0,0,0.1,0,0.1c0,0,0.1,0,0.1,0c0,0,0,0.1,0,0.1c0,0,0,0,0,0c0,0,0,0,0,0.1
				c0,0,0,0,0,0.1c0,0,0.1,0,0.2,0c0,0,0,0,0,0c0,0,0.1,0.1,0.1,0.1c0,0.1,0,0.1,0,0.2c0,0,0,0,0,0c0,0,0,0,0,0c0,0,0,0,0,0
				c0,0,0-0.1,0-0.1c0,0,0,0,0,0c0,0,0,0.1,0.1,0.1c0.1,0,0.1-0.2,0.1-0.2c0,0,0,0,0,0c0,0,0,0,0,0c0,0,0,0,0,0c0,0,0,0,0.1,0
				c0,0,0,0,0,0c0,0,0,0,0,0c0,0,0,0,0.1,0c0,0,0,0,0,0c0,0,0,0,0,0c0,0,0,0,0-0.1c0,0,0,0,0,0c0,0,0,0,0,0c0,0,0,0,0,0c0,0,0,0,0,0
				c0,0,0-0.1,0-0.1c0,0,0,0,0-0.1c0,0,0,0,0.1,0c0,0,0,0,0,0c0,0,0,0,0,0c0,0,0,0,0.1,0c0,0,0-0.1,0-0.1c0,0,0,0,0,0l0,0
				c0,0,0,0,0,0c0,0,0,0,0-0.1c0,0,0,0,0,0c0,0,0,0,0,0C5.3,4.3,5.3,4.3,5.2,4.2C5.3,4.3,5.3,4.2,5.2,4.2C5.3,4.2,5.2,4.2,5.2,4.2z"
				/>
		</g>
		<g>
			<path class="st7" d="M6.1,4.7C6.1,4.6,6.1,4.6,6.1,4.7c0-0.1-0.7-0.1-0.8-0.1c-0.4,0-0.6-0.2-0.7-0.1c-0.1,0-0.1,0.1,0,0.2
				c0,0,0,0,0.1,0C5.1,4.8,5.6,4.8,6.1,4.7z"/>
			<path class="st8" d="M5.2,4.8C5,4.7,4.9,4.6,4.8,4.6c0,0-0.1-0.1,0-0.1c-0.1,0-0.1,0-0.2,0c-0.1,0-0.1,0.1,0,0.2c0,0,0,0,0.1,0
				C4.8,4.7,5,4.7,5.2,4.8z"/>
			<path class="st2" d="M5.9,4.2c0,0-0.1,0-0.1,0c0,0,0,0,0,0.1c0,0,0,0.1,0,0.1c0,0,0,0,0,0c0,0,0,0,0,0c0,0,0,0.1,0,0.1
				c0,0,0,0.1,0,0.1c0,0,0.1,0,0.1,0c0,0,0.1,0,0.1,0c0,0,0-0.1,0-0.1c0,0,0-0.1,0-0.1c0,0,0,0,0,0C5.9,4.4,6,4.3,5.9,4.2
				C6,4.3,6,4.3,5.9,4.2z"/>
			<path class="st2" d="M5.6,4.2C5.6,4.2,5.6,4.3,5.6,4.2C5.6,4.3,5.7,4.3,5.6,4.2C5.7,4.3,5.7,4.2,5.6,4.2C5.7,4.2,5.6,4.2,5.6,4.2
				z"/>
			<path class="st2" d="M5.7,4.4C5.6,4.4,5.7,4.5,5.7,4.4C5.8,4.4,5.7,4.3,5.7,4.4z"/>
			<path class="st2" d="M5.9,4.8c0,0,0,0.1,0,0.1c0,0,0.1,0,0.1,0c0,0,0-0.1,0-0.1C6,4.7,5.9,4.7,5.9,4.8z"/>
			<path class="st2" d="M5.8,4.9C5.7,5,5.8,5.1,5.8,4.9C5.9,5,5.8,4.9,5.8,4.9z"/>
			<path class="st2" d="M5.7,4.8C5.6,4.8,5.6,4.9,5.7,4.8C5.7,4.9,5.7,4.9,5.7,4.8C5.8,4.9,5.8,4.8,5.7,4.8C5.7,4.8,5.7,4.8,5.7,4.8
				z"/>
			<path class="st2" d="M5.6,4.8C5.5,4.8,5.5,4.8,5.6,4.8c-0.1,0-0.1,0.1-0.1,0.1c0,0,0,0.1,0,0.1c0,0,0,0,0.1,0c0,0,0.1,0,0.1,0
				c0,0,0,0,0-0.1C5.7,4.9,5.6,4.9,5.6,4.8C5.6,4.8,5.6,4.8,5.6,4.8z"/>
			<path class="st2" d="M6.2,4.7C6.2,4.8,6.1,4.8,6.2,4.7c0,0.1,0,0.1,0,0.1c0,0,0.1,0,0.1,0c0,0,0,0,0-0.1c0,0,0,0,0-0.1
				C6.3,4.7,6.2,4.7,6.2,4.7z"/>
			<path class="st2" d="M6.4,4.9C6.3,5,6.4,5.1,6.5,5C6.5,5,6.4,4.9,6.4,4.9z"/>
			<path class="st2" d="M6.2,5C6.1,5,6.2,5.1,6.2,5C6.3,5,6.2,4.9,6.2,5z"/>
			<path class="st2" d="M6.2,4.1C6.2,4.1,6.1,4.1,6.2,4.1c-0.1,0-0.1,0.1-0.1,0.1c0,0,0,0.1,0,0.1c0,0,0,0,0.1,0c0,0,0.1,0,0.1,0
				c0,0,0,0,0-0.1C6.3,4.2,6.3,4.2,6.2,4.1C6.3,4.2,6.2,4.1,6.2,4.1z"/>
			<path class="st2" d="M6,4C6,4,6,4,6,4c0,0.1,0,0.1,0,0.1c0,0,0.1,0,0.1,0c0,0,0,0,0-0.1c0,0,0,0,0-0.1C6.1,4,6,4,6,4z"/>
			<path class="st2" d="M6.2,4.5C6.1,4.5,6.2,4.6,6.2,4.5C6.3,4.5,6.2,4.5,6.2,4.5z"/>
			<path class="st2" d="M6.4,4.5C6.3,4.6,6.3,4.6,6.4,4.5c0,0.1,0,0.1,0,0.1c0,0,0.1,0,0.1,0c0,0,0,0,0-0.1c0,0,0-0.1,0-0.1
				C6.5,4.5,6.4,4.5,6.4,4.5z"/>
			<path class="st9" d="M6.6,4.4C6.6,4.4,6.6,4.4,6.6,4.4C6.6,4.4,6.5,4.4,6.6,4.4c-0.1,0-0.1,0-0.1,0c0,0,0,0,0,0.1
				c0,0,0,0.1,0,0.1c0,0,0,0,0,0c0,0,0,0,0,0c0,0,0,0,0,0c0,0,0.1,0,0.1,0c0,0,0,0,0,0C6.7,4.5,6.7,4.5,6.6,4.4
				C6.7,4.5,6.7,4.5,6.6,4.4C6.7,4.5,6.7,4.5,6.6,4.4C6.7,4.4,6.6,4.4,6.6,4.4z"/>
			<path class="st9" d="M6.8,4.1c-0.1,0-0.1,0.1-0.1,0.1c0,0,0,0,0,0c0,0,0.1,0.1,0.1,0.1c0.1,0,0.1-0.1,0.1-0.1
				C6.9,4.1,6.9,4.1,6.8,4.1z"/>
			<path class="st9" d="M6.5,3.8C6.5,3.8,6.5,3.8,6.5,3.8C6.4,3.9,6.5,3.9,6.5,4c0,0,0,0,0,0c0,0,0,0,0,0c0,0,0,0,0,0c0,0,0,0,0.1,0
				c0,0,0,0,0,0c0,0,0,0,0,0c0,0,0,0,0,0c0,0,0-0.1,0-0.1C6.7,3.8,6.6,3.8,6.5,3.8z"/>
			<path class="st9" d="M6.3,3.9C6.3,3.9,6.2,3.9,6.3,3.9c-0.1,0-0.1,0-0.1,0.1c0,0,0,0.1,0,0.1c0,0,0,0.1,0.1,0.1c0,0,0,0,0.1,0
				c0,0,0,0,0.1,0c0,0,0-0.1,0-0.1C6.4,4,6.4,4,6.3,3.9C6.3,3.9,6.3,3.9,6.3,3.9z"/>
			<path class="st9" d="M6.5,4.1C6.5,4.1,6.4,4.1,6.5,4.1c-0.1,0-0.2,0.1-0.2,0.1c0,0,0,0.1,0,0.1c0,0,0,0,0,0c0,0,0.1,0,0.1,0
				c0,0,0.1,0,0.1,0c0,0,0,0,0-0.1C6.6,4.3,6.6,4.2,6.5,4.1C6.5,4.2,6.5,4.1,6.5,4.1z"/>
			<path class="st9" d="M6.3,4.3C6.2,4.3,6.2,4.3,6.3,4.3C6.2,4.3,6.2,4.3,6.3,4.3c-0.1,0-0.1,0-0.1,0c0,0-0.1,0-0.1,0c0,0,0,0,0,0
				c0,0,0,0,0,0c0,0,0,0,0,0.1c0,0,0,0,0,0c0,0,0,0,0,0c0,0,0,0,0,0c0,0,0,0,0,0c0,0,0,0,0,0c0,0,0.1,0,0.1,0
				C6.3,4.5,6.3,4.4,6.3,4.3C6.3,4.4,6.3,4.4,6.3,4.3C6.3,4.3,6.3,4.3,6.3,4.3z"/>
		</g>
	</g>
</g>
</svg>
