<!-- Generator: Adobe Illustrator 22.0.0, SVG Export Plug-In  -->
<svg version="1.1"
	 xmlns="http://www.w3.org/2000/svg" xmlns:xlink="http://www.w3.org/1999/xlink" xmlns:a="http://ns.adobe.com/AdobeSVGViewerExtensions/3.0/"
	 x="0px" y="0px" width="512px" height="391.2px" viewBox="0 0 512 391.2" style="enable-background:new 0 0 512 391.2;"
	 xml:space="preserve">
<defs>
</defs>
<path d="M256.3,58.4c-83.6,0-151.5,68-151.5,151.5s68,151.5,151.5,151.5s151.5-68,151.5-151.5S339.9,58.4,256.3,58.4z M256.3,341.4
	c-72.5,0-131.5-59-131.5-131.5s59-131.5,131.5-131.5s131.5,59,131.5,131.5S328.8,341.4,256.3,341.4z"/>
<path d="M332.4,157c-0.2,0.1-0.3,0.2-0.5,0.3c-4.5,2.8-6.1,8.6-3.5,13.3c6.5,12,10,25.6,10,39.3c0,45.3-36.8,82.1-82.1,82.1
	s-82.1-36.8-82.1-82.1s36.8-82.1,82.1-82.1c4.3,0,8.7,0.3,13,1c5.3,0.8,10.2-2.6,11.3-7.8c0-0.2,0.1-0.4,0.1-0.5
	c0.9-5.5-2.9-10.6-8.3-11.4c-5.3-0.8-10.7-1.3-16.1-1.3c-56.3,0-102.1,45.8-102.1,102.1S200,312,256.3,312s102.1-45.8,102.1-102.1
	c0-17.1-4.3-34-12.4-48.9C343.4,156.2,337.3,154.4,332.4,157z"/>
<path d="M303.1,133.4c0,0.7,0.1,1.3,0.2,2c0.1,0.6,0.3,1.3,0.6,1.9c0.3,0.6,0.6,1.2,0.9,1.7c0.4,0.5,0.8,1.1,1.2,1.5
	c0.5,0.5,1,0.9,1.5,1.2c0.5,0.4,1.1,0.7,1.7,0.9c0.6,0.3,1.2,0.4,1.9,0.6c0.6,0.1,1.3,0.2,2,0.2s1.3-0.1,1.9-0.2
	c0.6-0.1,1.3-0.3,1.9-0.6c0.5-0.2,1-0.5,1.5-0.8c0.1,0,0.2-0.1,0.2-0.1c0.5-0.4,1.1-0.8,1.5-1.2c0.5-0.5,0.9-1,1.2-1.5
	c0.4-0.5,0.7-1.1,0.9-1.7c0.3-0.6,0.4-1.2,0.6-1.9c0.1-0.6,0.2-1.3,0.2-2c0-2.6-1.1-5.2-2.9-7.1c-0.5-0.5-1-0.9-1.5-1.2
	c-0.5-0.4-1.1-0.7-1.7-0.9c-0.6-0.2-1.2-0.4-1.9-0.6c-1.3-0.3-2.6-0.3-3.9,0c-0.6,0.1-1.3,0.3-1.9,0.6c-0.6,0.3-1.2,0.6-1.7,0.9
	c-0.5,0.4-1.1,0.8-1.5,1.2c-0.5,0.5-0.9,1-1.2,1.5c-0.4,0.5-0.7,1.1-0.9,1.7c-0.2,0.4-0.3,0.8-0.4,1.2c-0.1,0.2-0.1,0.5-0.2,0.7
	C303.2,132.1,303.1,132.8,303.1,133.4z"/>
<path d="M511.7,353.1L479.3,89c-2.3-18.4-8-35.9-17.2-52c-5.6-9.9-12.4-19.1-20.2-27.3L441,8.7c-6.7-7-16.6-8.9-25.4-4.8
	c-8.8,4.1-13.7,13-12.5,22.6l41.1,334.8c0.1,1.1,0.3,2.1,0.5,3.2c3.4,15.6,17.3,26.7,33.2,26.7c1.4,0,2.8-0.1,4.2-0.3l0,0
	c11-1.4,20.2-7.9,25.4-16.9c0.5-0.9,1-1.9,1.5-2.9c0.5-1,0.9-2,1.2-3.1C511.8,363.4,512.4,358.3,511.7,353.1z M423,24.1
	c0-0.4-0.2-1.5,1.2-2.1c0.4-0.2,0.7-0.2,1-0.2c0.7,0,1.2,0.5,1.4,0.7l0.9,0.9c6.7,7.1,12.5,15,17.3,23.4
	c7.8,13.8,12.8,28.8,14.7,44.6l17.3,140.8l-27.8,3.4L423,24.1z M491,362.4c-1.8,4.6-6,8.1-11.3,8.8l0,0c-7.7,0.9-14.6-4.5-15.6-12.2
	l-12.7-103.5l27.8-3.4l12.7,103.5C492.2,357.9,491.9,360.3,491,362.4z"/>
<path d="M122.9,96.6l9.1-74.1c0.7-5.5-3.2-10.5-8.7-11.1c-5.5-0.7-10.5,3.2-11.1,8.7l-9.1,74.1c-1.4,11.5-10.7,20.3-22.3,21
	l-6.6-0.8l12-97.4c0.7-5.5-3.2-10.5-8.7-11.1C71.9,5,66.9,8.9,66.3,14.4l-12,97.4l-6.6-0.8c-11-3.5-18-14.2-16.6-25.7l9.1-74.1
	C40.9,5.7,37,0.8,31.5,0.1C26-0.6,21,3.3,20.4,8.8l-9.1,74.1c-2.3,18.5,7.2,35.9,23.1,44.2L0.4,346c0,0,0,0,0,0.1
	c-1.4,9.4,1,18.7,6.7,26.2c5.7,7.5,14.1,12.3,23.4,13.5l0.2,0c1.4,0.2,2.9,0.3,4.3,0.3c7.9,0,15.5-2.7,21.8-7.7
	c7.4-6,11.9-14.5,12.8-23.9l20.1-220.5C107.3,129.7,120.7,115.1,122.9,96.6z M49.8,352.6c-0.4,4-2.3,7.6-5.5,10.2
	c-3.1,2.5-7.1,3.7-11.1,3.2l-0.2,0c-4-0.5-7.5-2.5-10-5.7c-2.4-3.2-3.5-7.1-2.9-11.1l33.7-217.1l7.9,1c0,0,0,0,0,0c0,0,0,0,0,0
	l7.9,1L49.8,352.6z"/>
</svg>
