<!-- Generator: Adobe Illustrator 22.0.0, SVG Export Plug-In  -->
<svg version="1.1"
	 xmlns="http://www.w3.org/2000/svg" xmlns:xlink="http://www.w3.org/1999/xlink" xmlns:a="http://ns.adobe.com/AdobeSVGViewerExtensions/3.0/"
	 x="0px" y="0px" width="21.6px" height="24.4px" viewBox="0 0 21.6 24.4" style="enable-background:new 0 0 21.6 24.4;"
	 xml:space="preserve">
<style type="text/css">
	.st0{fill:#254922;}
	.st1{fill:#206259;}
	.st2{fill:#114441;}
	.st3{fill:#39896F;}
	.st4{fill:#84C3A1;}
</style>
<defs>
</defs>
<g>
	<path class="st0" d="M15.7,6.9c0,0,0-0.1,0-0.1c4.1-0.4,6,3.5,5.5,0.4c-0.6-4.4-5.6-1.6-5.8-2.7c0-0.3,0.8-0.7,1.4-0.8
		c0.9-0.1,1.9,0.2,2.7,0.8c-0.2-0.7-1-1-1.4-1.6c-0.3-0.3-0.3-0.9-0.8-1c-1.4-0.2-1.6-1.2-3.1-1c-2.5,0.4-1.9,3.7-2.8,3.8
		c-0.3,0-0.4-0.5-0.5-0.8c-0.1-0.4,0-0.8-0.1-1.2c0-0.1,0-0.1,0-0.2c-0.4-1.8-1.5-1.3-1.8-1.6C8.1,0.1,7.2-0.1,6.4,0
		C5,0.2,3.7,1.2,2.8,2.2c0.1,0,4.8,0.2,4.9,1c0,0.1-0.2,0.5-0.7,0.6C5.9,3.8,4,2.5,3.1,2.6C2.2,2.7,1.8,4.1,0.7,5.9
		c0.8-0.4,1.6-0.6,2.5-0.7c2.5-0.4,3.1-0.3,3.1,0.1c0,0.3-0.3,0.4-0.6,0.5C4.9,6,3.3,5.6,2.1,5.8C0.3,6.1-0.2,7.3,0.1,9.1
		c0.1,0.6,0.3,1.6,0.3,1.7c1.3-1.2,4.8-3.2,5.9-3.4c0.6-0.1,1.2,0.1,1.2,0.2c0,0,0,0.1,0,0.1C5.3,9.2,1.8,8.8,0.5,12
		c0,0.3,0,0.6,0,1c0.1,0.4,0.1,0.7,1.2,2.6c1.4-2.1,3.4-5.5,6.1-5.9c0.1,0,0.1,0.1,0.1,0.2c0,0.2-0.1,0.5-0.4,0.6
		c-1.7,0.8-6.2,5.1-6.1,6.1c0,0,0,0,0,0.1c1,0.7,1.1,1.9,2.3,3C4.6,17.8,6,16.2,7,14.2c0.4-0.8,1-1.5,1.9-1.6
		c0.5-0.1,0.7,0.1,0.8,0.4c0.1,0.6-0.4,1.2-0.9,1.5c-3.6,2.2-4.3,6.5-4.3,6.7c0,0.3,0.8,0.4,1.2,0.8C6,22.5,6.5,22.8,7,23
		c-0.2-1.8,1-2.6,1.8-5.1c0.1-0.5,0.5-1.2,0.9-1.3c0.1,0,0.3,0.1,0.4,0.3c0,0.3-0.3,0.9-0.6,1.2c-1,1.6-2,3.4-1.8,5.2
		c0,0.1,0,0.2,0,0.2c0.5,0.4,1.2,0.7,1.8,0.6c0,0,0,0,0,0c-0.1-0.2-0.1-0.4-0.2-0.6c-0.2-1.5,1-4.2,1.1-4.2c0.1,0,0.1,0,0.2,0.2
		c0,0-0.5,3.7-0.8,4.8c0.6-0.1,1.2,0.2,1.7,0.1c0.3,0,3.7-1.3,3.5-2.1c-0.2-1.1-2-4.5-2-4.6c0-0.1,0-0.1,0.1-0.2c0,0,0,0,0,0
		c1.3-0.1,1,1.9,1.4,2.9c0.5,1.3,0.7,1.2,0.7,1.7c0,0.3,0,0.5,0,0.8c0.9-0.2,1.7-1,1.5-2.7c-0.6-4.3-3.7-6.4-3.7-6.4
		c0-0.1,0.1-0.3,0.3-0.3c2.1-0.3,3.5,6,3.9,7.1c1-0.7,1.7-1.9,1.5-3.4c-0.3-2.1-2.1-4-3.7-5.4c-0.2-0.1-0.3-0.3-0.5-0.4
		c-0.1-0.1-0.4-0.3-0.5-0.4c-0.1-0.1,0-0.2,0.1-0.2c0.1,0,0.2,0.2,0.3,0.2c0.2,0.1,0.5,0.3,0.7,0.4c0.4,0.3,0.8,0.6,1.2,1
		c0.6,0.7,1.2,1.4,1.6,2.3c0.3,0.6,0.6,1.2,0.8,1.9c0.1,0.1,0.2,0.7,0.4,0.6c0.1-0.1,0.1-0.3,0.2-0.4c0.4-1.4,1.3-1.3,1.1-2.6
		c-0.5-3.3-5.6-5.3-5.6-5.3c-0.1-0.7,5.1,2.2,6.1,4.2c0.3-0.7,0.7-1.3,0.5-2.6C21.1,7.5,17.7,7.5,15.7,6.9z M9.4,6.5
		c0.1,0,0.3,0,0.4,0c0.1,0,0.1,0.1,0.1,0.2C9.9,7,9.4,7.1,9,7.2C8.2,7.3,8.5,6.6,9.4,6.5z M10.2,11c0,0.1-0.1,0.2-0.1,0.2
		c-0.1,0.1-0.3,0.2-0.3,0.3c-0.1,0.1-0.1,0.2-0.1,0.2C9.4,12,9,11.9,9,11.6c0.1-0.2,0.3-0.4,0.5-0.6c0.1-0.1,0.5-0.3,0.6-0.2
		C10.2,10.9,10.2,10.9,10.2,11z M9.3,9.3C8,9.5,9.1,8.5,9.8,8.4c0.1,0,0.3,0,0.3,0c0.1,0.1,0.1,0.1,0.1,0.2
		C10.3,8.9,9.8,9.2,9.3,9.3z M13.5,8.3C13,8.3,12.5,8,12.5,7.8c0-0.1,0.1-0.2,0.2-0.2c0.2,0,0.4,0.1,0.5,0.1
		c0.2,0.1,0.4,0.2,0.4,0.4C13.6,8.2,13.6,8.3,13.5,8.3z M13.7,6.6c-0.3,0-1-0.4-0.7-0.5c0.3,0,0.5,0.1,0.8,0.2c0.1,0,0.1,0,0.1,0.1
		C14,6.5,13.8,6.6,13.7,6.6z"/>
	<path class="st1" d="M15.7,6.9c0,0,0-0.1,0-0.1c4.1-0.4,6,3.5,5.5,0.4c-0.6-4.4-5.6-1.6-5.8-2.7c0-0.3,0.8-0.7,1.4-0.8
		c0.9-0.1,1.9,0.2,2.7,0.8c-0.2-0.7-1-1-1.4-1.6c-0.3-0.3-0.3-0.9-0.8-1c-1.4-0.2-1.6-1.2-3.1-1c-2.5,0.4-1.9,3.7-2.8,3.8
		c-0.3,0-0.4-0.5-0.5-0.8c-0.1-0.4,0-0.8-0.1-1.2c0-0.1,0-0.1,0-0.2c-0.4-1.8-1.5-1.3-1.8-1.6C8.1,0.1,7.2-0.1,6.4,0
		C5,0.2,3.7,1.2,2.8,2.2c0.1,0,4.8,0.2,4.9,1c0,0.1-0.2,0.5-0.7,0.6C5.9,3.8,4,2.5,3.1,2.6C2.2,2.7,1.8,4.1,0.7,5.9
		c0.8-0.4,1.6-0.6,2.5-0.7c2.5-0.4,3.1-0.3,3.1,0.1c0,0.3-0.3,0.4-0.6,0.5C4.9,6,3.3,5.6,2.1,5.8C0.3,6.1-0.2,7.3,0.1,9.1
		c0.1,0.6,0.3,1.6,0.3,1.7c1.3-1.2,4.8-3.2,5.9-3.4c0.6-0.1,1.2,0.1,1.2,0.2c0,0,0,0.1,0,0.1C5.3,9.2,1.8,8.8,0.5,12
		c0,0.3,0,0.6,0,1c0.1,0.4,0.1,0.7,1.2,2.6c1.4-2.1,3.4-5.5,6.1-5.9c0.1,0,0.1,0.1,0.1,0.2c0,0.2-0.1,0.5-0.4,0.6
		c-1.7,0.8-6.2,5.1-6.1,6.1c0,0,0,0,0,0.1c1,0.7,1.1,1.9,2.3,3C4.6,17.8,6,16.2,7,14.2c0.4-0.8,1-1.5,1.9-1.6
		c0.5-0.1,0.7,0.1,0.8,0.4c0.1,0.6-0.4,1.2-0.9,1.5c-3.6,2.2-4.3,6.5-4.3,6.7c0,0.3,0.8,0.4,1.2,0.8C6,22.5,6.5,22.8,7,23
		c-0.2-1.8,1-2.6,1.8-5.1c0.1-0.5,0.5-1.2,0.9-1.3c0.1,0,0.3,0.1,0.4,0.3c0,0.3-0.3,0.9-0.6,1.2c-1,1.6-2,3.4-1.8,5.2
		c0,0.1,0,0.2,0,0.2c0.5,0.4,1.2,0.7,1.8,0.6c0,0,0,0,0,0c-0.1-0.2-0.1-0.4-0.2-0.6c-0.2-1.5,1-4.2,1.1-4.2c0.1,0,0.1,0,0.2,0.2
		c0,0-0.5,3.7-0.8,4.8c0.6-0.1,1.2,0.2,1.7,0.1c0.3,0,3.7-1.3,3.5-2.1c-0.2-1.1-2-4.5-2-4.6c0-0.1,0-0.1,0.1-0.2c0,0,0,0,0,0
		c1.3-0.1,1,1.9,1.4,2.9c0.5,1.3,0.7,1.2,0.7,1.7c0,0.3,0,0.5,0,0.8c0.9-0.2,1.7-1,1.5-2.7c-0.6-4.3-3.7-6.4-3.7-6.4
		c0-0.1,0.1-0.3,0.3-0.3c2.1-0.3,3.5,6,3.9,7.1c1-0.7,1.7-1.9,1.5-3.4c-0.3-2.1-2.1-4-3.7-5.4c-0.2-0.1-0.3-0.3-0.5-0.4
		c-0.1-0.1-0.4-0.3-0.5-0.4c-0.1-0.1,0-0.2,0.1-0.2c0.1,0,0.2,0.2,0.3,0.2c0.2,0.1,0.5,0.3,0.7,0.4c0.4,0.3,0.8,0.6,1.2,1
		c0.6,0.7,1.2,1.4,1.6,2.3c0.3,0.6,0.6,1.2,0.8,1.9c0.1,0.1,0.2,0.7,0.4,0.6c0.1-0.1,0.1-0.3,0.2-0.4c0.4-1.4,1.3-1.3,1.1-2.6
		c-0.5-3.3-5.6-5.3-5.6-5.3c-0.1-0.7,5.1,2.2,6.1,4.2c0.3-0.7,0.7-1.3,0.5-2.6C21.1,7.5,17.7,7.5,15.7,6.9z M9.4,6.5
		c0.1,0,0.3,0,0.4,0c0.1,0,0.1,0.1,0.1,0.2C9.9,7,9.4,7.1,9,7.2C8.2,7.3,8.5,6.6,9.4,6.5z M10.2,11c0,0.1-0.1,0.2-0.1,0.2
		c-0.1,0.1-0.3,0.2-0.3,0.3c-0.1,0.1-0.1,0.2-0.1,0.2C9.4,12,9,11.9,9,11.6c0.1-0.2,0.3-0.4,0.5-0.6c0.1-0.1,0.5-0.3,0.6-0.2
		C10.2,10.9,10.2,10.9,10.2,11z M9.3,9.3C8,9.5,9.1,8.5,9.8,8.4c0.1,0,0.3,0,0.3,0c0.1,0.1,0.1,0.1,0.1,0.2
		C10.3,8.9,9.8,9.2,9.3,9.3z M13.5,8.3C13,8.3,12.5,8,12.5,7.8c0-0.1,0.1-0.2,0.2-0.2c0.2,0,0.4,0.1,0.5,0.1
		c0.2,0.1,0.4,0.2,0.4,0.4C13.6,8.2,13.6,8.3,13.5,8.3z M13.7,6.6c-0.3,0-1-0.4-0.7-0.5c0.3,0,0.5,0.1,0.8,0.2c0.1,0,0.1,0,0.1,0.1
		C14,6.5,13.8,6.6,13.7,6.6z"/>
	<g>
		<path class="st2" d="M2.3,12.6C2.4,12.1,2.2,12.1,2.3,12.6L2.3,12.6z"/>
		<path class="st2" d="M18.2,5.2c-0.1,0-0.1-0.1-0.1-0.2c0-0.1,0-0.4,0.3-0.4c0.2,0,0.4,0,0.5,0l0,0c-0.9-0.1-1.9,0-2.6,0.1
			c0,0,0,0,0,0c0,0,0,0-0.1,0c0,0,0,0,0,0c0,0,0,0-0.1,0c0,0,0,0,0,0c0,0,0,0-0.1,0c0,0,0,0-0.1,0c0,0,0,0-0.1,0c0,0,0,0-0.1,0
			c0,0,0,0,0,0c0,0,0,0,0,0c0,0,0,0,0,0c0,0,0,0,0,0c0,0,0,0,0,0c0,0,0,0,0,0c0,0,0,0,0,0c0,0,0,0-0.1,0c0,0,0,0,0,0c0,0,0,0,0,0
			c0,0,0,0,0,0c0,0,0,0,0,0c0,0,0,0,0,0c0,0,0,0,0,0c0,0,0,0,0,0c0,0,0,0,0,0c0,0,0,0,0,0c0,0,0,0,0-0.1c0,0,0,0,0,0c0,0,0,0,0,0
			c0,0,0,0,0,0l0,0c-0.4,0-0.8-0.1-1.1-0.2c0,0.2,0.1,0.4,0.3,0.4c-1.1,0-1.8-0.6-0.6,0.2C12.7,4.7,13.6,5,14.8,5
			c-0.1,0-0.2,0-0.2,0c-1,0.1-1.3-0.4-2.2-0.3c1.4,0.5,0.7,0.5,3,0.4c1.4,0-0.9,0.2-2.3,0.1c0.8,0.3,1.7,0.3,2.5,0.2
			c0.4-0.1,0.7-0.1,0.9-0.2c1.8-0.3,3.5,0.5,4.7,1.9c0,0,0-0.1,0-0.1c0-0.1,0-0.1,0-0.1C20.3,5.9,19.1,5.8,18.2,5.2z"/>
		<path class="st2" d="M3.1,11.2c0.2,0,0.4-0.2,0.6-0.2c0.2,0,0.3,0.2,0.4,0.3c0,0.3-0.5,0.7-0.6,1C3.6,12.2,3.7,12,3.9,12
			c0,0,0,0,0,0c0,0.1-0.1,0.3-0.1,0.5l0,0C3.9,12.4,4,12.3,4,12.2c0,0,0,0,0,0c0,0,0.1-0.1,0.1-0.1c0,0,0,0,0,0c0,0,0.1-0.1,0.1-0.1
			c0,0,0,0,0,0c0,0,0.1-0.1,0.1-0.1c0,0,0,0,0,0c0,0,0.1-0.1,0.1-0.1c0,0,0,0,0,0c0,0,0.1-0.1,0.1-0.1c0,0,0,0,0,0
			c0,0,0.1-0.1,0.1-0.1c0,0,0,0,0,0C5,11.2,5.3,11,5.6,10.7l0,0c2.1-2.8,4-2.4,5.4-3.5C7.9,8.3,4.9,9.5,3.1,11.2z"/>
		<path class="st2" d="M6.4,16.8C6.4,16.8,6.4,16.8,6.4,16.8c-0.1,0.1-0.2,0.1-0.2,0.2c0,0,0,0,0,0c0,0-0.1,0.1-0.1,0.1c0,0,0,0,0,0
			c0,0-0.1,0.1-0.1,0.1c0,0,0,0,0,0c0,0-0.1,0.1-0.1,0.1c0,0,0,0,0,0c0,0,0,0.1-0.1,0.1c0,0,0,0,0,0c0,0,0,0.1-0.1,0.1c0,0,0,0,0,0
			c0,0,0,0.1-0.1,0.1c0,0,0,0,0,0c0,0-0.1,0.1-0.1,0.1c0.5-0.7,0.9-1.1,0.9-1.1C6.5,16.8,6.5,16.8,6.4,16.8z"/>
		<path class="st2" d="M13.5,17.5C13.5,17.5,13.6,17.5,13.5,17.5C13.6,17.5,13.6,17.5,13.5,17.5c0.1,0,0.1,0.1,0.1,0.1c0,0,0,0,0,0
			c0,0,0,0,0,0c0,0,0,0,0,0c0,0,0,0,0.1,0.1c0,0,0,0,0,0c0,0,0,0,0,0c0-0.1,0-0.1,0-0.2c-0.1-0.9-0.8-1.5-0.7-1.1
			C13.1,16.9,13.3,17.2,13.5,17.5L13.5,17.5C13.5,17.5,13.5,17.5,13.5,17.5z"/>
		<path class="st2" d="M12.4,16.9c-0.2,0,0.3,0.6,0.7,0.9l0,0c0,0,0,0,0,0c0,0,0,0,0,0c0,0,0,0,0,0c0,0,0,0,0,0c0,0,0,0,0,0
			c0,0,0,0,0,0c0,0,0,0,0,0c0,0,0,0,0,0c0,0,0,0,0,0c0,0,0,0,0,0c0,0,0,0,0,0c0,0,0,0,0,0c0,0,0,0,0,0c0,0,0,0,0,0c0,0,0,0,0,0
			c0,0,0,0,0,0c0,0,0,0,0,0c0,0,0,0,0,0c0,0,0,0,0-0.1l0,0C12.8,17.2,12.5,16.9,12.4,16.9z"/>
		<path class="st2" d="M1.7,15.5c0.2-0.3,0.4-0.6,0.6-0.9c0,0,0,0,0,0c0,0,0.1-0.1,0.1-0.1c0,0,0-0.1,0.1-0.1c0,0,0,0,0-0.1
			c0,0,0-0.1,0.1-0.1c0,0,0,0,0,0c0.1-0.1,0.1-0.2,0.2-0.3c0,0,0,0,0,0c0,0,0.1-0.1,0.1-0.1c0,0,0,0,0,0c0.1-0.1,0.1-0.2,0.2-0.3
			c0,0,0,0,0,0c0,0,0.1-0.1,0.1-0.1c0,0,0,0,0,0c0,0,0.1-0.1,0.1-0.1c-0.1,0.1-0.3,0.2-0.4,0.2c0,0,0,0,0,0c0,0,0,0,0-0.1
			c0,0,0-0.1,0-0.1c0-0.2-0.2,0.3-0.3,0.3c-0.1,0-0.2-0.3-0.2-0.5c0-0.2,0-0.3,0-0.4c-0.1,0.3-0.2,0.8-0.5,1.5c0-1.3,0.3-1-0.5,0.3
			c0-0.8,0.4-1.5,0.7-2.1c-0.4,0.7-0.8,1.4-1.1,2.2l0,0c0,0,0,0.1,0.1,0.1c0,0,0,0,0,0c0,0,0,0.1,0.1,0.1c0,0,0,0,0,0
			c0,0,0,0.1,0.1,0.1c0,0,0,0,0,0C1.3,15,1.5,15.3,1.7,15.5C1.7,15.6,1.7,15.5,1.7,15.5z"/>
		<path class="st2" d="M20.3,8C20.3,8.1,20.3,8.1,20.3,8C20.4,8.1,20.4,8.1,20.3,8c0.1,0.1,0.1,0.1,0.1,0.1c0,0,0,0,0,0c0,0,0,0,0,0
			c0,0,0.1,0,0.1,0.1h0c0.5,0.3,0.7,0.1,0.6-0.9c-0.4-0.5-1.1-1-2.3-0.9c0.6,0.1,1.8,0.7,0.4,0.3c0.1,0.1,0.2,0.1,0.3,0.2
			c-0.3-0.1-0.7-0.1-1.1-0.1c1.1,0.5,1.5,0.5-0.1,0.3c0,0,0,0,0.1,0.1h0C19.3,7.4,19.9,7.8,20.3,8C20.3,8,20.3,8,20.3,8z"/>
		<path class="st2" d="M20.5,8.6C20.5,8.6,20.5,8.6,20.5,8.6c-0.1-0.1-0.2-0.2-0.3-0.2c0,0,0,0,0,0c-1-0.7-2.3-0.9-3.5-1.2
			c0,0-0.1,0-0.1,0c0,0,0,0-0.1,0c0,0-0.1,0-0.1,0c0,0,0,0,0,0c0,0-0.1,0-0.1,0c0,0,0,0,0,0c0,0-0.1,0-0.1,0c0,0,0,0,0,0
			c0,0-0.1,0-0.1,0c0,0,0,0,0,0c0,0-0.1,0-0.1,0c0,0,0,0,0,0c0,0-0.1,0-0.1,0c0,0,0-0.1,0-0.1c0.1,0,0.1,0,0.2,0c0,0,0,0,0.1,0
			c0,0,0.1,0,0.1,0c0,0,0,0,0.1,0c0,0,0.1,0,0.1,0c0,0,0,0,0.1,0c0.1,0,0.1,0,0.2,0c0,0,0,0,0.1,0c0,0,0.1,0,0.1,0c0,0,0,0,0.1,0
			c0,0,0.1,0,0.1,0c0,0,0.1,0,0.1,0c0,0,0,0,0.1,0c0.1,0,0.1,0,0.2,0c0,0,0,0,0,0c0,0,0.1,0,0.1,0c0,0,0,0,0,0c0,0,0.1,0,0.1,0
			c0,0,0,0,0,0c0.2,0,0.3,0.1,0.5,0.1h0c-0.3-0.3-0.5-0.6-1-0.5c-0.2,0-0.5,0.1-0.8,0.2c-0.7,0.1-1.3-0.3-2-0.3
			c0.1,0,0.9,0.2,0.4,0.3c-0.1,0-0.3,0-0.5,0c0,0-0.1,0.1-0.2,0.1c0.1,0,0.1,0.1,0.3,0.1c0.5,0.2,1.2,0.1,1.5,0.6
			c-3.7-0.1,1.9-0.1,5.3,3.1c-0.1-0.4-0.7-1-0.7-1c0-0.1,0-0.1,0-0.1c0.2,0,0.3,0.1,0.4,0.2C20,9,19.8,8.9,19.8,8.9
			c0-0.1,0.4,0.2,0.7,0.2C20.4,9,14.5,5.9,20.9,9c0,0,0,0,0,0c0,0-0.1-0.1-0.1-0.1c0,0,0,0,0,0C20.7,8.7,20.6,8.6,20.5,8.6z"/>
		<path class="st2" d="M6.4,7.4C6.4,7.4,6.4,7.4,6.4,7.4C6.4,7.4,6.5,7.4,6.4,7.4c0.1,0,0.1,0,0.2,0c0,0,0,0,0,0c0,0,0,0,0.1,0
			c0,0,0,0,0,0c0,0,0.1,0,0.1,0c0,0,0,0,0,0c0,0,0,0,0.1,0c0,0,0,0,0,0c0,0,0,0,0.1,0c0,0,0,0,0,0c0,0,0,0,0.1,0c0,0,0,0,0,0
			c0,0,0.1,0,0.1,0c0,0,0,0,0,0c0.1,0,0.1,0,0.2,0.1l0,0c0,0,0.1,0,0.1,0l0,0c0,0,0.1-0.1,0.1-0.2c0-0.2-0.3-0.3-0.3-0.4
			c0-0.1,0.4-0.4,0.8-0.5c0.2,0,0.7,0,0.8,0.2c0,0,0,0,0,0.1c0.1-0.1,0.4-0.2,0.6-0.2c0.1,0,0.3,0,0.4,0c0.1,0,0.1,0.1,0.1,0.2
			c0,0.2-0.2,0.3-0.5,0.4c0.3,0,0.7,0.1,1,0c0.6-0.1,0.9-0.4,0.8-1C11.1,5.6,8.4,5.9,8,6C3.8,6.6,4.4,7.2,2.9,9l0,0
			c0,0,0.1-0.1,0.1-0.1l0,0c0,0,0.1,0,0.1-0.1c0,0,0,0,0,0c0,0,0.1,0,0.1-0.1c0,0,0,0,0,0c0,0,0.1,0,0.1-0.1c0,0,0,0,0,0
			c0,0,0.1,0,0.1-0.1c0,0,0,0,0,0c0,0,0.1,0,0.1-0.1c0,0,0,0,0,0c0.1,0,0.2-0.1,0.2-0.1c0,0,0,0,0,0c0,0,0.1,0,0.1,0c0,0,0,0,0,0
			c0,0,0.1,0,0.1,0c0,0,0,0,0,0c0,0,0.1,0,0.1,0c0,0,0,0,0,0c0,0,0.1,0,0.1,0c0,0,0,0,0,0c0.1,0,0.2-0.1,0.2-0.1c0,0,0,0,0,0
			c0,0,0.1,0,0.1,0c0,0,0,0,0,0c0,0,0,0,0.1,0c0,0,0,0,0,0c0,0,0,0,0.1,0c0,0,0,0,0,0c0,0,0,0,0.1,0c0,0,0,0,0,0c0,0,0.1,0,0.1,0
			c0,0,0,0,0,0c0,0,0.1,0,0.1,0c0,0,0,0,0,0c0,0,0.1,0,0.1,0c0,0,0,0,0,0c0,0,0,0,0.1,0c0,0,0,0,0,0c0,0,0,0,0.1,0c0,0,0,0,0,0
			c0,0,0,0,0.1,0c0,0,0,0,0,0c0,0,0,0,0.1,0c0,0,0,0,0,0c0,0,0.1,0,0.1,0c0,0,0,0,0,0c0,0,0,0,0.1,0c0,0,0,0,0,0c0,0,0,0,0,0
			c0,0,0,0,0,0c0,0,0,0,0,0c0,0,0,0,0,0c0,0,0,0,0,0c0,0,0,0,0,0c0,0,0,0,0,0c0,0,0,0,0,0C6.2,7.4,6.3,7.4,6.4,7.4
			C6.3,7.4,6.3,7.4,6.4,7.4C6.4,7.4,6.4,7.4,6.4,7.4z"/>
		<path class="st2" d="M14.6,3.4c-3.8,2.8-3-0.8-3.3,5.3c0,0.4-0.1,0.8,0,1.2c0.1,1.1,1.8,1.6,1.1,1.2c-0.6-0.4-0.8-1-0.9-1.7
			c-0.1-1-0.1-1.1,0.1-1.1c0.2,0,2.5,2.1,0.5,0.1c0,0-0.1-0.1-0.1-0.1c0,0,0.5,0.4,1.3,0.4c-0.5-0.4-1.2-0.7-1.3-1.3
			c0-0.1,0-0.2,0.2-0.2c0.4-0.1,1.1,0.5,1.8,0.4c-0.6-0.4-1-0.6-1.2-0.7c0,0,0.1,0,0.1,0c0.5-0.1-0.9-0.4-1-1.2
			c0.5,0.3,1,0.3,1.6,0.2c0.2,0-1.8-0.5-1.3-0.6c0.1,0,0.2,0,0.3,0c0.3,0-1.2-0.3-0.1-0.2c-0.1,0-0.3-0.1-0.3-0.2c0,0,0,0,0,0
			C13,4.5,13.9,4.2,14.6,3.4z"/>
		<path class="st2" d="M15.2,16.2C15.2,16.2,15.2,16.2,15.2,16.2c-0.2-0.1-0.4-0.2-0.6-0.3c0,0,0,0,0,0
			C14.9,16.1,15.1,16.2,15.2,16.2C15.3,16.2,15.3,16.2,15.2,16.2z"/>
		<path class="st2" d="M14.6,19.8C14.6,19.8,14.6,19.8,14.6,19.8C14.6,19.8,14.6,19.9,14.6,19.8C14.6,19.9,14.7,20,14.6,19.8z"/>
		<path class="st2" d="M11.4,13L11.4,13C11.4,13,11.4,13,11.4,13C11.4,13,11.4,13,11.4,13c-0.8,1.2-2.1,1.3-3.1,2.2
			c0.3-0.1,0.6-0.4,0.9-0.4c0,0,0.1,0,0.1,0c-4.7,3.4-1.6,1.5-0.9,1.1c-0.6,1.2-1.9,2.1-2,2.7c0.1-0.1,0.3-0.3,0.5-0.4
			c0,0,0.2,0,0.2,0c0,0-0.9,1.2-1,1.7c0.7-0.6-0.1,0,0,0.9c0.2,1.4,0.5-3.9,4.1-6.5C9.7,14.8,9,15.4,9,16.2c0.4-0.6,0.7-1.2,1.2-1.8
			C10.6,13.9,11.4,13.6,11.4,13z"/>
		<path class="st2" d="M13.4,9.1c0.1,0.3,0.3,0.4,0.6,0.5c5,1.7,6,6.8,5.8,5.3c-0.3-1.7-2-3-0.2-1.6c-0.2-0.5-0.6-0.7-1.1-0.9
			c0.7,0.1,1.3,0.4,1.8,0.9c0,0,0,0,0-0.1c0,0,0,0,0,0c-0.5-0.7-1.3-1.1-2.1-1.5c-0.8-0.4,0.6-0.2,1.5,0.5c0,0-0.1-0.1-0.1-0.1
			c0,0,0,0,0,0c0,0-0.1-0.1-0.1-0.1c-0.7-0.4-1.5-0.7-2.2-1.1c-1.1-0.6,0.4-0.3,1.7,0.5c0,0-0.1-0.1-0.1-0.1c0,0,0,0,0,0
			c0,0-0.1-0.1-0.1-0.1c0,0,0,0,0,0c0,0-0.1-0.1-0.1-0.1c0,0,0,0,0,0c0,0-0.1-0.1-0.1-0.1C16.5,9.8,14.7,10.2,13.4,9.1z"/>
		<path class="st2" d="M16.6,16.7c-0.2-1.1-0.7-2.2-1.5-3c-2.5-2.6-1.6-1.6-1.4-0.6c0,0.2,0,0.3,0,0.5l0,0c0.7,0.2,1.3,1.1,1.8,2.2
			c0,0,0,0,0,0c0,0.1,0.1,0.2,0.1,0.3c0,0,0,0,0,0c0,0.1,0.1,0.1,0.1,0.2c0,0,0,0,0,0c0,0,0,0.1,0,0.1c0,0,0,0,0,0
			c0,0.1,0,0.1,0.1,0.2c0,0,0,0,0,0c0,0.1,0.1,0.2,0.1,0.3c0,0,0,0,0,0c0,0,0,0.1,0.1,0.1c0,0,0,0,0,0c0,0,0,0.1,0,0.1c0,0,0,0,0,0
			c0,0,0,0.1,0,0.1c0,0,0,0,0,0.1c0,0,0,0.1,0,0.1c0,0,0,0,0,0.1c0,0,0,0.1,0,0.1c0,0,0,0,0,0.1c0,0,0,0.1,0,0.1c0,0,0,0.1,0,0.1
			c0,0,0,0,0,0.1c0,0,0,0,0,0.1c0,0,0,0.1,0,0.1c0,0,0,0,0,0.1c0,0,0,0,0,0.1c0,0,0,0,0,0.1c0,0,0,0.1,0,0.1c0,0,0,0,0,0.1
			c0,0.1,0,0.1,0.1,0.2C16.7,17.9,16.7,17.3,16.6,16.7z"/>
		<path class="st2" d="M15.8,17.2L15.8,17.2c-0.1-0.1-0.1-0.3-0.2-0.4c-0.2-0.2-0.5-0.5-0.9-0.8c-0.9-0.4-2.1-1.1-2.9-1.9
			c0,0-0.1,0-0.1,0c0.5,1.4,2.2,1.7,2.5,3.6c0.1,0.4,0,0.7,0,0.9c0,0.1,0.1,0.3,0.1,0.5c0,0,0,0,0,0c0,0,0,0.1,0,0.1
			c0.3-0.7,0.1-2.3,0.2-1.1c0.1,0.6,0,1.1,0.1,1.7c0-0.3,0.3-0.8,0.3-1.3c0,0.1,0.7,2.5,0.6,1.6c0,0-0.3-0.8-0.5-1.9
			c0.3,0.6,0.8,1.2,1.3,1.6c-1.4-2.5-1.3-2.7-2-3.3c0.2,0.1,1.7,1.3,1.9,1.4c0,0,0,0,0,0c-0.1-0.1-0.2-0.2-0.4-0.4
			C13.5,15.4,14.9,16.5,15.8,17.2z"/>
		<path class="st2" d="M12.5,23.1c0-0.3-0.2-0.6-0.3-0.5c0,0-0.1,0-0.1,0c0,0.6,0.1,1.1-0.1,1.6c0,0,0,0,0,0c0,0,0.1,0,0.1,0
			c0,0,0,0,0,0c0,0,0,0,0.1,0c0,0,0,0,0,0c0.1,0,0.1,0,0.2-0.1C12.5,23.7,12.5,23.4,12.5,23.1z"/>
		<path class="st2" d="M11.3,16.1C11.3,16.1,11.3,16.1,11.3,16.1c-0.3,0.1-0.5,0.7-0.8,0.7c-0.1,0-0.3-0.1-0.3-0.2
			c0-0.2,0.3-0.5,0.3-0.7c-0.2,0.2-0.4,0.5-0.7,1v0c0,0,0,0,0,0c0,0.3-0.3,0.9-0.6,1.2c0,0-0.1,0.1-0.1,0.1c0,0,0,0,0,0.1
			c0,0,0,0.1-0.1,0.1c0,0,0,0.1,0,0.1c0,0,0,0,0,0.1c0,0,0,0.1-0.1,0.1c0,0,0,0,0,0.1c0,0,0,0.1-0.1,0.1c0,0,0,0,0,0.1
			c0,0,0,0.1-0.1,0.1c0,0,0,0,0,0.1c0,0,0,0.1-0.1,0.1c0,0,0,0,0,0c0,0,0,0.1-0.1,0.1c0,0,0,0,0,0c0,0,0,0.1-0.1,0.1c0,0,0,0,0,0
			c0,0,0,0.1-0.1,0.1c0,0,0,0,0,0c0,0,0,0.1-0.1,0.1c0,0,0,0,0,0c0,0,0,0.1-0.1,0.1c0,0,0,0,0,0c0,0,0,0.1-0.1,0.1c0,0,0,0,0,0
			c0,0,0,0.1-0.1,0.1c0,0,0,0,0,0c-0.3,0.7-0.5,1.3-0.6,2c0,0,0,0,0,0c0,0.1,0,0.1,0,0.2c0,0,0,0,0,0c0,0.1,0,0.1,0,0.2c0,0,0,0,0,0
			c0,0.1,0,0.1,0,0.2c0,0,0,0,0,0c0,0.1,0,0.1,0,0.2c0,0,0,0,0,0c0,0.1,0,0.1,0,0.2C8.9,22.7,8.2,18.7,11.3,16.1
			C11.3,16.2,11.3,16.1,11.3,16.1z"/>
		<path class="st2" d="M13.6,18.9C13.6,18.9,13.6,18.8,13.6,18.9c0-0.1-0.1-0.1-0.1-0.2c0,0,0,0,0,0c0-0.1-0.1-0.1-0.1-0.2
			c0,0,0-0.1,0-0.1c0,0,0,0,0,0c0-0.1,0-0.1-0.1-0.1c0,0,0,0,0,0c0,0,0,0,0-0.1c0,0,0,0,0,0c0,0,0,0,0-0.1c0,0,0,0,0,0
			c0,0,0,0,0-0.1c0,0,0,0,0,0c-0.5,0-1.1-0.6-1.1-0.6c0,0,0,0,0,0c0,0,2.1,2,2.4,4.4c0.1,0.4,0.1,0.8,0,1.1h0c0,0,0,0,0.1,0
			c0,0,0,0,0,0c0,0,0,0,0.1,0c0,0,0,0,0,0c0,0,0,0,0,0c0,0,0,0,0,0c0,0,0,0,0,0c0,0,0,0,0,0c0,0,0,0,0,0c0,0,0,0,0,0c0,0,0,0,0,0
			c0,0,0,0,0,0c0,0,0,0,0,0c0,0,0,0,0,0c0,0,0,0,0,0c0,0,0,0,0,0c0,0,0,0,0,0c0,0,0,0,0,0c0,0,0,0,0,0c0,0,0,0,0,0c0,0,0,0,0,0
			c0,0,0,0,0,0c0,0,0,0,0,0c0,0,0,0,0,0c0,0,0,0,0,0c0,0,0,0,0,0c0,0,0,0,0,0c0,0,0,0,0,0c0,0,0,0,0,0l0,0c0,0,0,0,0,0
			c-0.1-0.3-0.2-0.7-0.4-1.1v0C14.4,20.4,14,19.6,13.6,18.9z"/>
		<path class="st2" d="M0.5,10.7C0.5,10.7,0.5,10.7,0.5,10.7C0.5,10.7,0.5,10.6,0.5,10.7c0.1-0.1,0.1-0.1,0.1-0.1c0,0,0,0,0.1-0.1
			c0,0,0,0,0,0c0,0,0.1,0,0.1-0.1c0,0,0,0,0,0c0,0,0,0,0.1-0.1c0,0,0,0,0,0c0,0,0.1,0,0.1-0.1c0,0,0,0,0,0c0.1-0.1,0.1-0.1,0.2-0.2
			c0,0,0,0,0,0c0,0,0.1,0,0.1-0.1c0,0,0,0,0,0C1.4,10,1.5,9.9,1.5,9.9c0,0,0,0,0,0c0,0,0.1-0.1,0.1-0.1c0,0,0,0,0,0
			C1.8,9.7,1.9,9.6,2,9.5c0,0,0,0,0,0c0,0,0.1-0.1,0.1-0.1c0.2-0.2,0.3-0.3,0.3-0.3c-0.1,0-0.1,0-0.2,0c0,0-0.1,0-0.1,0
			c0-0.1,1.5-1.9-0.9,0.5c0-0.3,0.4-1.1,0.4-1.1c-0.2,0-0.2,0.2-0.3,0.3c0-0.2,0.2-0.2,0.2-0.4C1.2,8.7,1,9.1,0.9,9.4
			C0.7,7.4,6.2,6,7.8,5.8c1.1-0.2,2.6-0.1,3.2-0.2c0.2,0,0.2-0.2,0.2-0.3C11.1,5.2,11,5,11,5c-1.9,0.1-3.4-1-4.6-0.8
			C5.7,4.3,5,4.8,4.5,5.1h0c0.2,0,0.3,0,0.5,0c0,0,0,0,0,0C5,5,5,5,5,5c0,0,0,0,0,0c0.1,0,0.3,0,0.4,0c0,0,0,0,0,0c0,0,0,0,0.1,0
			c0,0,0,0,0,0c0,0,0,0,0.1,0c0,0,0,0,0,0c0.1,0,0.1,0,0.2,0c0,0,0,0,0,0c0,0,0,0,0,0c0,0,0,0,0,0c0,0,0,0,0,0c0,0,0,0,0,0
			C5.9,5,6,5,6,5c0,0,0,0,0,0c0,0,0,0,0,0c0,0,0,0,0,0c0,0,0,0,0,0c0,0,0,0,0,0c0,0,0,0,0,0c0,0,0,0,0,0c0,0,0,0,0,0c0,0,0,0,0,0
			c0,0,0,0,0,0c0,0,0,0,0,0c0,0,0,0,0,0c0,0,0,0,0,0c0,0,0,0,0,0c0,0,0,0,0,0c0,0,0,0,0,0c0,0,0,0,0,0c0,0,0,0,0,0c0,0,0,0,0,0
			c0,0,0,0,0,0c0,0,0,0,0,0c0,0,0,0,0,0c0,0,0,0,0,0c0,0.3-0.3,0.4-0.6,0.5C4.9,6,3.3,5.6,2.1,5.8C0.3,6.1-0.2,7.3,0.1,9.1
			C0.1,9.7,0.4,10.7,0.5,10.7C0.4,10.7,0.4,10.7,0.5,10.7z"/>
		<path class="st2" d="M17.1,18c0-0.1,0-0.1,0-0.2C17.1,17.9,17.1,18,17.1,18z"/>
		<path class="st2" d="M18.6,17c0,0,0-0.1,0-0.1c0,0,0,0,0-0.1c0,0,0-0.1,0-0.1c0,0,0-0.1,0-0.1c0,0,0-0.1,0-0.1c0,0,0-0.1,0-0.1
			c0,0,0-0.1,0-0.1c0,0,0-0.1,0-0.1c0,0,0-0.1,0-0.1c0,0,0-0.1,0-0.1c0,0,0-0.1,0-0.1c0,0,0,0,0-0.1c0-0.1-0.1-0.1-0.1-0.2
			c0,0,0-0.1,0-0.1c0,0,0-0.1,0-0.1c0,0,0-0.1,0-0.1c0,0,0-0.1,0-0.1c0,0,0-0.1-0.1-0.1c0,0,0,0,0-0.1c0,0,0-0.1-0.1-0.1
			c0,0,0,0,0-0.1c0,0,0-0.1-0.1-0.1c0,0,0,0,0-0.1c0,0,0-0.1-0.1-0.1c0,0,0,0,0,0c0,0-0.1-0.1-0.1-0.1c0,0,0,0-0.1-0.1
			c0.3,0.6,0.6,1.4,0.7,2.1c0,0.1-0.1-0.1-0.2-0.2c0.4,0.6,0.5,0.8,0.7,1.3c0-0.1,0-0.2,0-0.3c0,0,0,0,0,0c0,0,0-0.1,0-0.1
			c0,0,0-0.1,0-0.1C18.7,17.2,18.6,17.2,18.6,17C18.6,17.1,18.6,17.1,18.6,17z"/>
		<path class="st2" d="M9.3,23.4C9.3,23.4,9.3,23.4,9.3,23.4c0-0.1,0-0.1,0-0.2c0,0,0,0,0,0c0,0,0-0.1,0-0.2c0,0,0,0,0,0
			c0-0.1,0-0.1,0-0.2c0,0,0,0,0,0c0-0.1,0-0.1,0-0.2c0,0,0,0,0,0c0-0.1,0-0.1,0-0.2c0,0,0,0,0,0c0-0.1,0-0.1,0-0.2l0,0
			c0-0.1,0-0.1,0-0.2l0,0c-0.2,0-0.6,0.7-0.4,1.4C9,23.8,9,24,9.1,24.2c0,0,0.1,0,0.1,0c0,0,0,0,0,0c0,0,0,0,0.1,0c0,0,0,0,0,0
			c0,0,0.1,0,0.1,0c0,0,0,0,0,0c-0.1-0.2-0.1-0.4-0.2-0.6C9.3,23.5,9.3,23.4,9.3,23.4z"/>
		<path class="st2" d="M11.6,24.4C11.6,24.4,11.6,24.4,11.6,24.4C11.6,24.4,11.6,24.4,11.6,24.4C11.6,24.4,11.6,24.4,11.6,24.4
			C11.6,24.4,11.6,24.4,11.6,24.4C11.6,24.4,11.7,24.4,11.6,24.4C11.7,24.3,11.7,24.3,11.6,24.4c0.1,0,0.1,0,0.1,0c0,0,0,0,0,0
			c0,0,0.1,0,0.2,0h0c0-0.2-0.1-0.3-0.1-0.5C11.7,23,11.7,21,11.7,21c-0.1-0.4-0.6,0.6-0.6,0.6c0,0-0.1-0.1-0.1-0.1
			c0-0.1,0-0.2,0.1-0.4c0.5-1,0.4-2.1,0.5-3.2c-0.2,0.2-0.8,2-1.3,3.6c0,0.1,0,0.2-0.1,0.4c0,0,0,0,0,0c0,0,0,0,0,0.1c0,0,0,0,0,0
			c0,0,0,0,0,0.1c0,0,0,0,0,0c0,0,0,0,0,0.1c0,0,0,0,0,0c0,0,0,0,0,0.1c0,0,0,0,0,0c0,0,0,0,0,0.1c0,0,0,0,0,0c0,0,0,0,0,0.1
			c0,0,0,0,0,0c0,0,0,0,0,0c0,0,0,0,0,0c0,0,0,0,0,0c0,0,0,0,0,0.1c0,0,0,0,0,0c0,0,0,0,0,0c0,0,0,0,0,0c0,0,0,0,0,0c0,0,0,0,0,0
			c0,0,0,0,0,0c0,0,0,0,0,0c0,0,0,0,0,0c0,0,0,0,0,0c0,0,0,0,0,0c0,0,0,0,0,0c0,0,0,0,0,0c0,0,0,0,0,0c0,0,0,0,0,0c0,0,0,0,0,0
			c0,0,0,0,0,0c0,0,0,0,0,0c0,0,0,0,0,0c0,0,0,0,0,0c0,0,0,0,0,0c0,0,0,0,0,0c0,0,0,0,0,0c0,0,0,0,0,0c0,0,0,0,0,0c0,0,0,0,0,0
			c0,0,0,0,0,0c0,0,0,0,0,0c0,0,0,0,0,0c0,0,0,0,0,0c0,0,0,0,0,0c0,0,0,0,0,0c0,0,0,0,0,0c0,0,0,0,0,0c0,0,0,0,0,0c0,0,0,0,0,0
			c0,0,0,0,0,0c0,0,0,0,0,0c0,0,0,0,0,0.1C10.4,24.2,11,24.5,11.6,24.4C11.6,24.4,11.6,24.4,11.6,24.4
			C11.6,24.4,11.6,24.4,11.6,24.4z"/>
		<path class="st2" d="M15.3,22.8C15.3,22.8,15.4,22.8,15.3,22.8C15.4,22.8,15.4,22.8,15.3,22.8c0.1,0,0.1,0,0.1,0c0,0,0,0,0,0
			c0,0,0,0,0,0c0,0,0,0,0,0c0,0,0,0,0,0c0,0,0,0,0,0c0,0,0,0,0,0c0,0,0,0,0,0c0,0,0,0,0,0c0,0,0,0,0,0c0,0,0,0,0.1,0c0,0,0,0,0,0
			c0,0,0,0,0.1,0c0,0,0,0,0,0c0,0,0,0,0.1,0c0,0,0,0,0,0c0,0,0,0,0.1,0c0,0,0,0,0,0c0,0,0,0,0.1,0c0,0,0,0,0,0c0,0,0,0,0.1-0.1
			c0,0,0,0,0,0c0,0,0,0,0.1-0.1c0,0,0,0,0,0c0,0,0,0,0.1-0.1c0,0,0,0,0,0c0,0,0,0,0.1-0.1c-0.3-0.2-0.7-0.3-1-0.6
			c-0.1-0.1-0.1-0.3-0.2-0.3c0,0,0,0.1,0,0.1c0,0.1,0,0.2,0.1,0.3c0,0,0,0,0,0.1c0,0,0,0,0,0c0,0,0,0,0,0c0,0,0,0,0,0c0,0,0,0,0,0
			c0,0,0,0,0,0c0,0,0,0,0,0c0,0,0,0,0,0c0,0,0,0,0,0c0,0,0,0,0,0c0,0,0,0,0,0c0,0,0,0,0,0c0,0,0,0,0,0
			C15.3,22.3,15.3,22.6,15.3,22.8C15.3,22.9,15.3,22.8,15.3,22.8z"/>
		<path class="st2" d="M17.3,20.5c0,0,0.1-0.1,0.1-0.1c0,0,0,0,0,0c0.1-0.1,0.2-0.1,0.2-0.2v0c0-0.1,0-0.1,0-0.2
			c0-0.3-0.4-1-0.5-1.7c0-0.1,0-0.2,0-0.4c0,0.6-0.2,1-0.3,1.5c0,0,0,0,0,0c0,0,0,0.1,0,0.1c0,0,0,0,0,0.1c0,0,0,0,0,0
			c0,0,0,0,0,0.1c0,0,0,0,0,0c0,0,0,0.1,0,0.1c0,0,0,0,0,0c0,0,0,0,0,0.1c0,0,0,0,0,0c0,0,0,0,0,0.1c0,0,0,0,0,0c0,0,0,0.1,0,0.1
			c0,0,0,0,0,0c0,0,0,0,0,0.1c0,0,0,0,0,0c0,0,0,0,0,0.1c0,0,0,0,0,0c0,0,0,0,0,0.1c0,0,0,0,0,0c0,0,0,0,0,0c0,0,0,0,0,0
			c0,0,0,0,0,0C17.2,20.6,17.3,20.6,17.3,20.5C17.3,20.6,17.3,20.5,17.3,20.5z"/>
		<path class="st2" d="M21.1,13C21.1,13,21.1,12.9,21.1,13C21.1,12.9,21.1,12.9,21.1,13c0-0.1,0.1-0.1,0.1-0.2c0,0,0,0,0,0
			c0,0,0-0.1,0-0.1c0,0,0,0,0,0c0,0,0,0,0-0.1c0-0.1,0.1-0.1,0.1-0.2c0,0,0,0,0,0c0-0.1,0-0.1,0.1-0.2c0,0,0,0,0,0
			c0-0.1,0-0.1,0.1-0.2c0,0,0,0,0,0c0-0.1,0-0.1,0.1-0.2c0,0,0,0,0,0c0-0.1,0-0.1,0-0.2c0,0,0,0,0,0c0,0,0-0.1,0-0.1
			c-0.1-0.2-0.2-0.3-0.2-0.2c-0.1,0-0.1,0.8-0.3,0.8c-1,0.1-2.3-2.6-2.5-2.8c0.4,0.9,0.5,1.2,0.4,1.2c0,0,0,0,0,0c0,0,0,0.1,0,0.1
			c0,0,0,0,0,0c-0.6,0-1.3-0.8-1.8-0.7c0,0,0.1,0.1,0.2,0.2c0,0,0,0,0,0c0,0,0.1,0.1,0.1,0.1c0,0,0,0,0,0c0,0,0.1,0.1,0.1,0.1
			c0,0,0,0,0,0c0,0,0.1,0,0.1,0.1c0,0,0,0,0,0c0,0,0.1,0,0.1,0.1c0,0,0,0,0,0c0,0,0.1,0,0.1,0.1c0,0,0,0,0,0c0,0,0.1,0,0.1,0.1
			c0,0,0,0,0,0c0,0,0.1,0,0.1,0.1c0,0,0,0,0,0c0,0,0.1,0,0.1,0.1c0,0,0,0,0,0c0,0,0.1,0,0.1,0.1c0,0,0,0,0.1,0c0,0,0.1,0,0.1,0.1
			c0,0,0,0,0.1,0c0,0,0.1,0,0.1,0.1c0,0,0,0,0.1,0c0,0,0.1,0,0.1,0.1c0,0,0,0,0.1,0c0,0,0.1,0,0.1,0.1c0,0,0,0,0.1,0
			c0,0,0,0,0.1,0.1c0,0,0,0,0.1,0c0,0,0,0,0.1,0.1c0,0,0,0,0.1,0c0,0,0,0,0.1,0.1c0,0,0,0,0.1,0c0,0,0,0,0.1,0.1c0,0,0,0,0.1,0
			c0,0,0,0,0.1,0.1c0,0,0,0,0.1,0c0,0,0,0,0.1,0.1c0,0,0,0,0.1,0c0,0,0,0,0.1,0.1c0,0,0,0,0.1,0c0,0,0,0,0.1,0.1c0,0,0,0,0,0
			c0,0,0,0,0.1,0.1c0,0,0,0,0,0c0,0,0,0,0.1,0.1c0,0,0,0,0,0c0,0,0,0,0.1,0.1c0,0,0,0,0,0c0,0,0,0,0,0.1c0,0,0,0,0,0c0,0,0,0,0,0.1
			c0,0,0,0,0,0c0,0,0,0,0,0.1c0,0,0,0,0,0c0,0,0,0,0,0.1c0,0,0,0,0,0c0,0,0,0,0,0.1c0,0,0,0,0,0c0,0,0,0,0,0.1c0,0,0,0,0,0
			c0,0,0,0,0,0.1C21,13,21,13,21.1,13c-0.1,0.1-0.1,0.1,0,0.1C21,13.1,21.1,13.1,21.1,13C21.1,13,21.1,13,21.1,13z"/>
		<path class="st2" d="M19,10.4C19,10.4,19,10.3,19,10.4C16.9,6.9,18.8,10.3,19,10.4z"/>
		<path class="st2" d="M19.3,17.2C19.3,17.2,19.3,17.2,19.3,17.2C19.3,17.2,19.3,17.2,19.3,17.2C19.3,17.1,19.3,17.1,19.3,17.2
			C19.3,17.1,19.3,17.1,19.3,17.2C19.3,17.1,19.3,17.1,19.3,17.2C19.3,17.1,19.3,17.1,19.3,17.2C19.3,17.1,19.3,17.1,19.3,17.2
			C19.3,17.1,19.3,17.1,19.3,17.2C19.3,17.1,19.3,17.1,19.3,17.2c0.1-0.1,0.1-0.1,0.1-0.1c0,0,0,0,0,0c0,0,0,0,0,0v0
			c0-0.1,0-0.2,0-0.4c-0.4-2.5-3.1-5-3.6-4.9c0,0-0.1,0-0.1,0c0.1,0.1,0.3,0.2,0.4,0.3c0,0,0,0,0,0c0.1,0,0.1,0.1,0.2,0.1
			c0,0,0,0,0,0c0.1,0.1,0.1,0.1,0.2,0.2c0.6,0.7,1.2,1.4,1.6,2.3c0.3,0.6,0.6,1.2,0.8,1.9C18.9,16.8,19,17.3,19.3,17.2
			C19.3,17.2,19.3,17.2,19.3,17.2C19.3,17.2,19.3,17.2,19.3,17.2z"/>
		<path class="st2" d="M20.5,14c0,0,0-0.1,0-0.1c0,0,0,0,0-0.1c0,0,0-0.1,0-0.1c0,0,0,0,0,0c0-0.1,0-0.1-0.1-0.2
			c-0.1-0.1-0.1-0.1-0.2-0.1c-0.2,0-0.1,1-0.1,1.2c0,0.3,0.1,0.6,0.2,0.8c0,0,0,0,0-0.1c0,0,0,0,0,0c0.1-0.1,0.1-0.2,0.2-0.3
			c0,0,0,0,0,0c0,0,0,0,0,0c0,0,0,0,0,0c0,0,0,0,0,0c0,0,0,0,0,0c0,0,0,0,0,0c0,0,0,0,0,0c0,0,0,0,0,0c0,0,0,0,0,0c0,0,0,0,0,0
			c0,0,0,0,0,0c0,0,0,0,0,0c0,0,0,0,0-0.1c0,0,0,0,0,0c0,0,0,0,0-0.1c0,0,0,0,0,0c0,0,0,0,0-0.1c0,0,0,0,0,0c0,0,0-0.1,0-0.1
			C20.5,14.2,20.5,14.1,20.5,14C20.5,14,20.5,14,20.5,14z"/>
		<path class="st2" d="M19.4,4.8c-0.1,0-0.2,0.1-0.2,0.1c0,0.1,1.2,1.1,1.8,1.3v0c-0.1-0.3-0.2-0.5-0.4-0.7c0,0,0,0,0,0
			c0,0,0-0.1-0.1-0.1c0,0,0,0,0,0c-0.1-0.1-0.2-0.2-0.3-0.3c0,0,0,0,0,0c0,0,0,0-0.1,0c0,0,0,0,0,0c0,0,0,0-0.1,0c0,0,0,0,0,0
			c0,0,0,0-0.1,0c0,0,0,0,0,0c-0.1,0-0.1-0.1-0.2-0.1C19.6,4.8,19.5,4.7,19.4,4.8z"/>
		<path class="st2" d="M10.6,2.3c0,0,0-0.1,0-0.1c0,0,0,0,0,0c0,0,0-0.1,0-0.1c0,0,0,0,0,0c0,0,0-0.1,0-0.1c0,0,0,0,0,0
			c0,0,0-0.1,0-0.1c0,0,0,0,0,0c0,0,0,0,0-0.1c0,0,0,0,0,0c0,0,0-0.1-0.1-0.1c0,0,0,0,0,0c0,0,0,0,0-0.1c0,0,0,0,0,0c0,0,0,0,0,0
			c0,0,0,0,0,0c0,0,0,0,0,0c0,0,0,0,0,0c0,0,0,0,0,0c0,0,0,0,0,0l0,0c0.4,0.7,0.5,1.7,0.7,2.2c0-0.2,0-0.4,0-0.6c0,0,0,0,0,0
			c0,0,0-0.1,0-0.1c0,0,0,0,0,0c0,0,0-0.1,0-0.1c0-0.1,0-0.1,0-0.2C10.7,2.4,10.6,2.4,10.6,2.3C10.6,2.3,10.6,2.3,10.6,2.3z"/>
		<path class="st2" d="M13.3,1.6c0.2-0.2,0.5-0.4,0.8-0.4c0.8-0.1-0.5,0.2-1,1.3c-1.1,2.2-1.5,2.2-1.5,2.2c0,0.1,0,0,0.1,0
			c1.3-0.2,3.3-2,5-2.2c0.3,0,0.7,0.1,1.2,0.2v0c0,0,0,0,0-0.1c0,0,0,0,0,0c-0.1-0.1-0.1-0.2-0.2-0.3c0,0,0,0,0,0c0,0,0,0,0-0.1
			c0,0,0,0,0,0c0,0,0,0,0,0c0,0,0,0,0,0c0,0,0,0,0-0.1c0,0,0,0,0,0c0,0,0,0-0.1-0.1c0,0,0,0,0,0c0,0,0,0,0,0c0,0,0,0,0,0
			c0,0,0,0,0,0c0,0,0,0,0,0c0,0,0,0,0,0c0,0,0,0,0,0c0,0,0,0-0.1,0c-1.4-0.2-1.6-1.2-3.1-1c0,0-0.1,0-0.1,0c0,0-0.1,0-0.1,0
			C13.6,1.1,13.4,1.3,13.3,1.6z"/>
		<path class="st2" d="M8.7,2.5C9.2,3.3,9.9,4,10.8,4.3C9.6,3.3,8.9,1.7,8.5,0.6l0,0c0,0-0.1,0-0.1-0.1c0,0,0,0,0,0
			c0,0-0.1,0-0.1-0.1c0,0,0,0,0,0c0,0-0.1,0-0.1-0.1c0,0,0,0,0,0C8.2,0.4,8.1,0.3,8,0.3c0,0,0,0,0,0c0,0-0.1,0-0.1,0c0,0,0,0,0,0
			c0,0-0.1,0-0.1,0c0,0,0,0,0,0c-0.1,0-0.2-0.1-0.3-0.1c0,0,0,0,0,0c0,0-0.1,0-0.1,0c0,0,0,0,0,0c0,0-0.1,0-0.1,0c0,0,0,0,0,0
			c0,0-0.1,0-0.1,0c0,0,0,0,0,0C7.2,0,7.1,0,7.1,0l0,0C7.4,0.9,8.2,1.7,8.7,2.5z"/>
		<path class="st2" d="M17.1,3.6C17.1,3.6,17.2,3.6,17.1,3.6c0.1,0,0.1,0,0.2,0c0,0,0.1,0,0.1,0c0,0,0,0,0.1,0c0,0,0.1,0,0.1,0
			c0,0,0,0,0,0c0.1,0,0.1,0,0.2,0c0,0,0,0,0,0c0,0,0.1,0,0.1,0c0,0,0,0,0,0c0,0,0.1,0,0.1,0c0,0,0,0,0,0c0.1,0,0.2,0.1,0.4,0.1
			c0,0,0,0,0,0c0,0,0.1,0,0.1,0c0,0,0,0,0,0c0.2,0.1,0.3,0.2,0.5,0.2c0,0,0,0,0,0c0,0,0.1,0,0.1,0.1v0c0.1,0,0.1,0,0.2,0
			c0,0,0,0,0-0.1c0,0,0,0,0,0c0,0,0,0,0-0.1c0,0,0,0,0,0c0,0,0,0,0-0.1c0,0,0,0,0,0c0,0,0,0,0,0c0,0,0,0,0,0c0,0,0,0,0,0
			c0,0,0,0,0,0c0,0,0,0,0,0c0,0,0,0,0,0c0,0,0,0,0,0c0,0,0,0,0,0c0,0,0,0,0-0.1c-0.6-0.2-1.2-0.4-1.7-0.3
			C17.3,3.5,17.2,3.6,17.1,3.6z"/>
		<path class="st2" d="M0.8,5.9c0,0,0.1,0,0.1-0.1c0,0,0,0,0,0c0,0,0.1,0,0.1,0c0,0,0,0,0,0c0,0,0.1,0,0.1,0c0,0,0,0,0,0
			c0,0,0.1,0,0.1,0c0,0,0,0,0,0c0,0,0.1,0,0.2,0c0,0,0,0,0,0c0.1,0,0.2-0.1,0.3-0.1h0C3,5,4.2,4.4,4.6,4.3c0.9-0.1,0.2,0.1-0.3-0.7
			C5.6,4,5,4,4.7,3.4c0.9,0.3,0.5,0.3,0.4-0.2l0,0C4.9,3.1,4.7,3,4.5,2.9c0,0,0,0,0,0c0,0-0.1,0-0.1,0c0,0,0,0-0.1,0c0,0,0,0-0.1,0
			c0,0,0,0-0.1,0c0,0,0,0-0.1,0c0,0,0,0-0.1,0c0,0,0,0-0.1,0c0,0,0,0-0.1,0c0,0,0,0-0.1,0c0,0,0,0-0.1,0c0,0,0,0-0.1,0
			c0,0,0,0-0.1,0c0,0,0,0-0.1,0c0,0,0,0-0.1,0c0,0,0,0,0,0c0,0,0,0-0.1,0c0,0,0,0,0,0c0,0,0,0-0.1,0c0,0,0,0,0,0c0,0,0,0-0.1,0
			c0,0,0,0,0,0c0,0-0.1,0-0.1,0C2.2,2.7,1.8,4.1,0.7,5.9C0.7,5.9,0.8,5.9,0.8,5.9C0.8,5.9,0.8,5.9,0.8,5.9z"/>
		<path class="st2" d="M4.7,15.1C4.7,15.1,4.7,15.1,4.7,15.1L4.7,15.1z"/>
		<path class="st2" d="M7.6,3.1c0,0.1-0.2,0.5-0.7,0.6c0,0-0.1,0-0.1,0c0,0,0,0,0,0c0,0-0.1,0-0.1,0c0,0,0,0,0,0c0,0-0.1,0-0.1,0
			c0,0,0,0,0,0c0,0-0.1,0-0.1,0c0,0,0,0,0,0c0,0-0.1,0-0.1,0c0,0,0,0,0,0c0,0-0.1,0-0.1,0c0,0,0,0-0.1,0c0,0,0,0-0.1,0
			c0,0,0,0-0.1,0c0,0,0,0,0,0c0,0-0.1,0-0.1,0c0,0,0,0,0,0c-0.1,0-0.2-0.1-0.2-0.1c0.1,0.3,0.5,0.4,0.8,0.5C9.3,4.1,9.2,5,10.6,4.8
			c0.1,0,0.2,0,0.4-0.1c0-0.1-0.2-0.2-0.3-0.2C9.1,4.1,7.1,1.1,7.1,1.1c0.1,0.3,0.7,1.4,0.7,1.4C7.5,2.5,7,1.7,7,1.6
			C6.8,1.4,6.8,1.7,7.2,2.1c-1-0.6-1.4-1.4-1.9-1.8l0,0c-0.1,0-0.1,0-0.2,0.1c0,0,0,0,0,0c0,0-0.1,0-0.1,0.1c0,0,0,0,0,0
			c-0.1,0-0.1,0.1-0.2,0.1c0,0,0,0,0,0c0,0-0.1,0.1-0.1,0.1c0,0,0,0,0,0c-0.1,0-0.1,0.1-0.2,0.1c0,0,0,0,0,0c0,0-0.1,0.1-0.1,0.1
			c0,0,0,0,0,0C4.1,1,4,1.1,3.9,1.1c0,0,0,0,0,0c0,0-0.1,0.1-0.1,0.1c0,0,0,0,0,0c0,0-0.1,0.1-0.1,0.1c0,0,0,0,0,0
			c0,0-0.1,0.1-0.1,0.1c0,0,0,0,0,0c0,0-0.1,0.1-0.1,0.1c0,0,0,0,0,0c0,0-0.1,0.1-0.1,0.1c0,0,0,0,0,0c0,0-0.1,0.1-0.1,0.1
			c0,0,0,0,0,0C3,1.9,2.9,2,2.9,2c0,0,0,0,0,0c0,0-0.1,0.1-0.1,0.1C2.8,2.2,7.5,2.4,7.6,3.1z"/>
		<path class="st2" d="M4,19.3c0-0.1,0.1-0.2,0.1-0.2c0,0,0-0.1,0.1-0.1c0-0.1,0.1-0.1,0.1-0.2c0,0,0-0.1,0.1-0.1
			c0-0.1,0.1-0.1,0.1-0.2c0,0,0-0.1,0.1-0.1c0-0.1,0.1-0.2,0.1-0.3c0,0,0,0,0-0.1c0.6-1,1.2-1.9,1.8-3c0.2-0.5,0.3-1,0.1-1
			c0,0,0,0,0,0C6.3,15,3.4,20.3,5,16c0.6-1.6-0.8,1.6-0.9,1.7c0-1,0.4-2.3,0.5-2.6c-0.1,0.2-0.4,1.1-1.2,3.1c0,0,0,0,0,0
			c0,0,0,0,0,0c0,0,0,0,0,0c0.2-5.5,7.7-8.6,7.7-8.6c0-0.1-0.1-0.1-0.1-0.1c-0.9,0.1-1.4,0.8-2.9,1.6c-1.6,0.9-3.5,1.4-4.7,2.8
			c0.4-0.2,0.8-0.4,1.2-0.5c0.4-0.1,0.6,0.1,0.6,0.1c-1.5,0.5-2.2,1.1-2.1,1c0.3,0,0.6-0.2,0.9-0.3c1.1-0.2-0.7,0.2-1.4,1.5
			c0.3-0.3,0.6-0.5,1-0.6c-1.5,1.9-0.6,0.6-0.1,0.5c-0.5,0.7-1,1.5-1.1,2.4c0,0,0,0,0,0c0,0,0,0.1,0.1,0.1c0,0,0,0,0,0
			c0,0,0,0,0,0.1c0,0,0,0,0,0c0,0,0,0,0,0.1c0,0,0,0,0,0c0,0,0,0,0,0.1c0,0,0,0,0,0c0,0,0,0,0,0.1c0,0,0,0,0,0c0,0,0,0,0,0.1
			c0,0,0,0,0,0c0,0,0,0,0,0.1c0,0,0,0,0,0.1c0,0,0,0,0,0.1c0,0,0,0,0,0.1c0,0,0,0,0,0.1c0,0,0,0,0,0.1c0,0,0,0,0,0.1c0,0,0,0,0,0.1
			c0,0,0,0,0,0.1c0,0,0,0,0,0.1c0,0,0,0,0,0.1c0,0,0,0,0.1,0.1c0,0,0,0,0,0.1c0,0,0,0,0.1,0.1c0,0,0,0,0,0c0,0,0,0,0.1,0.1
			c0,0,0,0,0,0c0,0,0.1,0.1,0.1,0.1c0-0.1,0.1-0.2,0.1-0.3C4,19.4,4,19.3,4,19.3z"/>
		<path class="st2" d="M9.6,16.7C9.6,16.7,9.6,16.7,9.6,16.7c0.2-0.4,0.3-0.6,0.3-0.6c0,0,0,0,0,0c0,0,0,0,0,0
			C8.7,16.5,8.5,17.9,8,19c-0.2,0.4-1.7,1.8-1.5,3.6c0,0.1,0,0.1,0,0.2l0,0c0.1,0,0.1,0.1,0.2,0.1c0,0,0,0,0,0C6.8,23,6.9,23,7,23
			c-0.2-1.8,1-2.6,1.8-5.1C8.9,17.5,9.2,16.7,9.6,16.7z"/>
	</g>
	<g>
		<path class="st3" d="M8.9,15.8c-1.5,1.4-2,3.7-2.2,5.7C7.4,20.4,7.5,19,8,17.8c0.3,0-0.2,0.9-0.1,1.6C8,20.4,8.5,16.2,8.9,15.8z"
			/>
		<path class="st3" d="M11.3,16.3c-1.4,1.4-2.3,3.5-2.4,5.5c0.1-1.1,0.6-2.2,1.2-3c0,0.1,0,0.2,0,0.3c0-0.3,0.1-0.8,0.5-1.4
			c-0.1,0.5-0.2,1.1-0.2,1.7v0c0,0,0,0,0,0c0,0,0,0,0,0c0,0,0,0,0,0c0,0,0,0,0,0c0,0,0,0,0,0c0,0,0,0,0,0c0,0,0,0,0,0c0,0,0,0,0,0
			c0,0,0,0,0,0c0,0,0,0,0,0c0,0,0,0,0,0c0,0,0,0,0,0c0,0,0,0,0,0c0,0,0,0,0,0c0,0,0,0,0,0c0,0,0,0,0,0c0,0,0,0,0,0c0,0,0,0,0,0
			c0.2,1.3,0.1-0.2,0.3-0.8C11.1,18,11.4,17.2,11.3,16.3z"/>
		<path class="st3" d="M5,19.8c0,0-0.1,0.1-0.1,0.1C4.8,20.2,4.9,20.2,5,19.8z"/>
		<path class="st3" d="M9,21.8c0,0.1,0,0.3,0,0.4C9,22.1,9,22,9,21.8z"/>
		<path class="st3" d="M8.9,15.8C8.9,15.8,8.9,15.8,8.9,15.8C8.9,15.7,8.9,15.8,8.9,15.8z"/>
		<path class="st3" d="M8.4,15.6c-0.1,0-0.1,0-0.2,0c-0.1,0-0.4,0.2-0.6,0.4c1.4-1.9,4-1.6,3.6-4.1c-0.1-0.6-0.3-1.3-0.4-1.9
			c0-0.1,0-0.2,0-0.3c-6.9,4.1-4.9,4.5-6.2,7.4c0.4-0.7,0.8-1.5,1-2.3c0,0,0,0.1,0,0.1c0,0.3-0.1,0.6-0.2,0.9c0.6-0.8,1-2.4,0.3-0.1
			c0.8-0.8,1.1-2.1,1.9-2.6c0,0,0,0,0.1-0.1c0,0,0,0,0,0c0,0,0,0,0.1-0.1c0,0,0,0,0,0c0,0,0,0,0.1,0c0,0,0,0,0,0c0,0,0,0,0.1,0
			c0,0,0,0,0,0c0,0,0,0,0.1,0c0,0,0,0,0,0c0,0,0,0,0.1,0c0,0,0,0,0,0c0,0,0,0,0.1,0c0,0,0,0,0,0c0,0,0,0,0.1,0c0,0,0,0,0,0
			c0,0,0,0,0.1,0c0,0,0,0,0,0c0,0,0,0,0.1,0c0,0,0,0,0,0c0,0,0,0,0.1,0c0,0,0,0,0,0c0,0,0,0,0.1,0c0,0,0,0,0,0c0,0,0,0,0.1,0
			c0,0,0,0,0,0c0,0,0,0,0.1,0c0,0,0,0,0,0c0,0,0,0,0.1,0c0,0,0,0,0,0c0,0,0.1,0,0.1,0c0.5-0.1,0.7,0.1,0.8,0.4
			c0.1,0.6-0.4,1.2-0.9,1.5c-0.1,0.1-0.2,0.1-0.3,0.2c0,0,0,0,0,0c-0.1,0.1-0.2,0.1-0.2,0.2c0,0,0,0,0,0C8.1,15,8,15.1,7.9,15.2
			c0,0,0,0,0,0c-0.1,0.1-0.2,0.1-0.2,0.2c0,0,0,0,0,0c-0.2,0.1-0.3,0.3-0.5,0.4c0,0,0,0,0,0C7.1,15.9,7,16,7,16.1c0,0,0,0,0,0
			c-0.1,0.1-0.1,0.2-0.2,0.2l0,0c0.2-0.1,0.4-0.2,0.6-0.2c0,0-0.9,0.7-1.7,2c0,0.1-0.1,0.1-0.1,0.1c0,0,0,0,0,0c0,0,0,0.1-0.1,0.1
			c0,0,0,0,0,0c0,0,0,0.1,0,0.1c0,0,0,0,0,0c0,0,0,0.1,0,0.1c0,0,0,0,0,0c0,0,0,0.1,0,0.1c0,0,0,0,0,0c0,0.1-0.1,0.2-0.1,0.3
			c0,0,0,0,0,0c0,0,0,0.1,0,0.1c0,0,0,0,0,0c0,0,0,0.1,0,0.1c0,0,0,0,0,0c0,0,0,0.1,0,0.1c0,0,0,0,0,0c0,0.1-0.1,0.3-0.1,0.4
			c0,0,0,0,0,0c0,0,0,0.1,0,0.1c0,0,0,0,0,0c0,0,0,0.1,0,0.1c0,0,0,0,0,0c0,0,0,0.1,0,0.1l0,0c0.1-0.1,0.2-0.2,0.3-0.3
			C5.1,19.4,6,17.9,8.4,15.6z M9,11.6c0.1-0.2,0.3-0.4,0.5-0.6c0.1-0.1,0.5-0.3,0.6-0.2c0,0,0,0.1,0,0.1c0,0.1-0.1,0.2-0.1,0.2
			c-0.1,0.1-0.3,0.2-0.3,0.3c-0.1,0.1-0.1,0.2-0.1,0.2C9.4,12,9,11.9,9,11.6z"/>
		<path class="st3" d="M4.6,10.3C4.5,9.8,2.7,10.9,1.4,14C1.9,14,3.1,11.7,3,12.8c-0.1,0.4-0.3,0.7-0.2,1.1l0,0
			c0.1-0.1,0.1-0.1,0.2-0.2c0,0,0,0,0,0c0.1-0.1,0.1-0.1,0.2-0.2c0,0,0,0,0,0c0.1-0.2,0.2-0.3,0.3-0.4h0C3.8,11.9,4.7,10.7,4.6,10.3
			z"/>
		<path class="st3" d="M4.1,16.4c0.2-0.5,0.4-0.9,0.6-1.3c0.1,0.1,0.1,0.1,0.1,0.2c0,0.1,0,0.2,0,0.4c0.3-0.5,0.5-1.1,0.5-1.7
			c-0.2,0.3-0.3,0.6-0.4,1C5.1,14.1,4.6,14.8,4.1,16.4z"/>
		<path class="st3" d="M15.2,22C15.2,22,15.2,22,15.2,22C15.3,22,15.3,22,15.2,22C15.3,22,15.2,22,15.2,22z"/>
		<path class="st3" d="M14.5,10.1c-1-0.6-2.5-1.5-2.5-1.5c-0.2,0-0.2,0.3-0.2,0.5c0,0.1,0,0.3,0,0.4c0.4,2.6,4.4,3.2,5,7.4
			c0.1,0.5,0.1,0.9,0,1.4c0.2-0.1,0.2-0.4,0.2-0.6c0.2,0.3,0.3,0.6,0.3,0.9c0.1,0.5,0,1,0,1.5c0.3-0.9,0.4-1.9,0.3-2.8
			c0.2,0.3,0.3,0.7,0.4,1.1c0,0.2,0,0.4,0,0.6c0.1-0.5,0.2-1.1,0.1-1.7c-0.1-0.5-0.2-0.9-0.5-1.3c0.3,0.1,0.5,0.5,0.6,0.8
			c-0.1-0.4-0.2-0.9-0.6-1.2c0.1,0.1,0.2,0.2,0.4,0.3v0c0,0,0-0.1,0-0.1c0,0,0-0.1,0-0.1c0,0,0-0.1,0-0.1c0,0,0,0,0-0.1
			c0,0,0-0.1,0-0.1c0,0,0-0.1,0-0.1c0,0-0.1-0.1-0.1-0.1c0,0,0,0,0-0.1c0,0,0-0.1-0.1-0.1c0,0,0,0,0-0.1c0,0,0-0.1-0.1-0.1
			c0,0,0,0,0-0.1c0,0-0.1-0.1-0.1-0.1c0,0,0,0,0-0.1c0,0,0-0.1-0.1-0.1c0,0,0,0,0-0.1c0,0,0-0.1-0.1-0.1c0,0,0-0.1-0.1-0.1
			c0,0-0.1-0.1-0.1-0.1c0,0,0,0-0.1-0.1c0,0,0-0.1-0.1-0.1c0,0,0,0-0.1-0.1c0,0,0-0.1-0.1-0.1c0,0-0.1-0.1-0.1-0.1
			c0,0-0.1-0.1-0.1-0.1c0,0,0,0-0.1-0.1c0,0,0,0-0.1-0.1c0,0,0,0-0.1-0.1c0,0,0,0-0.1-0.1c0,0-0.1-0.1-0.1-0.1c0,0,0,0-0.1-0.1
			c0,0-0.1-0.1-0.1-0.1c0,0,0,0-0.1-0.1c0,0-0.1-0.1-0.1-0.1c0,0,0,0-0.1-0.1c0,0-0.1-0.1-0.1-0.1c0,0,0,0,0,0c0,0-0.1-0.1-0.1-0.1
			c0,0,0,0-0.1,0c0,0-0.1-0.1-0.1-0.1c0,0,0,0,0,0c0,0-0.1-0.1-0.1-0.1c0,0,0,0,0,0c0,0-0.1-0.1-0.1-0.1c0,0,0,0,0,0
			c0,0-0.1-0.1-0.1-0.1c0,0,0,0,0,0c0,0-0.1-0.1-0.1-0.1c-0.2-0.1-0.3-0.3-0.5-0.4c-0.1-0.1-0.4-0.3-0.5-0.4c-0.1-0.1,0-0.2,0.1-0.2
			c0.1,0,0.2,0.2,0.3,0.2c0.2,0.1,0.5,0.3,0.7,0.4c0.1,0,0.1,0.1,0.2,0.1c0,0,0,0,0,0c0,0,0.1,0.1,0.1,0.1c0,0,0,0,0,0
			c0,0,0.1,0.1,0.1,0.1c0,0,0,0,0,0c0.1,0,0.1,0.1,0.2,0.1l0,0c-0.2-0.3-0.5-0.6-1-1.2c0.3,0.1,0.6,0.3,0.9,0.6
			c-0.2-0.3-0.4-0.4-0.5-0.5c0.1,0.1,0.4,0.2,0.7,0.4C15.6,10.8,15.2,10.4,14.5,10.1z"/>
		<path class="st3" d="M10.3,19.1C10.2,19.4,10.3,19.5,10.3,19.1L10.3,19.1z"/>
		<path class="st3" d="M18.6,16.2C18.6,16.2,18.6,16.2,18.6,16.2C18.7,16.2,18.7,16.2,18.6,16.2c0,0,0-0.1,0-0.1
			C18.6,16.1,18.6,16.2,18.6,16.2z"/>
		<path class="st3" d="M20.4,6.8c0.1,0.1,0.2,0.1,0.3,0.2C20.6,6.9,20.5,6.8,20.4,6.8z"/>
		<path class="st3" d="M20.9,8.3c0,0,0.1,0,0.1,0c0,0,0,0,0,0c0,0,0,0,0,0c0,0,0,0,0,0c0,0,0,0,0,0C21,8.3,20.9,8.3,20.9,8.3z"/>
		<path class="st3" d="M21.1,6.9c0-0.1,0-0.1,0-0.2v0c-0.3-0.3-0.6-0.6-0.9-0.9C20.5,6,20.8,6.2,21,6.4l0,0c0,0,0-0.1,0-0.1
			c0,0,0,0,0,0c0,0,0-0.1,0-0.1c0,0,0,0,0,0c0,0,0-0.1,0-0.1c0,0,0,0,0,0c0,0,0-0.1,0-0.1c0,0,0,0,0,0c0,0,0-0.1,0-0.1c0,0,0,0,0,0
			c0,0,0,0,0-0.1c0,0,0,0,0,0c0,0,0,0-0.1-0.1c0,0,0,0,0,0c0,0,0,0-0.1-0.1c0,0,0,0,0,0c0,0,0,0-0.1-0.1c0,0,0,0,0,0
			c0,0,0,0-0.1-0.1c0,0,0,0,0,0c0,0,0,0-0.1-0.1c0,0,0,0,0,0c0,0,0,0-0.1,0c0,0,0,0,0,0c0,0,0,0-0.1,0c0,0,0,0,0,0c0,0,0,0-0.1,0
			c0,0,0,0,0,0c0,0-0.1,0-0.1,0c0,0,0,0,0,0c-0.1-0.1-0.3-0.1-0.4-0.2c0,0,0,0,0,0c0,0-0.1,0-0.1,0c0,0,0,0,0,0c0,0-0.1,0-0.1,0
			c0,0,0,0,0,0c0,0-0.1,0-0.1,0c0,0,0,0,0,0c0,0,0,0-0.1,0c0,0,0,0,0,0c0,0,0,0-0.1,0c0,0,0,0,0,0c0,0,0,0-0.1,0c0,0,0,0,0,0
			c0,0-0.1,0-0.1,0c0,0,0,0,0,0c0,0-0.1,0-0.1,0c0,0,0,0,0,0c0,0-0.1,0-0.1,0c0,0,0,0,0,0c0,0-0.1,0-0.1,0c0,0,0,0,0,0
			c0,0-0.1,0-0.1,0c0,0,0,0,0,0c0,0-0.1,0-0.1,0c0,0,0,0,0,0c0,0-0.1,0-0.1,0c-0.5,0.1-0.9,0.2-0.7,0.2c0.5-0.1,0.9,0,1.4,0
			c0.1,0,0.2,0,0.3-0.1c-0.7,0.5-1.6,0.4,0,0.4c-0.1,0.1-0.2,0.1-0.3,0.2l0.6,0c0,0-0.1,0-0.1,0c-0.5,0.1,0.6,0.1,0.8,0.5
			c-1-0.5-2.4-0.4-3.5-0.3c-0.6,0.1-1.2,0.2-1.7,0.3c-1.8,0.3-2.8-0.2-2.8-0.2c-0.1,0-0.1,0-0.1,0.2c0,0.1,1.6,1.9,4,1.6
			c0.4-0.1,0.7-0.1,0.8-0.1h0C16.3,7,16,7,15.7,6.9l0,0c-0.6-0.1-1.4-0.2-1.9-0.3l0,0c0,0-0.1,0-0.1,0c0,0,0,0,0,0c0,0,0,0,0,0
			c0,0,0,0,0,0c0,0,0,0,0,0c-0.3,0-1-0.4-0.7-0.5c0.3,0,0.5,0.1,0.8,0.2c0.1,0,0.1,0,0.1,0.1c0,0,0,0,0,0c2.4-0.3,4.4,1.1,3-0.1
			c0.3,0.3,0.6,0.5,1,0.7C18,6.9,18,7,18.1,7c0,0,0,0,0,0c0,0,0.1,0,0.1,0c0,0,0,0,0,0c0.1,0,0.1,0,0.2,0.1c0,0,0,0,0,0
			c0.1,0,0.2,0.1,0.3,0.1c0,0,0,0,0,0c0,0,0.1,0,0.1,0c0,0,0,0,0,0c0,0,0.1,0,0.1,0c0,0,0,0,0,0c0,0,0.1,0,0.1,0.1
			c0.2,0.1,0.4,0.1,0.7,0.2c-0.3-0.3-0.7-0.4-0.9-0.8c3,1.1-1.6-0.8,1.5,0.3c-1.7-1.1-0.8-0.7-0.1-0.4c-0.9-0.7-0.9-1.1,0.8,0.4
			c0,0,0,0,0,0C21.2,7,21.2,7,21.1,6.9C21.2,6.9,21.2,6.9,21.1,6.9z"/>
		<path class="st3" d="M11.9,21.8c0-0.2,0-0.7,0.1-1.2C11.8,21.3,12,22.3,11.9,21.8z"/>
		<path class="st3" d="M16.5,19.5c-0.1-0.7-0.3-1.4-0.7-2c0,0.3,0.1,0.6,0.2,0.9c0,0.1,0,0.2,0,0.2c-0.2-0.8-0.8-1.3-1.3-1.9
			c1.8,3,1.5,4.2,0.3,1.2c-0.9-2.3-0.4,0.5,0.8,2.7c0.1,0.2,0.1,0.3,0.2,0.5c-0.5-0.8-0.9-1.7-1.8-2.2c0,0,0,0,0,0c0,0,0,0,0,0
			c0.5,0.7,0.5,1.5,0.6,2.2c0.1,0.1,0.1,0.2,0.2,0.3c0.1,0.1,0.1,0.2,0.2,0.3c0,0,0-0.1,0-0.1c0-0.3,0-0.7,0.1-0.9
			c0.2,0.8,0.6,1.2,1,1.4v0c0.1-0.1,0.2-0.2,0.2-0.4c0,0,0,0,0,0c0-0.1,0.1-0.2,0.1-0.3c0,0,0,0,0,0c0-0.1,0.1-0.2,0.1-0.3
			c0,0,0,0,0,0c0-0.1,0-0.1,0-0.2c0-0.1-0.1-0.3-0.1-0.4C16.6,20.3,16.6,19.9,16.5,19.5z"/>
		<path class="st3" d="M13.4,20.2c-0.5-0.6-1.2-0.9-1.5-1.7c0,0.1,0,0.2,0.1,0.3c0.1,0.6,0,1.3,0,1.8c0.1-0.2,0.2-0.4,0.5-0.5
			c0.9-0.1,1.6,0.9,1.7,1.8c0.1,0.4-0.7-1.5-0.5-0.2c0.1,0.4,0.2,0.7,0.3,1.1c0,0.2-0.6-0.9-0.8-1.2c-0.1,0.4,0,0.7,0,1.1
			c-0.5-1.3-0.4-1.4-0.7,1.4c0,0,0,0,0.1,0l0,0c0.3-0.1,0.7-0.3,1-0.4l0,0c0,0,0.1,0,0.1,0l0,0c0,0,0.1,0,0.1,0c0,0,0,0,0,0
			c0.5-0.2,0.9-0.5,1.2-0.8c-0.4-2.1-2.2-4-2.8-5.1C12.5,18.5,12.8,19.4,13.4,20.2z"/>
		<path class="st3" d="M10.8,8.8c-0.1-0.7-0.9-0.7-1.6-0.6c-0.8,0.1-1.5,0.5-2,1.1c-0.3,0.4-0.7,0.7-1,1.1l0,0
			c0.1-0.1,0.2-0.1,0.3-0.2c0,0,0,0,0,0c0,0,0,0,0.1,0c0,0,0,0,0,0c0,0,0,0,0.1,0c0,0,0,0,0,0c0,0,0,0,0.1,0c0,0,0,0,0,0
			c0,0,0,0,0.1,0c0,0,0,0,0.1,0c0,0,0,0,0.1,0c0,0,0.1,0,0.1,0c0,0,0,0,0,0c0,0,0,0,0.1,0c0,0,0,0,0.1,0c0,0,0,0,0.1,0
			c0,0,0,0,0.1,0c0,0,0,0,0.1,0c0,0,0,0,0,0c0,0,0,0,0.1,0c0,0,0,0,0,0c0,0,0.1,0,0.1,0c0,0,0,0,0,0c0,0,0.1,0,0.1,0
			c0.1,0,0.1,0.1,0.1,0.2c0,0.2-0.1,0.5-0.4,0.6c0,0-0.1,0-0.1,0c0,0,0,0,0,0c0,0,0,0-0.1,0c0,0,0,0,0,0c0,0,0,0-0.1,0c0,0,0,0,0,0
			c0,0-0.1,0-0.1,0.1c0,0,0,0,0,0c0,0-0.1,0-0.1,0.1c0,0,0,0,0,0c0,0-0.1,0-0.1,0.1c0,0,0,0,0,0c0,0-0.1,0-0.1,0.1c0,0,0,0,0,0
			c0,0-0.1,0.1-0.1,0.1c0,0,0,0,0,0c0,0-0.1,0.1-0.1,0.1c0,0,0,0,0,0c0,0-0.1,0.1-0.1,0.1c0,0,0,0,0,0c0,0-0.1,0.1-0.1,0.1
			c0,0,0,0,0,0c-0.1,0.1-0.2,0.2-0.3,0.2c0,0,0,0,0,0c0,0-0.1,0.1-0.1,0.1c0,0,0,0,0,0c0,0-0.1,0.1-0.1,0.1c0,0,0,0,0,0
			c-0.1,0-0.1,0.1-0.2,0.1C7.4,11,10.9,10.1,10.8,8.8z M9.8,8.4c0.1,0,0.3,0,0.3,0c0.1,0.1,0.1,0.1,0.1,0.2c0,0.3-0.4,0.6-0.9,0.7
			C8,9.5,9.1,8.5,9.8,8.4z"/>
		<path class="st3" d="M1.6,9.2c0.7-0.6,0.8-1.5,1.4-2C2,7.6,1.4,8.5,1,9.5c0.2-0.3,0.4-0.6,0.7-0.8C1.4,9.1,1.3,9.5,1,10
			C1.2,9.7,1.4,9.5,1.6,9.2z"/>
		<path class="st3" d="M4.3,13.4c-0.1,0.2-0.2,0.3-0.4,0.5C4.1,13.7,4.2,13.6,4.3,13.4z"/>
		<path class="st3" d="M8.7,0.8c0,0-0.1-0.1-0.1-0.1c0,0,0,0,0,0c0,0-0.1-0.1-0.1-0.1c0,0,0,0,0,0c0,0-0.1-0.1-0.1-0.1c0,0,0,0,0,0
			c0,0-0.1-0.1-0.1-0.1c0,0,0,0,0,0c0,0-0.1-0.1-0.1-0.1c0,0,0,0,0,0c0,0-0.1,0-0.1-0.1c0,0,0,0,0,0c0,0-0.1,0-0.1-0.1c0,0,0,0,0,0
			c0,0-0.1,0-0.1,0c0,0,0,0,0,0c0,0-0.1,0-0.1,0c0,0,0,0,0,0c0,0-0.1,0-0.1,0c0,0,0,0,0,0c0,0-0.1,0-0.1,0c0,0,0,0,0,0
			C7,0,6.9,0,6.9,0c0,0,0,0,0,0C6.8,0,6.8,0,6.7,0c0,0,0,0,0,0C6.7,0,6.6,0,6.6,0c0,0,0,0,0,0C6.5,0,6.5,0,6.4,0
			C6.7,0.2,7,0.5,7.2,0.8C6.7,0.2,5.4,0.2,6.7,0.7C7.5,1.1,8.3,1.3,8.8,2c0.6,0.7,1.2,1.4,1.9,1.9c0,0,0,0,0,0c0,0,0-0.1,0-0.1
			c0,0,0,0,0,0c0,0,0-0.1,0-0.1c0,0,0,0,0,0c0-0.3,0-0.5,0-0.8l0,0C10.4,2.2,10,1.6,9.5,1.1c0,0,0,0-0.1,0c0,0,0,0,0,0
			C9.3,1,9.2,1,9.1,1c0,0,0,0,0,0C9.1,1,9,1,9,1c0,0,0,0,0,0c0,0,0,0,0,0c0,0,0,0,0,0c0,0,0,0,0,0c0,0,0,0,0,0c0,0,0,0,0,0
			c0,0,0,0,0,0c0,0,0,0,0,0C8.8,0.9,8.8,0.8,8.7,0.8C8.7,0.8,8.7,0.8,8.7,0.8z"/>
		<path class="st3" d="M14.6,1.2c-0.1,0-0.1,0-0.2,0c-0.4,0.1-0.7,0.3-1,0.5c0-0.4,0.3-0.6,0.6-0.9l0,0c-0.4,0.1-0.7,0.2-0.9,0.4
			c0,0,0,0,0,0c0,0,0,0-0.1,0.1c0,0,0,0,0,0c0,0,0,0-0.1,0.1c0,0,0,0,0,0c0,0,0,0-0.1,0.1c0,0,0,0,0,0c0,0,0,0-0.1,0.1c0,0,0,0,0,0
			c0,0,0,0,0,0.1c0,0,0,0,0,0c0,0,0,0,0,0.1c0,0,0,0,0,0c0,0,0,0-0.1,0.1C13,1.4,12.5,1.8,12.4,2c-0.3,1-0.3,2-0.9,2.7
			C12.2,4.6,12.8,2.1,14.6,1.2z"/>
		<path class="st3" d="M17,2.4c0,0-0.2,0.2-1.6,0.6c0.1,0.1,0.4,0.2,0.4,0.2c0,0-0.1,0.1-0.2,0.1c-0.2,0-0.5-0.1-0.7-0.1
			c-0.1,0-0.2,0.1-0.3,0.2C14.8,3.5,15,3.6,15,3.7c0,0,0,0,0,0c-0.1,0-0.2-0.1-0.5-0.1c-0.5,0.1-0.8,0.6-1.3,0.7
			c0.7,0.4,1.5,0.3,1,0.4c-0.4,0.1-0.7-0.2-1.1-0.2c-0.4,0.1-0.7,0.4-1.2,0.5c0,0-0.1,0-0.1,0c1,0.9,3.2,0.3,4,0.5
			c-1.2-0.5-2.9,0-3-0.7c0,0,0,0,0,0c0.6-0.1,1.3,0.2,1.9,0.1c1-0.1-0.1-0.2-0.6-0.6c0.5,0.1,1,0.1,1.5,0l0,0c0,0,0,0,0,0l0,0
			c0,0,0.1-0.1,0.1-0.1c0,0,0,0,0,0c0.1,0,0.1-0.1,0.2-0.1c0,0,0,0,0,0c0.1,0,0.2-0.1,0.3-0.1c0,0,0,0,0,0c0.2-0.1,0.4-0.1,0.6-0.2
			c0,0,0,0,0-0.1c0-0.1,0.2-0.2,0.4-0.2c0.7-0.1,1.5,0.3,2.1,0.4c0,0-0.1-0.1-0.1-0.1c0,0,0,0,0,0c-0.1-0.1-0.2-0.1-0.3-0.2
			c0,0,0,0,0,0c0,0-0.1-0.1-0.1-0.1c-0.1-0.1-0.3-0.2-0.4-0.3l0,0c0,0-0.1-0.1-0.1-0.1C17.6,2.6,17.3,2.3,17,2.4z"/>
		<path class="st3" d="M19.4,4.3C19.4,4.3,19.3,4.3,19.4,4.3C19.3,4.3,19.4,4.4,19.4,4.3C19.4,4.4,19.4,4.3,19.4,4.3L19.4,4.3z"/>
		<path class="st3" d="M0.5,13.1C0.5,13.1,0.5,13.1,0.5,13.1c0,0.1,0,0.1,0,0.2c0,0,0,0,0,0c0,0,0,0,0,0c0,0,0,0,0,0
			c0,0.1,0,0.1,0,0.2l0,0c0,0.1,0.1,0.2,0.1,0.3c0,0,0,0,0,0c0,0.1,0.1,0.2,0.1,0.3c1.8-5,8.5-6.2,8.6-6.5c0,0,0,0,0,0
			c0-0.1-0.2-0.1-0.6,0C8.7,7.5,8,7.6,7.1,7.9l0,0C6.6,8.2,6.2,8.4,5.7,8.5c0,0,0,0,0,0c0,0-0.1,0-0.1,0c0,0,0,0,0,0
			c-0.1,0-0.3,0.1-0.4,0.1c0,0,0,0-0.1,0c0,0-0.1,0-0.1,0c-0.1,0-0.1,0-0.2,0.1c-1.4,0.6-2.9,1.4-3.9,2.4l0,0c0,0,0,0.1,0,0.1
			c0,0,0,0,0,0c0,0,0,0,0,0.1c0,0,0,0,0,0c0,0,0,0.1,0,0.1c0,0,0,0.1,0,0.1c0,0,0,0,0,0.1c0,0,0,0,0,0.1c0,0,0,0,0,0.1
			c0,0,0,0.1,0,0.1c0,0,0,0,0,0c0,0,0,0.1-0.1,0.1C0.5,12.3,0.5,12.7,0.5,13.1C0.5,13,0.5,13,0.5,13.1C0.5,13,0.5,13.1,0.5,13.1z"/>
		<path class="st3" d="M19.9,9.2C19.6,9,19.6,9.1,19.9,9.2L19.9,9.2z"/>
		<path class="st3" d="M21.5,10.3c0,0,0-0.1,0-0.1c0,0,0,0,0,0c0-0.1,0-0.1,0-0.2c0,0,0,0,0,0c0,0,0-0.1,0-0.1c0,0,0,0,0,0
			c0,0,0-0.1,0-0.1c0,0,0,0,0,0c0,0,0-0.1-0.1-0.1c0,0,0,0,0,0c0,0,0-0.1-0.1-0.1c0,0,0,0,0,0c0,0,0-0.1-0.1-0.1c0,0,0,0,0,0
			c0,0-0.1-0.1-0.1-0.1c0,0,0,0,0,0C21,9,21,9,20.9,9c0,0,0,0,0,0c-0.1-0.1-0.1-0.2-0.2-0.2c0,0,0,0,0,0c0,0-0.1-0.1-0.1-0.1
			c0,0,0,0,0,0c-0.1-0.1-0.1-0.1-0.2-0.2c0,0,0,0,0,0c0,0-0.1-0.1-0.1-0.1l0,0c-0.5,0-1,0-1.5-0.2C20.1,9,20.3,8.9,20.1,9
			c-0.1,0-0.3-0.1-0.4-0.1C19.9,9,20,9.2,20.2,9.2c-0.1,0-0.2,0-0.3,0c0.2,0.1,0.4,0.4,0.7,0.8c-0.1,0-5.8-3-7.4-2.7
			c-0.7,0.1-0.9,0.5-0.9,0.7c0,0.3,0.3,0.4,0.6,0.6c-1.1,0.3,1.8,0.7,3,1.9c0,0,0-0.1,0-0.1c0,0,0-0.1,0-0.1c0,0,0-0.1,0-0.1
			c0,0,1,0.1,2.1,0.6l0,0c-1.3-0.9-2.6-1.5-3-1.7c0,0,0,0,0,0c0,0,0,0,0,0c0,0,0,0,0,0c0,0,0,0,0,0c0,0,0,0,0,0c0,0,0,0,0,0
			c0,0,0,0,0,0c0,0,0,0,0,0c0,0,0,0,0,0c0,0,0,0,0,0c0,0,0,0,0,0c0,0,0,0,0,0c0,0,0,0,0,0c0,0,0,0,0,0c0,0,0,0,0,0c0,0,0,0,0,0
			c0,0,0,0,0,0c0,0,0,0,0,0c0,0,0,0,0,0c0,0,0,0,0,0c0,0,0,0,0,0c0,0,0,0,0,0c0,0,0.1,0,0.1,0c0,0,0,0,0,0c0,0,0,0,0.1,0
			c0,0,0,0,0,0c0.1,0,0.2,0.1,0.3,0.1c0,0,0,0,0,0c0.1,0,0.2,0.1,0.4,0.2c0,0,0,0,0,0c0,0,0.1,0,0.1,0.1c0.3,0.1,0.6,0.3,0.9,0.4
			c0,0-0.1,0-0.1,0c0,0,0,0,0,0c0.1,0,0.1,0.1,0.2,0.1c0,0,0,0,0,0c0.1,0,0.1,0.1,0.2,0.1c0,0,0,0,0,0c0.1,0.1,0.3,0.2,0.4,0.3
			c0,0,0,0,0,0c0.1,0,0.1,0.1,0.2,0.1c0,0,0,0,0,0c0.1,0.1,0.3,0.2,0.4,0.3c0,0,0,0,0,0c0.1,0.1,0.1,0.1,0.2,0.2l0,0c0,0,0,0,0,0
			c0.2,0.1,0.3,0.2,0.5,0.4c-0.4-0.6-1-1.2-1.1-2c0.2,0.7,0.6,1.3,1.3,1.6c-0.3-0.4-0.4-0.8-0.5-1.2c1,1.2,2,1.4,2.7,2.2l0,0
			c0,0,0-0.1,0-0.1c0,0,0,0,0,0c0,0,0-0.1,0-0.1c0,0,0,0,0,0c0,0,0-0.1,0-0.1c0,0,0,0,0,0c0,0,0-0.1,0-0.1c0,0,0,0,0,0
			c0,0,0-0.1,0-0.1c0,0,0,0,0,0c0,0,0-0.1,0-0.1c0,0,0,0,0,0c0,0,0-0.1,0-0.1c0,0,0,0,0,0c0-0.1,0-0.1,0-0.2
			C21.5,10.5,21.5,10.4,21.5,10.3C21.5,10.3,21.5,10.3,21.5,10.3z M13.5,8.3C13,8.3,12.5,8,12.5,7.8c0-0.1,0.1-0.2,0.2-0.2
			c0.2,0,0.4,0.1,0.5,0.1c0.2,0.1,0.4,0.2,0.4,0.4C13.6,8.2,13.6,8.3,13.5,8.3z"/>
		<path class="st3" d="M20.5,14c0,0,0-0.1,0-0.1c0,0,0,0,0-0.1c0,0,0-0.1,0-0.1c0,0,0,0,0-0.1c0,0,0-0.1,0-0.1c0,0,0,0,0-0.1
			c0,0,0-0.1,0-0.1c0,0,0,0,0-0.1c0,0,0-0.1,0-0.1c0,0,0,0,0-0.1c0,0,0-0.1,0-0.1c0,0,0,0,0,0c0,0,0-0.1-0.1-0.1c0,0,0,0,0,0
			c0,0,0-0.1-0.1-0.1c0,0,0,0,0,0c-0.1-0.2-0.3-0.5-0.5-0.7c0,0,0,0,0,0c0,0-0.1-0.1-0.1-0.1c0,0,0,0,0,0c0,0-0.1-0.1-0.1-0.1l0,0
			c-0.2-0.1-0.4-0.1-0.6-0.2c0.4,0.2,0.7,0.5,0.9,0.9c-0.3-0.2-0.5-0.5-0.9-0.6c0.3,0.3,0.5,0.6,0.7,1c-0.2-0.2-0.4-0.4-0.7-0.5
			c0.4,0.5,0.7,1.2,0.8,1.9c-0.4-1.2-2.7-3-2.7-3c0,0,0,0.1,0,0.1c0,0,0.5,0.7,0.7,2c0,0.3,0.1,0.6,0.1,0.9c0,0.1,0.1,0.1,0.1,0.2
			c0,0,0,0,0,0c0,0.1,0.1,0.1,0.1,0.2c0,0.1,0.1,0.2,0.1,0.2c0,0,0,0,0,0c0.4-0.1-0.4-4.3,1.5,1.4c0-0.1,0.1-0.1,0.1-0.2
			c0,0,0,0,0,0c0,0,0,0,0-0.1c0,0,0,0,0,0c0,0,0,0,0-0.1c0,0,0,0,0,0c0,0,0,0,0-0.1c0,0,0,0,0,0c0,0,0,0,0-0.1c0,0,0,0,0,0
			c0.2-0.3,0.4-0.4,0.5-0.7c0,0,0,0,0,0c0,0,0,0,0,0c0,0,0,0,0,0c0,0,0,0,0,0c0,0,0,0,0,0c0,0,0,0,0,0c0,0,0,0,0,0c0,0,0,0,0,0
			c0,0,0,0,0,0c0,0,0,0,0-0.1c0,0,0,0,0,0c0,0,0,0,0-0.1c0,0,0,0,0,0c0,0,0,0,0-0.1c0,0,0,0,0,0c0,0,0,0,0-0.1c0,0,0,0,0,0
			c0,0,0,0,0-0.1c0,0,0,0,0,0c0,0,0,0,0-0.1c0,0,0,0,0,0c0,0,0,0,0-0.1c0,0,0,0,0,0c0,0,0-0.1,0-0.1C20.5,14.2,20.5,14.1,20.5,14
			C20.5,14,20.5,14,20.5,14z"/>
		<path class="st3" d="M1.6,16.8c0,0,0.1,0.1,0.1,0.1c0,0,0,0,0,0c0,0,0.1,0.1,0.1,0.1c0,0,0,0,0,0c0,0,0.1,0.1,0.1,0.1c0,0,0,0,0,0
			c0,0,0.1,0.1,0.1,0.1c0,0,0,0,0,0c0,0,0.1,0.1,0.1,0.1c0,0,0,0,0,0c0,0,0.1,0.1,0.1,0.1c0,0,0,0,0,0c0,0,0.1,0.1,0.1,0.1
			c0.4-1.6,1.3-3.1,2.4-4.3c-0.9,0.8-1.6,1.9-2.2,2.9c0.1-1,0.8-1.7,1.4-2.4c-0.3,0.4-0.6,0.6-0.7,0.7c0,0,0,0,0,0
			c0-0.2,0.3-0.6,0.5-0.9l0,0c-0.1,0.1-0.1,0.1-0.2,0.2c0,0,0,0,0,0C3.4,13.9,3.3,14,3.3,14c-0.7,0.8-1.4,1.7-1.8,2.7c0,0,0,0,0,0
			C1.5,16.7,1.5,16.8,1.6,16.8C1.6,16.8,1.6,16.8,1.6,16.8z"/>
		<path class="st3" d="M13.2,12.6C13.4,12.9,13.5,12.6,13.2,12.6L13.2,12.6z"/>
		<path class="st3" d="M2.8,5.8L2.8,5.8c-0.1,0-0.1,0-0.2,0c0,0,0,0,0,0c-0.1,0-0.1,0-0.2,0c0,0,0,0,0,0c0,0-0.1,0-0.1,0
			c0,0,0,0,0,0c0,0-0.1,0-0.1,0c-0.1,0-0.1,0-0.2,0c0,0-0.1,0-0.1,0c0,0-0.1,0-0.1,0c0,0-0.1,0-0.1,0c0,0,0,0,0,0c0,0-0.1,0-0.1,0
			c0,0,0,0,0,0c0,0-0.1,0-0.1,0c0,0,0,0,0,0c0,0-0.1,0-0.1,0.1l0,0C1.2,6.1,1.1,6.1,1,6.2l0,0C0.7,6.5,0.4,6.8,0.2,7.2l0,0
			c0,0.1,0,0.1,0,0.2c0,0,0,0,0,0c0,0.1,0,0.1,0,0.2c0,0,0,0,0,0c0,0.1,0,0.1,0,0.2c0,0,0,0,0,0C0,7.9,0,7.9,0,8c0,0,0,0,0,0
			c0,0.1,0,0.1,0,0.2c0,0,0,0,0,0c0,0.1,0,0.1,0,0.2c0,0,0,0,0,0c0,0.1,0,0.2,0,0.2c0,0,0,0,0,0c0,0.1,0,0.2,0,0.2l0,0
			C0.9,7.5,2.5,6.4,2.8,5.8z"/>
		<path class="st3" d="M3.9,5.9C3.9,6.2,3.9,6,3.9,5.9L3.9,5.9z"/>
		<path class="st3" d="M1.9,10.1C1.9,10.2,1.9,10.2,1.9,10.1c-0.1,0.1-0.1,0.1-0.2,0.1v0c0,0,0,0,0.1,0c0,0,0.3-0.2,0.6-0.5
			c-0.1,0-0.1,0.1-0.2,0.1c0,0,0,0,0,0C2.1,10,2,10.1,1.9,10.1z"/>
		<path class="st3" d="M3.2,5.2c2.5-0.4,3.1-0.3,3.1,0.1c0,0.3-0.3,0.4-0.6,0.5C5.1,5.9,4.1,5.8,3.1,5.8c0.3,0.1,0.7,0.1,0.8,0.1
			C4.6,5.9,5.4,6.1,6.1,6C7,5.8,7.5,5.3,7.5,5c-0.1-0.8-1.7-1-2.6-0.9C3.8,4.2,3,4.9,2.8,5.3C2.9,5.3,3.1,5.3,3.2,5.2z"/>
		<path class="st3" d="M11.9,10.9c-0.1-0.1-0.2-0.1-0.3-0.1c-0.1,0-0.1,1.8,0,2.3c0.3,1.8,2,2,2.8,3.5c-0.1-0.4-0.4-0.8-0.5-1.1
			c0.2,0.3,0.5,0.6,0.7,1c-0.2-1-2.2-2.5,1,0.2l0,0c0-0.1-0.1-0.2-0.1-0.2c0,0,0,0,0,0c-0.1-0.1-0.1-0.2-0.2-0.2h0
			c-0.6-0.6-1.6-1.4-2.1-2.3l0,0c0,0,0,0,0,0c0,0,0,0,0,0c0,0,0,0,0,0c-0.1-0.2-0.2-0.5-0.2-0.7l0,0c0,0,0,0,0,0
			c0.1,0,0.3,0.2,0.4,0.2c0,0,0,0,0,0c0,0-0.2-0.3-0.2-0.4c0.2,0.1,0.8,0.5,0-0.2c0.1,0,0.1,0,0.2,0c-0.1-0.1-0.1-0.2-0.2-0.4
			C15.9,14.3,12.7,11.4,11.9,10.9z"/>
		<path class="st3" d="M8.4,7.2c0,0,0.1-0.1,0.1-0.1l0,0c0,0,0,0,0,0c0,0,0,0,0,0c0,0,0,0,0,0c0,0,0,0,0,0c0,0,0,0,0,0c0,0,0,0,0,0
			c0,0,0,0,0,0c0,0,0,0,0,0c0,0,0,0,0,0c0,0,0,0,0,0c0,0,0,0,0,0c0,0,0,0,0,0c0,0,0,0,0,0c0,0,0,0,0,0c0,0,0,0,0,0c0,0,0,0,0,0
			c0,0,0,0,0,0c0,0,0,0,0,0c0,0,0,0,0,0c0,0,0,0,0,0c0,0,0,0,0,0c0,0,0,0,0,0c0,0,0,0,0,0c0,0,0,0,0,0c0,0,0,0,0,0c0,0,0,0,0,0
			c0,0,0,0,0,0c0,0,0,0,0,0c0,0,0,0,0,0c0,0,0,0,0,0c0,0,0,0,0,0c0,0,0,0,0,0c0,0,0,0,0,0c0,0,0,0,0.1,0c0,0,0,0,0,0c0,0,0,0,0.1,0
			c0,0,0,0,0,0c0,0,0,0,0,0c0,0,0,0,0,0c0,0,0,0,0.1,0c0,0,0,0,0,0c0,0,0,0,0.1,0c0,0,0,0,0,0c0,0,0,0,0.1,0c0,0,0,0,0.1,0
			c0,0,0,0,0,0c0.1,0,0.1,0,0.2,0l0,0c0,0,0,0,0,0c-0.5-0.1-1-0.1-1.5-0.1C7.5,6.5,6.8,6.7,6.3,7c0.3,0.1,0.6,0,0.9,0.2
			C7.1,7.3,6.9,7.3,6.8,7.4h0c0,0,0,0,0.1,0c0,0,0,0,0,0c0,0,0.1,0,0.1,0c0,0,0,0,0,0c0,0,0.1,0,0.1,0c0,0,0,0,0,0c0,0,0,0,0.1,0
			c0,0,0,0,0,0c0,0,0,0,0.1,0c0,0,0,0,0,0c0,0,0,0,0,0c0,0,0,0,0,0c0,0,0.1,0,0.1,0c0,0,0,0,0,0c0,0,0,0,0,0c0,0,0,0,0,0
			c0,0,0,0,0,0c0,0,0,0,0,0c0,0,0,0,0,0c0,0,0,0,0,0c0,0,0,0,0,0c0,0,0,0,0,0c0,0,0,0,0,0c0,0,0,0,0,0c0,0,0,0,0,0c0,0,0,0,0,0
			c0,0,0,0,0,0c0,0,0,0,0,0c0.6-0.1,1.2-0.2,1.8-0.4C9,7.2,8.7,7.3,8.4,7.2z"/>
		<path class="st3" d="M3.5,8.4c0,0-0.1,0-0.1,0c0,0,0,0,0,0C3.3,8,3.9,7.8,3.9,7.6c0-0.1-0.2-0.3-0.4-0.2c-0.3,0-0.6,0.6-0.7,0.9
			c-0.3,0.7-0.9,0.9-1,1.4c0,0,0,0.1,0,0.1C1.9,9.6,2,9.5,2.2,9.4l0,0c0.1,0,0.1-0.1,0.2-0.1c0,0,0,0,0,0c0.1,0,0.1-0.1,0.2-0.1
			c0,0,0,0,0,0c0.1,0,0.1-0.1,0.2-0.1c0,0,0,0,0,0C2.9,9,3,8.9,3,8.9c0,0,0,0,0,0c0.1,0,0.1-0.1,0.2-0.1l0,0c0.1,0,0.1-0.1,0.2-0.1
			C3.5,8.5,3.6,8.4,3.5,8.4C3.5,8.4,3.5,8.4,3.5,8.4z"/>
		<path class="st3" d="M11.3,13.8C10.3,14.2,9.7,15,9.3,16c0.2-0.3,0.4-0.5,0.6-0.7c-0.5,0.7-1.1,1.4-1.2,2.3c0.4-1.1,1.2-2,2-2.8
			c-0.4,0.6-0.8,1.2-1.1,1.9l0,0c0,0,0,0,0,0c0,0,0,0,0,0c0,0,0,0,0,0c0,0,0,0,0,0c0,0,0,0,0,0c0,0,0,0,0,0c0,0,0,0,0,0l0,0
			C10.8,16.1,11.3,14.9,11.3,13.8z"/>
		<path class="st3" d="M14.3,17.2c-1.1-1.9-2.1-1.9-2.6-3.2c0,0.6,0,1.4,0.1,2.1c0.2,1.5,1,2,0.9,1.9c-0.1-0.4-0.4-0.8-0.5-1.2
			c0.4,0.3,0.7,0.5,0.9,0.8c0,0,0,0,0,0c0,0,0,0,0,0c0,0,0.1,0,0.1,0c0,0,0,0,0,0c0,0,0,0,0.1,0c0,0,0.1,0,0.1,0h0
			c-0.2-0.4-0.4-0.8-0.6-1.3c0.4,0.5,0.4,0.5,0.3,0.4c0-0.3-0.3-0.5-0.4-0.9C12.7,15.4,13.7,16.4,14.3,17.2z"/>
	</g>
	<path class="st4" d="M16.2,10.8c-1.6-1.3-4.3-1.9-4.6-2.9c-0.1-0.2,0-0.3,0-0.5c0-0.8-0.1-0.8,0-0.9c0.1,0,0.1,0.1,0.5,0.2
		c0.1,0,0.2,0.1,0.2,0.1c0.1,0,0.2,0.1,0.2,0.1c0.5,0.2,0.7,0.1,1.5,0.4c2.1,0.5,4.1,0.7,6,2.4c0.1,0.1,0.2,0.2,0.2,0.1
		c0-0.1-0.9-1.2-3.1-1.9c-0.2-0.1-0.3-0.1-0.3-0.1c-0.2-0.1-0.5-0.1-0.7-0.2c-2.9-0.7-3.4-0.8-4.2-1.3c-0.2-0.1-0.4-0.2-0.4-0.6
		c0-0.5,0.2-0.3,0.3-0.3c0.1,0.1,0.5,0.2,0.6,0.2c0.1,0,0.1,0,0.2,0c0.4,0.1,0.7,0,1.2,0c2.3,0,4-0.4,5.9,0.4
		c0.2,0.1,0.3,0.1,0.3,0.1c0,0,0,0-0.1,0c-2-1.4-7.3,0.1-8.4-1.2c0,0,0,0,0,0c0.2,0,0.5,0,0.5,0c0,0,0.1,0,0.1,0
		c0.3,0,0.3-0.2,0.8-0.3l0.3-0.1c0,0,0.1,0,0.1-0.1c0,0,0.1-0.1,0.1-0.1C16,2.9,16,2.9,16,2.9c0,0,0,0,0,0c0,0,0,0-0.1,0
		c-0.1,0-1.5,0.7-1.5,0.7c-0.1,0-0.1,0.1-0.2,0.1c-0.3,0.1-1.3,0.6-1.8,0.8c-0.5,0.2-0.6,0.1-0.7,0.1c-0.1,0-0.1,0-0.2,0
		c0,0,0.1,0,0.1-0.1c0,0,0,0,0.1,0c0.1-0.1,0.2-0.1,0.2-0.2c0,0,0.3-0.2,0.3-0.3c0,0,0,0,0-0.1c0.2-0.4,0.4-0.9,0.6-1.3
		c0.1-0.2,0-0.1-0.3,0.4c-0.1,0.1-0.2,0.5-0.4,0.8c-0.2,0.3-0.5,0.5-0.6,0.6c-0.1,0.1-0.2,0.2-0.3,0.2c-0.1,0-0.2-0.1-0.3-0.2
		c0,0,0,0,0,0c0,0,0,0,0,0c-0.2-0.2-0.2-0.1-0.3-0.3c0-0.1-1.2-1.7-1.1-1.5c0,0,0,0.1,0.1,0.1c1,1.6,1.1,1.8,1.5,2c0,0,0,0,0,0
		c0,0-0.1,0-0.1,0c0,0,0,0-0.1,0c0,0,0,0-0.1,0c-0.2-0.1-0.3-0.1-0.4-0.2c-1.1-1-1.4-1-1.4-1C8.6,3.2,8.4,3.2,8.7,3.3
		c0.8,0.3,1.4,1.2,2.3,1.6c-0.2,0-0.3,0-0.6,0c-0.1,0-0.1,0-0.2,0c-0.1,0-0.1,0-0.2-0.1C9.9,4.6,9.7,4.6,9.6,4.5
		c-0.1,0-0.3-0.1-0.4-0.1C9,4.4,8.9,4.3,8.8,4.3C8.7,4.2,8.1,4,8,4c0,0-0.1,0-0.1,0C7.1,3.8,6.6,3.7,5.8,3.6c0,0-0.1,0-0.1,0l-0.1,0
		c-0.8,0-2.1,0.1-2.4,0.3c0,0,0,0,0,0c0,0,0.1,0,0.1,0c0.1,0,0.2,0,0.3,0C5.1,3.7,6.1,3.8,7.3,4c1,0.2,2.1,0.8,2.3,0.8
		c1.1,0.4,1.1,0.3,1.4,0.3c0,0.1,0,0.2,0,0.3c-0.2,0.1-0.9,0.2-0.9,0.2c-0.1,0-0.2,0-0.2,0.1c-0.1,0-0.1,0-0.2,0
		C8.8,5.9,9.3,6,7.6,6.1c-0.1,0-0.2,0-0.3,0C6.9,6.3,3.6,6.3,2.2,7.6c0,0-0.1,0.1-0.1,0.1c0,0,0,0,0,0c0,0,0.3-0.2,0.3-0.2
		c1.4-1,3.1-1,4.6-1.1C9.1,6.3,9.6,6.1,10.3,6c0.5-0.1,0.3-0.1,0.7-0.2c0,0.3,0,0.7,0,1c-0.1,0-0.3,0.3-0.9,0.6
		c-0.1,0-0.2,0.1-0.2,0.1c-0.1,0-0.2,0.1-0.2,0.1C9.6,7.6,9.4,7.6,9.2,7.7c-1,0.4-0.4,0.2-1.6,0.5c-0.1,0-0.2,0.1-0.3,0.1
		C7.2,8.4,7,8.5,7,8.5c-3.5,1.6-5.5,4.3-4.3,3.1L3,11.3c1.8-1.5,2.5-1.8,3.3-2.2c1.1-0.6,3.2-1.2,3.2-1.1c1.3-0.4,1.2-0.5,1.6-0.8
		c0,0.6,0.1,1.3,0.1,1.9c-0.4,0.6-1.1,0.9-3,2.2c-3.4,2.3-5,5.9-4.5,5.1c0.1-0.1,0.6-1.1,1.4-2.2c2.2-2.6,4.5-3.6,5.6-4.4
		c0.7-0.5,0.5-1,0.8,3c0,0.1-0.1,0.6-0.7,1.1c-1.3,1.2-2.9,2.2-4.3,5.2c-0.2,0.4-0.3,0.7-0.2,0.5c0.4-0.7,0.5-1.4,2-3.2
		c1.3-1.5,2.2-1.9,2.9-2.8c0-0.1,0.2-0.3,0.2-0.3c0.1,0,0.1,0.3,0.1,0.4c0.2,1.9,0.3,1.9-0.1,2.3c-0.1,0.1-0.6,0.6-0.7,0.8
		c-0.8,1.2-1.5,2.1-2,4c-0.1,0.2-0.1,0.5,0,0.3c0.1-0.2,0.4-2.3,2.3-4.5c0.3-0.3,0.3-0.3,0.4-0.4c0.2-0.2,0.3-0.3,0.3-0.2
		c0,0.1,0,0.3,0,0.4c0.1,1.4,0.1,2.8,0.2,4.2c0,0.4,0.1,0.9,0.1,1.3c-0.2-3.6,0.1-1-0.3-7c0-0.1-0.1-0.3,0-0.4c0-0.1,0.1,0,0.2,0.1
		c0,0,0.1,0.1,0.1,0.1c0,0.1,1.7,1.6,3,4c0.1,0.2,0.2,0.2,0.1,0.1c-0.4-0.9-1.3-2.2-1.3-2.1c-0.3-0.4-1.3-1.7-1.6-2
		c-0.4-0.4-0.3-0.4-0.6-0.7c-0.2-3.5-0.2-3.3-0.2-3.3c0.1-0.1,0.2,0.2,0.4,0.3c0.1,0,0.1,0.1,0.2,0.1c0.5,0.3,0.8,0.4,1.5,1.1
		c0.1,0.1,0.1,0.1,0.2,0.2c0.8,0.6,2.1,2.4,2.7,3.7c0.7,1.5-0.4-1.9-2.8-3.9c-1.3-1.2-1.5-1-2.1-1.7c-0.2-0.3-0.2,0-0.3-2.1
		c0-0.1,0-0.3,0.1-0.3c0,0,0.1,0.1,0.1,0.1c1.2,1.1,2.5,0.9,5,2.9c0.5,0.4,1.3,1.2,1.8,1.9c0.3,0.5,0.2,0.2,0-0.1
		C17.7,12.1,17.3,11.7,16.2,10.8z"/>
	<g>
		<path class="st3" d="M11.4,8.8c0-0.3,0-0.5-0.1-0.8c0-0.3-0.1-0.6-0.1-0.8c0-0.1-0.2-0.1-0.2-0.1c-0.5,0.3-1.1,0.5-1.7,0.7
			C8.8,8,8.2,8.2,7.6,8.4C7.1,8.6,6.6,8.9,6.1,9.2c0.1,0,0.2-0.1,0.3-0.1c1.1-0.6,3.2-1.2,3.2-1.1c1.3-0.4,1.2-0.5,1.6-0.8
			c0,0.6,0.1,1.3,0.1,1.9c-0.1,0.1-0.2,0.2-0.3,0.3C11.2,9.3,11.4,9.1,11.4,8.8z"/>
		<path class="st3" d="M5.7,3.8C5.7,3.8,5.7,3.8,5.7,3.8c0.5,0,1,0.1,1.6,0.3c1,0.2,2.1,0.8,2.3,0.8c1.1,0.4,1.1,0.3,1.4,0.3
			c0,0.1,0,0.2,0,0.3c-0.1,0-0.6,0.2-0.8,0.2c0.2,0,0.5,0,0.7,0C9.9,6.1,8.7,6.2,7.5,6.3C7,6.3,6.5,6.4,6,6.5c0.3,0,0.7-0.1,1-0.1
			C9.1,6.3,9.6,6.1,10.3,6c0.5-0.1,0.3-0.1,0.7-0.2c0,0.3,0,0.7,0,1c0,0-0.2,0.2-0.7,0.5c0.2-0.1,0.3-0.1,0.5-0.2
			C11,7,11.1,7,11.1,6.9c0,0,0,0,0,0.1c0,0,0.1,0,0.1,0c0.1-0.3,0.1-0.7,0.1-1.1c0-0.3,0-0.5,0-0.8c0.1,0,0.2,0,0.3,0
			c-0.1,0-0.1-0.1-0.1-0.1c0,0,0,0,0,0c0.2,0,0.5,0,0.5,0c0,0,0.1,0,0.1,0c0.3,0,0.3-0.2,0.8-0.3l0.3-0.1c0,0,0.1,0,0.1-0.1
			c0,0,0.1-0.1,0.1-0.1c0.7-0.4,1.2-0.7,1.6-0.9c-0.8,0.2-1.5,0.6-2.2,1c-0.3,0.2-0.7,0.3-1,0.4c-0.1,0-0.2,0-0.3,0
			c0.1-0.1,0.1-0.1,0.2-0.2c0,0,0,0,0,0c0,0,0,0-0.1,0c-0.1,0-0.1,0-0.2,0c0,0,0.1,0,0.1-0.1c0,0,0,0,0.1,0c0.1-0.1,0.2-0.1,0.2-0.2
			c0,0,0.2-0.2,0.2-0.3c0,0,0,0,0,0c0-0.1,0.1-0.2,0.1-0.4c0,0.1-0.1,0.1-0.1,0.2c-0.2,0.3-0.5,0.5-0.6,0.6
			c-0.1,0.1-0.2,0.2-0.3,0.2c0,0,0,0,0,0c0,0,0,0,0,0c0,0,0,0,0,0c-0.1,0-0.2-0.1-0.3-0.2c0,0,0,0,0,0c0,0,0,0,0,0
			c-0.2-0.2-0.2-0.1-0.3-0.3c0-0.1-1.2-1.7-1.1-1.5c0,0,0,0.1,0.1,0.1c1,1.6,1.1,1.8,1.5,2c0,0,0,0,0,0c0,0-0.1,0-0.1,0
			c0,0,0,0-0.1,0c0,0,0,0-0.1,0c-0.2-0.1-0.3-0.1-0.4-0.2c-1.1-1-1.4-1-1.4-1C8.6,3.2,8.4,3.2,8.7,3.3c0.8,0.3,1.4,1.2,2.3,1.6
			c0,0-0.1,0-0.1,0c0,0,0,0.1,0,0.1C9.6,5,8.6,4.3,7.4,4C6.9,3.8,6.3,3.8,5.7,3.8z"/>
		<path class="st3" d="M12.3,11.3c0.3,0.2,0.5,0.3,0.8,0.5C12.9,11.7,12.6,11.5,12.3,11.3z"/>
		<path class="st3" d="M12.7,5.6c-0.3,0-0.5-0.2-0.8-0.2c-0.1,0-0.2,0-0.3,0c0,0,0.1,0,0.1,0.1c0.1,0.1,0.5,0.2,0.6,0.2
			c0.1,0,0.1,0,0.2,0c0.4,0.1,0.7,0,1.2,0c0.8,0,1.5,0,2.2-0.1c-0.5-0.1-1.1-0.1-1.6,0C13.7,5.7,13.2,5.7,12.7,5.6z"/>
		<path class="st3" d="M11.3,9.4c0-0.1-0.2-0.1-0.2,0c-0.9,0.8-2,1.2-2.9,2c1-0.7,1.9-1.2,2.4-1.6c0.7-0.5,0.5-1,0.8,3
			c0,0-0.1,0.3-0.2,0.5c0,0,0.1-0.1,0.1-0.1c0.5-0.4,0.3-1.1,0.3-1.7C11.6,10.8,11.6,10.1,11.3,9.4z"/>
		<path class="st3" d="M14.8,7.3c0,0-0.1,0-0.1,0c-0.4-0.1-0.8-0.2-1.1-0.3c-0.1,0-0.3-0.1-0.4-0.1c-0.5-0.1-1-0.2-1.5-0.4
			c-0.1,0-0.1,0-0.1,0c0.1,0,0.1,0.1,0.5,0.3c0.1,0,0.2,0.1,0.2,0.1c0.1,0,0.2,0.1,0.2,0.1c0.5,0.2,0.7,0.1,1.5,0.4
			c1.1,0.3,2.1,0.5,3.2,0.8c-0.2-0.1-0.5-0.2-0.7-0.3C15.9,7.6,15.3,7.4,14.8,7.3z"/>
		<path class="st3" d="M11.8,16.1c0-0.1-0.1-0.1-0.2,0c-0.1,0.1-0.3,0.3-0.4,0.5c0,0,0,0,0,0c0.1-0.1,0.2-0.1,0.2-0.2
			C11.7,16.1,11.8,16,11.8,16.1c0,0.1,0,0.3,0,0.4c0,0.7,0.1,1.4,0.1,2.1c0-0.1,0-0.2,0-0.4C12.1,17.5,12.1,16.8,11.8,16.1z"/>
		<path class="st3" d="M13.9,9.6c-0.6-0.2-1.2-0.5-1.7-0.8c0.8,0.5,1.7,0.7,3.1,1.5C14.9,10,14.4,9.8,13.9,9.6z"/>
		<path class="st3" d="M11.4,13.3c-0.3,0.4-0.6,0.8-1,1.1c0.3-0.3,0.6-0.5,0.8-0.8C11.3,13.6,11.4,13.3,11.4,13.3
			c0.2,0.1,0.2,0.4,0.2,0.5c0.2,1.9,0.3,1.9-0.1,2.3c0,0-0.1,0.1-0.1,0.1c0.1-0.1,0.2-0.1,0.3-0.2c0.4-0.3,0.3-0.6,0.2-1
			c-0.1-0.6-0.1-1.1-0.2-1.7C11.6,13.2,11.5,13.2,11.4,13.3z"/>
	</g>
</g>
</svg>
