<!-- Generator: Adobe Illustrator 22.0.0, SVG Export Plug-In  -->
<svg version="1.1"
	 xmlns="http://www.w3.org/2000/svg" xmlns:xlink="http://www.w3.org/1999/xlink" xmlns:a="http://ns.adobe.com/AdobeSVGViewerExtensions/3.0/"
	 x="0px" y="0px" width="42px" height="77px" viewBox="0 0 42 77" style="enable-background:new 0 0 42 77;" xml:space="preserve">
<style type="text/css">
	.st0{clip-path:url(#SVGID_2_);}
	.st1{clip-path:url(#SVGID_4_);}
</style>
<defs>
</defs>
<g>
	<g>
		<defs>
			<rect id="SVGID_1_" y="0.1" width="42" height="76.9"/>
		</defs>
		<clipPath id="SVGID_2_">
			<use xlink:href="#SVGID_1_"  style="overflow:visible;"/>
		</clipPath>
		<path class="st0" d="M40,0L30,0C18.8,0,11.6,7.4,11.6,18.9v8.7h-10c-0.9,0-1.6,0.7-1.6,1.6v12.6c0,0.9,0.7,1.6,1.6,1.6h10v31.9
			c0,0.9,0.7,1.6,1.6,1.6h13.1c0.9,0,1.6-0.7,1.6-1.6V43.4h11.7c0.9,0,1.6-0.7,1.6-1.6l0-12.6c0-0.4-0.2-0.8-0.5-1.1
			c-0.3-0.3-0.7-0.5-1.1-0.5H27.8v-7.4c0-3.6,0.8-5.4,5.5-5.4l6.7,0c0.9,0,1.6-0.7,1.6-1.6V1.6C41.6,0.7,40.9,0,40,0L40,0z M40,0"/>
	</g>
</g>
</svg>
