<!-- Generator: Adobe Illustrator 22.0.0, SVG Export Plug-In  -->
<svg version="1.1"
	 xmlns="http://www.w3.org/2000/svg" xmlns:xlink="http://www.w3.org/1999/xlink" xmlns:a="http://ns.adobe.com/AdobeSVGViewerExtensions/3.0/"
	 x="0px" y="0px" width="392px" height="393.8px" viewBox="0 0 392 393.8" style="enable-background:new 0 0 392 393.8;"
	 xml:space="preserve">
<style type="text/css">
	.st0{clip-path:url(#SVGID_2_);}
	.st1{clip-path:url(#SVGID_4_);}
</style>
<defs>
</defs>
<g>
	<path d="M357.8,288.9l-150.2-39.3l132.6-27.1l-3.4-17.4l-168.5,35c-10.4,2.2-7.5,16.7,0,17.4l135.1,35.8l-153.4,10.5
		c-8.4,1.2-10.1,10.6-5,15.8l50.1,47.2l-109.3,8.7l0.8,17.4l127.6-10.5c6.2,0.5,11.9-9,5-15.8l-49.2-47.2l186.8-13.1
		C366.1,305.9,367.1,291.4,357.8,288.9L357.8,288.9z M357.8,288.9"/>
	<g>
		<defs>
			<rect id="SVGID_1_" width="391.9" height="393.8"/>
		</defs>
		<clipPath id="SVGID_2_">
			<use xlink:href="#SVGID_1_"  style="overflow:visible;"/>
		</clipPath>
		<path class="st0" d="M368.6,66.2c0-21.8-17.5-39.4-39.2-39.4c-21.7,0-39.2,17.6-39.2,39.4c0,21.8,17.5,39.4,39.2,39.4
			C350.3,105.6,368.6,88,368.6,66.2L368.6,66.2z M307,67c0-12.6,10-22.6,22.5-22.6c11.7,0,22.5,9.2,22.5,21.8
			c0,12.6-10,22.6-22.5,22.6C317,88.8,307,79.6,307,67L307,67z M307,67"/>
		<path class="st0" d="M392,63.7c0-35.2-28.3-62.9-62.6-62.9c-34.2,0-62.6,27.7-62.6,62.9c0,35.1,62.6,129,62.6,129
			S392,98.8,392,63.7L392,63.7z M329.4,17.6c25.8,0,45.8,21,45.8,46.1c0,20.1-29.2,70.4-45.8,98.1c-16.6-27.7-45.8-77.9-45.8-98.1
			C283.6,38.6,303.6,17.6,329.4,17.6L329.4,17.6z M329.4,17.6"/>
	</g>
	<path d="M62.6,216.7c-21.7,0-39.2,17.6-39.2,39.4c0,21.8,17.5,39.4,39.2,39.4c20.9,0,39.2-17.6,39.2-39.4
		C101.8,234.3,84.2,216.7,62.6,216.7L62.6,216.7z M62.6,278.8c-12.5,0-22.5-9.2-22.5-21.8c0-12.6,10-22.6,22.5-22.6
		c11.7,0,22.5,9.2,22.5,21.8C85,268.7,75,278.8,62.6,278.8L62.6,278.8z M62.6,278.8"/>
	<path d="M62.6,190.8C28.4,190.8,0,218.5,0,253.7c0,35.1,62.6,129,62.6,129s62.6-93.9,62.6-129C125.1,218.4,96.7,190.8,62.6,190.8
		L62.6,190.8z M16.7,253.6c0-25.1,20-46.1,45.8-46.1c25.8,0,45.8,21,45.8,46.1c0,20.1-29.2,70.4-45.8,98.1
		C45.8,324,16.7,273.8,16.7,253.6L16.7,253.6z M16.7,253.6"/>
</g>
</svg>
