<!-- Generator: Adobe Illustrator 22.0.0, SVG Export Plug-In  -->
<svg version="1.1"
	 xmlns="http://www.w3.org/2000/svg" xmlns:xlink="http://www.w3.org/1999/xlink" xmlns:a="http://ns.adobe.com/AdobeSVGViewerExtensions/3.0/"
	 x="0px" y="0px" width="376px" height="263.8px" viewBox="0 0 376 263.8" style="enable-background:new 0 0 376 263.8;"
	 xml:space="preserve">
<style type="text/css">
	.st0{clip-path:url(#SVGID_2_);}
	.st1{clip-path:url(#SVGID_4_);}
</style>
<defs>
</defs>
<g>
	<path d="M100.9,230.8c15.4,0,28-12.6,28-28c0-15.4-12.6-28-28-28c-15.4,0-28,12.6-28,28C72.9,218.2,85.5,230.8,100.9,230.8
		L100.9,230.8z M100.9,186.8c8.8,0,16,7.2,16,16c0,8.8-7.2,16-16,16c-8.8,0-16-7.2-16-16C84.9,194,92.1,186.8,100.9,186.8
		L100.9,186.8z M100.9,186.8"/>
	<path d="M275.1,174.8c-15.4,0-28,12.6-28,28c0,15.4,12.6,28,28,28c15.4,0,28-12.6,28-28C303.1,187.4,290.5,174.8,275.1,174.8
		L275.1,174.8z M275.1,218.8c-8.8,0-16-7.2-16-16c0-8.8,7.2-16,16-16c8.8,0,16,7.2,16,16C291.1,211.6,283.9,218.8,275.1,218.8
		L275.1,218.8z M275.1,218.8"/>
	<g>
		<defs>
			<rect id="SVGID_1_" width="375.8" height="263.8"/>
		</defs>
		<clipPath id="SVGID_2_">
			<use xlink:href="#SVGID_1_"  style="overflow:visible;"/>
		</clipPath>
		<path class="st0" d="M110,36.5h19c3.3,0,6-2.7,6-6c0-3.3-2.7-6-6-6h-19c-8.3,0-21.6,5.7-27.3,11.8L34.6,87.4
			c-1.6,1.7-2.1,4.3-1.1,6.5c0.9,2.2,3.1,3.6,5.5,3.6h232.2c2,0,4-1,5.1-2.8c1.1-1.7,1.2-3.9,0.4-5.8l-24.7-53.1
			c-2.7-5.6-11.7-11.4-17.9-11.4h-81c-3.3,0-6,2.7-6,6v55H52.8l38.6-41C94.8,40.9,105.1,36.5,110,36.5L110,36.5z M159,36.5h75
			c1.8,0.1,6.3,2.9,7.1,4.5l20.7,44.5H159V36.5z M159,36.5"/>
		<path class="st0" d="M376,149.8c0-21.3-16.4-44.1-36.7-50.9c0,0-28.1-9.4-28.1-9.4c-4.7-1.6-10.9-7.1-13-11.5l-24.7-52.4
			C267,11.5,249.6,0.5,234,0.5H110C95.1,0.5,75.4,9,65.2,19.8L9.9,78.6C4.3,84.5,0,95.4,0,103.5v75.3c0,16.5,13.5,30,30,30h11.2
			c3,30.3,28.6,54,59.7,54c31.1,0,56.7-23.7,59.7-54h36.4c3.3,0,6-2.7,6-6c0-3.3-2.7-6-6-6h-36.4c-3-30.3-28.6-54-59.7-54
			c-31.1,0-56.7,23.7-59.7,54H30c-9.9,0-18-8.1-18-18v-75.3c0-5,3.1-13,6.6-16.6l55.3-58.8c8-8.5,24.5-15.6,36.1-15.6h124
			c10.9,0,24.1,8.4,28.8,18.3l24.7,52.4c3.5,7.5,12.1,15.2,20,17.8l22.8,7.6c-0.4,2.3-0.6,4.6-0.6,6.9c0,20.2,14.9,37,34.3,39.9
			v23.5c0,9.9-6.7,18-14.9,18h-14.3c-3-30.3-28.6-54-59.7-54c-33.1,0-60,26.9-60,60c0,33.1,26.9,60,60,60c31.1,0,56.7-23.7,59.7-54
			h14.3c14.8,0,26.9-13.5,26.9-30V149.8z M100.9,154.8c26.5,0,48,21.5,48,48c0,26.5-21.5,48-48,48c-26.5,0-48-21.5-48-48
			C52.9,176.3,74.5,154.8,100.9,154.8L100.9,154.8z M275.1,250.8c-26.5,0-48-21.5-48-48c0-26.5,21.5-48,48-48c26.5,0,48,21.5,48,48
			C323.1,229.3,301.5,250.8,275.1,250.8L275.1,250.8z M341.7,115.5c0-0.8,0-1.5,0.1-2.3c10.5,6.1,19,17.9,21.5,29.8
			C350.9,140,341.7,128.8,341.7,115.5L341.7,115.5z M341.7,115.5"/>
	</g>
</g>
</svg>
